solid ascii
  facet normal 8.715419e-002 -0.000000e+000 9.961948e-001
    outer loop
      vertex   -9.764935e+000 1.266248e+001 8.009571e+000
      vertex   -9.764935e+000 1.366248e+001 8.009571e+000
      vertex   -9.851759e+000 1.266248e+001 8.017167e+000
    endloop
  endfacet
  facet normal 7.567329e-003 -0.000000e+000 8.649652e-002
    outer loop
      vertex   -9.851759e+000 1.266248e+001 8.017167e+000
      vertex   -9.764935e+000 1.366248e+001 8.009571e+000
      vertex   -9.851759e+000 1.366248e+001 8.017167e+000
    endloop
  endfacet
  facet normal -8.715514e-002 0.000000e+000 9.961948e-001
    outer loop
      vertex   -9.851759e+000 1.266248e+001 8.017167e+000
      vertex   -9.851759e+000 1.366248e+001 8.017167e+000
      vertex   -9.938582e+000 1.266248e+001 8.009571e+000
    endloop
  endfacet
  facet normal -7.567329e-003 0.000000e+000 8.649557e-002
    outer loop
      vertex   -9.938582e+000 1.266248e+001 8.009571e+000
      vertex   -9.851759e+000 1.366248e+001 8.017167e+000
      vertex   -9.938582e+000 1.366248e+001 8.009571e+000
    endloop
  endfacet
  facet normal -2.588141e-001 0.000000e+000 9.659271e-001
    outer loop
      vertex   -9.938582e+000 1.266248e+001 8.009571e+000
      vertex   -9.938582e+000 1.366248e+001 8.009571e+000
      vertex   -1.002277e+001 1.266248e+001 7.987014e+000
    endloop
  endfacet
  facet normal -2.247207e-002 0.000000e+000 8.386862e-002
    outer loop
      vertex   -1.002277e+001 1.266248e+001 7.987014e+000
      vertex   -9.938582e+000 1.366248e+001 8.009571e+000
      vertex   -1.002277e+001 1.366248e+001 7.987014e+000
    endloop
  endfacet
  facet normal -4.226195e-001 0.000000e+000 9.063072e-001
    outer loop
      vertex   -1.002277e+001 1.266248e+001 7.987014e+000
      vertex   -1.002277e+001 1.366248e+001 7.987014e+000
      vertex   -1.010176e+001 1.266248e+001 7.950180e+000
    endloop
  endfacet
  facet normal -3.669466e-002 0.000000e+000 7.869167e-002
    outer loop
      vertex   -1.010176e+001 1.266248e+001 7.950180e+000
      vertex   -1.002277e+001 1.366248e+001 7.987014e+000
      vertex   -1.010176e+001 1.366248e+001 7.950180e+000
    endloop
  endfacet
  facet normal -5.735769e-001 0.000000e+000 8.191517e-001
    outer loop
      vertex   -1.010176e+001 1.266248e+001 7.950180e+000
      vertex   -1.010176e+001 1.366248e+001 7.950180e+000
      vertex   -1.017315e+001 1.266248e+001 7.900189e+000
    endloop
  endfacet
  facet normal -4.980186e-002 0.000000e+000 7.112435e-002
    outer loop
      vertex   -1.017315e+001 1.266248e+001 7.900189e+000
      vertex   -1.010176e+001 1.366248e+001 7.950180e+000
      vertex   -1.017315e+001 1.366248e+001 7.900189e+000
    endloop
  endfacet
  facet normal -7.071068e-001 0.000000e+000 7.071068e-001
    outer loop
      vertex   -1.017315e+001 1.266248e+001 7.900189e+000
      vertex   -1.017315e+001 1.366248e+001 7.900189e+000
      vertex   -1.023478e+001 1.266248e+001 7.838561e+000
    endloop
  endfacet
  facet normal -6.139560e-002 0.000000e+000 6.139560e-002
    outer loop
      vertex   -1.023478e+001 1.266248e+001 7.838561e+000
      vertex   -1.017315e+001 1.366248e+001 7.900189e+000
      vertex   -1.023478e+001 1.366248e+001 7.838561e+000
    endloop
  endfacet
  facet normal -8.191499e-001 0.000000e+000 5.735795e-001
    outer loop
      vertex   -1.023478e+001 1.266248e+001 7.838561e+000
      vertex   -1.023478e+001 1.366248e+001 7.838561e+000
      vertex   -1.028477e+001 1.266248e+001 7.767168e+000
    endloop
  endfacet
  facet normal -7.112387e-002 0.000000e+000 4.980186e-002
    outer loop
      vertex   -1.028477e+001 1.266248e+001 7.767168e+000
      vertex   -1.023478e+001 1.366248e+001 7.838561e+000
      vertex   -1.028477e+001 1.366248e+001 7.767168e+000
    endloop
  endfacet
  facet normal -9.063114e-001 0.000000e+000 4.226105e-001
    outer loop
      vertex   -1.028477e+001 1.266248e+001 7.767168e+000
      vertex   -1.028477e+001 1.366248e+001 7.767168e+000
      vertex   -1.032160e+001 1.266248e+001 7.688178e+000
    endloop
  endfacet
  facet normal -7.869168e-002 0.000000e+000 3.669371e-002
    outer loop
      vertex   -1.032160e+001 1.266248e+001 7.688178e+000
      vertex   -1.028477e+001 1.366248e+001 7.767168e+000
      vertex   -1.032160e+001 1.366248e+001 7.688178e+000
    endloop
  endfacet
  facet normal -9.659240e-001 0.000000e+000 2.588257e-001
    outer loop
      vertex   -1.032160e+001 1.266248e+001 7.688178e+000
      vertex   -1.032160e+001 1.366248e+001 7.688178e+000
      vertex   -1.034416e+001 1.266248e+001 7.603992e+000
    endloop
  endfacet
  facet normal -8.386814e-002 0.000000e+000 2.247302e-002
    outer loop
      vertex   -1.034416e+001 1.266248e+001 7.603992e+000
      vertex   -1.032160e+001 1.366248e+001 7.688178e+000
      vertex   -1.034416e+001 1.366248e+001 7.603992e+000
    endloop
  endfacet
  facet normal -9.961948e-001 0.000000e+000 8.715466e-002
    outer loop
      vertex   -1.034416e+001 1.266248e+001 7.603992e+000
      vertex   -1.034416e+001 1.366248e+001 7.603992e+000
      vertex   -1.035176e+001 1.266248e+001 7.517168e+000
    endloop
  endfacet
  facet normal -8.649605e-002 0.000000e+000 7.567329e-003
    outer loop
      vertex   -1.035176e+001 1.266248e+001 7.517168e+000
      vertex   -1.034416e+001 1.366248e+001 7.603992e+000
      vertex   -1.035176e+001 1.366248e+001 7.517168e+000
    endloop
  endfacet
  facet normal -9.961948e-001 0.000000e+000 -8.715419e-002
    outer loop
      vertex   -1.035176e+001 1.266248e+001 7.517168e+000
      vertex   -1.035176e+001 1.366248e+001 7.517168e+000
      vertex   -1.034416e+001 1.266248e+001 7.430343e+000
    endloop
  endfacet
  facet normal -8.649652e-002 0.000000e+000 -7.567329e-003
    outer loop
      vertex   -1.034416e+001 1.266248e+001 7.430343e+000
      vertex   -1.035176e+001 1.366248e+001 7.517168e+000
      vertex   -1.034416e+001 1.366248e+001 7.430343e+000
    endloop
  endfacet
  facet normal -9.659237e-001 0.000000e+000 -2.588271e-001
    outer loop
      vertex   -1.034416e+001 1.266248e+001 7.430343e+000
      vertex   -1.034416e+001 1.366248e+001 7.430343e+000
      vertex   -1.032160e+001 1.266248e+001 7.346158e+000
    endloop
  endfacet
  facet normal -8.386767e-002 0.000000e+000 -2.247302e-002
    outer loop
      vertex   -1.032160e+001 1.266248e+001 7.346158e+000
      vertex   -1.034416e+001 1.366248e+001 7.430343e+000
      vertex   -1.032160e+001 1.366248e+001 7.346158e+000
    endloop
  endfacet
  facet normal -9.063114e-001 0.000000e+000 -4.226105e-001
    outer loop
      vertex   -1.032160e+001 1.266248e+001 7.346158e+000
      vertex   -1.032160e+001 1.366248e+001 7.346158e+000
      vertex   -1.028477e+001 1.266248e+001 7.267168e+000
    endloop
  endfacet
  facet normal -7.869168e-002 0.000000e+000 -3.669371e-002
    outer loop
      vertex   -1.028477e+001 1.266248e+001 7.267168e+000
      vertex   -1.032160e+001 1.366248e+001 7.346158e+000
      vertex   -1.028477e+001 1.366248e+001 7.267168e+000
    endloop
  endfacet
  facet normal -8.191517e-001 0.000000e+000 -5.735769e-001
    outer loop
      vertex   -1.028477e+001 1.266248e+001 7.267168e+000
      vertex   -1.028477e+001 1.366248e+001 7.267168e+000
      vertex   -1.023478e+001 1.266248e+001 7.195774e+000
    endloop
  endfacet
  facet normal -7.112435e-002 0.000000e+000 -4.980186e-002
    outer loop
      vertex   -1.023478e+001 1.266248e+001 7.195774e+000
      vertex   -1.028477e+001 1.366248e+001 7.267168e+000
      vertex   -1.023478e+001 1.366248e+001 7.195774e+000
    endloop
  endfacet
  facet normal -7.071068e-001 0.000000e+000 -7.071068e-001
    outer loop
      vertex   -1.023478e+001 1.266248e+001 7.195774e+000
      vertex   -1.023478e+001 1.366248e+001 7.195774e+000
      vertex   -1.017315e+001 1.266248e+001 7.134145e+000
    endloop
  endfacet
  facet normal -6.139560e-002 0.000000e+000 -6.139560e-002
    outer loop
      vertex   -1.017315e+001 1.266248e+001 7.134145e+000
      vertex   -1.023478e+001 1.366248e+001 7.195774e+000
      vertex   -1.017315e+001 1.366248e+001 7.134145e+000
    endloop
  endfacet
  facet normal -5.735769e-001 0.000000e+000 -8.191517e-001
    outer loop
      vertex   -1.017315e+001 1.266248e+001 7.134145e+000
      vertex   -1.017315e+001 1.366248e+001 7.134145e+000
      vertex   -1.010176e+001 1.266248e+001 7.084155e+000
    endloop
  endfacet
  facet normal -4.980186e-002 0.000000e+000 -7.112435e-002
    outer loop
      vertex   -1.010176e+001 1.266248e+001 7.084155e+000
      vertex   -1.017315e+001 1.366248e+001 7.134145e+000
      vertex   -1.010176e+001 1.366248e+001 7.084155e+000
    endloop
  endfacet
  facet normal -4.226150e-001 0.000000e+000 -9.063093e-001
    outer loop
      vertex   -1.010176e+001 1.266248e+001 7.084155e+000
      vertex   -1.010176e+001 1.366248e+001 7.084155e+000
      vertex   -1.002277e+001 1.266248e+001 7.047321e+000
    endloop
  endfacet
  facet normal -3.669418e-002 0.000000e+000 -7.869168e-002
    outer loop
      vertex   -1.002277e+001 1.266248e+001 7.047321e+000
      vertex   -1.010176e+001 1.366248e+001 7.084155e+000
      vertex   -1.002277e+001 1.366248e+001 7.047321e+000
    endloop
  endfacet
  facet normal -2.588192e-001 0.000000e+000 -9.659258e-001
    outer loop
      vertex   -1.002277e+001 1.266248e+001 7.047321e+000
      vertex   -1.002277e+001 1.366248e+001 7.047321e+000
      vertex   -9.938582e+000 1.266248e+001 7.024764e+000
    endloop
  endfacet
  facet normal -2.247254e-002 0.000000e+000 -8.386862e-002
    outer loop
      vertex   -9.938582e+000 1.266248e+001 7.024764e+000
      vertex   -1.002277e+001 1.366248e+001 7.047321e+000
      vertex   -9.938582e+000 1.366248e+001 7.024764e+000
    endloop
  endfacet
  facet normal -8.715514e-002 0.000000e+000 -9.961948e-001
    outer loop
      vertex   -9.938582e+000 1.266248e+001 7.024764e+000
      vertex   -9.938582e+000 1.366248e+001 7.024764e+000
      vertex   -9.851759e+000 1.266248e+001 7.017168e+000
    endloop
  endfacet
  facet normal -7.567329e-003 0.000000e+000 -8.649557e-002
    outer loop
      vertex   -9.851759e+000 1.266248e+001 7.017168e+000
      vertex   -9.938582e+000 1.366248e+001 7.024764e+000
      vertex   -9.851759e+000 1.366248e+001 7.017168e+000
    endloop
  endfacet
  facet normal 8.715419e-002 0.000000e+000 -9.961948e-001
    outer loop
      vertex   -9.851759e+000 1.266248e+001 7.017168e+000
      vertex   -9.851759e+000 1.366248e+001 7.017168e+000
      vertex   -9.764935e+000 1.266248e+001 7.024764e+000
    endloop
  endfacet
  facet normal 7.567329e-003 0.000000e+000 -8.649652e-002
    outer loop
      vertex   -9.764935e+000 1.266248e+001 7.024764e+000
      vertex   -9.851759e+000 1.366248e+001 7.017168e+000
      vertex   -9.764935e+000 1.366248e+001 7.024764e+000
    endloop
  endfacet
  facet normal 2.588220e-001 0.000000e+000 -9.659250e-001
    outer loop
      vertex   -9.764935e+000 1.266248e+001 7.024764e+000
      vertex   -9.764935e+000 1.366248e+001 7.024764e+000
      vertex   -9.680749e+000 1.266248e+001 7.047321e+000
    endloop
  endfacet
  facet normal 2.247255e-002 0.000000e+000 -8.386767e-002
    outer loop
      vertex   -9.680749e+000 1.266248e+001 7.047321e+000
      vertex   -9.764935e+000 1.366248e+001 7.024764e+000
      vertex   -9.680749e+000 1.366248e+001 7.047321e+000
    endloop
  endfacet
  facet normal 4.226150e-001 0.000000e+000 -9.063093e-001
    outer loop
      vertex   -9.680749e+000 1.266248e+001 7.047321e+000
      vertex   -9.680749e+000 1.366248e+001 7.047321e+000
      vertex   -9.601759e+000 1.266248e+001 7.084155e+000
    endloop
  endfacet
  facet normal 3.669418e-002 0.000000e+000 -7.869168e-002
    outer loop
      vertex   -9.601759e+000 1.266248e+001 7.084155e+000
      vertex   -9.680749e+000 1.366248e+001 7.047321e+000
      vertex   -9.601759e+000 1.366248e+001 7.084155e+000
    endloop
  endfacet
  facet normal 5.735769e-001 0.000000e+000 -8.191517e-001
    outer loop
      vertex   -9.601759e+000 1.266248e+001 7.084155e+000
      vertex   -9.601759e+000 1.366248e+001 7.084155e+000
      vertex   -9.530365e+000 1.266248e+001 7.134145e+000
    endloop
  endfacet
  facet normal 4.980186e-002 0.000000e+000 -7.112435e-002
    outer loop
      vertex   -9.530365e+000 1.266248e+001 7.134145e+000
      vertex   -9.601759e+000 1.366248e+001 7.084155e+000
      vertex   -9.530365e+000 1.366248e+001 7.134145e+000
    endloop
  endfacet
  facet normal 7.071068e-001 0.000000e+000 -7.071068e-001
    outer loop
      vertex   -9.530365e+000 1.266248e+001 7.134145e+000
      vertex   -9.530365e+000 1.366248e+001 7.134145e+000
      vertex   -9.468737e+000 1.266248e+001 7.195774e+000
    endloop
  endfacet
  facet normal 6.139560e-002 0.000000e+000 -6.139560e-002
    outer loop
      vertex   -9.468737e+000 1.266248e+001 7.195774e+000
      vertex   -9.530365e+000 1.366248e+001 7.134145e+000
      vertex   -9.468737e+000 1.366248e+001 7.195774e+000
    endloop
  endfacet
  facet normal 8.191517e-001 0.000000e+000 -5.735769e-001
    outer loop
      vertex   -9.468737e+000 1.266248e+001 7.195774e+000
      vertex   -9.468737e+000 1.366248e+001 7.195774e+000
      vertex   -9.418746e+000 1.266248e+001 7.267168e+000
    endloop
  endfacet
  facet normal 7.112435e-002 0.000000e+000 -4.980186e-002
    outer loop
      vertex   -9.418746e+000 1.266248e+001 7.267168e+000
      vertex   -9.468737e+000 1.366248e+001 7.195774e+000
      vertex   -9.418746e+000 1.366248e+001 7.267168e+000
    endloop
  endfacet
  facet normal 9.063072e-001 0.000000e+000 -4.226195e-001
    outer loop
      vertex   -9.418746e+000 1.266248e+001 7.267168e+000
      vertex   -9.418746e+000 1.366248e+001 7.267168e+000
      vertex   -9.381912e+000 1.266248e+001 7.346158e+000
    endloop
  endfacet
  facet normal 7.869167e-002 0.000000e+000 -3.669466e-002
    outer loop
      vertex   -9.381912e+000 1.266248e+001 7.346158e+000
      vertex   -9.418746e+000 1.366248e+001 7.267168e+000
      vertex   -9.381912e+000 1.366248e+001 7.346158e+000
    endloop
  endfacet
  facet normal 9.659264e-001 0.000000e+000 -2.588168e-001
    outer loop
      vertex   -9.381912e+000 1.266248e+001 7.346158e+000
      vertex   -9.381912e+000 1.366248e+001 7.346158e+000
      vertex   -9.359355e+000 1.266248e+001 7.430343e+000
    endloop
  endfacet
  facet normal 8.386767e-002 0.000000e+000 -2.247207e-002
    outer loop
      vertex   -9.359355e+000 1.266248e+001 7.430343e+000
      vertex   -9.381912e+000 1.366248e+001 7.346158e+000
      vertex   -9.359355e+000 1.366248e+001 7.430343e+000
    endloop
  endfacet
  facet normal 9.961948e-001 0.000000e+000 -8.715419e-002
    outer loop
      vertex   -9.359355e+000 1.266248e+001 7.430343e+000
      vertex   -9.359355e+000 1.366248e+001 7.430343e+000
      vertex   -9.351759e+000 1.266248e+001 7.517168e+000
    endloop
  endfacet
  facet normal 8.649652e-002 0.000000e+000 -7.567329e-003
    outer loop
      vertex   -9.351759e+000 1.266248e+001 7.517168e+000
      vertex   -9.359355e+000 1.366248e+001 7.430343e+000
      vertex   -9.351759e+000 1.366248e+001 7.517168e+000
    endloop
  endfacet
  facet normal 9.961948e-001 -0.000000e+000 8.715466e-002
    outer loop
      vertex   -9.351759e+000 1.266248e+001 7.517168e+000
      vertex   -9.351759e+000 1.366248e+001 7.517168e+000
      vertex   -9.359355e+000 1.266248e+001 7.603992e+000
    endloop
  endfacet
  facet normal 8.649605e-002 -0.000000e+000 7.567329e-003
    outer loop
      vertex   -9.359355e+000 1.266248e+001 7.603992e+000
      vertex   -9.351759e+000 1.366248e+001 7.517168e+000
      vertex   -9.359355e+000 1.366248e+001 7.603992e+000
    endloop
  endfacet
  facet normal 9.659268e-001 -0.000000e+000 2.588155e-001
    outer loop
      vertex   -9.359355e+000 1.266248e+001 7.603992e+000
      vertex   -9.359355e+000 1.366248e+001 7.603992e+000
      vertex   -9.381912e+000 1.266248e+001 7.688178e+000
    endloop
  endfacet
  facet normal 8.386815e-002 -0.000000e+000 2.247207e-002
    outer loop
      vertex   -9.381912e+000 1.266248e+001 7.688178e+000
      vertex   -9.359355e+000 1.366248e+001 7.603992e+000
      vertex   -9.381912e+000 1.366248e+001 7.688178e+000
    endloop
  endfacet
  facet normal 9.063072e-001 -0.000000e+000 4.226195e-001
    outer loop
      vertex   -9.381912e+000 1.266248e+001 7.688178e+000
      vertex   -9.381912e+000 1.366248e+001 7.688178e+000
      vertex   -9.418746e+000 1.266248e+001 7.767168e+000
    endloop
  endfacet
  facet normal 7.869167e-002 -0.000000e+000 3.669466e-002
    outer loop
      vertex   -9.418746e+000 1.266248e+001 7.767168e+000
      vertex   -9.381912e+000 1.366248e+001 7.688178e+000
      vertex   -9.418746e+000 1.366248e+001 7.767168e+000
    endloop
  endfacet
  facet normal 8.191499e-001 -0.000000e+000 5.735795e-001
    outer loop
      vertex   -9.418746e+000 1.266248e+001 7.767168e+000
      vertex   -9.418746e+000 1.366248e+001 7.767168e+000
      vertex   -9.468737e+000 1.266248e+001 7.838561e+000
    endloop
  endfacet
  facet normal 7.112387e-002 -0.000000e+000 4.980186e-002
    outer loop
      vertex   -9.468737e+000 1.266248e+001 7.838561e+000
      vertex   -9.418746e+000 1.366248e+001 7.767168e+000
      vertex   -9.468737e+000 1.366248e+001 7.838561e+000
    endloop
  endfacet
  facet normal 7.071068e-001 -0.000000e+000 7.071068e-001
    outer loop
      vertex   -9.468737e+000 1.266248e+001 7.838561e+000
      vertex   -9.468737e+000 1.366248e+001 7.838561e+000
      vertex   -9.530365e+000 1.266248e+001 7.900189e+000
    endloop
  endfacet
  facet normal 6.139560e-002 -0.000000e+000 6.139560e-002
    outer loop
      vertex   -9.530365e+000 1.266248e+001 7.900189e+000
      vertex   -9.468737e+000 1.366248e+001 7.838561e+000
      vertex   -9.530365e+000 1.366248e+001 7.900189e+000
    endloop
  endfacet
  facet normal 5.735769e-001 -0.000000e+000 8.191517e-001
    outer loop
      vertex   -9.530365e+000 1.266248e+001 7.900189e+000
      vertex   -9.530365e+000 1.366248e+001 7.900189e+000
      vertex   -9.601759e+000 1.266248e+001 7.950180e+000
    endloop
  endfacet
  facet normal 4.980186e-002 -0.000000e+000 7.112435e-002
    outer loop
      vertex   -9.601759e+000 1.266248e+001 7.950180e+000
      vertex   -9.530365e+000 1.366248e+001 7.900189e+000
      vertex   -9.601759e+000 1.366248e+001 7.950180e+000
    endloop
  endfacet
  facet normal 4.226195e-001 -0.000000e+000 9.063072e-001
    outer loop
      vertex   -9.601759e+000 1.266248e+001 7.950180e+000
      vertex   -9.601759e+000 1.366248e+001 7.950180e+000
      vertex   -9.680749e+000 1.266248e+001 7.987014e+000
    endloop
  endfacet
  facet normal 3.669466e-002 -0.000000e+000 7.869167e-002
    outer loop
      vertex   -9.680749e+000 1.266248e+001 7.987014e+000
      vertex   -9.601759e+000 1.366248e+001 7.950180e+000
      vertex   -9.680749e+000 1.366248e+001 7.987014e+000
    endloop
  endfacet
  facet normal 2.588168e-001 -0.000000e+000 9.659264e-001
    outer loop
      vertex   -9.680749e+000 1.266248e+001 7.987014e+000
      vertex   -9.680749e+000 1.366248e+001 7.987014e+000
      vertex   -9.764935e+000 1.266248e+001 8.009571e+000
    endloop
  endfacet
  facet normal 2.247207e-002 -0.000000e+000 8.386767e-002
    outer loop
      vertex   -9.764935e+000 1.266248e+001 8.009571e+000
      vertex   -9.680749e+000 1.366248e+001 7.987014e+000
      vertex   -9.764935e+000 1.366248e+001 8.009571e+000
    endloop
  endfacet
  facet normal 0.000000e+000 -9.961948e-001 0.000000e+000
    outer loop
      vertex   -9.938582e+000 1.266248e+001 8.009571e+000
      vertex   -9.938582e+000 1.266248e+001 7.024764e+000
      vertex   -9.851759e+000 1.266248e+001 8.017167e+000
    endloop
  endfacet
  facet normal 0.000000e+000 -8.715515e-002 -0.000000e+000
    outer loop
      vertex   -9.851759e+000 1.266248e+001 8.017167e+000
      vertex   -9.938582e+000 1.266248e+001 7.024764e+000
      vertex   -9.851759e+000 1.266248e+001 7.017168e+000
    endloop
  endfacet
  facet normal 0.000000e+000 -9.961948e-001 0.000000e+000
    outer loop
      vertex   -9.851759e+000 1.266248e+001 8.017167e+000
      vertex   -9.851759e+000 1.266248e+001 7.017168e+000
      vertex   -9.764935e+000 1.266248e+001 8.009571e+000
    endloop
  endfacet
  facet normal 0.000000e+000 -8.715610e-002 -0.000000e+000
    outer loop
      vertex   -9.764935e+000 1.266248e+001 8.009571e+000
      vertex   -9.851759e+000 1.266248e+001 7.017168e+000
      vertex   -9.764935e+000 1.266248e+001 7.024764e+000
    endloop
  endfacet
  facet normal 0.000000e+000 -9.659264e-001 0.000000e+000
    outer loop
      vertex   -9.764935e+000 1.266248e+001 8.009571e+000
      vertex   -9.764935e+000 1.266248e+001 7.024764e+000
      vertex   -9.680749e+000 1.266248e+001 7.987014e+000
    endloop
  endfacet
  facet normal 0.000000e+000 -8.715534e-002 -0.000000e+000
    outer loop
      vertex   -9.680749e+000 1.266248e+001 7.987014e+000
      vertex   -9.764935e+000 1.266248e+001 7.024764e+000
      vertex   -9.680749e+000 1.266248e+001 7.047321e+000
    endloop
  endfacet
  facet normal 0.000000e+000 -9.063072e-001 0.000000e+000
    outer loop
      vertex   -9.680749e+000 1.266248e+001 7.987014e+000
      vertex   -9.680749e+000 1.266248e+001 7.047321e+000
      vertex   -9.601759e+000 1.266248e+001 7.950180e+000
    endloop
  endfacet
  facet normal 0.000000e+000 -8.715583e-002 -0.000000e+000
    outer loop
      vertex   -9.601759e+000 1.266248e+001 7.950180e+000
      vertex   -9.680749e+000 1.266248e+001 7.047321e+000
      vertex   -9.601759e+000 1.266248e+001 7.084155e+000
    endloop
  endfacet
  facet normal 0.000000e+000 -8.191517e-001 0.000000e+000
    outer loop
      vertex   -9.601759e+000 1.266248e+001 7.950180e+000
      vertex   -9.601759e+000 1.266248e+001 7.084155e+000
      vertex   -9.530365e+000 1.266248e+001 7.900189e+000
    endloop
  endfacet
  facet normal 0.000000e+000 -8.715595e-002 -0.000000e+000
    outer loop
      vertex   -9.530365e+000 1.266248e+001 7.900189e+000
      vertex   -9.601759e+000 1.266248e+001 7.084155e+000
      vertex   -9.530365e+000 1.266248e+001 7.134145e+000
    endloop
  endfacet
  facet normal 0.000000e+000 -7.071068e-001 0.000000e+000
    outer loop
      vertex   -9.530365e+000 1.266248e+001 7.900189e+000
      vertex   -9.530365e+000 1.266248e+001 7.134145e+000
      vertex   -9.468737e+000 1.266248e+001 7.838561e+000
    endloop
  endfacet
  facet normal 0.000000e+000 -8.715566e-002 -0.000000e+000
    outer loop
      vertex   -9.468737e+000 1.266248e+001 7.838561e+000
      vertex   -9.530365e+000 1.266248e+001 7.134145e+000
      vertex   -9.468737e+000 1.266248e+001 7.195774e+000
    endloop
  endfacet
  facet normal 0.000000e+000 -5.735795e-001 0.000000e+000
    outer loop
      vertex   -9.468737e+000 1.266248e+001 7.838561e+000
      vertex   -9.468737e+000 1.266248e+001 7.195774e+000
      vertex   -9.418746e+000 1.266248e+001 7.767168e+000
    endloop
  endfacet
  facet normal 0.000000e+000 -8.715602e-002 -0.000000e+000
    outer loop
      vertex   -9.418746e+000 1.266248e+001 7.767168e+000
      vertex   -9.468737e+000 1.266248e+001 7.195774e+000
      vertex   -9.418746e+000 1.266248e+001 7.267168e+000
    endloop
  endfacet
  facet normal 0.000000e+000 -4.226195e-001 0.000000e+000
    outer loop
      vertex   -9.418746e+000 1.266248e+001 7.767168e+000
      vertex   -9.418746e+000 1.266248e+001 7.267168e+000
      vertex   -9.381912e+000 1.266248e+001 7.688178e+000
    endloop
  endfacet
  facet normal 0.000000e+000 -8.715612e-002 -0.000000e+000
    outer loop
      vertex   -9.381912e+000 1.266248e+001 7.688178e+000
      vertex   -9.418746e+000 1.266248e+001 7.267168e+000
      vertex   -9.381912e+000 1.266248e+001 7.346158e+000
    endloop
  endfacet
  facet normal 0.000000e+000 -2.588155e-001 0.000000e+000
    outer loop
      vertex   -9.381912e+000 1.266248e+001 7.688178e+000
      vertex   -9.381912e+000 1.266248e+001 7.346158e+000
      vertex   -9.359355e+000 1.266248e+001 7.603992e+000
    endloop
  endfacet
  facet normal 0.000000e+000 -8.715463e-002 -0.000000e+000
    outer loop
      vertex   -9.359355e+000 1.266248e+001 7.603992e+000
      vertex   -9.381912e+000 1.266248e+001 7.346158e+000
      vertex   -9.359355e+000 1.266248e+001 7.430343e+000
    endloop
  endfacet
  facet normal 0.000000e+000 -8.715466e-002 0.000000e+000
    outer loop
      vertex   -9.359355e+000 1.266248e+001 7.603992e+000
      vertex   -9.359355e+000 1.266248e+001 7.430343e+000
      vertex   -9.351759e+000 1.266248e+001 7.517168e+000
    endloop
  endfacet
  facet normal 0.000000e+000 -9.659258e-001 0.000000e+000
    outer loop
      vertex   -9.938582e+000 1.266248e+001 7.024764e+000
      vertex   -9.938582e+000 1.266248e+001 8.009571e+000
      vertex   -1.002277e+001 1.266248e+001 7.047321e+000
    endloop
  endfacet
  facet normal 0.000000e+000 -8.715637e-002 0.000000e+000
    outer loop
      vertex   -1.002277e+001 1.266248e+001 7.047321e+000
      vertex   -9.938582e+000 1.266248e+001 8.009571e+000
      vertex   -1.002277e+001 1.266248e+001 7.987014e+000
    endloop
  endfacet
  facet normal 0.000000e+000 -9.063093e-001 0.000000e+000
    outer loop
      vertex   -1.002277e+001 1.266248e+001 7.047321e+000
      vertex   -1.002277e+001 1.266248e+001 7.987014e+000
      vertex   -1.010176e+001 1.266248e+001 7.084155e+000
    endloop
  endfacet
  facet normal 0.000000e+000 -8.715578e-002 0.000000e+000
    outer loop
      vertex   -1.010176e+001 1.266248e+001 7.084155e+000
      vertex   -1.002277e+001 1.266248e+001 7.987014e+000
      vertex   -1.010176e+001 1.266248e+001 7.950180e+000
    endloop
  endfacet
  facet normal 0.000000e+000 -8.191517e-001 0.000000e+000
    outer loop
      vertex   -1.010176e+001 1.266248e+001 7.084155e+000
      vertex   -1.010176e+001 1.266248e+001 7.950180e+000
      vertex   -1.017315e+001 1.266248e+001 7.134145e+000
    endloop
  endfacet
  facet normal 0.000000e+000 -8.715595e-002 0.000000e+000
    outer loop
      vertex   -1.017315e+001 1.266248e+001 7.134145e+000
      vertex   -1.010176e+001 1.266248e+001 7.950180e+000
      vertex   -1.017315e+001 1.266248e+001 7.900189e+000
    endloop
  endfacet
  facet normal 0.000000e+000 -7.071068e-001 0.000000e+000
    outer loop
      vertex   -1.017315e+001 1.266248e+001 7.134145e+000
      vertex   -1.017315e+001 1.266248e+001 7.900189e+000
      vertex   -1.023478e+001 1.266248e+001 7.195774e+000
    endloop
  endfacet
  facet normal 0.000000e+000 -8.715566e-002 0.000000e+000
    outer loop
      vertex   -1.023478e+001 1.266248e+001 7.195774e+000
      vertex   -1.017315e+001 1.266248e+001 7.900189e+000
      vertex   -1.023478e+001 1.266248e+001 7.838561e+000
    endloop
  endfacet
  facet normal 0.000000e+000 -5.735769e-001 0.000000e+000
    outer loop
      vertex   -1.023478e+001 1.266248e+001 7.195774e+000
      vertex   -1.023478e+001 1.266248e+001 7.838561e+000
      vertex   -1.028477e+001 1.266248e+001 7.267168e+000
    endloop
  endfacet
  facet normal 0.000000e+000 -8.715609e-002 0.000000e+000
    outer loop
      vertex   -1.028477e+001 1.266248e+001 7.267168e+000
      vertex   -1.023478e+001 1.266248e+001 7.838561e+000
      vertex   -1.028477e+001 1.266248e+001 7.767168e+000
    endloop
  endfacet
  facet normal 0.000000e+000 -4.226105e-001 0.000000e+000
    outer loop
      vertex   -1.028477e+001 1.266248e+001 7.267168e+000
      vertex   -1.028477e+001 1.266248e+001 7.767168e+000
      vertex   -1.032160e+001 1.266248e+001 7.346158e+000
    endloop
  endfacet
  facet normal 0.000000e+000 -8.715387e-002 0.000000e+000
    outer loop
      vertex   -1.032160e+001 1.266248e+001 7.346158e+000
      vertex   -1.028477e+001 1.266248e+001 7.767168e+000
      vertex   -1.032160e+001 1.266248e+001 7.688178e+000
    endloop
  endfacet
  facet normal 0.000000e+000 -2.588271e-001 0.000000e+000
    outer loop
      vertex   -1.032160e+001 1.266248e+001 7.346158e+000
      vertex   -1.032160e+001 1.266248e+001 7.688178e+000
      vertex   -1.034416e+001 1.266248e+001 7.430343e+000
    endloop
  endfacet
  facet normal 0.000000e+000 -8.715813e-002 0.000000e+000
    outer loop
      vertex   -1.034416e+001 1.266248e+001 7.430343e+000
      vertex   -1.032160e+001 1.266248e+001 7.688178e+000
      vertex   -1.034416e+001 1.266248e+001 7.603992e+000
    endloop
  endfacet
  facet normal 0.000000e+000 -8.715419e-002 0.000000e+000
    outer loop
      vertex   -1.034416e+001 1.266248e+001 7.430343e+000
      vertex   -1.034416e+001 1.266248e+001 7.603992e+000
      vertex   -1.035176e+001 1.266248e+001 7.517168e+000
    endloop
  endfacet
  facet normal 0.000000e+000 9.961948e-001 0.000000e+000
    outer loop
      vertex   -9.764935e+000 1.366248e+001 8.009571e+000
      vertex   -9.764935e+000 1.366248e+001 7.024764e+000
      vertex   -9.851759e+000 1.366248e+001 8.017167e+000
    endloop
  endfacet
  facet normal 0.000000e+000 8.715610e-002 0.000000e+000
    outer loop
      vertex   -9.851759e+000 1.366248e+001 8.017167e+000
      vertex   -9.764935e+000 1.366248e+001 7.024764e+000
      vertex   -9.851759e+000 1.366248e+001 7.017168e+000
    endloop
  endfacet
  facet normal 0.000000e+000 9.961948e-001 0.000000e+000
    outer loop
      vertex   -9.851759e+000 1.366248e+001 8.017167e+000
      vertex   -9.851759e+000 1.366248e+001 7.017168e+000
      vertex   -9.938582e+000 1.366248e+001 8.009571e+000
    endloop
  endfacet
  facet normal 0.000000e+000 8.715515e-002 0.000000e+000
    outer loop
      vertex   -9.938582e+000 1.366248e+001 8.009571e+000
      vertex   -9.851759e+000 1.366248e+001 7.017168e+000
      vertex   -9.938582e+000 1.366248e+001 7.024764e+000
    endloop
  endfacet
  facet normal 0.000000e+000 9.659271e-001 0.000000e+000
    outer loop
      vertex   -9.938582e+000 1.366248e+001 8.009571e+000
      vertex   -9.938582e+000 1.366248e+001 7.024764e+000
      vertex   -1.002277e+001 1.366248e+001 7.987014e+000
    endloop
  endfacet
  facet normal 0.000000e+000 8.715633e-002 0.000000e+000
    outer loop
      vertex   -1.002277e+001 1.366248e+001 7.987014e+000
      vertex   -9.938582e+000 1.366248e+001 7.024764e+000
      vertex   -1.002277e+001 1.366248e+001 7.047321e+000
    endloop
  endfacet
  facet normal 0.000000e+000 9.063072e-001 0.000000e+000
    outer loop
      vertex   -1.002277e+001 1.366248e+001 7.987014e+000
      vertex   -1.002277e+001 1.366248e+001 7.047321e+000
      vertex   -1.010176e+001 1.366248e+001 7.950180e+000
    endloop
  endfacet
  facet normal 0.000000e+000 8.715583e-002 0.000000e+000
    outer loop
      vertex   -1.010176e+001 1.366248e+001 7.950180e+000
      vertex   -1.002277e+001 1.366248e+001 7.047321e+000
      vertex   -1.010176e+001 1.366248e+001 7.084155e+000
    endloop
  endfacet
  facet normal 0.000000e+000 8.191517e-001 0.000000e+000
    outer loop
      vertex   -1.010176e+001 1.366248e+001 7.950180e+000
      vertex   -1.010176e+001 1.366248e+001 7.084155e+000
      vertex   -1.017315e+001 1.366248e+001 7.900189e+000
    endloop
  endfacet
  facet normal 0.000000e+000 8.715595e-002 0.000000e+000
    outer loop
      vertex   -1.017315e+001 1.366248e+001 7.900189e+000
      vertex   -1.010176e+001 1.366248e+001 7.084155e+000
      vertex   -1.017315e+001 1.366248e+001 7.134145e+000
    endloop
  endfacet
  facet normal 0.000000e+000 7.071068e-001 0.000000e+000
    outer loop
      vertex   -1.017315e+001 1.366248e+001 7.900189e+000
      vertex   -1.017315e+001 1.366248e+001 7.134145e+000
      vertex   -1.023478e+001 1.366248e+001 7.838561e+000
    endloop
  endfacet
  facet normal 0.000000e+000 8.715566e-002 0.000000e+000
    outer loop
      vertex   -1.023478e+001 1.366248e+001 7.838561e+000
      vertex   -1.017315e+001 1.366248e+001 7.134145e+000
      vertex   -1.023478e+001 1.366248e+001 7.195774e+000
    endloop
  endfacet
  facet normal 0.000000e+000 5.735795e-001 0.000000e+000
    outer loop
      vertex   -1.023478e+001 1.366248e+001 7.838561e+000
      vertex   -1.023478e+001 1.366248e+001 7.195774e+000
      vertex   -1.028477e+001 1.366248e+001 7.767168e+000
    endloop
  endfacet
  facet normal 0.000000e+000 8.715602e-002 0.000000e+000
    outer loop
      vertex   -1.028477e+001 1.366248e+001 7.767168e+000
      vertex   -1.023478e+001 1.366248e+001 7.195774e+000
      vertex   -1.028477e+001 1.366248e+001 7.267168e+000
    endloop
  endfacet
  facet normal 0.000000e+000 4.226105e-001 0.000000e+000
    outer loop
      vertex   -1.028477e+001 1.366248e+001 7.767168e+000
      vertex   -1.028477e+001 1.366248e+001 7.267168e+000
      vertex   -1.032160e+001 1.366248e+001 7.688178e+000
    endloop
  endfacet
  facet normal 0.000000e+000 8.715387e-002 0.000000e+000
    outer loop
      vertex   -1.032160e+001 1.366248e+001 7.688178e+000
      vertex   -1.028477e+001 1.366248e+001 7.267168e+000
      vertex   -1.032160e+001 1.366248e+001 7.346158e+000
    endloop
  endfacet
  facet normal 0.000000e+000 2.588257e-001 0.000000e+000
    outer loop
      vertex   -1.032160e+001 1.366248e+001 7.688178e+000
      vertex   -1.032160e+001 1.366248e+001 7.346158e+000
      vertex   -1.034416e+001 1.366248e+001 7.603992e+000
    endloop
  endfacet
  facet normal 0.000000e+000 8.715829e-002 0.000000e+000
    outer loop
      vertex   -1.034416e+001 1.366248e+001 7.603992e+000
      vertex   -1.032160e+001 1.366248e+001 7.346158e+000
      vertex   -1.034416e+001 1.366248e+001 7.430343e+000
    endloop
  endfacet
  facet normal 0.000000e+000 8.715466e-002 0.000000e+000
    outer loop
      vertex   -1.034416e+001 1.366248e+001 7.603992e+000
      vertex   -1.034416e+001 1.366248e+001 7.430343e+000
      vertex   -1.035176e+001 1.366248e+001 7.517168e+000
    endloop
  endfacet
  facet normal 0.000000e+000 9.659250e-001 0.000000e+000
    outer loop
      vertex   -9.764935e+000 1.366248e+001 7.024764e+000
      vertex   -9.764935e+000 1.366248e+001 8.009571e+000
      vertex   -9.680749e+000 1.366248e+001 7.047321e+000
    endloop
  endfacet
  facet normal 0.000000e+000 8.715539e-002 -0.000000e+000
    outer loop
      vertex   -9.680749e+000 1.366248e+001 7.047321e+000
      vertex   -9.764935e+000 1.366248e+001 8.009571e+000
      vertex   -9.680749e+000 1.366248e+001 7.987014e+000
    endloop
  endfacet
  facet normal 0.000000e+000 9.063093e-001 0.000000e+000
    outer loop
      vertex   -9.680749e+000 1.366248e+001 7.047321e+000
      vertex   -9.680749e+000 1.366248e+001 7.987014e+000
      vertex   -9.601759e+000 1.366248e+001 7.084155e+000
    endloop
  endfacet
  facet normal 0.000000e+000 8.715578e-002 -0.000000e+000
    outer loop
      vertex   -9.601759e+000 1.366248e+001 7.084155e+000
      vertex   -9.680749e+000 1.366248e+001 7.987014e+000
      vertex   -9.601759e+000 1.366248e+001 7.950180e+000
    endloop
  endfacet
  facet normal 0.000000e+000 8.191517e-001 0.000000e+000
    outer loop
      vertex   -9.601759e+000 1.366248e+001 7.084155e+000
      vertex   -9.601759e+000 1.366248e+001 7.950180e+000
      vertex   -9.530365e+000 1.366248e+001 7.134145e+000
    endloop
  endfacet
  facet normal 0.000000e+000 8.715595e-002 -0.000000e+000
    outer loop
      vertex   -9.530365e+000 1.366248e+001 7.134145e+000
      vertex   -9.601759e+000 1.366248e+001 7.950180e+000
      vertex   -9.530365e+000 1.366248e+001 7.900189e+000
    endloop
  endfacet
  facet normal 0.000000e+000 7.071068e-001 0.000000e+000
    outer loop
      vertex   -9.530365e+000 1.366248e+001 7.134145e+000
      vertex   -9.530365e+000 1.366248e+001 7.900189e+000
      vertex   -9.468737e+000 1.366248e+001 7.195774e+000
    endloop
  endfacet
  facet normal 0.000000e+000 8.715566e-002 -0.000000e+000
    outer loop
      vertex   -9.468737e+000 1.366248e+001 7.195774e+000
      vertex   -9.530365e+000 1.366248e+001 7.900189e+000
      vertex   -9.468737e+000 1.366248e+001 7.838561e+000
    endloop
  endfacet
  facet normal 0.000000e+000 5.735769e-001 0.000000e+000
    outer loop
      vertex   -9.468737e+000 1.366248e+001 7.195774e+000
      vertex   -9.468737e+000 1.366248e+001 7.838561e+000
      vertex   -9.418746e+000 1.366248e+001 7.267168e+000
    endloop
  endfacet
  facet normal 0.000000e+000 8.715609e-002 -0.000000e+000
    outer loop
      vertex   -9.418746e+000 1.366248e+001 7.267168e+000
      vertex   -9.468737e+000 1.366248e+001 7.838561e+000
      vertex   -9.418746e+000 1.366248e+001 7.767168e+000
    endloop
  endfacet
  facet normal 0.000000e+000 4.226195e-001 0.000000e+000
    outer loop
      vertex   -9.418746e+000 1.366248e+001 7.267168e+000
      vertex   -9.418746e+000 1.366248e+001 7.767168e+000
      vertex   -9.381912e+000 1.366248e+001 7.346158e+000
    endloop
  endfacet
  facet normal 0.000000e+000 8.715612e-002 -0.000000e+000
    outer loop
      vertex   -9.381912e+000 1.366248e+001 7.346158e+000
      vertex   -9.418746e+000 1.366248e+001 7.767168e+000
      vertex   -9.381912e+000 1.366248e+001 7.688178e+000
    endloop
  endfacet
  facet normal 0.000000e+000 2.588168e-001 0.000000e+000
    outer loop
      vertex   -9.381912e+000 1.366248e+001 7.346158e+000
      vertex   -9.381912e+000 1.366248e+001 7.688178e+000
      vertex   -9.359355e+000 1.366248e+001 7.430343e+000
    endloop
  endfacet
  facet normal 0.000000e+000 8.715447e-002 -0.000000e+000
    outer loop
      vertex   -9.359355e+000 1.366248e+001 7.430343e+000
      vertex   -9.381912e+000 1.366248e+001 7.688178e+000
      vertex   -9.359355e+000 1.366248e+001 7.603992e+000
    endloop
  endfacet
  facet normal 0.000000e+000 8.715419e-002 0.000000e+000
    outer loop
      vertex   -9.359355e+000 1.366248e+001 7.430343e+000
      vertex   -9.359355e+000 1.366248e+001 7.603992e+000
      vertex   -9.351759e+000 1.366248e+001 7.517168e+000
    endloop
  endfacet
endsolid
