solid ascii
  facet normal -0.000000e+000 -1.000000e+000 -0.000000e+000
    outer loop
      vertex   -2.400000e+001 5.900000e+001 5.000000e+000
      vertex   -4.400000e+001 5.900000e+001 5.000000e+000
      vertex   -2.400000e+001 5.900000e+001 1.192093e-007
    endloop
  endfacet
  facet normal 0.000000e+000 -2.425356e-001 0.000000e+000
    outer loop
      vertex   -2.400000e+001 5.900000e+001 1.192093e-007
      vertex   -4.400000e+001 5.900000e+001 5.000000e+000
      vertex   -4.400000e+001 5.900000e+001 1.192093e-007
    endloop
  endfacet
  facet normal -1.000000e+000 0.000000e+000 0.000000e+000
    outer loop
      vertex   -2.400000e+001 1.900000e+001 5.000000e+000
      vertex   -2.400000e+001 5.900000e+001 5.000000e+000
      vertex   -2.400000e+001 1.900000e+001 1.192093e-007
    endloop
  endfacet
  facet normal -1.240347e-001 0.000000e+000 0.000000e+000
    outer loop
      vertex   -2.400000e+001 1.900000e+001 1.192093e-007
      vertex   -2.400000e+001 5.900000e+001 5.000000e+000
      vertex   -2.400000e+001 5.900000e+001 1.192093e-007
    endloop
  endfacet
  facet normal -0.000000e+000 1.000000e+000 0.000000e+000
    outer loop
      vertex   -4.400000e+001 1.900000e+001 5.000000e+000
      vertex   -2.400000e+001 1.900000e+001 5.000000e+000
      vertex   -4.400000e+001 1.900000e+001 1.192093e-007
    endloop
  endfacet
  facet normal 0.000000e+000 2.425356e-001 0.000000e+000
    outer loop
      vertex   -4.400000e+001 1.900000e+001 1.192093e-007
      vertex   -2.400000e+001 1.900000e+001 5.000000e+000
      vertex   -2.400000e+001 1.900000e+001 1.192093e-007
    endloop
  endfacet
  facet normal 1.000000e+000 0.000000e+000 0.000000e+000
    outer loop
      vertex   -4.400000e+001 5.900000e+001 5.000000e+000
      vertex   -4.400000e+001 1.900000e+001 5.000000e+000
      vertex   -4.400000e+001 5.900000e+001 1.192093e-007
    endloop
  endfacet
  facet normal 1.240347e-001 0.000000e+000 0.000000e+000
    outer loop
      vertex   -4.400000e+001 5.900000e+001 1.192093e-007
      vertex   -4.400000e+001 1.900000e+001 5.000000e+000
      vertex   -4.400000e+001 1.900000e+001 1.192093e-007
    endloop
  endfacet
  facet normal 1.000000e+000 0.000000e+000 0.000000e+000
    outer loop
      vertex   -1.900000e+001 1.400000e+001 0.000000e+000
      vertex   -1.900000e+001 6.400000e+001 0.000000e+000
      vertex   -1.900000e+001 1.400000e+001 5.000000e+000
    endloop
  endfacet
  facet normal 9.950372e-002 -0.000000e+000 0.000000e+000
    outer loop
      vertex   -1.900000e+001 1.400000e+001 5.000000e+000
      vertex   -1.900000e+001 6.400000e+001 0.000000e+000
      vertex   -1.900000e+001 6.400000e+001 5.000000e+000
    endloop
  endfacet
  facet normal 0.000000e+000 -1.000000e+000 0.000000e+000
    outer loop
      vertex   -4.900000e+001 1.400000e+001 0.000000e+000
      vertex   -1.900000e+001 1.400000e+001 0.000000e+000
      vertex   -4.900000e+001 1.400000e+001 5.000000e+000
    endloop
  endfacet
  facet normal 0.000000e+000 -1.643990e-001 0.000000e+000
    outer loop
      vertex   -4.900000e+001 1.400000e+001 5.000000e+000
      vertex   -1.900000e+001 1.400000e+001 0.000000e+000
      vertex   -1.900000e+001 1.400000e+001 5.000000e+000
    endloop
  endfacet
  facet normal -1.000000e+000 0.000000e+000 0.000000e+000
    outer loop
      vertex   -4.900000e+001 6.400000e+001 0.000000e+000
      vertex   -4.900000e+001 1.400000e+001 0.000000e+000
      vertex   -4.900000e+001 6.400000e+001 5.000000e+000
    endloop
  endfacet
  facet normal -9.950372e-002 -0.000000e+000 0.000000e+000
    outer loop
      vertex   -4.900000e+001 6.400000e+001 5.000000e+000
      vertex   -4.900000e+001 1.400000e+001 0.000000e+000
      vertex   -4.900000e+001 1.400000e+001 5.000000e+000
    endloop
  endfacet
  facet normal 0.000000e+000 1.000000e+000 -0.000000e+000
    outer loop
      vertex   -1.900000e+001 6.400000e+001 0.000000e+000
      vertex   -4.900000e+001 6.400000e+001 0.000000e+000
      vertex   -1.900000e+001 6.400000e+001 5.000000e+000
    endloop
  endfacet
  facet normal 0.000000e+000 1.643990e-001 0.000000e+000
    outer loop
      vertex   -1.900000e+001 6.400000e+001 5.000000e+000
      vertex   -4.900000e+001 6.400000e+001 0.000000e+000
      vertex   -4.900000e+001 6.400000e+001 5.000000e+000
    endloop
  endfacet
  facet normal -0.000000e+000 0.000000e+000 1.961161e-001
    outer loop
      vertex   -4.900000e+001 6.400000e+001 5.000000e+000
      vertex   -2.400000e+001 5.900000e+001 5.000000e+000
      vertex   -1.900000e+001 6.400000e+001 5.000000e+000
    endloop
  endfacet
  facet normal 0.000000e+000 0.000000e+000 6.246951e-001
    outer loop
      vertex   -1.900000e+001 6.400000e+001 5.000000e+000
      vertex   -2.400000e+001 5.900000e+001 5.000000e+000
      vertex   -2.400000e+001 1.900000e+001 5.000000e+000
    endloop
  endfacet
  facet normal 0.000000e+000 0.000000e+000 1.104315e-001
    outer loop
      vertex   -1.900000e+001 6.400000e+001 5.000000e+000
      vertex   -2.400000e+001 1.900000e+001 5.000000e+000
      vertex   -1.900000e+001 1.400000e+001 5.000000e+000
    endloop
  endfacet
  facet normal 0.000000e+000 0.000000e+000 7.071068e-001
    outer loop
      vertex   -1.900000e+001 1.400000e+001 5.000000e+000
      vertex   -2.400000e+001 1.900000e+001 5.000000e+000
      vertex   -4.900000e+001 1.400000e+001 5.000000e+000
    endloop
  endfacet
  facet normal 0.000000e+000 0.000000e+000 5.547002e-001
    outer loop
      vertex   -4.900000e+001 1.400000e+001 5.000000e+000
      vertex   -2.400000e+001 1.900000e+001 5.000000e+000
      vertex   -4.400000e+001 1.900000e+001 5.000000e+000
    endloop
  endfacet
  facet normal 0.000000e+000 0.000000e+000 6.246951e-001
    outer loop
      vertex   -4.900000e+001 1.400000e+001 5.000000e+000
      vertex   -4.400000e+001 1.900000e+001 5.000000e+000
      vertex   -4.400000e+001 5.900000e+001 5.000000e+000
    endloop
  endfacet
  facet normal 0.000000e+000 0.000000e+000 1.961161e-001
    outer loop
      vertex   -2.400000e+001 5.900000e+001 5.000000e+000
      vertex   -4.900000e+001 6.400000e+001 5.000000e+000
      vertex   -4.400000e+001 5.900000e+001 5.000000e+000
    endloop
  endfacet
  facet normal 0.000000e+000 0.000000e+000 7.808688e-001
    outer loop
      vertex   -4.400000e+001 5.900000e+001 5.000000e+000
      vertex   -4.900000e+001 6.400000e+001 5.000000e+000
      vertex   -4.900000e+001 1.400000e+001 5.000000e+000
    endloop
  endfacet
  facet normal -0.000000e+000 -4.675773e-009 -1.961161e-001
    outer loop
      vertex   -2.400000e+001 5.900000e+001 1.192093e-007
      vertex   -4.400000e+001 5.900000e+001 1.192093e-007
      vertex   -4.900000e+001 6.400000e+001 0.000000e+000
    endloop
  endfacet
  facet normal 1.489389e-008 0.000000e+000 -6.246951e-001
    outer loop
      vertex   -4.900000e+001 6.400000e+001 0.000000e+000
      vertex   -4.400000e+001 5.900000e+001 1.192093e-007
      vertex   -4.400000e+001 1.900000e+001 1.192093e-007
    endloop
  endfacet
  facet normal 2.632893e-009 0.000000e+000 -1.104315e-001
    outer loop
      vertex   -4.900000e+001 6.400000e+001 0.000000e+000
      vertex   -4.400000e+001 1.900000e+001 1.192093e-007
      vertex   -4.900000e+001 1.400000e+001 0.000000e+000
    endloop
  endfacet
  facet normal 0.000000e+000 1.322508e-008 -5.547002e-001
    outer loop
      vertex   -4.900000e+001 1.400000e+001 0.000000e+000
      vertex   -4.400000e+001 1.900000e+001 1.192093e-007
      vertex   -2.400000e+001 1.900000e+001 1.192093e-007
    endloop
  endfacet
  facet normal 0.000000e+000 4.675773e-009 -1.961161e-001
    outer loop
      vertex   -4.900000e+001 1.400000e+001 0.000000e+000
      vertex   -2.400000e+001 1.900000e+001 1.192093e-007
      vertex   -1.900000e+001 1.400000e+001 0.000000e+000
    endloop
  endfacet
  facet normal -1.489389e-008 0.000000e+000 -6.246951e-001
    outer loop
      vertex   -1.900000e+001 1.400000e+001 0.000000e+000
      vertex   -2.400000e+001 1.900000e+001 1.192093e-007
      vertex   -2.400000e+001 5.900000e+001 1.192093e-007
    endloop
  endfacet
  facet normal -2.632893e-009 0.000000e+000 -1.104315e-001
    outer loop
      vertex   -1.900000e+001 1.400000e+001 0.000000e+000
      vertex   -2.400000e+001 5.900000e+001 1.192093e-007
      vertex   -1.900000e+001 6.400000e+001 0.000000e+000
    endloop
  endfacet
  facet normal -0.000000e+000 -1.685874e-008 -7.071068e-001
    outer loop
      vertex   -1.900000e+001 6.400000e+001 0.000000e+000
      vertex   -2.400000e+001 5.900000e+001 1.192093e-007
      vertex   -4.900000e+001 6.400000e+001 0.000000e+000
    endloop
  endfacet
endsolid
