solid ascii
  facet normal 1.000000e+000 0.000000e+000 0.000000e+000
    outer loop
      vertex   -8.240353e+000 3.881050e+000 0.000000e+000
      vertex   -8.240353e+000 4.554772e+001 0.000000e+000
      vertex   -8.240353e+000 3.881050e+000 1.000000e+001
    endloop
  endfacet
  facet normal 2.333729e-001 -0.000000e+000 0.000000e+000
    outer loop
      vertex   -8.240353e+000 3.881050e+000 1.000000e+001
      vertex   -8.240353e+000 4.554772e+001 0.000000e+000
      vertex   -8.240353e+000 4.554772e+001 1.000000e+001
    endloop
  endfacet
  facet normal 9.723873e-001 0.000000e+000 0.000000e+000
    outer loop
      vertex   -8.240353e+000 4.554772e+001 1.000000e+001
      vertex   -8.240353e+000 4.554772e+001 0.000000e+000
      vertex   -8.240353e+000 8.721439e+001 0.000000e+000
    endloop
  endfacet
  facet normal 2.333729e-001 -0.000000e+000 0.000000e+000
    outer loop
      vertex   -8.240353e+000 4.554772e+001 1.000000e+001
      vertex   -8.240353e+000 8.721439e+001 0.000000e+000
      vertex   -8.240353e+000 8.721439e+001 1.000000e+001
    endloop
  endfacet
  facet normal 9.723873e-001 0.000000e+000 0.000000e+000
    outer loop
      vertex   -8.240353e+000 8.721439e+001 1.000000e+001
      vertex   -8.240353e+000 8.721439e+001 0.000000e+000
      vertex   -8.240353e+000 1.288810e+002 0.000000e+000
    endloop
  endfacet
  facet normal 2.333730e-001 -0.000000e+000 0.000000e+000
    outer loop
      vertex   -8.240353e+000 8.721439e+001 1.000000e+001
      vertex   -8.240353e+000 1.288810e+002 0.000000e+000
      vertex   -8.240353e+000 1.288810e+002 1.000000e+001
    endloop
  endfacet
  facet normal 0.000000e+000 -1.000000e+000 0.000000e+000
    outer loop
      vertex   -8.324035e+001 3.881050e+000 0.000000e+000
      vertex   -4.574035e+001 3.881050e+000 0.000000e+000
      vertex   -8.324035e+001 3.881050e+000 1.000000e+001
    endloop
  endfacet
  facet normal 0.000000e+000 -2.576627e-001 0.000000e+000
    outer loop
      vertex   -8.324035e+001 3.881050e+000 1.000000e+001
      vertex   -4.574035e+001 3.881050e+000 0.000000e+000
      vertex   -4.574035e+001 3.881050e+000 1.000000e+001
    endloop
  endfacet
  facet normal 0.000000e+000 -9.662349e-001 0.000000e+000
    outer loop
      vertex   -4.574035e+001 3.881050e+000 1.000000e+001
      vertex   -4.574035e+001 3.881050e+000 0.000000e+000
      vertex   -8.240353e+000 3.881050e+000 0.000000e+000
    endloop
  endfacet
  facet normal 0.000000e+000 -2.576627e-001 0.000000e+000
    outer loop
      vertex   -4.574035e+001 3.881050e+000 1.000000e+001
      vertex   -8.240353e+000 3.881050e+000 0.000000e+000
      vertex   -8.240353e+000 3.881050e+000 1.000000e+001
    endloop
  endfacet
  facet normal -1.000000e+000 0.000000e+000 0.000000e+000
    outer loop
      vertex   -8.324035e+001 1.288810e+002 0.000000e+000
      vertex   -8.324035e+001 8.721439e+001 0.000000e+000
      vertex   -8.324035e+001 1.288810e+002 1.000000e+001
    endloop
  endfacet
  facet normal -2.333730e-001 -0.000000e+000 0.000000e+000
    outer loop
      vertex   -8.324035e+001 1.288810e+002 1.000000e+001
      vertex   -8.324035e+001 8.721439e+001 0.000000e+000
      vertex   -8.324035e+001 8.721439e+001 1.000000e+001
    endloop
  endfacet
  facet normal -9.723873e-001 0.000000e+000 -0.000000e+000
    outer loop
      vertex   -8.324035e+001 8.721439e+001 1.000000e+001
      vertex   -8.324035e+001 8.721439e+001 0.000000e+000
      vertex   -8.324035e+001 4.554772e+001 0.000000e+000
    endloop
  endfacet
  facet normal -2.333729e-001 -0.000000e+000 0.000000e+000
    outer loop
      vertex   -8.324035e+001 8.721439e+001 1.000000e+001
      vertex   -8.324035e+001 4.554772e+001 0.000000e+000
      vertex   -8.324035e+001 4.554772e+001 1.000000e+001
    endloop
  endfacet
  facet normal -9.723873e-001 0.000000e+000 -0.000000e+000
    outer loop
      vertex   -8.324035e+001 4.554772e+001 1.000000e+001
      vertex   -8.324035e+001 4.554772e+001 0.000000e+000
      vertex   -8.324035e+001 3.881050e+000 0.000000e+000
    endloop
  endfacet
  facet normal -2.333729e-001 -0.000000e+000 0.000000e+000
    outer loop
      vertex   -8.324035e+001 4.554772e+001 1.000000e+001
      vertex   -8.324035e+001 3.881050e+000 0.000000e+000
      vertex   -8.324035e+001 3.881050e+000 1.000000e+001
    endloop
  endfacet
  facet normal 0.000000e+000 1.000000e+000 -0.000000e+000
    outer loop
      vertex   -8.240353e+000 1.288810e+002 0.000000e+000
      vertex   -4.574035e+001 1.288810e+002 0.000000e+000
      vertex   -8.240353e+000 1.288810e+002 1.000000e+001
    endloop
  endfacet
  facet normal 0.000000e+000 2.576627e-001 0.000000e+000
    outer loop
      vertex   -8.240353e+000 1.288810e+002 1.000000e+001
      vertex   -4.574035e+001 1.288810e+002 0.000000e+000
      vertex   -4.574035e+001 1.288810e+002 1.000000e+001
    endloop
  endfacet
  facet normal 0.000000e+000 9.662349e-001 0.000000e+000
    outer loop
      vertex   -4.574035e+001 1.288810e+002 1.000000e+001
      vertex   -4.574035e+001 1.288810e+002 0.000000e+000
      vertex   -8.324035e+001 1.288810e+002 0.000000e+000
    endloop
  endfacet
  facet normal 0.000000e+000 2.576627e-001 0.000000e+000
    outer loop
      vertex   -4.574035e+001 1.288810e+002 1.000000e+001
      vertex   -8.324035e+001 1.288810e+002 0.000000e+000
      vertex   -8.324035e+001 1.288810e+002 1.000000e+001
    endloop
  endfacet
  facet normal 0.000000e+000 -0.000000e+000 1.000000e+000
    outer loop
      vertex   -8.240353e+000 8.721439e+001 1.000000e+001
      vertex   -8.240353e+000 1.288810e+002 1.000000e+001
      vertex   -4.574035e+001 8.721439e+001 1.000000e+001
    endloop
  endfacet
  facet normal 0.000000e+000 0.000000e+000 6.689648e-001
    outer loop
      vertex   -4.574035e+001 8.721439e+001 1.000000e+001
      vertex   -8.240353e+000 1.288810e+002 1.000000e+001
      vertex   -4.574035e+001 1.288810e+002 1.000000e+001
    endloop
  endfacet
  facet normal 0.000000e+000 -0.000000e+000 1.000000e+000
    outer loop
      vertex   -4.574035e+001 8.721439e+001 1.000000e+001
      vertex   -4.574035e+001 1.288810e+002 1.000000e+001
      vertex   -8.324035e+001 8.721439e+001 1.000000e+001
    endloop
  endfacet
  facet normal 0.000000e+000 0.000000e+000 6.689648e-001
    outer loop
      vertex   -8.324035e+001 8.721439e+001 1.000000e+001
      vertex   -4.574035e+001 1.288810e+002 1.000000e+001
      vertex   -8.324035e+001 1.288810e+002 1.000000e+001
    endloop
  endfacet
  facet normal -0.000000e+000 0.000000e+000 1.000000e+000
    outer loop
      vertex   -8.324035e+001 8.721439e+001 1.000000e+001
      vertex   -8.324035e+001 4.554772e+001 1.000000e+001
      vertex   -4.574035e+001 8.721439e+001 1.000000e+001
    endloop
  endfacet
  facet normal 0.000000e+000 0.000000e+000 6.689647e-001
    outer loop
      vertex   -4.574035e+001 8.721439e+001 1.000000e+001
      vertex   -8.324035e+001 4.554772e+001 1.000000e+001
      vertex   -4.574035e+001 4.554772e+001 1.000000e+001
    endloop
  endfacet
  facet normal -0.000000e+000 0.000000e+000 1.000000e+000
    outer loop
      vertex   -4.574035e+001 8.721439e+001 1.000000e+001
      vertex   -4.574035e+001 4.554772e+001 1.000000e+001
      vertex   -8.240353e+000 8.721439e+001 1.000000e+001
    endloop
  endfacet
  facet normal 0.000000e+000 0.000000e+000 6.689647e-001
    outer loop
      vertex   -8.240353e+000 8.721439e+001 1.000000e+001
      vertex   -4.574035e+001 4.554772e+001 1.000000e+001
      vertex   -8.240353e+000 4.554772e+001 1.000000e+001
    endloop
  endfacet
  facet normal 0.000000e+000 0.000000e+000 7.432942e-001
    outer loop
      vertex   -8.240353e+000 4.554772e+001 1.000000e+001
      vertex   -4.574035e+001 4.554772e+001 1.000000e+001
      vertex   -4.574035e+001 3.881050e+000 1.000000e+001
    endloop
  endfacet
  facet normal 0.000000e+000 0.000000e+000 6.689647e-001
    outer loop
      vertex   -8.240353e+000 4.554772e+001 1.000000e+001
      vertex   -4.574035e+001 3.881050e+000 1.000000e+001
      vertex   -8.240353e+000 3.881050e+000 1.000000e+001
    endloop
  endfacet
  facet normal -0.000000e+000 0.000000e+000 1.000000e+000
    outer loop
      vertex   -8.324035e+001 4.554772e+001 1.000000e+001
      vertex   -8.324035e+001 3.881050e+000 1.000000e+001
      vertex   -4.574035e+001 4.554772e+001 1.000000e+001
    endloop
  endfacet
  facet normal 0.000000e+000 0.000000e+000 6.689647e-001
    outer loop
      vertex   -4.574035e+001 4.554772e+001 1.000000e+001
      vertex   -8.324035e+001 3.881050e+000 1.000000e+001
      vertex   -4.574035e+001 3.881050e+000 1.000000e+001
    endloop
  endfacet
  facet normal 0.000000e+000 0.000000e+000 -1.000000e+000
    outer loop
      vertex   -8.324035e+001 8.721439e+001 0.000000e+000
      vertex   -8.324035e+001 1.288810e+002 0.000000e+000
      vertex   -4.574035e+001 8.721439e+001 0.000000e+000
    endloop
  endfacet
  facet normal 0.000000e+000 0.000000e+000 -6.689648e-001
    outer loop
      vertex   -4.574035e+001 8.721439e+001 0.000000e+000
      vertex   -8.324035e+001 1.288810e+002 0.000000e+000
      vertex   -4.574035e+001 1.288810e+002 0.000000e+000
    endloop
  endfacet
  facet normal 0.000000e+000 0.000000e+000 -1.000000e+000
    outer loop
      vertex   -4.574035e+001 8.721439e+001 0.000000e+000
      vertex   -4.574035e+001 1.288810e+002 0.000000e+000
      vertex   -8.240353e+000 8.721439e+001 0.000000e+000
    endloop
  endfacet
  facet normal 0.000000e+000 0.000000e+000 -6.689648e-001
    outer loop
      vertex   -8.240353e+000 8.721439e+001 0.000000e+000
      vertex   -4.574035e+001 1.288810e+002 0.000000e+000
      vertex   -8.240353e+000 1.288810e+002 0.000000e+000
    endloop
  endfacet
  facet normal -0.000000e+000 -0.000000e+000 -1.000000e+000
    outer loop
      vertex   -8.240353e+000 8.721439e+001 0.000000e+000
      vertex   -8.240353e+000 4.554772e+001 0.000000e+000
      vertex   -4.574035e+001 8.721439e+001 0.000000e+000
    endloop
  endfacet
  facet normal 0.000000e+000 0.000000e+000 -6.689647e-001
    outer loop
      vertex   -4.574035e+001 8.721439e+001 0.000000e+000
      vertex   -8.240353e+000 4.554772e+001 0.000000e+000
      vertex   -4.574035e+001 4.554772e+001 0.000000e+000
    endloop
  endfacet
  facet normal -0.000000e+000 -0.000000e+000 -1.000000e+000
    outer loop
      vertex   -4.574035e+001 8.721439e+001 0.000000e+000
      vertex   -4.574035e+001 4.554772e+001 0.000000e+000
      vertex   -8.324035e+001 8.721439e+001 0.000000e+000
    endloop
  endfacet
  facet normal 0.000000e+000 0.000000e+000 -6.689647e-001
    outer loop
      vertex   -8.324035e+001 8.721439e+001 0.000000e+000
      vertex   -4.574035e+001 4.554772e+001 0.000000e+000
      vertex   -8.324035e+001 4.554772e+001 0.000000e+000
    endloop
  endfacet
  facet normal 0.000000e+000 0.000000e+000 -7.432942e-001
    outer loop
      vertex   -8.324035e+001 4.554772e+001 0.000000e+000
      vertex   -4.574035e+001 4.554772e+001 0.000000e+000
      vertex   -4.574035e+001 3.881050e+000 0.000000e+000
    endloop
  endfacet
  facet normal 0.000000e+000 0.000000e+000 -6.689647e-001
    outer loop
      vertex   -8.324035e+001 4.554772e+001 0.000000e+000
      vertex   -4.574035e+001 3.881050e+000 0.000000e+000
      vertex   -8.324035e+001 3.881050e+000 0.000000e+000
    endloop
  endfacet
  facet normal -0.000000e+000 -0.000000e+000 -1.000000e+000
    outer loop
      vertex   -8.240353e+000 4.554772e+001 0.000000e+000
      vertex   -8.240353e+000 3.881050e+000 0.000000e+000
      vertex   -4.574035e+001 4.554772e+001 0.000000e+000
    endloop
  endfacet
  facet normal 0.000000e+000 0.000000e+000 -6.689647e-001
    outer loop
      vertex   -4.574035e+001 4.554772e+001 0.000000e+000
      vertex   -8.240353e+000 3.881050e+000 0.000000e+000
      vertex   -4.574035e+001 3.881050e+000 0.000000e+000
    endloop
  endfacet
endsolid
solid ascii
  facet normal -1.000000e+000 0.000000e+000 0.000000e+000
    outer loop
      vertex   -1.803224e+001 7.707547e+001 1.000000e+001
      vertex   -1.803224e+001 5.707547e+001 1.000000e+001
      vertex   -1.803224e+001 7.707547e+001 1.200000e+001
    endloop
  endfacet
  facet normal -9.950372e-002 -0.000000e+000 0.000000e+000
    outer loop
      vertex   -1.803224e+001 7.707547e+001 1.200000e+001
      vertex   -1.803224e+001 5.707547e+001 1.000000e+001
      vertex   -1.803224e+001 5.707547e+001 1.200000e+001
    endloop
  endfacet
  facet normal 9.989328e-001 4.618586e-002 0.000000e+000
    outer loop
      vertex   -1.303224e+001 7.707547e+001 1.200000e+001
      vertex   -1.303224e+001 7.707547e+001 1.000000e+001
      vertex   -1.304291e+001 7.730614e+001 1.200000e+001
    endloop
  endfacet
  facet normal 1.145724e-001 5.297280e-003 0.000000e+000
    outer loop
      vertex   -1.304291e+001 7.730614e+001 1.200000e+001
      vertex   -1.303224e+001 7.707547e+001 1.000000e+001
      vertex   -1.304291e+001 7.730614e+001 1.000000e+001
    endloop
  endfacet
  facet normal 1.135985e-001 1.584589e-002 0.000000e+000
    outer loop
      vertex   -1.304291e+001 7.730614e+001 1.200000e+001
      vertex   -1.304291e+001 7.730614e+001 1.000000e+001
      vertex   -1.307481e+001 7.753484e+001 1.000000e+001
    endloop
  endfacet
  facet normal 9.838746e-001 1.372409e-001 0.000000e+000
    outer loop
      vertex   -1.304291e+001 7.730614e+001 1.200000e+001
      vertex   -1.307481e+001 7.753484e+001 1.000000e+001
      vertex   -1.307481e+001 7.753484e+001 1.200000e+001
    endloop
  endfacet
  facet normal 1.116507e-001 2.625997e-002 0.000000e+000
    outer loop
      vertex   -1.307481e+001 7.753484e+001 1.200000e+001
      vertex   -1.307481e+001 7.753484e+001 1.000000e+001
      vertex   -1.312768e+001 7.775963e+001 1.000000e+001
    endloop
  endfacet
  facet normal 9.670139e-001 2.274393e-001 -3.469447e-018
    outer loop
      vertex   -1.307481e+001 7.753484e+001 1.200000e+001
      vertex   -1.312768e+001 7.775963e+001 1.000000e+001
      vertex   -1.312768e+001 7.775963e+001 1.200000e+001
    endloop
  endfacet
  facet normal 1.087480e-001 3.644953e-002 0.000000e+000
    outer loop
      vertex   -1.312768e+001 7.775963e+001 1.200000e+001
      vertex   -1.312768e+001 7.775963e+001 1.000000e+001
      vertex   -1.320106e+001 7.797857e+001 1.000000e+001
    endloop
  endfacet
  facet normal 9.419013e-001 3.157012e-001 0.000000e+000
    outer loop
      vertex   -1.312768e+001 7.775963e+001 1.200000e+001
      vertex   -1.320106e+001 7.797857e+001 1.000000e+001
      vertex   -1.320106e+001 7.797857e+001 1.200000e+001
    endloop
  endfacet
  facet normal 1.049243e-001 4.632880e-002 0.000000e+000
    outer loop
      vertex   -1.320106e+001 7.797857e+001 1.200000e+001
      vertex   -1.320106e+001 7.797857e+001 1.000000e+001
      vertex   -1.329434e+001 7.818981e+001 1.000000e+001
    endloop
  endfacet
  facet normal 9.087560e-001 4.012568e-001 -6.938894e-018
    outer loop
      vertex   -1.320106e+001 7.797857e+001 1.200000e+001
      vertex   -1.329434e+001 7.818981e+001 1.000000e+001
      vertex   -1.329434e+001 7.818981e+001 1.200000e+001
    endloop
  endfacet
  facet normal 1.002025e-001 5.581161e-002 0.000000e+000
    outer loop
      vertex   -1.329434e+001 7.818981e+001 1.200000e+001
      vertex   -1.329434e+001 7.818981e+001 1.000000e+001
      vertex   -1.340670e+001 7.839155e+001 1.000000e+001
    endloop
  endfacet
  facet normal 8.678600e-001 4.833876e-001 6.938894e-018
    outer loop
      vertex   -1.329434e+001 7.818981e+001 1.200000e+001
      vertex   -1.340670e+001 7.839155e+001 1.000000e+001
      vertex   -1.340670e+001 7.839155e+001 1.200000e+001
    endloop
  endfacet
  facet normal 9.462438e-002 6.481931e-002 0.000000e+000
    outer loop
      vertex   -1.340670e+001 7.839155e+001 1.200000e+001
      vertex   -1.340670e+001 7.839155e+001 1.000000e+001
      vertex   -1.353720e+001 7.858205e+001 1.000000e+001
    endloop
  endfacet
  facet normal 8.195525e-001 5.614074e-001 0.000000e+000
    outer loop
      vertex   -1.340670e+001 7.839155e+001 1.200000e+001
      vertex   -1.353720e+001 7.858205e+001 1.000000e+001
      vertex   -1.353720e+001 7.858205e+001 1.200000e+001
    endloop
  endfacet
  facet normal 8.823904e-002 7.327374e-002 0.000000e+000
    outer loop
      vertex   -1.353720e+001 7.858205e+001 1.200000e+001
      vertex   -1.353720e+001 7.858205e+001 1.000000e+001
      vertex   -1.368472e+001 7.875970e+001 1.000000e+001
    endloop
  endfacet
  facet normal 7.642527e-001 6.346358e-001 -1.387779e-017
    outer loop
      vertex   -1.353720e+001 7.858205e+001 1.200000e+001
      vertex   -1.368472e+001 7.875970e+001 1.000000e+001
      vertex   -1.368472e+001 7.875970e+001 1.200000e+001
    endloop
  endfacet
  facet normal 8.110335e-002 8.110288e-002 0.000000e+000
    outer loop
      vertex   -1.368472e+001 7.875970e+001 1.200000e+001
      vertex   -1.368472e+001 7.875970e+001 1.000000e+001
      vertex   -1.384801e+001 7.892299e+001 1.000000e+001
    endloop
  endfacet
  facet normal 7.024423e-001 7.024382e-001 0.000000e+000
    outer loop
      vertex   -1.368472e+001 7.875970e+001 1.200000e+001
      vertex   -1.384801e+001 7.892299e+001 1.000000e+001
      vertex   -1.384801e+001 7.892299e+001 1.200000e+001
    endloop
  endfacet
  facet normal 7.327420e-002 8.823998e-002 0.000000e+000
    outer loop
      vertex   -1.384801e+001 7.892299e+001 1.200000e+001
      vertex   -1.384801e+001 7.892299e+001 1.000000e+001
      vertex   -1.402566e+001 7.907051e+001 1.000000e+001
    endloop
  endfacet
  facet normal 6.346341e-001 7.642540e-001 -6.938894e-018
    outer loop
      vertex   -1.384801e+001 7.892299e+001 1.200000e+001
      vertex   -1.402566e+001 7.907051e+001 1.000000e+001
      vertex   -1.402566e+001 7.907051e+001 1.200000e+001
    endloop
  endfacet
  facet normal 6.481978e-002 9.462437e-002 0.000000e+000
    outer loop
      vertex   -1.402566e+001 7.907051e+001 1.200000e+001
      vertex   -1.402566e+001 7.907051e+001 1.000000e+001
      vertex   -1.421616e+001 7.920101e+001 1.000000e+001
    endloop
  endfacet
  facet normal 5.614102e-001 8.195506e-001 -6.938894e-018
    outer loop
      vertex   -1.402566e+001 7.907051e+001 1.200000e+001
      vertex   -1.421616e+001 7.920101e+001 1.000000e+001
      vertex   -1.421616e+001 7.920101e+001 1.200000e+001
    endloop
  endfacet
  facet normal 5.581209e-002 1.002016e-001 0.000000e+000
    outer loop
      vertex   -1.421616e+001 7.920101e+001 1.200000e+001
      vertex   -1.421616e+001 7.920101e+001 1.000000e+001
      vertex   -1.441790e+001 7.931338e+001 1.000000e+001
    endloop
  endfacet
  facet normal 4.833942e-001 8.678564e-001 -6.938894e-018
    outer loop
      vertex   -1.421616e+001 7.920101e+001 1.200000e+001
      vertex   -1.441790e+001 7.931338e+001 1.000000e+001
      vertex   -1.441790e+001 7.931338e+001 1.200000e+001
    endloop
  endfacet
  facet normal 4.632691e-002 1.049238e-001 0.000000e+000
    outer loop
      vertex   -1.441790e+001 7.931338e+001 1.200000e+001
      vertex   -1.441790e+001 7.931338e+001 1.000000e+001
      vertex   -1.462914e+001 7.940665e+001 1.000000e+001
    endloop
  endfacet
  facet normal 4.012446e-001 9.087616e-001 6.938894e-018
    outer loop
      vertex   -1.441790e+001 7.931338e+001 1.200000e+001
      vertex   -1.462914e+001 7.940665e+001 1.000000e+001
      vertex   -1.462914e+001 7.940665e+001 1.200000e+001
    endloop
  endfacet
  facet normal 3.645141e-002 1.087508e-001 0.000000e+000
    outer loop
      vertex   -1.462914e+001 7.940665e+001 1.200000e+001
      vertex   -1.462914e+001 7.940665e+001 1.000000e+001
      vertex   -1.484809e+001 7.948003e+001 1.000000e+001
    endloop
  endfacet
  facet normal 3.157084e-001 9.418985e-001 0.000000e+000
    outer loop
      vertex   -1.462914e+001 7.940665e+001 1.200000e+001
      vertex   -1.484809e+001 7.948003e+001 1.000000e+001
      vertex   -1.484809e+001 7.948003e+001 1.200000e+001
    endloop
  endfacet
  facet normal 2.625760e-002 1.116502e-001 0.000000e+000
    outer loop
      vertex   -1.484809e+001 7.948003e+001 1.200000e+001
      vertex   -1.484809e+001 7.948003e+001 1.000000e+001
      vertex   -1.507287e+001 7.953290e+001 1.000000e+001
    endloop
  endfacet
  facet normal 2.274208e-001 9.670184e-001 -3.469447e-018
    outer loop
      vertex   -1.484809e+001 7.948003e+001 1.200000e+001
      vertex   -1.507287e+001 7.953290e+001 1.000000e+001
      vertex   -1.507287e+001 7.953290e+001 1.200000e+001
    endloop
  endfacet
  facet normal 1.584778e-002 1.135966e-001 0.000000e+000
    outer loop
      vertex   -1.507287e+001 7.953290e+001 1.200000e+001
      vertex   -1.507287e+001 7.953290e+001 1.000000e+001
      vertex   -1.530157e+001 7.956480e+001 1.000000e+001
    endloop
  endfacet
  facet normal 1.372593e-001 9.838722e-001 0.000000e+000
    outer loop
      vertex   -1.507287e+001 7.953290e+001 1.200000e+001
      vertex   -1.530157e+001 7.956480e+001 1.000000e+001
      vertex   -1.530157e+001 7.956480e+001 1.200000e+001
    endloop
  endfacet
  facet normal 5.297752e-003 1.145743e-001 0.000000e+000
    outer loop
      vertex   -1.530157e+001 7.956480e+001 1.200000e+001
      vertex   -1.530157e+001 7.956480e+001 1.000000e+001
      vertex   -1.553224e+001 7.957547e+001 1.000000e+001
    endloop
  endfacet
  facet normal 4.588440e-002 9.923403e-001 0.000000e+000
    outer loop
      vertex   -1.530157e+001 7.956480e+001 1.200000e+001
      vertex   -1.553224e+001 7.957547e+001 1.000000e+001
      vertex   -1.553224e+001 7.957547e+001 1.200000e+001
    endloop
  endfacet
  facet normal -5.297752e-003 1.145743e-001 0.000000e+000
    outer loop
      vertex   -1.553224e+001 7.957547e+001 1.200000e+001
      vertex   -1.553224e+001 7.957547e+001 1.000000e+001
      vertex   -1.576291e+001 7.956480e+001 1.000000e+001
    endloop
  endfacet
  facet normal -4.588440e-002 9.923403e-001 0.000000e+000
    outer loop
      vertex   -1.553224e+001 7.957547e+001 1.200000e+001
      vertex   -1.576291e+001 7.956480e+001 1.000000e+001
      vertex   -1.576291e+001 7.956480e+001 1.200000e+001
    endloop
  endfacet
  facet normal -1.584778e-002 1.135971e-001 0.000000e+000
    outer loop
      vertex   -1.576291e+001 7.956480e+001 1.200000e+001
      vertex   -1.576291e+001 7.956480e+001 1.000000e+001
      vertex   -1.599162e+001 7.953290e+001 1.000000e+001
    endloop
  endfacet
  facet normal -1.372587e-001 9.838722e-001 0.000000e+000
    outer loop
      vertex   -1.576291e+001 7.956480e+001 1.200000e+001
      vertex   -1.599162e+001 7.953290e+001 1.000000e+001
      vertex   -1.599162e+001 7.953290e+001 1.200000e+001
    endloop
  endfacet
  facet normal -2.625760e-002 1.116502e-001 0.000000e+000
    outer loop
      vertex   -1.599162e+001 7.953290e+001 1.200000e+001
      vertex   -1.599162e+001 7.953290e+001 1.000000e+001
      vertex   -1.621640e+001 7.948003e+001 1.000000e+001
    endloop
  endfacet
  facet normal -2.274208e-001 9.670184e-001 3.469447e-018
    outer loop
      vertex   -1.599162e+001 7.953290e+001 1.200000e+001
      vertex   -1.621640e+001 7.948003e+001 1.000000e+001
      vertex   -1.621640e+001 7.948003e+001 1.200000e+001
    endloop
  endfacet
  facet normal -3.645141e-002 1.087508e-001 0.000000e+000
    outer loop
      vertex   -1.621640e+001 7.948003e+001 1.200000e+001
      vertex   -1.621640e+001 7.948003e+001 1.000000e+001
      vertex   -1.643535e+001 7.940665e+001 1.000000e+001
    endloop
  endfacet
  facet normal -3.157084e-001 9.418985e-001 0.000000e+000
    outer loop
      vertex   -1.621640e+001 7.948003e+001 1.200000e+001
      vertex   -1.643535e+001 7.940665e+001 1.000000e+001
      vertex   -1.643535e+001 7.940665e+001 1.200000e+001
    endloop
  endfacet
  facet normal -4.632692e-002 1.049234e-001 0.000000e+000
    outer loop
      vertex   -1.643535e+001 7.940665e+001 1.200000e+001
      vertex   -1.643535e+001 7.940665e+001 1.000000e+001
      vertex   -1.664659e+001 7.931338e+001 1.000000e+001
    endloop
  endfacet
  facet normal -4.012461e-001 9.087610e-001 0.000000e+000
    outer loop
      vertex   -1.643535e+001 7.940665e+001 1.200000e+001
      vertex   -1.664659e+001 7.931338e+001 1.000000e+001
      vertex   -1.664659e+001 7.931338e+001 1.200000e+001
    endloop
  endfacet
  facet normal -5.581209e-002 1.002016e-001 0.000000e+000
    outer loop
      vertex   -1.664659e+001 7.931338e+001 1.200000e+001
      vertex   -1.664659e+001 7.931338e+001 1.000000e+001
      vertex   -1.684832e+001 7.920101e+001 1.000000e+001
    endloop
  endfacet
  facet normal -4.833942e-001 8.678564e-001 6.938894e-018
    outer loop
      vertex   -1.664659e+001 7.931338e+001 1.200000e+001
      vertex   -1.684832e+001 7.920101e+001 1.000000e+001
      vertex   -1.684832e+001 7.920101e+001 1.200000e+001
    endloop
  endfacet
  facet normal -6.481978e-002 9.462437e-002 0.000000e+000
    outer loop
      vertex   -1.684832e+001 7.920101e+001 1.200000e+001
      vertex   -1.684832e+001 7.920101e+001 1.000000e+001
      vertex   -1.703883e+001 7.907051e+001 1.000000e+001
    endloop
  endfacet
  facet normal -5.614102e-001 8.195506e-001 6.938894e-018
    outer loop
      vertex   -1.684832e+001 7.920101e+001 1.200000e+001
      vertex   -1.703883e+001 7.907051e+001 1.000000e+001
      vertex   -1.703883e+001 7.907051e+001 1.200000e+001
    endloop
  endfacet
  facet normal -7.327420e-002 8.824091e-002 0.000000e+000
    outer loop
      vertex   -1.703883e+001 7.907051e+001 1.200000e+001
      vertex   -1.703883e+001 7.907051e+001 1.000000e+001
      vertex   -1.721648e+001 7.892299e+001 1.000000e+001
    endloop
  endfacet
  facet normal -6.346300e-001 7.642573e-001 6.938894e-018
    outer loop
      vertex   -1.703883e+001 7.907051e+001 1.200000e+001
      vertex   -1.721648e+001 7.892299e+001 1.000000e+001
      vertex   -1.721648e+001 7.892299e+001 1.200000e+001
    endloop
  endfacet
  facet normal -8.110335e-002 8.110241e-002 0.000000e+000
    outer loop
      vertex   -1.721648e+001 7.892299e+001 1.200000e+001
      vertex   -1.721648e+001 7.892299e+001 1.000000e+001
      vertex   -1.737977e+001 7.875970e+001 1.000000e+001
    endloop
  endfacet
  facet normal -7.024444e-001 7.024361e-001 0.000000e+000
    outer loop
      vertex   -1.721648e+001 7.892299e+001 1.200000e+001
      vertex   -1.737977e+001 7.875970e+001 1.000000e+001
      vertex   -1.737977e+001 7.875970e+001 1.200000e+001
    endloop
  endfacet
  facet normal -8.823904e-002 7.327326e-002 0.000000e+000
    outer loop
      vertex   -1.737977e+001 7.875970e+001 1.200000e+001
      vertex   -1.737977e+001 7.875970e+001 1.000000e+001
      vertex   -1.752729e+001 7.858205e+001 1.000000e+001
    endloop
  endfacet
  facet normal -7.642547e-001 6.346334e-001 0.000000e+000
    outer loop
      vertex   -1.737977e+001 7.875970e+001 1.200000e+001
      vertex   -1.752729e+001 7.858205e+001 1.000000e+001
      vertex   -1.752729e+001 7.858205e+001 1.200000e+001
    endloop
  endfacet
  facet normal -9.462437e-002 6.481978e-002 0.000000e+000
    outer loop
      vertex   -1.752729e+001 7.858205e+001 1.200000e+001
      vertex   -1.752729e+001 7.858205e+001 1.000000e+001
      vertex   -1.765779e+001 7.839155e+001 1.000000e+001
    endloop
  endfacet
  facet normal -8.195506e-001 5.614102e-001 -6.938894e-018
    outer loop
      vertex   -1.752729e+001 7.858205e+001 1.200000e+001
      vertex   -1.765779e+001 7.839155e+001 1.000000e+001
      vertex   -1.765779e+001 7.839155e+001 1.200000e+001
    endloop
  endfacet
  facet normal -1.002025e-001 5.581208e-002 0.000000e+000
    outer loop
      vertex   -1.765779e+001 7.839155e+001 1.200000e+001
      vertex   -1.765779e+001 7.839155e+001 1.000000e+001
      vertex   -1.777015e+001 7.818981e+001 1.000000e+001
    endloop
  endfacet
  facet normal -8.678582e-001 4.833907e-001 6.938894e-018
    outer loop
      vertex   -1.765779e+001 7.839155e+001 1.200000e+001
      vertex   -1.777015e+001 7.818981e+001 1.000000e+001
      vertex   -1.777015e+001 7.818981e+001 1.200000e+001
    endloop
  endfacet
  facet normal -1.049243e-001 4.632786e-002 0.000000e+000
    outer loop
      vertex   -1.777015e+001 7.818981e+001 1.200000e+001
      vertex   -1.777015e+001 7.818981e+001 1.000000e+001
      vertex   -1.786342e+001 7.797857e+001 1.000000e+001
    endloop
  endfacet
  facet normal -9.087591e-001 4.012499e-001 0.000000e+000
    outer loop
      vertex   -1.777015e+001 7.818981e+001 1.200000e+001
      vertex   -1.786342e+001 7.797857e+001 1.000000e+001
      vertex   -1.786342e+001 7.797857e+001 1.200000e+001
    endloop
  endfacet
  facet normal -1.087480e-001 3.644953e-002 0.000000e+000
    outer loop
      vertex   -1.786342e+001 7.797857e+001 1.200000e+001
      vertex   -1.786342e+001 7.797857e+001 1.000000e+001
      vertex   -1.793681e+001 7.775963e+001 1.000000e+001
    endloop
  endfacet
  facet normal -9.419013e-001 3.157012e-001 0.000000e+000
    outer loop
      vertex   -1.786342e+001 7.797857e+001 1.200000e+001
      vertex   -1.793681e+001 7.775963e+001 1.000000e+001
      vertex   -1.793681e+001 7.775963e+001 1.200000e+001
    endloop
  endfacet
  facet normal -1.116507e-001 2.626044e-002 0.000000e+000
    outer loop
      vertex   -1.793681e+001 7.775963e+001 1.200000e+001
      vertex   -1.793681e+001 7.775963e+001 1.000000e+001
      vertex   -1.798968e+001 7.753484e+001 1.000000e+001
    endloop
  endfacet
  facet normal -9.670130e-001 2.274432e-001 0.000000e+000
    outer loop
      vertex   -1.793681e+001 7.775963e+001 1.200000e+001
      vertex   -1.798968e+001 7.753484e+001 1.000000e+001
      vertex   -1.798968e+001 7.753484e+001 1.200000e+001
    endloop
  endfacet
  facet normal -1.135985e-001 1.584589e-002 0.000000e+000
    outer loop
      vertex   -1.798968e+001 7.753484e+001 1.200000e+001
      vertex   -1.798968e+001 7.753484e+001 1.000000e+001
      vertex   -1.802158e+001 7.730614e+001 1.000000e+001
    endloop
  endfacet
  facet normal -9.838746e-001 1.372409e-001 0.000000e+000
    outer loop
      vertex   -1.798968e+001 7.753484e+001 1.200000e+001
      vertex   -1.802158e+001 7.730614e+001 1.000000e+001
      vertex   -1.802158e+001 7.730614e+001 1.200000e+001
    endloop
  endfacet
  facet normal -9.989331e-001 4.618174e-002 0.000000e+000
    outer loop
      vertex   -1.802158e+001 7.730614e+001 1.200000e+001
      vertex   -1.802158e+001 7.730614e+001 1.000000e+001
      vertex   -1.803224e+001 7.707547e+001 1.200000e+001
    endloop
  endfacet
  facet normal -1.145724e-001 5.296806e-003 0.000000e+000
    outer loop
      vertex   -1.803224e+001 7.707547e+001 1.200000e+001
      vertex   -1.802158e+001 7.730614e+001 1.000000e+001
      vertex   -1.803224e+001 7.707547e+001 1.000000e+001
    endloop
  endfacet
  facet normal 1.000000e+000 0.000000e+000 0.000000e+000
    outer loop
      vertex   -1.303224e+001 5.707547e+001 1.000000e+001
      vertex   -1.303224e+001 7.707547e+001 1.000000e+001
      vertex   -1.303224e+001 5.707547e+001 1.200000e+001
    endloop
  endfacet
  facet normal 9.950372e-002 -0.000000e+000 0.000000e+000
    outer loop
      vertex   -1.303224e+001 5.707547e+001 1.200000e+001
      vertex   -1.303224e+001 7.707547e+001 1.000000e+001
      vertex   -1.303224e+001 7.707547e+001 1.200000e+001
    endloop
  endfacet
  facet normal -9.989331e-001 -4.618097e-002 -0.000000e+000
    outer loop
      vertex   -1.803224e+001 5.707547e+001 1.200000e+001
      vertex   -1.803224e+001 5.707547e+001 1.000000e+001
      vertex   -1.802158e+001 5.684480e+001 1.200000e+001
    endloop
  endfacet
  facet normal -1.145743e-001 -5.296805e-003 -0.000000e+000
    outer loop
      vertex   -1.802158e+001 5.684480e+001 1.200000e+001
      vertex   -1.803224e+001 5.707547e+001 1.000000e+001
      vertex   -1.802158e+001 5.684480e+001 1.000000e+001
    endloop
  endfacet
  facet normal -1.135985e-001 -1.584589e-002 -0.000000e+000
    outer loop
      vertex   -1.802158e+001 5.684480e+001 1.200000e+001
      vertex   -1.802158e+001 5.684480e+001 1.000000e+001
      vertex   -1.798968e+001 5.661609e+001 1.000000e+001
    endloop
  endfacet
  facet normal -9.838746e-001 -1.372409e-001 0.000000e+000
    outer loop
      vertex   -1.802158e+001 5.684480e+001 1.200000e+001
      vertex   -1.798968e+001 5.661609e+001 1.000000e+001
      vertex   -1.798968e+001 5.661609e+001 1.200000e+001
    endloop
  endfacet
  facet normal -1.116488e-001 -2.626045e-002 -0.000000e+000
    outer loop
      vertex   -1.798968e+001 5.661609e+001 1.200000e+001
      vertex   -1.798968e+001 5.661609e+001 1.000000e+001
      vertex   -1.793681e+001 5.639131e+001 1.000000e+001
    endloop
  endfacet
  facet normal -9.670123e-001 -2.274469e-001 0.000000e+000
    outer loop
      vertex   -1.798968e+001 5.661609e+001 1.200000e+001
      vertex   -1.793681e+001 5.639131e+001 1.000000e+001
      vertex   -1.793681e+001 5.639131e+001 1.200000e+001
    endloop
  endfacet
  facet normal -1.087517e-001 -3.644952e-002 -0.000000e+000
    outer loop
      vertex   -1.793681e+001 5.639131e+001 1.200000e+001
      vertex   -1.793681e+001 5.639131e+001 1.000000e+001
      vertex   -1.786342e+001 5.617236e+001 1.000000e+001
    endloop
  endfacet
  facet normal -9.419042e-001 -3.156912e-001 0.000000e+000
    outer loop
      vertex   -1.793681e+001 5.639131e+001 1.200000e+001
      vertex   -1.786342e+001 5.617236e+001 1.000000e+001
      vertex   -1.786342e+001 5.617236e+001 1.200000e+001
    endloop
  endfacet
  facet normal -1.049243e-001 -4.632786e-002 -0.000000e+000
    outer loop
      vertex   -1.786342e+001 5.617236e+001 1.200000e+001
      vertex   -1.786342e+001 5.617236e+001 1.000000e+001
      vertex   -1.777015e+001 5.596112e+001 1.000000e+001
    endloop
  endfacet
  facet normal -9.087591e-001 -4.012499e-001 0.000000e+000
    outer loop
      vertex   -1.786342e+001 5.617236e+001 1.200000e+001
      vertex   -1.777015e+001 5.596112e+001 1.000000e+001
      vertex   -1.777015e+001 5.596112e+001 1.200000e+001
    endloop
  endfacet
  facet normal -1.002007e-001 -5.581209e-002 -0.000000e+000
    outer loop
      vertex   -1.777015e+001 5.596112e+001 1.200000e+001
      vertex   -1.777015e+001 5.596112e+001 1.000000e+001
      vertex   -1.765779e+001 5.575939e+001 1.000000e+001
    endloop
  endfacet
  facet normal -8.678545e-001 -4.833978e-001 0.000000e+000
    outer loop
      vertex   -1.777015e+001 5.596112e+001 1.200000e+001
      vertex   -1.765779e+001 5.575939e+001 1.000000e+001
      vertex   -1.765779e+001 5.575939e+001 1.200000e+001
    endloop
  endfacet
  facet normal -9.462437e-002 -6.481978e-002 -0.000000e+000
    outer loop
      vertex   -1.765779e+001 5.575939e+001 1.200000e+001
      vertex   -1.765779e+001 5.575939e+001 1.000000e+001
      vertex   -1.752729e+001 5.556888e+001 1.000000e+001
    endloop
  endfacet
  facet normal -8.195506e-001 -5.614102e-001 6.938894e-018
    outer loop
      vertex   -1.765779e+001 5.575939e+001 1.200000e+001
      vertex   -1.752729e+001 5.556888e+001 1.000000e+001
      vertex   -1.752729e+001 5.556888e+001 1.200000e+001
    endloop
  endfacet
  facet normal -8.824092e-002 -7.327326e-002 -0.000000e+000
    outer loop
      vertex   -1.752729e+001 5.556888e+001 1.200000e+001
      vertex   -1.752729e+001 5.556888e+001 1.000000e+001
      vertex   -1.737977e+001 5.539123e+001 1.000000e+001
    endloop
  endfacet
  facet normal -7.642613e-001 -6.346253e-001 0.000000e+000
    outer loop
      vertex   -1.752729e+001 5.556888e+001 1.200000e+001
      vertex   -1.737977e+001 5.539123e+001 1.000000e+001
      vertex   -1.737977e+001 5.539123e+001 1.200000e+001
    endloop
  endfacet
  facet normal -8.110148e-002 -8.110242e-002 -0.000000e+000
    outer loop
      vertex   -1.737977e+001 5.539123e+001 1.200000e+001
      vertex   -1.737977e+001 5.539123e+001 1.000000e+001
      vertex   -1.721648e+001 5.522795e+001 1.000000e+001
    endloop
  endfacet
  facet normal -7.024363e-001 -7.024445e-001 0.000000e+000
    outer loop
      vertex   -1.737977e+001 5.539123e+001 1.200000e+001
      vertex   -1.721648e+001 5.522795e+001 1.000000e+001
      vertex   -1.721648e+001 5.522795e+001 1.200000e+001
    endloop
  endfacet
  facet normal -7.327420e-002 -8.824091e-002 -0.000000e+000
    outer loop
      vertex   -1.721648e+001 5.522795e+001 1.200000e+001
      vertex   -1.721648e+001 5.522795e+001 1.000000e+001
      vertex   -1.703883e+001 5.508043e+001 1.000000e+001
    endloop
  endfacet
  facet normal -6.346300e-001 -7.642573e-001 -6.938894e-018
    outer loop
      vertex   -1.721648e+001 5.522795e+001 1.200000e+001
      vertex   -1.703883e+001 5.508043e+001 1.000000e+001
      vertex   -1.703883e+001 5.508043e+001 1.200000e+001
    endloop
  endfacet
  facet normal -6.481978e-002 -9.462437e-002 -0.000000e+000
    outer loop
      vertex   -1.703883e+001 5.508043e+001 1.200000e+001
      vertex   -1.703883e+001 5.508043e+001 1.000000e+001
      vertex   -1.684832e+001 5.494992e+001 1.000000e+001
    endloop
  endfacet
  facet normal -5.614102e-001 -8.195506e-001 -6.938894e-018
    outer loop
      vertex   -1.703883e+001 5.508043e+001 1.200000e+001
      vertex   -1.684832e+001 5.494992e+001 1.000000e+001
      vertex   -1.684832e+001 5.494992e+001 1.200000e+001
    endloop
  endfacet
  facet normal -5.581209e-002 -1.002016e-001 -0.000000e+000
    outer loop
      vertex   -1.684832e+001 5.494992e+001 1.200000e+001
      vertex   -1.684832e+001 5.494992e+001 1.000000e+001
      vertex   -1.664659e+001 5.483756e+001 1.000000e+001
    endloop
  endfacet
  facet normal -4.833942e-001 -8.678564e-001 -6.938894e-018
    outer loop
      vertex   -1.684832e+001 5.494992e+001 1.200000e+001
      vertex   -1.664659e+001 5.483756e+001 1.000000e+001
      vertex   -1.664659e+001 5.483756e+001 1.200000e+001
    endloop
  endfacet
  facet normal -4.632692e-002 -1.049234e-001 -0.000000e+000
    outer loop
      vertex   -1.664659e+001 5.483756e+001 1.200000e+001
      vertex   -1.664659e+001 5.483756e+001 1.000000e+001
      vertex   -1.643535e+001 5.474429e+001 1.000000e+001
    endloop
  endfacet
  facet normal -4.012461e-001 -9.087610e-001 0.000000e+000
    outer loop
      vertex   -1.664659e+001 5.483756e+001 1.200000e+001
      vertex   -1.643535e+001 5.474429e+001 1.000000e+001
      vertex   -1.643535e+001 5.474429e+001 1.200000e+001
    endloop
  endfacet
  facet normal -3.645141e-002 -1.087508e-001 -0.000000e+000
    outer loop
      vertex   -1.643535e+001 5.474429e+001 1.200000e+001
      vertex   -1.643535e+001 5.474429e+001 1.000000e+001
      vertex   -1.621640e+001 5.467090e+001 1.000000e+001
    endloop
  endfacet
  facet normal -3.157084e-001 -9.418985e-001 0.000000e+000
    outer loop
      vertex   -1.643535e+001 5.474429e+001 1.200000e+001
      vertex   -1.621640e+001 5.467090e+001 1.000000e+001
      vertex   -1.621640e+001 5.467090e+001 1.200000e+001
    endloop
  endfacet
  facet normal -2.625949e-002 -1.116502e-001 -0.000000e+000
    outer loop
      vertex   -1.621640e+001 5.467090e+001 1.200000e+001
      vertex   -1.621640e+001 5.467090e+001 1.000000e+001
      vertex   -1.599162e+001 5.461803e+001 1.000000e+001
    endloop
  endfacet
  facet normal -2.274363e-001 -9.670147e-001 0.000000e+000
    outer loop
      vertex   -1.621640e+001 5.467090e+001 1.200000e+001
      vertex   -1.599162e+001 5.461803e+001 1.000000e+001
      vertex   -1.599162e+001 5.461803e+001 1.200000e+001
    endloop
  endfacet
  facet normal -1.584589e-002 -1.135971e-001 -0.000000e+000
    outer loop
      vertex   -1.599162e+001 5.461803e+001 1.200000e+001
      vertex   -1.599162e+001 5.461803e+001 1.000000e+001
      vertex   -1.576291e+001 5.458613e+001 1.000000e+001
    endloop
  endfacet
  facet normal -1.372426e-001 -9.838745e-001 0.000000e+000
    outer loop
      vertex   -1.599162e+001 5.461803e+001 1.200000e+001
      vertex   -1.576291e+001 5.458613e+001 1.000000e+001
      vertex   -1.576291e+001 5.458613e+001 1.200000e+001
    endloop
  endfacet
  facet normal -5.295858e-003 -1.145743e-001 -0.000000e+000
    outer loop
      vertex   -1.576291e+001 5.458613e+001 1.200000e+001
      vertex   -1.576291e+001 5.458613e+001 1.000000e+001
      vertex   -1.553224e+001 5.457547e+001 1.000000e+001
    endloop
  endfacet
  facet normal -4.586802e-002 -9.923411e-001 0.000000e+000
    outer loop
      vertex   -1.576291e+001 5.458613e+001 1.200000e+001
      vertex   -1.553224e+001 5.457547e+001 1.000000e+001
      vertex   -1.553224e+001 5.457547e+001 1.200000e+001
    endloop
  endfacet
  facet normal 5.295858e-003 -1.145743e-001 0.000000e+000
    outer loop
      vertex   -1.553224e+001 5.457547e+001 1.200000e+001
      vertex   -1.553224e+001 5.457547e+001 1.000000e+001
      vertex   -1.530157e+001 5.458613e+001 1.000000e+001
    endloop
  endfacet
  facet normal 4.586802e-002 -9.923411e-001 0.000000e+000
    outer loop
      vertex   -1.553224e+001 5.457547e+001 1.200000e+001
      vertex   -1.530157e+001 5.458613e+001 1.000000e+001
      vertex   -1.530157e+001 5.458613e+001 1.200000e+001
    endloop
  endfacet
  facet normal 1.584589e-002 -1.135966e-001 0.000000e+000
    outer loop
      vertex   -1.530157e+001 5.458613e+001 1.200000e+001
      vertex   -1.530157e+001 5.458613e+001 1.000000e+001
      vertex   -1.507287e+001 5.461803e+001 1.000000e+001
    endloop
  endfacet
  facet normal 1.372432e-001 -9.838745e-001 0.000000e+000
    outer loop
      vertex   -1.530157e+001 5.458613e+001 1.200000e+001
      vertex   -1.507287e+001 5.461803e+001 1.000000e+001
      vertex   -1.507287e+001 5.461803e+001 1.200000e+001
    endloop
  endfacet
  facet normal 2.625949e-002 -1.116502e-001 0.000000e+000
    outer loop
      vertex   -1.507287e+001 5.461803e+001 1.200000e+001
      vertex   -1.507287e+001 5.461803e+001 1.000000e+001
      vertex   -1.484809e+001 5.467090e+001 1.000000e+001
    endloop
  endfacet
  facet normal 2.274363e-001 -9.670147e-001 0.000000e+000
    outer loop
      vertex   -1.507287e+001 5.461803e+001 1.200000e+001
      vertex   -1.484809e+001 5.467090e+001 1.000000e+001
      vertex   -1.484809e+001 5.467090e+001 1.200000e+001
    endloop
  endfacet
  facet normal 3.645141e-002 -1.087508e-001 0.000000e+000
    outer loop
      vertex   -1.484809e+001 5.467090e+001 1.200000e+001
      vertex   -1.484809e+001 5.467090e+001 1.000000e+001
      vertex   -1.462914e+001 5.474429e+001 1.000000e+001
    endloop
  endfacet
  facet normal 3.157084e-001 -9.418985e-001 0.000000e+000
    outer loop
      vertex   -1.484809e+001 5.467090e+001 1.200000e+001
      vertex   -1.462914e+001 5.474429e+001 1.000000e+001
      vertex   -1.462914e+001 5.474429e+001 1.200000e+001
    endloop
  endfacet
  facet normal 4.632691e-002 -1.049238e-001 0.000000e+000
    outer loop
      vertex   -1.462914e+001 5.474429e+001 1.200000e+001
      vertex   -1.462914e+001 5.474429e+001 1.000000e+001
      vertex   -1.441790e+001 5.483756e+001 1.000000e+001
    endloop
  endfacet
  facet normal 4.012446e-001 -9.087616e-001 -6.938894e-018
    outer loop
      vertex   -1.462914e+001 5.474429e+001 1.200000e+001
      vertex   -1.441790e+001 5.483756e+001 1.000000e+001
      vertex   -1.441790e+001 5.483756e+001 1.200000e+001
    endloop
  endfacet
  facet normal 5.581209e-002 -1.002016e-001 0.000000e+000
    outer loop
      vertex   -1.441790e+001 5.483756e+001 1.200000e+001
      vertex   -1.441790e+001 5.483756e+001 1.000000e+001
      vertex   -1.421616e+001 5.494992e+001 1.000000e+001
    endloop
  endfacet
  facet normal 4.833942e-001 -8.678564e-001 6.938894e-018
    outer loop
      vertex   -1.441790e+001 5.483756e+001 1.200000e+001
      vertex   -1.421616e+001 5.494992e+001 1.000000e+001
      vertex   -1.421616e+001 5.494992e+001 1.200000e+001
    endloop
  endfacet
  facet normal 6.481978e-002 -9.462437e-002 0.000000e+000
    outer loop
      vertex   -1.421616e+001 5.494992e+001 1.200000e+001
      vertex   -1.421616e+001 5.494992e+001 1.000000e+001
      vertex   -1.402566e+001 5.508043e+001 1.000000e+001
    endloop
  endfacet
  facet normal 5.614102e-001 -8.195506e-001 6.938894e-018
    outer loop
      vertex   -1.421616e+001 5.494992e+001 1.200000e+001
      vertex   -1.402566e+001 5.508043e+001 1.000000e+001
      vertex   -1.402566e+001 5.508043e+001 1.200000e+001
    endloop
  endfacet
  facet normal 7.327420e-002 -8.823998e-002 0.000000e+000
    outer loop
      vertex   -1.402566e+001 5.508043e+001 1.200000e+001
      vertex   -1.402566e+001 5.508043e+001 1.000000e+001
      vertex   -1.384801e+001 5.522795e+001 1.000000e+001
    endloop
  endfacet
  facet normal 6.346341e-001 -7.642540e-001 6.938894e-018
    outer loop
      vertex   -1.402566e+001 5.508043e+001 1.200000e+001
      vertex   -1.384801e+001 5.522795e+001 1.000000e+001
      vertex   -1.384801e+001 5.522795e+001 1.200000e+001
    endloop
  endfacet
  facet normal 8.110147e-002 -8.110289e-002 0.000000e+000
    outer loop
      vertex   -1.384801e+001 5.522795e+001 1.200000e+001
      vertex   -1.384801e+001 5.522795e+001 1.000000e+001
      vertex   -1.368472e+001 5.539123e+001 1.000000e+001
    endloop
  endfacet
  facet normal 7.024342e-001 -7.024465e-001 0.000000e+000
    outer loop
      vertex   -1.384801e+001 5.522795e+001 1.200000e+001
      vertex   -1.368472e+001 5.539123e+001 1.000000e+001
      vertex   -1.368472e+001 5.539123e+001 1.200000e+001
    endloop
  endfacet
  facet normal 8.824091e-002 -7.327373e-002 0.000000e+000
    outer loop
      vertex   -1.368472e+001 5.539123e+001 1.200000e+001
      vertex   -1.368472e+001 5.539123e+001 1.000000e+001
      vertex   -1.353720e+001 5.556888e+001 1.000000e+001
    endloop
  endfacet
  facet normal 7.642593e-001 -6.346276e-001 -6.938894e-018
    outer loop
      vertex   -1.368472e+001 5.539123e+001 1.200000e+001
      vertex   -1.353720e+001 5.556888e+001 1.000000e+001
      vertex   -1.353720e+001 5.556888e+001 1.200000e+001
    endloop
  endfacet
  facet normal 9.462438e-002 -6.481931e-002 0.000000e+000
    outer loop
      vertex   -1.353720e+001 5.556888e+001 1.200000e+001
      vertex   -1.353720e+001 5.556888e+001 1.000000e+001
      vertex   -1.340670e+001 5.575939e+001 1.000000e+001
    endloop
  endfacet
  facet normal 8.195525e-001 -5.614074e-001 0.000000e+000
    outer loop
      vertex   -1.353720e+001 5.556888e+001 1.200000e+001
      vertex   -1.340670e+001 5.575939e+001 1.000000e+001
      vertex   -1.340670e+001 5.575939e+001 1.200000e+001
    endloop
  endfacet
  facet normal 1.002007e-001 -5.581162e-002 0.000000e+000
    outer loop
      vertex   -1.340670e+001 5.575939e+001 1.200000e+001
      vertex   -1.340670e+001 5.575939e+001 1.000000e+001
      vertex   -1.329434e+001 5.596112e+001 1.000000e+001
    endloop
  endfacet
  facet normal 8.678563e-001 -4.833946e-001 0.000000e+000
    outer loop
      vertex   -1.340670e+001 5.575939e+001 1.200000e+001
      vertex   -1.329434e+001 5.596112e+001 1.000000e+001
      vertex   -1.329434e+001 5.596112e+001 1.200000e+001
    endloop
  endfacet
  facet normal 1.049243e-001 -4.632880e-002 0.000000e+000
    outer loop
      vertex   -1.329434e+001 5.596112e+001 1.200000e+001
      vertex   -1.329434e+001 5.596112e+001 1.000000e+001
      vertex   -1.320106e+001 5.617236e+001 1.000000e+001
    endloop
  endfacet
  facet normal 9.087560e-001 -4.012568e-001 6.938894e-018
    outer loop
      vertex   -1.329434e+001 5.596112e+001 1.200000e+001
      vertex   -1.320106e+001 5.617236e+001 1.000000e+001
      vertex   -1.320106e+001 5.617236e+001 1.200000e+001
    endloop
  endfacet
  facet normal 1.087517e-001 -3.644952e-002 0.000000e+000
    outer loop
      vertex   -1.320106e+001 5.617236e+001 1.200000e+001
      vertex   -1.320106e+001 5.617236e+001 1.000000e+001
      vertex   -1.312768e+001 5.639131e+001 1.000000e+001
    endloop
  endfacet
  facet normal 9.419042e-001 -3.156912e-001 0.000000e+000
    outer loop
      vertex   -1.320106e+001 5.617236e+001 1.200000e+001
      vertex   -1.312768e+001 5.639131e+001 1.000000e+001
      vertex   -1.312768e+001 5.639131e+001 1.200000e+001
    endloop
  endfacet
  facet normal 1.116488e-001 -2.625997e-002 0.000000e+000
    outer loop
      vertex   -1.312768e+001 5.639131e+001 1.200000e+001
      vertex   -1.312768e+001 5.639131e+001 1.000000e+001
      vertex   -1.307481e+001 5.661609e+001 1.000000e+001
    endloop
  endfacet
  facet normal 9.670132e-001 -2.274430e-001 0.000000e+000
    outer loop
      vertex   -1.312768e+001 5.639131e+001 1.200000e+001
      vertex   -1.307481e+001 5.661609e+001 1.000000e+001
      vertex   -1.307481e+001 5.661609e+001 1.200000e+001
    endloop
  endfacet
  facet normal 1.135985e-001 -1.584589e-002 0.000000e+000
    outer loop
      vertex   -1.307481e+001 5.661609e+001 1.200000e+001
      vertex   -1.307481e+001 5.661609e+001 1.000000e+001
      vertex   -1.304291e+001 5.684480e+001 1.000000e+001
    endloop
  endfacet
  facet normal 9.838746e-001 -1.372409e-001 0.000000e+000
    outer loop
      vertex   -1.307481e+001 5.661609e+001 1.200000e+001
      vertex   -1.304291e+001 5.684480e+001 1.000000e+001
      vertex   -1.304291e+001 5.684480e+001 1.200000e+001
    endloop
  endfacet
  facet normal 9.989329e-001 -4.618510e-002 0.000000e+000
    outer loop
      vertex   -1.304291e+001 5.684480e+001 1.200000e+001
      vertex   -1.304291e+001 5.684480e+001 1.000000e+001
      vertex   -1.303224e+001 5.707547e+001 1.200000e+001
    endloop
  endfacet
  facet normal 1.145743e-001 -5.297279e-003 0.000000e+000
    outer loop
      vertex   -1.303224e+001 5.707547e+001 1.200000e+001
      vertex   -1.304291e+001 5.684480e+001 1.000000e+001
      vertex   -1.303224e+001 5.707547e+001 1.000000e+001
    endloop
  endfacet
  facet normal -0.000000e+000 -0.000000e+000 9.226716e-002
    outer loop
      vertex   -1.802158e+001 5.684480e+001 1.200000e+001
      vertex   -1.798968e+001 5.661609e+001 1.200000e+001
      vertex   -1.803224e+001 5.707547e+001 1.200000e+001
    endloop
  endfacet
  facet normal 0.000000e+000 0.000000e+000 4.618633e-002
    outer loop
      vertex   -1.803224e+001 5.707547e+001 1.200000e+001
      vertex   -1.798968e+001 5.661609e+001 1.200000e+001
      vertex   -1.793681e+001 5.639131e+001 1.200000e+001
    endloop
  endfacet
  facet normal 0.000000e+000 0.000000e+000 4.618283e-002
    outer loop
      vertex   -1.803224e+001 5.707547e+001 1.200000e+001
      vertex   -1.793681e+001 5.639131e+001 1.200000e+001
      vertex   -1.786342e+001 5.617236e+001 1.200000e+001
    endloop
  endfacet
  facet normal -0.000000e+000 -0.000000e+000 2.289452e-001
    outer loop
      vertex   -1.786342e+001 5.617236e+001 1.200000e+001
      vertex   -1.777015e+001 5.596112e+001 1.200000e+001
      vertex   -1.803224e+001 5.707547e+001 1.200000e+001
    endloop
  endfacet
  facet normal 0.000000e+000 0.000000e+000 4.618423e-002
    outer loop
      vertex   -1.803224e+001 5.707547e+001 1.200000e+001
      vertex   -1.777015e+001 5.596112e+001 1.200000e+001
      vertex   -1.765779e+001 5.575939e+001 1.200000e+001
    endloop
  endfacet
  facet normal 0.000000e+000 0.000000e+000 4.618419e-002
    outer loop
      vertex   -1.803224e+001 5.707547e+001 1.200000e+001
      vertex   -1.765779e+001 5.575939e+001 1.200000e+001
      vertex   -1.752729e+001 5.556888e+001 1.200000e+001
    endloop
  endfacet
  facet normal -0.000000e+000 -0.000000e+000 3.612351e-001
    outer loop
      vertex   -1.752729e+001 5.556888e+001 1.200000e+001
      vertex   -1.737977e+001 5.539123e+001 1.200000e+001
      vertex   -1.803224e+001 5.707547e+001 1.200000e+001
    endloop
  endfacet
  facet normal 0.000000e+000 0.000000e+000 4.618367e-002
    outer loop
      vertex   -1.803224e+001 5.707547e+001 1.200000e+001
      vertex   -1.737977e+001 5.539123e+001 1.200000e+001
      vertex   -1.721648e+001 5.522795e+001 1.200000e+001
    endloop
  endfacet
  facet normal 0.000000e+000 0.000000e+000 4.618398e-002
    outer loop
      vertex   -1.803224e+001 5.707547e+001 1.200000e+001
      vertex   -1.721648e+001 5.522795e+001 1.200000e+001
      vertex   -1.703883e+001 5.508043e+001 1.200000e+001
    endloop
  endfacet
  facet normal 0.000000e+000 -0.000000e+000 8.249952e-001
    outer loop
      vertex   -1.684832e+001 5.494992e+001 1.200000e+001
      vertex   -1.684832e+001 7.920101e+001 1.200000e+001
      vertex   -1.703883e+001 5.508043e+001 1.200000e+001
    endloop
  endfacet
  facet normal 0.000000e+000 0.000000e+000 7.897819e-003
    outer loop
      vertex   -1.703883e+001 5.508043e+001 1.200000e+001
      vertex   -1.684832e+001 7.920101e+001 1.200000e+001
      vertex   -1.703883e+001 7.907051e+001 1.200000e+001
    endloop
  endfacet
  facet normal 0.000000e+000 -0.000000e+000 4.457383e-001
    outer loop
      vertex   -1.703883e+001 5.508043e+001 1.200000e+001
      vertex   -1.703883e+001 7.907051e+001 1.200000e+001
      vertex   -1.803224e+001 5.707547e+001 1.200000e+001
    endloop
  endfacet
  facet normal 0.000000e+000 0.000000e+000 4.511936e-002
    outer loop
      vertex   -1.803224e+001 5.707547e+001 1.200000e+001
      vertex   -1.703883e+001 7.907051e+001 1.200000e+001
      vertex   -1.803224e+001 7.707547e+001 1.200000e+001
    endloop
  endfacet
  facet normal 0.000000e+000 0.000000e+000 4.618398e-002
    outer loop
      vertex   -1.803224e+001 7.707547e+001 1.200000e+001
      vertex   -1.703883e+001 7.907051e+001 1.200000e+001
      vertex   -1.721648e+001 7.892299e+001 1.200000e+001
    endloop
  endfacet
  facet normal 0.000000e+000 0.000000e+000 4.618290e-002
    outer loop
      vertex   -1.803224e+001 7.707547e+001 1.200000e+001
      vertex   -1.721648e+001 7.892299e+001 1.200000e+001
      vertex   -1.737977e+001 7.875970e+001 1.200000e+001
    endloop
  endfacet
  facet normal -0.000000e+000 0.000000e+000 8.736218e-001
    outer loop
      vertex   -1.684832e+001 7.920101e+001 1.200000e+001
      vertex   -1.684832e+001 5.494992e+001 1.200000e+001
      vertex   -1.664659e+001 7.931338e+001 1.200000e+001
    endloop
  endfacet
  facet normal 0.000000e+000 0.000000e+000 8.279928e-003
    outer loop
      vertex   -1.664659e+001 7.931338e+001 1.200000e+001
      vertex   -1.684832e+001 5.494992e+001 1.200000e+001
      vertex   -1.664659e+001 5.483756e+001 1.200000e+001
    endloop
  endfacet
  facet normal -0.000000e+000 0.000000e+000 9.147980e-001
    outer loop
      vertex   -1.664659e+001 7.931338e+001 1.200000e+001
      vertex   -1.664659e+001 5.483756e+001 1.200000e+001
      vertex   -1.643535e+001 7.940665e+001 1.200000e+001
    endloop
  endfacet
  facet normal 0.000000e+000 0.000000e+000 8.597509e-003
    outer loop
      vertex   -1.643535e+001 7.940665e+001 1.200000e+001
      vertex   -1.664659e+001 5.483756e+001 1.200000e+001
      vertex   -1.643535e+001 5.474429e+001 1.200000e+001
    endloop
  endfacet
  facet normal -0.000000e+000 0.000000e+000 9.481558e-001
    outer loop
      vertex   -1.643535e+001 7.940665e+001 1.200000e+001
      vertex   -1.643535e+001 5.474429e+001 1.200000e+001
      vertex   -1.621640e+001 7.948003e+001 1.200000e+001
    endloop
  endfacet
  facet normal 0.000000e+000 0.000000e+000 8.851073e-003
    outer loop
      vertex   -1.621640e+001 7.948003e+001 1.200000e+001
      vertex   -1.643535e+001 5.474429e+001 1.200000e+001
      vertex   -1.621640e+001 5.467090e+001 1.200000e+001
    endloop
  endfacet
  facet normal -0.000000e+000 0.000000e+000 9.734425e-001
    outer loop
      vertex   -1.621640e+001 7.948003e+001 1.200000e+001
      vertex   -1.621640e+001 5.467090e+001 1.200000e+001
      vertex   -1.599162e+001 7.953290e+001 1.200000e+001
    endloop
  endfacet
  facet normal 0.000000e+000 0.000000e+000 9.040896e-003
    outer loop
      vertex   -1.599162e+001 7.953290e+001 1.200000e+001
      vertex   -1.621640e+001 5.467090e+001 1.200000e+001
      vertex   -1.599162e+001 5.461803e+001 1.200000e+001
    endloop
  endfacet
  facet normal -0.000000e+000 0.000000e+000 9.904084e-001
    outer loop
      vertex   -1.599162e+001 7.953290e+001 1.200000e+001
      vertex   -1.599162e+001 5.461803e+001 1.200000e+001
      vertex   -1.576291e+001 7.956480e+001 1.200000e+001
    endloop
  endfacet
  facet normal 0.000000e+000 0.000000e+000 9.167274e-003
    outer loop
      vertex   -1.576291e+001 7.956480e+001 1.200000e+001
      vertex   -1.599162e+001 5.461803e+001 1.200000e+001
      vertex   -1.576291e+001 5.458613e+001 1.200000e+001
    endloop
  endfacet
  facet normal -0.000000e+000 0.000000e+000 9.989327e-001
    outer loop
      vertex   -1.576291e+001 7.956480e+001 1.200000e+001
      vertex   -1.576291e+001 5.458613e+001 1.200000e+001
      vertex   -1.553224e+001 7.957547e+001 1.200000e+001
    endloop
  endfacet
  facet normal 0.000000e+000 0.000000e+000 9.230381e-003
    outer loop
      vertex   -1.553224e+001 7.957547e+001 1.200000e+001
      vertex   -1.576291e+001 5.458613e+001 1.200000e+001
      vertex   -1.553224e+001 5.457547e+001 1.200000e+001
    endloop
  endfacet
  facet normal 0.000000e+000 0.000000e+000 9.989327e-001
    outer loop
      vertex   -1.553224e+001 7.957547e+001 1.200000e+001
      vertex   -1.553224e+001 5.457547e+001 1.200000e+001
      vertex   -1.530157e+001 7.956480e+001 1.200000e+001
    endloop
  endfacet
  facet normal 0.000000e+000 0.000000e+000 9.230382e-003
    outer loop
      vertex   -1.530157e+001 7.956480e+001 1.200000e+001
      vertex   -1.553224e+001 5.457547e+001 1.200000e+001
      vertex   -1.530157e+001 5.458613e+001 1.200000e+001
    endloop
  endfacet
  facet normal 0.000000e+000 0.000000e+000 9.904084e-001
    outer loop
      vertex   -1.530157e+001 7.956480e+001 1.200000e+001
      vertex   -1.530157e+001 5.458613e+001 1.200000e+001
      vertex   -1.507287e+001 7.953290e+001 1.200000e+001
    endloop
  endfacet
  facet normal 0.000000e+000 0.000000e+000 9.167238e-003
    outer loop
      vertex   -1.507287e+001 7.953290e+001 1.200000e+001
      vertex   -1.530157e+001 5.458613e+001 1.200000e+001
      vertex   -1.507287e+001 5.461803e+001 1.200000e+001
    endloop
  endfacet
  facet normal 0.000000e+000 0.000000e+000 9.734425e-001
    outer loop
      vertex   -1.507287e+001 7.953290e+001 1.200000e+001
      vertex   -1.507287e+001 5.461803e+001 1.200000e+001
      vertex   -1.484809e+001 7.948003e+001 1.200000e+001
    endloop
  endfacet
  facet normal 0.000000e+000 0.000000e+000 9.040894e-003
    outer loop
      vertex   -1.484809e+001 7.948003e+001 1.200000e+001
      vertex   -1.507287e+001 5.461803e+001 1.200000e+001
      vertex   -1.484809e+001 5.467090e+001 1.200000e+001
    endloop
  endfacet
  facet normal 0.000000e+000 0.000000e+000 9.481558e-001
    outer loop
      vertex   -1.484809e+001 7.948003e+001 1.200000e+001
      vertex   -1.484809e+001 5.467090e+001 1.200000e+001
      vertex   -1.462914e+001 7.940665e+001 1.200000e+001
    endloop
  endfacet
  facet normal 0.000000e+000 0.000000e+000 8.851073e-003
    outer loop
      vertex   -1.462914e+001 7.940665e+001 1.200000e+001
      vertex   -1.484809e+001 5.467090e+001 1.200000e+001
      vertex   -1.462914e+001 5.474429e+001 1.200000e+001
    endloop
  endfacet
  facet normal 0.000000e+000 0.000000e+000 9.147987e-001
    outer loop
      vertex   -1.462914e+001 7.940665e+001 1.200000e+001
      vertex   -1.462914e+001 5.474429e+001 1.200000e+001
      vertex   -1.441790e+001 7.931338e+001 1.200000e+001
    endloop
  endfacet
  facet normal 0.000000e+000 0.000000e+000 8.597548e-003
    outer loop
      vertex   -1.441790e+001 7.931338e+001 1.200000e+001
      vertex   -1.462914e+001 5.474429e+001 1.200000e+001
      vertex   -1.441790e+001 5.483756e+001 1.200000e+001
    endloop
  endfacet
  facet normal 0.000000e+000 0.000000e+000 8.736218e-001
    outer loop
      vertex   -1.441790e+001 7.931338e+001 1.200000e+001
      vertex   -1.441790e+001 5.483756e+001 1.200000e+001
      vertex   -1.421616e+001 7.920101e+001 1.200000e+001
    endloop
  endfacet
  facet normal 0.000000e+000 0.000000e+000 8.279928e-003
    outer loop
      vertex   -1.421616e+001 7.920101e+001 1.200000e+001
      vertex   -1.441790e+001 5.483756e+001 1.200000e+001
      vertex   -1.421616e+001 5.494992e+001 1.200000e+001
    endloop
  endfacet
  facet normal 0.000000e+000 0.000000e+000 8.249952e-001
    outer loop
      vertex   -1.421616e+001 7.920101e+001 1.200000e+001
      vertex   -1.421616e+001 5.494992e+001 1.200000e+001
      vertex   -1.402566e+001 7.907051e+001 1.200000e+001
    endloop
  endfacet
  facet normal 0.000000e+000 0.000000e+000 7.897819e-003
    outer loop
      vertex   -1.402566e+001 7.907051e+001 1.200000e+001
      vertex   -1.421616e+001 5.494992e+001 1.200000e+001
      vertex   -1.402566e+001 5.508043e+001 1.200000e+001
    endloop
  endfacet
  facet normal 0.000000e+000 0.000000e+000 4.457389e-001
    outer loop
      vertex   -1.402566e+001 7.907051e+001 1.200000e+001
      vertex   -1.402566e+001 5.508043e+001 1.200000e+001
      vertex   -1.303224e+001 7.707547e+001 1.200000e+001
    endloop
  endfacet
  facet normal 0.000000e+000 0.000000e+000 4.511936e-002
    outer loop
      vertex   -1.303224e+001 7.707547e+001 1.200000e+001
      vertex   -1.402566e+001 5.508043e+001 1.200000e+001
      vertex   -1.303224e+001 5.707547e+001 1.200000e+001
    endloop
  endfacet
  facet normal 0.000000e+000 0.000000e+000 4.618312e-002
    outer loop
      vertex   -1.303224e+001 5.707547e+001 1.200000e+001
      vertex   -1.402566e+001 5.508043e+001 1.200000e+001
      vertex   -1.384801e+001 5.522795e+001 1.200000e+001
    endloop
  endfacet
  facet normal 0.000000e+000 0.000000e+000 4.618404e-002
    outer loop
      vertex   -1.303224e+001 5.707547e+001 1.200000e+001
      vertex   -1.384801e+001 5.522795e+001 1.200000e+001
      vertex   -1.368472e+001 5.539123e+001 1.200000e+001
    endloop
  endfacet
  facet normal 0.000000e+000 0.000000e+000 3.177879e-001
    outer loop
      vertex   -1.368472e+001 5.539123e+001 1.200000e+001
      vertex   -1.353720e+001 5.556888e+001 1.200000e+001
      vertex   -1.303224e+001 5.707547e+001 1.200000e+001
    endloop
  endfacet
  facet normal 0.000000e+000 0.000000e+000 4.618352e-002
    outer loop
      vertex   -1.303224e+001 5.707547e+001 1.200000e+001
      vertex   -1.353720e+001 5.556888e+001 1.200000e+001
      vertex   -1.340670e+001 5.575939e+001 1.200000e+001
    endloop
  endfacet
  facet normal 0.000000e+000 0.000000e+000 4.618328e-002
    outer loop
      vertex   -1.303224e+001 5.707547e+001 1.200000e+001
      vertex   -1.340670e+001 5.575939e+001 1.200000e+001
      vertex   -1.329434e+001 5.596112e+001 1.200000e+001
    endloop
  endfacet
  facet normal 0.000000e+000 0.000000e+000 1.837511e-001
    outer loop
      vertex   -1.329434e+001 5.596112e+001 1.200000e+001
      vertex   -1.320106e+001 5.617236e+001 1.200000e+001
      vertex   -1.303224e+001 5.707547e+001 1.200000e+001
    endloop
  endfacet
  facet normal 0.000000e+000 0.000000e+000 4.618283e-002
    outer loop
      vertex   -1.303224e+001 5.707547e+001 1.200000e+001
      vertex   -1.320106e+001 5.617236e+001 1.200000e+001
      vertex   -1.312768e+001 5.639131e+001 1.200000e+001
    endloop
  endfacet
  facet normal 0.000000e+000 0.000000e+000 4.618428e-002
    outer loop
      vertex   -1.303224e+001 5.707547e+001 1.200000e+001
      vertex   -1.312768e+001 5.639131e+001 1.200000e+001
      vertex   -1.307481e+001 5.661609e+001 1.200000e+001
    endloop
  endfacet
  facet normal 0.000000e+000 0.000000e+000 4.618046e-002
    outer loop
      vertex   -1.307481e+001 5.661609e+001 1.200000e+001
      vertex   -1.304291e+001 5.684480e+001 1.200000e+001
      vertex   -1.303224e+001 5.707547e+001 1.200000e+001
    endloop
  endfacet
  facet normal 0.000000e+000 0.000000e+000 9.226229e-002
    outer loop
      vertex   -1.304291e+001 7.730614e+001 1.200000e+001
      vertex   -1.307481e+001 7.753484e+001 1.200000e+001
      vertex   -1.303224e+001 7.707547e+001 1.200000e+001
    endloop
  endfacet
  facet normal 0.000000e+000 0.000000e+000 4.618351e-002
    outer loop
      vertex   -1.303224e+001 7.707547e+001 1.200000e+001
      vertex   -1.307481e+001 7.753484e+001 1.200000e+001
      vertex   -1.312768e+001 7.775963e+001 1.200000e+001
    endloop
  endfacet
  facet normal 0.000000e+000 0.000000e+000 4.618436e-002
    outer loop
      vertex   -1.303224e+001 7.707547e+001 1.200000e+001
      vertex   -1.312768e+001 7.775963e+001 1.200000e+001
      vertex   -1.320106e+001 7.797857e+001 1.200000e+001
    endloop
  endfacet
  facet normal 0.000000e+000 0.000000e+000 2.289511e-001
    outer loop
      vertex   -1.320106e+001 7.797857e+001 1.200000e+001
      vertex   -1.329434e+001 7.818981e+001 1.200000e+001
      vertex   -1.303224e+001 7.707547e+001 1.200000e+001
    endloop
  endfacet
  facet normal 0.000000e+000 0.000000e+000 4.618252e-002
    outer loop
      vertex   -1.303224e+001 7.707547e+001 1.200000e+001
      vertex   -1.329434e+001 7.818981e+001 1.200000e+001
      vertex   -1.340670e+001 7.839155e+001 1.200000e+001
    endloop
  endfacet
  facet normal 0.000000e+000 0.000000e+000 4.618352e-002
    outer loop
      vertex   -1.303224e+001 7.707547e+001 1.200000e+001
      vertex   -1.340670e+001 7.839155e+001 1.200000e+001
      vertex   -1.353720e+001 7.858205e+001 1.200000e+001
    endloop
  endfacet
  facet normal 0.000000e+000 0.000000e+000 3.612472e-001
    outer loop
      vertex   -1.353720e+001 7.858205e+001 1.200000e+001
      vertex   -1.368472e+001 7.875970e+001 1.200000e+001
      vertex   -1.303224e+001 7.707547e+001 1.200000e+001
    endloop
  endfacet
  facet normal 0.000000e+000 0.000000e+000 4.618328e-002
    outer loop
      vertex   -1.303224e+001 7.707547e+001 1.200000e+001
      vertex   -1.368472e+001 7.875970e+001 1.200000e+001
      vertex   -1.384801e+001 7.892299e+001 1.200000e+001
    endloop
  endfacet
  facet normal 0.000000e+000 0.000000e+000 4.618312e-002
    outer loop
      vertex   -1.303224e+001 7.707547e+001 1.200000e+001
      vertex   -1.384801e+001 7.892299e+001 1.200000e+001
      vertex   -1.402566e+001 7.907051e+001 1.200000e+001
    endloop
  endfacet
  facet normal 0.000000e+000 0.000000e+000 3.177940e-001
    outer loop
      vertex   -1.737977e+001 7.875970e+001 1.200000e+001
      vertex   -1.752729e+001 7.858205e+001 1.200000e+001
      vertex   -1.803224e+001 7.707547e+001 1.200000e+001
    endloop
  endfacet
  facet normal 0.000000e+000 0.000000e+000 4.618419e-002
    outer loop
      vertex   -1.803224e+001 7.707547e+001 1.200000e+001
      vertex   -1.752729e+001 7.858205e+001 1.200000e+001
      vertex   -1.765779e+001 7.839155e+001 1.200000e+001
    endloop
  endfacet
  facet normal 0.000000e+000 0.000000e+000 4.618347e-002
    outer loop
      vertex   -1.803224e+001 7.707547e+001 1.200000e+001
      vertex   -1.765779e+001 7.839155e+001 1.200000e+001
      vertex   -1.777015e+001 7.818981e+001 1.200000e+001
    endloop
  endfacet
  facet normal 0.000000e+000 0.000000e+000 1.837437e-001
    outer loop
      vertex   -1.777015e+001 7.818981e+001 1.200000e+001
      vertex   -1.786342e+001 7.797857e+001 1.200000e+001
      vertex   -1.803224e+001 7.707547e+001 1.200000e+001
    endloop
  endfacet
  facet normal 0.000000e+000 0.000000e+000 4.618436e-002
    outer loop
      vertex   -1.803224e+001 7.707547e+001 1.200000e+001
      vertex   -1.786342e+001 7.797857e+001 1.200000e+001
      vertex   -1.793681e+001 7.775963e+001 1.200000e+001
    endloop
  endfacet
  facet normal 0.000000e+000 0.000000e+000 4.618557e-002
    outer loop
      vertex   -1.803224e+001 7.707547e+001 1.200000e+001
      vertex   -1.793681e+001 7.775963e+001 1.200000e+001
      vertex   -1.798968e+001 7.753484e+001 1.200000e+001
    endloop
  endfacet
  facet normal 0.000000e+000 0.000000e+000 4.618175e-002
    outer loop
      vertex   -1.798968e+001 7.753484e+001 1.200000e+001
      vertex   -1.802158e+001 7.730614e+001 1.200000e+001
      vertex   -1.803224e+001 7.707547e+001 1.200000e+001
    endloop
  endfacet
  facet normal -0.000000e+000 0.000000e+000 -9.226305e-002
    outer loop
      vertex   -1.304291e+001 5.684480e+001 1.000000e+001
      vertex   -1.307481e+001 5.661609e+001 1.000000e+001
      vertex   -1.303224e+001 5.707547e+001 1.000000e+001
    endloop
  endfacet
  facet normal 0.000000e+000 0.000000e+000 -4.618428e-002
    outer loop
      vertex   -1.303224e+001 5.707547e+001 1.000000e+001
      vertex   -1.307481e+001 5.661609e+001 1.000000e+001
      vertex   -1.312768e+001 5.639131e+001 1.000000e+001
    endloop
  endfacet
  facet normal 0.000000e+000 0.000000e+000 -4.618283e-002
    outer loop
      vertex   -1.303224e+001 5.707547e+001 1.000000e+001
      vertex   -1.312768e+001 5.639131e+001 1.000000e+001
      vertex   -1.320106e+001 5.617236e+001 1.000000e+001
    endloop
  endfacet
  facet normal -0.000000e+000 0.000000e+000 -2.289526e-001
    outer loop
      vertex   -1.320106e+001 5.617236e+001 1.000000e+001
      vertex   -1.329434e+001 5.596112e+001 1.000000e+001
      vertex   -1.303224e+001 5.707547e+001 1.000000e+001
    endloop
  endfacet
  facet normal 0.000000e+000 0.000000e+000 -4.618328e-002
    outer loop
      vertex   -1.303224e+001 5.707547e+001 1.000000e+001
      vertex   -1.329434e+001 5.596112e+001 1.000000e+001
      vertex   -1.340670e+001 5.575939e+001 1.000000e+001
    endloop
  endfacet
  facet normal 0.000000e+000 0.000000e+000 -4.618352e-002
    outer loop
      vertex   -1.303224e+001 5.707547e+001 1.000000e+001
      vertex   -1.340670e+001 5.575939e+001 1.000000e+001
      vertex   -1.353720e+001 5.556888e+001 1.000000e+001
    endloop
  endfacet
  facet normal -0.000000e+000 0.000000e+000 -3.612380e-001
    outer loop
      vertex   -1.353720e+001 5.556888e+001 1.000000e+001
      vertex   -1.368472e+001 5.539123e+001 1.000000e+001
      vertex   -1.303224e+001 5.707547e+001 1.000000e+001
    endloop
  endfacet
  facet normal 0.000000e+000 0.000000e+000 -4.618404e-002
    outer loop
      vertex   -1.303224e+001 5.707547e+001 1.000000e+001
      vertex   -1.368472e+001 5.539123e+001 1.000000e+001
      vertex   -1.384801e+001 5.522795e+001 1.000000e+001
    endloop
  endfacet
  facet normal 0.000000e+000 0.000000e+000 -4.618312e-002
    outer loop
      vertex   -1.303224e+001 5.707547e+001 1.000000e+001
      vertex   -1.384801e+001 5.522795e+001 1.000000e+001
      vertex   -1.402566e+001 5.508043e+001 1.000000e+001
    endloop
  endfacet
  facet normal 0.000000e+000 0.000000e+000 -8.249952e-001
    outer loop
      vertex   -1.421616e+001 5.494992e+001 1.000000e+001
      vertex   -1.421616e+001 7.920101e+001 1.000000e+001
      vertex   -1.402566e+001 5.508043e+001 1.000000e+001
    endloop
  endfacet
  facet normal 0.000000e+000 0.000000e+000 -7.897819e-003
    outer loop
      vertex   -1.402566e+001 5.508043e+001 1.000000e+001
      vertex   -1.421616e+001 7.920101e+001 1.000000e+001
      vertex   -1.402566e+001 7.907051e+001 1.000000e+001
    endloop
  endfacet
  facet normal 0.000000e+000 0.000000e+000 -4.457383e-001
    outer loop
      vertex   -1.402566e+001 5.508043e+001 1.000000e+001
      vertex   -1.402566e+001 7.907051e+001 1.000000e+001
      vertex   -1.303224e+001 5.707547e+001 1.000000e+001
    endloop
  endfacet
  facet normal 0.000000e+000 0.000000e+000 -4.511936e-002
    outer loop
      vertex   -1.303224e+001 5.707547e+001 1.000000e+001
      vertex   -1.402566e+001 7.907051e+001 1.000000e+001
      vertex   -1.303224e+001 7.707547e+001 1.000000e+001
    endloop
  endfacet
  facet normal 0.000000e+000 0.000000e+000 -4.618312e-002
    outer loop
      vertex   -1.303224e+001 7.707547e+001 1.000000e+001
      vertex   -1.402566e+001 7.907051e+001 1.000000e+001
      vertex   -1.384801e+001 7.892299e+001 1.000000e+001
    endloop
  endfacet
  facet normal 0.000000e+000 0.000000e+000 -4.618328e-002
    outer loop
      vertex   -1.303224e+001 7.707547e+001 1.000000e+001
      vertex   -1.384801e+001 7.892299e+001 1.000000e+001
      vertex   -1.368472e+001 7.875970e+001 1.000000e+001
    endloop
  endfacet
  facet normal -0.000000e+000 -0.000000e+000 -8.736218e-001
    outer loop
      vertex   -1.421616e+001 7.920101e+001 1.000000e+001
      vertex   -1.421616e+001 5.494992e+001 1.000000e+001
      vertex   -1.441790e+001 7.931338e+001 1.000000e+001
    endloop
  endfacet
  facet normal 0.000000e+000 0.000000e+000 -8.279928e-003
    outer loop
      vertex   -1.441790e+001 7.931338e+001 1.000000e+001
      vertex   -1.421616e+001 5.494992e+001 1.000000e+001
      vertex   -1.441790e+001 5.483756e+001 1.000000e+001
    endloop
  endfacet
  facet normal -0.000000e+000 -0.000000e+000 -9.147987e-001
    outer loop
      vertex   -1.441790e+001 7.931338e+001 1.000000e+001
      vertex   -1.441790e+001 5.483756e+001 1.000000e+001
      vertex   -1.462914e+001 7.940665e+001 1.000000e+001
    endloop
  endfacet
  facet normal 0.000000e+000 0.000000e+000 -8.597548e-003
    outer loop
      vertex   -1.462914e+001 7.940665e+001 1.000000e+001
      vertex   -1.441790e+001 5.483756e+001 1.000000e+001
      vertex   -1.462914e+001 5.474429e+001 1.000000e+001
    endloop
  endfacet
  facet normal -0.000000e+000 -0.000000e+000 -9.481558e-001
    outer loop
      vertex   -1.462914e+001 7.940665e+001 1.000000e+001
      vertex   -1.462914e+001 5.474429e+001 1.000000e+001
      vertex   -1.484809e+001 7.948003e+001 1.000000e+001
    endloop
  endfacet
  facet normal 0.000000e+000 0.000000e+000 -8.851073e-003
    outer loop
      vertex   -1.484809e+001 7.948003e+001 1.000000e+001
      vertex   -1.462914e+001 5.474429e+001 1.000000e+001
      vertex   -1.484809e+001 5.467090e+001 1.000000e+001
    endloop
  endfacet
  facet normal -0.000000e+000 -0.000000e+000 -9.734425e-001
    outer loop
      vertex   -1.484809e+001 7.948003e+001 1.000000e+001
      vertex   -1.484809e+001 5.467090e+001 1.000000e+001
      vertex   -1.507287e+001 7.953290e+001 1.000000e+001
    endloop
  endfacet
  facet normal 0.000000e+000 0.000000e+000 -9.040896e-003
    outer loop
      vertex   -1.507287e+001 7.953290e+001 1.000000e+001
      vertex   -1.484809e+001 5.467090e+001 1.000000e+001
      vertex   -1.507287e+001 5.461803e+001 1.000000e+001
    endloop
  endfacet
  facet normal -0.000000e+000 -0.000000e+000 -9.904084e-001
    outer loop
      vertex   -1.507287e+001 7.953290e+001 1.000000e+001
      vertex   -1.507287e+001 5.461803e+001 1.000000e+001
      vertex   -1.530157e+001 7.956480e+001 1.000000e+001
    endloop
  endfacet
  facet normal 0.000000e+000 0.000000e+000 -9.167236e-003
    outer loop
      vertex   -1.530157e+001 7.956480e+001 1.000000e+001
      vertex   -1.507287e+001 5.461803e+001 1.000000e+001
      vertex   -1.530157e+001 5.458613e+001 1.000000e+001
    endloop
  endfacet
  facet normal -0.000000e+000 -0.000000e+000 -9.989327e-001
    outer loop
      vertex   -1.530157e+001 7.956480e+001 1.000000e+001
      vertex   -1.530157e+001 5.458613e+001 1.000000e+001
      vertex   -1.553224e+001 7.957547e+001 1.000000e+001
    endloop
  endfacet
  facet normal 0.000000e+000 0.000000e+000 -9.230381e-003
    outer loop
      vertex   -1.553224e+001 7.957547e+001 1.000000e+001
      vertex   -1.530157e+001 5.458613e+001 1.000000e+001
      vertex   -1.553224e+001 5.457547e+001 1.000000e+001
    endloop
  endfacet
  facet normal 0.000000e+000 -0.000000e+000 -9.989327e-001
    outer loop
      vertex   -1.553224e+001 7.957547e+001 1.000000e+001
      vertex   -1.553224e+001 5.457547e+001 1.000000e+001
      vertex   -1.576291e+001 7.956480e+001 1.000000e+001
    endloop
  endfacet
  facet normal 0.000000e+000 0.000000e+000 -9.230382e-003
    outer loop
      vertex   -1.576291e+001 7.956480e+001 1.000000e+001
      vertex   -1.553224e+001 5.457547e+001 1.000000e+001
      vertex   -1.576291e+001 5.458613e+001 1.000000e+001
    endloop
  endfacet
  facet normal 0.000000e+000 -0.000000e+000 -9.904084e-001
    outer loop
      vertex   -1.576291e+001 7.956480e+001 1.000000e+001
      vertex   -1.576291e+001 5.458613e+001 1.000000e+001
      vertex   -1.599162e+001 7.953290e+001 1.000000e+001
    endloop
  endfacet
  facet normal 0.000000e+000 0.000000e+000 -9.167276e-003
    outer loop
      vertex   -1.599162e+001 7.953290e+001 1.000000e+001
      vertex   -1.576291e+001 5.458613e+001 1.000000e+001
      vertex   -1.599162e+001 5.461803e+001 1.000000e+001
    endloop
  endfacet
  facet normal 0.000000e+000 -0.000000e+000 -9.734425e-001
    outer loop
      vertex   -1.599162e+001 7.953290e+001 1.000000e+001
      vertex   -1.599162e+001 5.461803e+001 1.000000e+001
      vertex   -1.621640e+001 7.948003e+001 1.000000e+001
    endloop
  endfacet
  facet normal 0.000000e+000 0.000000e+000 -9.040894e-003
    outer loop
      vertex   -1.621640e+001 7.948003e+001 1.000000e+001
      vertex   -1.599162e+001 5.461803e+001 1.000000e+001
      vertex   -1.621640e+001 5.467090e+001 1.000000e+001
    endloop
  endfacet
  facet normal 0.000000e+000 -0.000000e+000 -9.481558e-001
    outer loop
      vertex   -1.621640e+001 7.948003e+001 1.000000e+001
      vertex   -1.621640e+001 5.467090e+001 1.000000e+001
      vertex   -1.643535e+001 7.940665e+001 1.000000e+001
    endloop
  endfacet
  facet normal 0.000000e+000 0.000000e+000 -8.851073e-003
    outer loop
      vertex   -1.643535e+001 7.940665e+001 1.000000e+001
      vertex   -1.621640e+001 5.467090e+001 1.000000e+001
      vertex   -1.643535e+001 5.474429e+001 1.000000e+001
    endloop
  endfacet
  facet normal 0.000000e+000 -0.000000e+000 -9.147980e-001
    outer loop
      vertex   -1.643535e+001 7.940665e+001 1.000000e+001
      vertex   -1.643535e+001 5.474429e+001 1.000000e+001
      vertex   -1.664659e+001 7.931338e+001 1.000000e+001
    endloop
  endfacet
  facet normal 0.000000e+000 0.000000e+000 -8.597509e-003
    outer loop
      vertex   -1.664659e+001 7.931338e+001 1.000000e+001
      vertex   -1.643535e+001 5.474429e+001 1.000000e+001
      vertex   -1.664659e+001 5.483756e+001 1.000000e+001
    endloop
  endfacet
  facet normal 0.000000e+000 -0.000000e+000 -8.736218e-001
    outer loop
      vertex   -1.664659e+001 7.931338e+001 1.000000e+001
      vertex   -1.664659e+001 5.483756e+001 1.000000e+001
      vertex   -1.684832e+001 7.920101e+001 1.000000e+001
    endloop
  endfacet
  facet normal 0.000000e+000 0.000000e+000 -8.279928e-003
    outer loop
      vertex   -1.684832e+001 7.920101e+001 1.000000e+001
      vertex   -1.664659e+001 5.483756e+001 1.000000e+001
      vertex   -1.684832e+001 5.494992e+001 1.000000e+001
    endloop
  endfacet
  facet normal 0.000000e+000 -0.000000e+000 -8.249952e-001
    outer loop
      vertex   -1.684832e+001 7.920101e+001 1.000000e+001
      vertex   -1.684832e+001 5.494992e+001 1.000000e+001
      vertex   -1.703883e+001 7.907051e+001 1.000000e+001
    endloop
  endfacet
  facet normal 0.000000e+000 0.000000e+000 -7.897819e-003
    outer loop
      vertex   -1.703883e+001 7.907051e+001 1.000000e+001
      vertex   -1.684832e+001 5.494992e+001 1.000000e+001
      vertex   -1.703883e+001 5.508043e+001 1.000000e+001
    endloop
  endfacet
  facet normal 0.000000e+000 -0.000000e+000 -4.457389e-001
    outer loop
      vertex   -1.703883e+001 7.907051e+001 1.000000e+001
      vertex   -1.703883e+001 5.508043e+001 1.000000e+001
      vertex   -1.803224e+001 7.707547e+001 1.000000e+001
    endloop
  endfacet
  facet normal 0.000000e+000 0.000000e+000 -4.511936e-002
    outer loop
      vertex   -1.803224e+001 7.707547e+001 1.000000e+001
      vertex   -1.703883e+001 5.508043e+001 1.000000e+001
      vertex   -1.803224e+001 5.707547e+001 1.000000e+001
    endloop
  endfacet
  facet normal 0.000000e+000 0.000000e+000 -4.618398e-002
    outer loop
      vertex   -1.803224e+001 5.707547e+001 1.000000e+001
      vertex   -1.703883e+001 5.508043e+001 1.000000e+001
      vertex   -1.721648e+001 5.522795e+001 1.000000e+001
    endloop
  endfacet
  facet normal 0.000000e+000 0.000000e+000 -4.618367e-002
    outer loop
      vertex   -1.803224e+001 5.707547e+001 1.000000e+001
      vertex   -1.721648e+001 5.522795e+001 1.000000e+001
      vertex   -1.737977e+001 5.539123e+001 1.000000e+001
    endloop
  endfacet
  facet normal 0.000000e+000 0.000000e+000 -3.177854e-001
    outer loop
      vertex   -1.737977e+001 5.539123e+001 1.000000e+001
      vertex   -1.752729e+001 5.556888e+001 1.000000e+001
      vertex   -1.803224e+001 5.707547e+001 1.000000e+001
    endloop
  endfacet
  facet normal 0.000000e+000 0.000000e+000 -4.618419e-002
    outer loop
      vertex   -1.803224e+001 5.707547e+001 1.000000e+001
      vertex   -1.752729e+001 5.556888e+001 1.000000e+001
      vertex   -1.765779e+001 5.575939e+001 1.000000e+001
    endloop
  endfacet
  facet normal 0.000000e+000 0.000000e+000 -4.618423e-002
    outer loop
      vertex   -1.803224e+001 5.707547e+001 1.000000e+001
      vertex   -1.765779e+001 5.575939e+001 1.000000e+001
      vertex   -1.777015e+001 5.596112e+001 1.000000e+001
    endloop
  endfacet
  facet normal 0.000000e+000 0.000000e+000 -1.837452e-001
    outer loop
      vertex   -1.777015e+001 5.596112e+001 1.000000e+001
      vertex   -1.786342e+001 5.617236e+001 1.000000e+001
      vertex   -1.803224e+001 5.707547e+001 1.000000e+001
    endloop
  endfacet
  facet normal 0.000000e+000 0.000000e+000 -4.618283e-002
    outer loop
      vertex   -1.803224e+001 5.707547e+001 1.000000e+001
      vertex   -1.786342e+001 5.617236e+001 1.000000e+001
      vertex   -1.793681e+001 5.639131e+001 1.000000e+001
    endloop
  endfacet
  facet normal 0.000000e+000 0.000000e+000 -4.618633e-002
    outer loop
      vertex   -1.803224e+001 5.707547e+001 1.000000e+001
      vertex   -1.793681e+001 5.639131e+001 1.000000e+001
      vertex   -1.798968e+001 5.661609e+001 1.000000e+001
    endloop
  endfacet
  facet normal 0.000000e+000 0.000000e+000 -4.618252e-002
    outer loop
      vertex   -1.798968e+001 5.661609e+001 1.000000e+001
      vertex   -1.802158e+001 5.684480e+001 1.000000e+001
      vertex   -1.803224e+001 5.707547e+001 1.000000e+001
    endloop
  endfacet
  facet normal 0.000000e+000 -0.000000e+000 -9.226640e-002
    outer loop
      vertex   -1.802158e+001 7.730614e+001 1.000000e+001
      vertex   -1.798968e+001 7.753484e+001 1.000000e+001
      vertex   -1.803224e+001 7.707547e+001 1.000000e+001
    endloop
  endfacet
  facet normal 0.000000e+000 0.000000e+000 -4.618557e-002
    outer loop
      vertex   -1.803224e+001 7.707547e+001 1.000000e+001
      vertex   -1.798968e+001 7.753484e+001 1.000000e+001
      vertex   -1.793681e+001 7.775963e+001 1.000000e+001
    endloop
  endfacet
  facet normal 0.000000e+000 0.000000e+000 -4.618436e-002
    outer loop
      vertex   -1.803224e+001 7.707547e+001 1.000000e+001
      vertex   -1.793681e+001 7.775963e+001 1.000000e+001
      vertex   -1.786342e+001 7.797857e+001 1.000000e+001
    endloop
  endfacet
  facet normal 0.000000e+000 -0.000000e+000 -2.289437e-001
    outer loop
      vertex   -1.786342e+001 7.797857e+001 1.000000e+001
      vertex   -1.777015e+001 7.818981e+001 1.000000e+001
      vertex   -1.803224e+001 7.707547e+001 1.000000e+001
    endloop
  endfacet
  facet normal 0.000000e+000 0.000000e+000 -4.618347e-002
    outer loop
      vertex   -1.803224e+001 7.707547e+001 1.000000e+001
      vertex   -1.777015e+001 7.818981e+001 1.000000e+001
      vertex   -1.765779e+001 7.839155e+001 1.000000e+001
    endloop
  endfacet
  facet normal 0.000000e+000 0.000000e+000 -4.618419e-002
    outer loop
      vertex   -1.803224e+001 7.707547e+001 1.000000e+001
      vertex   -1.765779e+001 7.839155e+001 1.000000e+001
      vertex   -1.752729e+001 7.858205e+001 1.000000e+001
    endloop
  endfacet
  facet normal 0.000000e+000 -0.000000e+000 -3.612442e-001
    outer loop
      vertex   -1.752729e+001 7.858205e+001 1.000000e+001
      vertex   -1.737977e+001 7.875970e+001 1.000000e+001
      vertex   -1.803224e+001 7.707547e+001 1.000000e+001
    endloop
  endfacet
  facet normal 0.000000e+000 0.000000e+000 -4.618290e-002
    outer loop
      vertex   -1.803224e+001 7.707547e+001 1.000000e+001
      vertex   -1.737977e+001 7.875970e+001 1.000000e+001
      vertex   -1.721648e+001 7.892299e+001 1.000000e+001
    endloop
  endfacet
  facet normal 0.000000e+000 0.000000e+000 -4.618398e-002
    outer loop
      vertex   -1.803224e+001 7.707547e+001 1.000000e+001
      vertex   -1.721648e+001 7.892299e+001 1.000000e+001
      vertex   -1.703883e+001 7.907051e+001 1.000000e+001
    endloop
  endfacet
  facet normal 0.000000e+000 0.000000e+000 -3.177965e-001
    outer loop
      vertex   -1.368472e+001 7.875970e+001 1.000000e+001
      vertex   -1.353720e+001 7.858205e+001 1.000000e+001
      vertex   -1.303224e+001 7.707547e+001 1.000000e+001
    endloop
  endfacet
  facet normal 0.000000e+000 0.000000e+000 -4.618352e-002
    outer loop
      vertex   -1.303224e+001 7.707547e+001 1.000000e+001
      vertex   -1.353720e+001 7.858205e+001 1.000000e+001
      vertex   -1.340670e+001 7.839155e+001 1.000000e+001
    endloop
  endfacet
  facet normal 0.000000e+000 0.000000e+000 -4.618252e-002
    outer loop
      vertex   -1.303224e+001 7.707547e+001 1.000000e+001
      vertex   -1.340670e+001 7.839155e+001 1.000000e+001
      vertex   -1.329434e+001 7.818981e+001 1.000000e+001
    endloop
  endfacet
  facet normal 0.000000e+000 0.000000e+000 -1.837496e-001
    outer loop
      vertex   -1.329434e+001 7.818981e+001 1.000000e+001
      vertex   -1.320106e+001 7.797857e+001 1.000000e+001
      vertex   -1.303224e+001 7.707547e+001 1.000000e+001
    endloop
  endfacet
  facet normal 0.000000e+000 0.000000e+000 -4.618436e-002
    outer loop
      vertex   -1.303224e+001 7.707547e+001 1.000000e+001
      vertex   -1.320106e+001 7.797857e+001 1.000000e+001
      vertex   -1.312768e+001 7.775963e+001 1.000000e+001
    endloop
  endfacet
  facet normal 0.000000e+000 0.000000e+000 -4.618351e-002
    outer loop
      vertex   -1.303224e+001 7.707547e+001 1.000000e+001
      vertex   -1.312768e+001 7.775963e+001 1.000000e+001
      vertex   -1.307481e+001 7.753484e+001 1.000000e+001
    endloop
  endfacet
  facet normal 0.000000e+000 0.000000e+000 -4.617970e-002
    outer loop
      vertex   -1.307481e+001 7.753484e+001 1.000000e+001
      vertex   -1.304291e+001 7.730614e+001 1.000000e+001
      vertex   -1.303224e+001 7.707547e+001 1.000000e+001
    endloop
  endfacet
endsolid
