solid ascii
  facet normal -1.000000e+000 0.000000e+000 0.000000e+000
    outer loop
      vertex   -8.847839e+001 1.342267e+002 0.000000e+000
      vertex   -8.847839e+001 9.089333e+001 0.000000e+000
      vertex   -8.847839e+001 1.342267e+002 1.000000e+001
    endloop
  endfacet
  facet normal -2.248595e-001 -0.000000e+000 0.000000e+000
    outer loop
      vertex   -8.847839e+001 1.342267e+002 1.000000e+001
      vertex   -8.847839e+001 9.089333e+001 0.000000e+000
      vertex   -8.847839e+001 9.089333e+001 1.000000e+001
    endloop
  endfacet
  facet normal -9.743912e-001 0.000000e+000 -0.000000e+000
    outer loop
      vertex   -8.847839e+001 9.089333e+001 1.000000e+001
      vertex   -8.847839e+001 9.089333e+001 0.000000e+000
      vertex   -8.847839e+001 4.756000e+001 0.000000e+000
    endloop
  endfacet
  facet normal -2.248595e-001 -0.000000e+000 0.000000e+000
    outer loop
      vertex   -8.847839e+001 9.089333e+001 1.000000e+001
      vertex   -8.847839e+001 4.756000e+001 0.000000e+000
      vertex   -8.847839e+001 4.756000e+001 1.000000e+001
    endloop
  endfacet
  facet normal -9.743912e-001 0.000000e+000 -0.000000e+000
    outer loop
      vertex   -8.847839e+001 4.756000e+001 1.000000e+001
      vertex   -8.847839e+001 4.756000e+001 0.000000e+000
      vertex   -8.847839e+001 4.226662e+000 0.000000e+000
    endloop
  endfacet
  facet normal -2.248595e-001 -0.000000e+000 0.000000e+000
    outer loop
      vertex   -8.847839e+001 4.756000e+001 1.000000e+001
      vertex   -8.847839e+001 4.226662e+000 0.000000e+000
      vertex   -8.847839e+001 4.226662e+000 1.000000e+001
    endloop
  endfacet
  facet normal 0.000000e+000 1.000000e+000 -0.000000e+000
    outer loop
      vertex   -3.478388e+000 1.342267e+002 0.000000e+000
      vertex   -4.597839e+001 1.342267e+002 0.000000e+000
      vertex   -3.478388e+000 1.342267e+002 1.000000e+001
    endloop
  endfacet
  facet normal 0.000000e+000 2.290393e-001 0.000000e+000
    outer loop
      vertex   -3.478388e+000 1.342267e+002 1.000000e+001
      vertex   -4.597839e+001 1.342267e+002 0.000000e+000
      vertex   -4.597839e+001 1.342267e+002 1.000000e+001
    endloop
  endfacet
  facet normal 0.000000e+000 9.734172e-001 0.000000e+000
    outer loop
      vertex   -4.597839e+001 1.342267e+002 1.000000e+001
      vertex   -4.597839e+001 1.342267e+002 0.000000e+000
      vertex   -8.847839e+001 1.342267e+002 0.000000e+000
    endloop
  endfacet
  facet normal 0.000000e+000 2.290394e-001 0.000000e+000
    outer loop
      vertex   -4.597839e+001 1.342267e+002 1.000000e+001
      vertex   -8.847839e+001 1.342267e+002 0.000000e+000
      vertex   -8.847839e+001 1.342267e+002 1.000000e+001
    endloop
  endfacet
  facet normal 1.000000e+000 0.000000e+000 0.000000e+000
    outer loop
      vertex   -3.478388e+000 4.226662e+000 0.000000e+000
      vertex   -3.478388e+000 4.756000e+001 0.000000e+000
      vertex   -3.478388e+000 4.226662e+000 1.000000e+001
    endloop
  endfacet
  facet normal 2.248595e-001 -0.000000e+000 0.000000e+000
    outer loop
      vertex   -3.478388e+000 4.226662e+000 1.000000e+001
      vertex   -3.478388e+000 4.756000e+001 0.000000e+000
      vertex   -3.478388e+000 4.756000e+001 1.000000e+001
    endloop
  endfacet
  facet normal 9.743912e-001 0.000000e+000 0.000000e+000
    outer loop
      vertex   -3.478388e+000 4.756000e+001 1.000000e+001
      vertex   -3.478388e+000 4.756000e+001 0.000000e+000
      vertex   -3.478388e+000 9.089333e+001 0.000000e+000
    endloop
  endfacet
  facet normal 2.248595e-001 -0.000000e+000 0.000000e+000
    outer loop
      vertex   -3.478388e+000 4.756000e+001 1.000000e+001
      vertex   -3.478388e+000 9.089333e+001 0.000000e+000
      vertex   -3.478388e+000 9.089333e+001 1.000000e+001
    endloop
  endfacet
  facet normal 9.743912e-001 0.000000e+000 0.000000e+000
    outer loop
      vertex   -3.478388e+000 9.089333e+001 1.000000e+001
      vertex   -3.478388e+000 9.089333e+001 0.000000e+000
      vertex   -3.478388e+000 1.342267e+002 0.000000e+000
    endloop
  endfacet
  facet normal 2.248595e-001 -0.000000e+000 0.000000e+000
    outer loop
      vertex   -3.478388e+000 9.089333e+001 1.000000e+001
      vertex   -3.478388e+000 1.342267e+002 0.000000e+000
      vertex   -3.478388e+000 1.342267e+002 1.000000e+001
    endloop
  endfacet
  facet normal 0.000000e+000 -1.000000e+000 0.000000e+000
    outer loop
      vertex   -8.478388e+000 4.226662e+000 0.000000e+000
      vertex   -3.478388e+000 4.226662e+000 0.000000e+000
      vertex   -8.478388e+000 4.226662e+000 1.000000e+001
    endloop
  endfacet
  facet normal 0.000000e+000 -8.944272e-001 0.000000e+000
    outer loop
      vertex   -8.478388e+000 4.226662e+000 1.000000e+001
      vertex   -3.478388e+000 4.226662e+000 0.000000e+000
      vertex   -3.478388e+000 4.226662e+000 1.000000e+001
    endloop
  endfacet
  facet normal -1.000000e+000 0.000000e+000 0.000000e+000
    outer loop
      vertex   -8.478388e+000 1.292267e+002 0.000000e+000
      vertex   -8.478388e+000 8.756000e+001 0.000000e+000
      vertex   -8.478388e+000 1.292267e+002 1.000000e+001
    endloop
  endfacet
  facet normal -2.333729e-001 -0.000000e+000 0.000000e+000
    outer loop
      vertex   -8.478388e+000 1.292267e+002 1.000000e+001
      vertex   -8.478388e+000 8.756000e+001 0.000000e+000
      vertex   -8.478388e+000 8.756000e+001 1.000000e+001
    endloop
  endfacet
  facet normal -9.723873e-001 0.000000e+000 -0.000000e+000
    outer loop
      vertex   -8.478388e+000 8.756000e+001 1.000000e+001
      vertex   -8.478388e+000 8.756000e+001 0.000000e+000
      vertex   -8.478388e+000 4.589333e+001 0.000000e+000
    endloop
  endfacet
  facet normal -2.333729e-001 -0.000000e+000 0.000000e+000
    outer loop
      vertex   -8.478388e+000 8.756000e+001 1.000000e+001
      vertex   -8.478388e+000 4.589333e+001 0.000000e+000
      vertex   -8.478388e+000 4.589333e+001 1.000000e+001
    endloop
  endfacet
  facet normal -9.723873e-001 0.000000e+000 -0.000000e+000
    outer loop
      vertex   -8.478388e+000 4.589333e+001 1.000000e+001
      vertex   -8.478388e+000 4.589333e+001 0.000000e+000
      vertex   -8.478388e+000 4.226662e+000 0.000000e+000
    endloop
  endfacet
  facet normal -2.333729e-001 -0.000000e+000 0.000000e+000
    outer loop
      vertex   -8.478388e+000 4.589333e+001 1.000000e+001
      vertex   -8.478388e+000 4.226662e+000 0.000000e+000
      vertex   -8.478388e+000 4.226662e+000 1.000000e+001
    endloop
  endfacet
  facet normal 0.000000e+000 -1.000000e+000 0.000000e+000
    outer loop
      vertex   -8.347839e+001 1.292267e+002 0.000000e+000
      vertex   -4.597839e+001 1.292267e+002 0.000000e+000
      vertex   -8.347839e+001 1.292267e+002 1.000000e+001
    endloop
  endfacet
  facet normal 0.000000e+000 -2.576627e-001 0.000000e+000
    outer loop
      vertex   -8.347839e+001 1.292267e+002 1.000000e+001
      vertex   -4.597839e+001 1.292267e+002 0.000000e+000
      vertex   -4.597839e+001 1.292267e+002 1.000000e+001
    endloop
  endfacet
  facet normal 0.000000e+000 -9.662349e-001 0.000000e+000
    outer loop
      vertex   -4.597839e+001 1.292267e+002 1.000000e+001
      vertex   -4.597839e+001 1.292267e+002 0.000000e+000
      vertex   -8.478388e+000 1.292267e+002 0.000000e+000
    endloop
  endfacet
  facet normal 0.000000e+000 -2.576627e-001 0.000000e+000
    outer loop
      vertex   -4.597839e+001 1.292267e+002 1.000000e+001
      vertex   -8.478388e+000 1.292267e+002 0.000000e+000
      vertex   -8.478388e+000 1.292267e+002 1.000000e+001
    endloop
  endfacet
  facet normal 1.000000e+000 0.000000e+000 0.000000e+000
    outer loop
      vertex   -8.347839e+001 4.226662e+000 0.000000e+000
      vertex   -8.347839e+001 4.589333e+001 0.000000e+000
      vertex   -8.347839e+001 4.226662e+000 1.000000e+001
    endloop
  endfacet
  facet normal 2.333729e-001 -0.000000e+000 0.000000e+000
    outer loop
      vertex   -8.347839e+001 4.226662e+000 1.000000e+001
      vertex   -8.347839e+001 4.589333e+001 0.000000e+000
      vertex   -8.347839e+001 4.589333e+001 1.000000e+001
    endloop
  endfacet
  facet normal 9.723873e-001 0.000000e+000 0.000000e+000
    outer loop
      vertex   -8.347839e+001 4.589333e+001 1.000000e+001
      vertex   -8.347839e+001 4.589333e+001 0.000000e+000
      vertex   -8.347839e+001 8.756000e+001 0.000000e+000
    endloop
  endfacet
  facet normal 2.333729e-001 -0.000000e+000 0.000000e+000
    outer loop
      vertex   -8.347839e+001 4.589333e+001 1.000000e+001
      vertex   -8.347839e+001 8.756000e+001 0.000000e+000
      vertex   -8.347839e+001 8.756000e+001 1.000000e+001
    endloop
  endfacet
  facet normal 9.723873e-001 0.000000e+000 0.000000e+000
    outer loop
      vertex   -8.347839e+001 8.756000e+001 1.000000e+001
      vertex   -8.347839e+001 8.756000e+001 0.000000e+000
      vertex   -8.347839e+001 1.292267e+002 0.000000e+000
    endloop
  endfacet
  facet normal 2.333729e-001 -0.000000e+000 0.000000e+000
    outer loop
      vertex   -8.347839e+001 8.756000e+001 1.000000e+001
      vertex   -8.347839e+001 1.292267e+002 0.000000e+000
      vertex   -8.347839e+001 1.292267e+002 1.000000e+001
    endloop
  endfacet
  facet normal 0.000000e+000 -1.000000e+000 0.000000e+000
    outer loop
      vertex   -8.847839e+001 4.226662e+000 0.000000e+000
      vertex   -8.347839e+001 4.226662e+000 0.000000e+000
      vertex   -8.847839e+001 4.226662e+000 1.000000e+001
    endloop
  endfacet
  facet normal 0.000000e+000 -8.944272e-001 0.000000e+000
    outer loop
      vertex   -8.847839e+001 4.226662e+000 1.000000e+001
      vertex   -8.347839e+001 4.226662e+000 0.000000e+000
      vertex   -8.347839e+001 4.226662e+000 1.000000e+001
    endloop
  endfacet
  facet normal 0.000000e+000 -0.000000e+000 1.000000e+000
    outer loop
      vertex   -8.347839e+001 4.226662e+000 1.000000e+001
      vertex   -8.347839e+001 4.589333e+001 1.000000e+001
      vertex   -8.847839e+001 4.226662e+000 1.000000e+001
    endloop
  endfacet
  facet normal 0.000000e+000 0.000000e+000 1.191452e-001
    outer loop
      vertex   -8.847839e+001 4.226662e+000 1.000000e+001
      vertex   -8.347839e+001 4.589333e+001 1.000000e+001
      vertex   -8.847839e+001 4.756000e+001 1.000000e+001
    endloop
  endfacet
  facet normal -0.000000e+000 0.000000e+000 9.805806e-001
    outer loop
      vertex   -8.847839e+001 4.756000e+001 1.000000e+001
      vertex   -8.347839e+001 4.589333e+001 1.000000e+001
      vertex   -8.347839e+001 8.756000e+001 1.000000e+001
    endloop
  endfacet
  facet normal 0.000000e+000 0.000000e+000 1.240347e-001
    outer loop
      vertex   -8.847839e+001 4.756000e+001 1.000000e+001
      vertex   -8.347839e+001 8.756000e+001 1.000000e+001
      vertex   -8.847839e+001 9.089333e+001 1.000000e+001
    endloop
  endfacet
  facet normal -0.000000e+000 0.000000e+000 8.968062e-001
    outer loop
      vertex   -8.847839e+001 9.089333e+001 1.000000e+001
      vertex   -8.347839e+001 8.756000e+001 1.000000e+001
      vertex   -8.347839e+001 1.292267e+002 1.000000e+001
    endloop
  endfacet
  facet normal 0.000000e+000 0.000000e+000 1.293391e-001
    outer loop
      vertex   -8.847839e+001 9.089333e+001 1.000000e+001
      vertex   -8.347839e+001 1.292267e+002 1.000000e+001
      vertex   -8.847839e+001 1.342267e+002 1.000000e+001
    endloop
  endfacet
  facet normal -0.000000e+000 0.000000e+000 7.071068e-001
    outer loop
      vertex   -8.847839e+001 1.342267e+002 1.000000e+001
      vertex   -8.347839e+001 1.292267e+002 1.000000e+001
      vertex   -4.597839e+001 1.342267e+002 1.000000e+001
    endloop
  endfacet
  facet normal 0.000000e+000 0.000000e+000 9.912279e-001
    outer loop
      vertex   -4.597839e+001 1.342267e+002 1.000000e+001
      vertex   -8.347839e+001 1.292267e+002 1.000000e+001
      vertex   -4.597839e+001 1.292267e+002 1.000000e+001
    endloop
  endfacet
  facet normal 0.000000e+000 0.000000e+000 9.912279e-001
    outer loop
      vertex   -4.597839e+001 1.342267e+002 1.000000e+001
      vertex   -4.597839e+001 1.292267e+002 1.000000e+001
      vertex   -8.478388e+000 1.292267e+002 1.000000e+001
    endloop
  endfacet
  facet normal 0.000000e+000 0.000000e+000 8.320507e-001
    outer loop
      vertex   -8.478388e+000 8.756000e+001 1.000000e+001
      vertex   -3.478388e+000 9.089333e+001 1.000000e+001
      vertex   -8.478388e+000 1.292267e+002 1.000000e+001
    endloop
  endfacet
  facet normal -0.000000e+000 0.000000e+000 7.926240e-001
    outer loop
      vertex   -8.478388e+000 1.292267e+002 1.000000e+001
      vertex   -3.478388e+000 9.089333e+001 1.000000e+001
      vertex   -3.478388e+000 1.342267e+002 1.000000e+001
    endloop
  endfacet
  facet normal 0.000000e+000 -0.000000e+000 7.943578e-001
    outer loop
      vertex   -8.478388e+000 1.292267e+002 1.000000e+001
      vertex   -3.478388e+000 1.342267e+002 1.000000e+001
      vertex   -4.597839e+001 1.342267e+002 1.000000e+001
    endloop
  endfacet
  facet normal 0.000000e+000 0.000000e+000 8.320507e-001
    outer loop
      vertex   -3.478388e+000 9.089333e+001 1.000000e+001
      vertex   -8.478388e+000 8.756000e+001 1.000000e+001
      vertex   -3.478388e+000 4.756000e+001 1.000000e+001
    endloop
  endfacet
  facet normal 0.000000e+000 0.000000e+000 9.805806e-001
    outer loop
      vertex   -3.478388e+000 4.756000e+001 1.000000e+001
      vertex   -8.478388e+000 8.756000e+001 1.000000e+001
      vertex   -8.478388e+000 4.589333e+001 1.000000e+001
    endloop
  endfacet
  facet normal 0.000000e+000 0.000000e+000 9.486832e-001
    outer loop
      vertex   -3.478388e+000 4.756000e+001 1.000000e+001
      vertex   -8.478388e+000 4.589333e+001 1.000000e+001
      vertex   -3.478388e+000 4.226662e+000 1.000000e+001
    endloop
  endfacet
  facet normal 0.000000e+000 0.000000e+000 9.928768e-001
    outer loop
      vertex   -3.478388e+000 4.226662e+000 1.000000e+001
      vertex   -8.478388e+000 4.589333e+001 1.000000e+001
      vertex   -8.478388e+000 4.226662e+000 1.000000e+001
    endloop
  endfacet
  facet normal 0.000000e+000 0.000000e+000 -1.000000e+000
    outer loop
      vertex   -8.347839e+001 4.226662e+000 0.000000e+000
      vertex   -8.847839e+001 4.226662e+000 0.000000e+000
      vertex   -8.347839e+001 4.589333e+001 0.000000e+000
    endloop
  endfacet
  facet normal -0.000000e+000 0.000000e+000 -9.796026e-001
    outer loop
      vertex   -8.347839e+001 4.589333e+001 0.000000e+000
      vertex   -8.847839e+001 4.226662e+000 0.000000e+000
      vertex   -8.847839e+001 4.756000e+001 0.000000e+000
    endloop
  endfacet
  facet normal 0.000000e+000 0.000000e+000 -9.486832e-001
    outer loop
      vertex   -8.347839e+001 4.589333e+001 0.000000e+000
      vertex   -8.847839e+001 4.756000e+001 0.000000e+000
      vertex   -8.347839e+001 8.756000e+001 0.000000e+000
    endloop
  endfacet
  facet normal -0.000000e+000 0.000000e+000 -8.944275e-001
    outer loop
      vertex   -8.347839e+001 8.756000e+001 0.000000e+000
      vertex   -8.847839e+001 4.756000e+001 0.000000e+000
      vertex   -8.847839e+001 9.089333e+001 0.000000e+000
    endloop
  endfacet
  facet normal 0.000000e+000 0.000000e+000 -8.320507e-001
    outer loop
      vertex   -8.347839e+001 8.756000e+001 0.000000e+000
      vertex   -8.847839e+001 9.089333e+001 0.000000e+000
      vertex   -8.347839e+001 1.292267e+002 0.000000e+000
    endloop
  endfacet
  facet normal -0.000000e+000 0.000000e+000 -7.926240e-001
    outer loop
      vertex   -8.347839e+001 1.292267e+002 0.000000e+000
      vertex   -8.847839e+001 9.089333e+001 0.000000e+000
      vertex   -8.847839e+001 1.342267e+002 0.000000e+000
    endloop
  endfacet
  facet normal 0.000000e+000 0.000000e+000 -7.943578e-001
    outer loop
      vertex   -8.347839e+001 1.292267e+002 0.000000e+000
      vertex   -8.847839e+001 1.342267e+002 0.000000e+000
      vertex   -4.597839e+001 1.342267e+002 0.000000e+000
    endloop
  endfacet
  facet normal -0.000000e+000 0.000000e+000 -7.071068e-001
    outer loop
      vertex   -3.478388e+000 1.342267e+002 0.000000e+000
      vertex   -8.478388e+000 1.292267e+002 0.000000e+000
      vertex   -4.597839e+001 1.342267e+002 0.000000e+000
    endloop
  endfacet
  facet normal 0.000000e+000 0.000000e+000 -9.912279e-001
    outer loop
      vertex   -4.597839e+001 1.342267e+002 0.000000e+000
      vertex   -8.478388e+000 1.292267e+002 0.000000e+000
      vertex   -4.597839e+001 1.292267e+002 0.000000e+000
    endloop
  endfacet
  facet normal 0.000000e+000 -0.000000e+000 -9.912279e-001
    outer loop
      vertex   -4.597839e+001 1.342267e+002 0.000000e+000
      vertex   -4.597839e+001 1.292267e+002 0.000000e+000
      vertex   -8.347839e+001 1.292267e+002 0.000000e+000
    endloop
  endfacet
  facet normal 0.000000e+000 -0.000000e+000 -7.071068e-001
    outer loop
      vertex   -3.478388e+000 1.342267e+002 0.000000e+000
      vertex   -3.478388e+000 9.089333e+001 0.000000e+000
      vertex   -8.478388e+000 1.292267e+002 0.000000e+000
    endloop
  endfacet
  facet normal 0.000000e+000 0.000000e+000 -1.293391e-001
    outer loop
      vertex   -8.478388e+000 1.292267e+002 0.000000e+000
      vertex   -3.478388e+000 9.089333e+001 0.000000e+000
      vertex   -8.478388e+000 8.756000e+001 0.000000e+000
    endloop
  endfacet
  facet normal 0.000000e+000 0.000000e+000 -8.944275e-001
    outer loop
      vertex   -8.478388e+000 8.756000e+001 0.000000e+000
      vertex   -3.478388e+000 9.089333e+001 0.000000e+000
      vertex   -3.478388e+000 4.756000e+001 0.000000e+000
    endloop
  endfacet
  facet normal 0.000000e+000 0.000000e+000 -1.240347e-001
    outer loop
      vertex   -8.478388e+000 8.756000e+001 0.000000e+000
      vertex   -3.478388e+000 4.756000e+001 0.000000e+000
      vertex   -8.478388e+000 4.589333e+001 0.000000e+000
    endloop
  endfacet
  facet normal 0.000000e+000 0.000000e+000 -9.796026e-001
    outer loop
      vertex   -8.478388e+000 4.589333e+001 0.000000e+000
      vertex   -3.478388e+000 4.756000e+001 0.000000e+000
      vertex   -3.478388e+000 4.226662e+000 0.000000e+000
    endloop
  endfacet
  facet normal 0.000000e+000 0.000000e+000 -1.191452e-001
    outer loop
      vertex   -8.478388e+000 4.589333e+001 0.000000e+000
      vertex   -3.478388e+000 4.226662e+000 0.000000e+000
      vertex   -8.478388e+000 4.226662e+000 0.000000e+000
    endloop
  endfacet
endsolid
