solid ascii
  facet normal -9.988315e-001 4.833002e-002 0.000000e+000
    outer loop
      vertex   -9.022669e+001 8.042866e+001 1.200000e+001
      vertex   -9.022669e+001 8.042866e+001 1.000000e+001
      vertex   -9.023778e+001 8.019955e+001 1.200000e+001
    endloop
  endfacet
  facet normal -1.138056e-001 5.506659e-003 0.000000e+000
    outer loop
      vertex   -9.023778e+001 8.019955e+001 1.200000e+001
      vertex   -9.022669e+001 8.042866e+001 1.000000e+001
      vertex   -9.023778e+001 8.019955e+001 1.000000e+001
    endloop
  endfacet
  facet normal -9.988315e-001 -4.832841e-002 -0.000000e+000
    outer loop
      vertex   -9.023778e+001 8.019955e+001 1.200000e+001
      vertex   -9.023778e+001 8.019955e+001 1.000000e+001
      vertex   -9.022669e+001 7.997044e+001 1.200000e+001
    endloop
  endfacet
  facet normal -1.138093e-001 -5.506657e-003 -0.000000e+000
    outer loop
      vertex   -9.022669e+001 7.997044e+001 1.200000e+001
      vertex   -9.023778e+001 8.019955e+001 1.000000e+001
      vertex   -9.022669e+001 7.997044e+001 1.000000e+001
    endloop
  endfacet
  facet normal -9.895064e-001 -1.444894e-001 -0.000000e+000
    outer loop
      vertex   -9.022669e+001 7.997044e+001 1.200000e+001
      vertex   -9.022669e+001 7.997044e+001 1.000000e+001
      vertex   -9.019355e+001 7.974348e+001 1.200000e+001
    endloop
  endfacet
  facet normal -1.127444e-001 -1.646313e-002 -0.000000e+000
    outer loop
      vertex   -9.019355e+001 7.974348e+001 1.200000e+001
      vertex   -9.022669e+001 7.997044e+001 1.000000e+001
      vertex   -9.019355e+001 7.974348e+001 1.000000e+001
    endloop
  endfacet
  facet normal -9.709413e-001 -2.393177e-001 -0.000000e+000
    outer loop
      vertex   -9.019355e+001 7.974348e+001 1.200000e+001
      vertex   -9.019355e+001 7.974348e+001 1.000000e+001
      vertex   -9.013866e+001 7.952077e+001 1.200000e+001
    endloop
  endfacet
  facet normal -1.106296e-001 -2.726800e-002 -0.000000e+000
    outer loop
      vertex   -9.013866e+001 7.952077e+001 1.200000e+001
      vertex   -9.019355e+001 7.974348e+001 1.000000e+001
      vertex   -9.013866e+001 7.952077e+001 1.000000e+001
    endloop
  endfacet
  facet normal -9.433074e-001 -3.319205e-001 -0.000000e+000
    outer loop
      vertex   -9.013866e+001 7.952077e+001 1.200000e+001
      vertex   -9.013866e+001 7.952077e+001 1.000000e+001
      vertex   -9.006252e+001 7.930440e+001 1.200000e+001
    endloop
  endfacet
  facet normal -1.074803e-001 -3.781896e-002 -0.000000e+000
    outer loop
      vertex   -9.006252e+001 7.930440e+001 1.200000e+001
      vertex   -9.013866e+001 7.952077e+001 1.000000e+001
      vertex   -9.006252e+001 7.930440e+001 1.000000e+001
    endloop
  endfacet
  facet normal -9.068787e-001 -4.213918e-001 -0.000000e+000
    outer loop
      vertex   -9.006252e+001 7.930440e+001 1.200000e+001
      vertex   -9.006252e+001 7.930440e+001 1.000000e+001
      vertex   -8.996587e+001 7.909638e+001 1.200000e+001
    endloop
  endfacet
  facet normal -1.033304e-001 -4.801366e-002 -0.000000e+000
    outer loop
      vertex   -8.996587e+001 7.909638e+001 1.200000e+001
      vertex   -9.006252e+001 7.930440e+001 1.000000e+001
      vertex   -8.996587e+001 7.909638e+001 1.000000e+001
    endloop
  endfacet
  facet normal -8.619795e-001 -5.069431e-001 -0.000000e+000
    outer loop
      vertex   -8.996587e+001 7.909638e+001 1.200000e+001
      vertex   -8.996587e+001 7.909638e+001 1.000000e+001
      vertex   -8.984959e+001 7.889867e+001 1.200000e+001
    endloop
  endfacet
  facet normal -9.821408e-002 -5.776117e-002 -0.000000e+000
    outer loop
      vertex   -8.984959e+001 7.889867e+001 1.200000e+001
      vertex   -8.996587e+001 7.909638e+001 1.000000e+001
      vertex   -8.984959e+001 7.889867e+001 1.000000e+001
    endloop
  endfacet
  facet normal -8.090122e-001 -5.877919e-001 -0.000000e+000
    outer loop
      vertex   -8.984959e+001 7.889867e+001 1.200000e+001
      vertex   -8.984959e+001 7.889867e+001 1.000000e+001
      vertex   -8.971476e+001 7.871310e+001 1.200000e+001
    endloop
  endfacet
  facet normal -9.218061e-002 -6.697429e-002 -0.000000e+000
    outer loop
      vertex   -8.971476e+001 7.871310e+001 1.200000e+001
      vertex   -8.984959e+001 7.889867e+001 1.000000e+001
      vertex   -8.971476e+001 7.871310e+001 1.000000e+001
    endloop
  endfacet
  facet normal -7.485075e-001 -6.631263e-001 -0.000000e+000
    outer loop
      vertex   -8.971476e+001 7.871310e+001 1.200000e+001
      vertex   -8.971476e+001 7.871310e+001 1.000000e+001
      vertex   -8.956265e+001 7.854140e+001 1.200000e+001
    endloop
  endfacet
  facet normal -8.528686e-002 -7.555830e-002 -0.000000e+000
    outer loop
      vertex   -8.956265e+001 7.854140e+001 1.200000e+001
      vertex   -8.971476e+001 7.871310e+001 1.000000e+001
      vertex   -8.956265e+001 7.854140e+001 1.000000e+001
    endloop
  endfacet
  facet normal -6.810135e-001 -7.322708e-001 -0.000000e+000
    outer loop
      vertex   -8.956265e+001 7.854140e+001 1.200000e+001
      vertex   -8.956265e+001 7.854140e+001 1.000000e+001
      vertex   -8.939469e+001 7.838520e+001 1.200000e+001
    endloop
  endfacet
  facet normal -7.759350e-002 -8.343367e-002 -0.000000e+000
    outer loop
      vertex   -8.939469e+001 7.838520e+001 1.200000e+001
      vertex   -8.956265e+001 7.854140e+001 1.000000e+001
      vertex   -8.939469e+001 7.838520e+001 1.000000e+001
    endloop
  endfacet
  facet normal -6.071760e-001 -7.945673e-001 -0.000000e+000
    outer loop
      vertex   -8.939469e+001 7.838520e+001 1.200000e+001
      vertex   -8.939469e+001 7.838520e+001 1.000000e+001
      vertex   -8.921243e+001 7.824593e+001 1.200000e+001
    endloop
  endfacet
  facet normal -6.918377e-002 -9.053580e-002 -0.000000e+000
    outer loop
      vertex   -8.921243e+001 7.824593e+001 1.200000e+001
      vertex   -8.939469e+001 7.838520e+001 1.000000e+001
      vertex   -8.921243e+001 7.824593e+001 1.000000e+001
    endloop
  endfacet
  facet normal -5.276319e-001 -8.494731e-001 -0.000000e+000
    outer loop
      vertex   -8.921243e+001 7.824593e+001 1.200000e+001
      vertex   -8.921243e+001 7.824593e+001 1.000000e+001
      vertex   -8.901759e+001 7.812490e+001 1.200000e+001
    endloop
  endfacet
  facet normal -6.011846e-002 -9.678909e-002 -0.000000e+000
    outer loop
      vertex   -8.901759e+001 7.812490e+001 1.200000e+001
      vertex   -8.921243e+001 7.824593e+001 1.000000e+001
      vertex   -8.901759e+001 7.812490e+001 1.000000e+001
    endloop
  endfacet
  facet normal -4.431778e-001 -8.964338e-001 -0.000000e+000
    outer loop
      vertex   -8.901759e+001 7.812490e+001 1.200000e+001
      vertex   -8.901759e+001 7.812490e+001 1.000000e+001
      vertex   -8.881197e+001 7.802325e+001 1.200000e+001
    endloop
  endfacet
  facet normal -5.049602e-002 -1.021404e-001 -0.000000e+000
    outer loop
      vertex   -8.881197e+001 7.802325e+001 1.200000e+001
      vertex   -8.901759e+001 7.812490e+001 1.000000e+001
      vertex   -8.881197e+001 7.802325e+001 1.000000e+001
    endloop
  endfacet
  facet normal -3.546021e-001 -9.350173e-001 -0.000000e+000
    outer loop
      vertex   -8.881197e+001 7.802325e+001 1.200000e+001
      vertex   -8.881197e+001 7.802325e+001 1.000000e+001
      vertex   -8.859750e+001 7.794191e+001 1.200000e+001
    endloop
  endfacet
  facet normal -4.040363e-002 -1.065366e-001 -0.000000e+000
    outer loop
      vertex   -8.859750e+001 7.794191e+001 1.200000e+001
      vertex   -8.881197e+001 7.802325e+001 1.000000e+001
      vertex   -8.859750e+001 7.794191e+001 1.000000e+001
    endloop
  endfacet
  facet normal -2.627374e-001 -9.648674e-001 -0.000000e+000
    outer loop
      vertex   -8.859750e+001 7.794191e+001 1.200000e+001
      vertex   -8.859750e+001 7.794191e+001 1.000000e+001
      vertex   -8.837618e+001 7.788165e+001 1.200000e+001
    endloop
  endfacet
  facet normal -2.993606e-002 -1.099361e-001 -0.000000e+000
    outer loop
      vertex   -8.837618e+001 7.788165e+001 1.200000e+001
      vertex   -8.859750e+001 7.794191e+001 1.000000e+001
      vertex   -8.837618e+001 7.788165e+001 1.000000e+001
    endloop
  endfacet
  facet normal -1.683351e-001 -9.857298e-001 -0.000000e+000
    outer loop
      vertex   -8.837618e+001 7.788165e+001 1.200000e+001
      vertex   -8.837618e+001 7.788165e+001 1.000000e+001
      vertex   -8.815008e+001 7.784303e+001 1.200000e+001
    endloop
  endfacet
  facet normal -1.918045e-002 -1.123161e-001 -0.000000e+000
    outer loop
      vertex   -8.815008e+001 7.784303e+001 1.200000e+001
      vertex   -8.837618e+001 7.788165e+001 1.000000e+001
      vertex   -8.815008e+001 7.784303e+001 1.000000e+001
    endloop
  endfacet
  facet normal -7.244305e-002 -9.973726e-001 -0.000000e+000
    outer loop
      vertex   -8.815008e+001 7.784303e+001 1.200000e+001
      vertex   -8.815008e+001 7.784303e+001 1.000000e+001
      vertex   -8.792130e+001 7.782642e+001 1.200000e+001
    endloop
  endfacet
  facet normal -8.254302e-003 -1.136426e-001 -0.000000e+000
    outer loop
      vertex   -8.792130e+001 7.782642e+001 1.200000e+001
      vertex   -8.815008e+001 7.784303e+001 1.000000e+001
      vertex   -8.792130e+001 7.782642e+001 1.000000e+001
    endloop
  endfacet
  facet normal 2.418191e-002 -9.997076e-001 0.000000e+000
    outer loop
      vertex   -8.792130e+001 7.782642e+001 1.200000e+001
      vertex   -8.792130e+001 7.782642e+001 1.000000e+001
      vertex   -8.769200e+001 7.783196e+001 1.200000e+001
    endloop
  endfacet
  facet normal 2.755225e-003 -1.139041e-001 0.000000e+000
    outer loop
      vertex   -8.769200e+001 7.783196e+001 1.200000e+001
      vertex   -8.792130e+001 7.782642e+001 1.000000e+001
      vertex   -8.769200e+001 7.783196e+001 1.000000e+001
    endloop
  endfacet
  facet normal 1.205052e-001 -9.927127e-001 0.000000e+000
    outer loop
      vertex   -8.769200e+001 7.783196e+001 1.200000e+001
      vertex   -8.769200e+001 7.783196e+001 1.000000e+001
      vertex   -8.746429e+001 7.785960e+001 1.200000e+001
    endloop
  endfacet
  facet normal 1.373064e-002 -1.131120e-001 0.000000e+000
    outer loop
      vertex   -8.746429e+001 7.785960e+001 1.200000e+001
      vertex   -8.769200e+001 7.783196e+001 1.000000e+001
      vertex   -8.746429e+001 7.785960e+001 1.000000e+001
    endloop
  endfacet
  facet normal 2.158033e-001 -9.764369e-001 0.000000e+000
    outer loop
      vertex   -8.746429e+001 7.785960e+001 1.200000e+001
      vertex   -8.746429e+001 7.785960e+001 1.000000e+001
      vertex   -8.724033e+001 7.790910e+001 1.200000e+001
    endloop
  endfacet
  facet normal 2.458858e-002 -1.112550e-001 0.000000e+000
    outer loop
      vertex   -8.724033e+001 7.790910e+001 1.200000e+001
      vertex   -8.746429e+001 7.785960e+001 1.000000e+001
      vertex   -8.724033e+001 7.790910e+001 1.000000e+001
    endloop
  endfacet
  facet normal 3.089943e-001 -9.510639e-001 0.000000e+000
    outer loop
      vertex   -8.724033e+001 7.790910e+001 1.200000e+001
      vertex   -8.724033e+001 7.790910e+001 1.000000e+001
      vertex   -8.702217e+001 7.797998e+001 1.200000e+001
    endloop
  endfacet
  facet normal 3.520774e-002 -1.083671e-001 0.000000e+000
    outer loop
      vertex   -8.702217e+001 7.797998e+001 1.200000e+001
      vertex   -8.724033e+001 7.790910e+001 1.000000e+001
      vertex   -8.702217e+001 7.797998e+001 1.000000e+001
    endloop
  endfacet
  facet normal 3.993718e-001 -9.167891e-001 0.000000e+000
    outer loop
      vertex   -8.702217e+001 7.797998e+001 1.200000e+001
      vertex   -8.702217e+001 7.797998e+001 1.000000e+001
      vertex   -8.681188e+001 7.807159e+001 1.200000e+001
    endloop
  endfacet
  facet normal 4.550478e-002 -1.044597e-001 0.000000e+000
    outer loop
      vertex   -8.681188e+001 7.807159e+001 1.200000e+001
      vertex   -8.702217e+001 7.797998e+001 1.000000e+001
      vertex   -8.681188e+001 7.807159e+001 1.000000e+001
    endloop
  endfacet
  facet normal 4.859931e-001 -8.739626e-001 0.000000e+000
    outer loop
      vertex   -8.681188e+001 7.807159e+001 1.200000e+001
      vertex   -8.681188e+001 7.807159e+001 1.000000e+001
      vertex   -8.661142e+001 7.818306e+001 1.200000e+001
    endloop
  endfacet
  facet normal 5.537357e-002 -9.957844e-002 0.000000e+000
    outer loop
      vertex   -8.661142e+001 7.818306e+001 1.200000e+001
      vertex   -8.681188e+001 7.807159e+001 1.000000e+001
      vertex   -8.661142e+001 7.818306e+001 1.000000e+001
    endloop
  endfacet
  facet normal 5.680679e-001 -8.229817e-001 0.000000e+000
    outer loop
      vertex   -8.661142e+001 7.818306e+001 1.200000e+001
      vertex   -8.661142e+001 7.818306e+001 1.000000e+001
      vertex   -8.642265e+001 7.831336e+001 1.200000e+001
    endloop
  endfacet
  facet normal 6.472691e-002 -9.377234e-002 0.000000e+000
    outer loop
      vertex   -8.642265e+001 7.831336e+001 1.200000e+001
      vertex   -8.661142e+001 7.818306e+001 1.000000e+001
      vertex   -8.642265e+001 7.831336e+001 1.000000e+001
    endloop
  endfacet
  facet normal 6.448412e-001 -7.643166e-001 0.000000e+000
    outer loop
      vertex   -8.642265e+001 7.831336e+001 1.200000e+001
      vertex   -8.642265e+001 7.831336e+001 1.000000e+001
      vertex   -8.624733e+001 7.846127e+001 1.200000e+001
    endloop
  endfacet
  facet normal 7.347390e-002 -8.708706e-002 0.000000e+000
    outer loop
      vertex   -8.624733e+001 7.846127e+001 1.200000e+001
      vertex   -8.642265e+001 7.831336e+001 1.000000e+001
      vertex   -8.624733e+001 7.846127e+001 1.000000e+001
    endloop
  endfacet
  facet normal 7.156035e-001 -6.985067e-001 0.000000e+000
    outer loop
      vertex   -8.624733e+001 7.846127e+001 1.200000e+001
      vertex   -8.624733e+001 7.846127e+001 1.000000e+001
      vertex   -8.608711e+001 7.862541e+001 1.200000e+001
    endloop
  endfacet
  facet normal 8.153494e-002 -7.958696e-002 0.000000e+000
    outer loop
      vertex   -8.608711e+001 7.862541e+001 1.200000e+001
      vertex   -8.624733e+001 7.846127e+001 1.000000e+001
      vertex   -8.608711e+001 7.862541e+001 1.000000e+001
    endloop
  endfacet
  facet normal 7.796635e-001 -6.261987e-001 0.000000e+000
    outer loop
      vertex   -8.608711e+001 7.862541e+001 1.200000e+001
      vertex   -8.608711e+001 7.862541e+001 1.000000e+001
      vertex   -8.594347e+001 7.880425e+001 1.200000e+001
    endloop
  endfacet
  facet normal 8.883794e-002 -7.135156e-002 0.000000e+000
    outer loop
      vertex   -8.594347e+001 7.880425e+001 1.200000e+001
      vertex   -8.608711e+001 7.862541e+001 1.000000e+001
      vertex   -8.594347e+001 7.880425e+001 1.000000e+001
    endloop
  endfacet
  facet normal 8.364806e-001 -5.479966e-001 0.000000e+000
    outer loop
      vertex   -8.594347e+001 7.880425e+001 1.200000e+001
      vertex   -8.594347e+001 7.880425e+001 1.000000e+001
      vertex   -8.581778e+001 7.899612e+001 1.200000e+001
    endloop
  endfacet
  facet normal 9.530728e-002 -6.243787e-002 0.000000e+000
    outer loop
      vertex   -8.581778e+001 7.899612e+001 1.200000e+001
      vertex   -8.594347e+001 7.880425e+001 1.000000e+001
      vertex   -8.581778e+001 7.899612e+001 1.000000e+001
    endloop
  endfacet
  facet normal 8.854530e-001 -4.647290e-001 0.000000e+000
    outer loop
      vertex   -8.581778e+001 7.899612e+001 1.200000e+001
      vertex   -8.581778e+001 7.899612e+001 1.000000e+001
      vertex   -8.571118e+001 7.919922e+001 1.200000e+001
    endloop
  endfacet
  facet normal 1.008897e-001 -5.295184e-002 0.000000e+000
    outer loop
      vertex   -8.571118e+001 7.919922e+001 1.200000e+001
      vertex   -8.581778e+001 7.899612e+001 1.000000e+001
      vertex   -8.571118e+001 7.919922e+001 1.000000e+001
    endloop
  endfacet
  facet normal 9.261767e-001 -3.770898e-001 0.000000e+000
    outer loop
      vertex   -8.571118e+001 7.919922e+001 1.200000e+001
      vertex   -8.571118e+001 7.919922e+001 1.000000e+001
      vertex   -8.562469e+001 7.941166e+001 1.200000e+001
    endloop
  endfacet
  facet normal 1.055285e-001 -4.296558e-002 0.000000e+000
    outer loop
      vertex   -8.562469e+001 7.941166e+001 1.200000e+001
      vertex   -8.571118e+001 7.919922e+001 1.000000e+001
      vertex   -8.562469e+001 7.941166e+001 1.000000e+001
    endloop
  endfacet
  facet normal 9.582436e-001 -2.859530e-001 0.000000e+000
    outer loop
      vertex   -8.562469e+001 7.941166e+001 1.200000e+001
      vertex   -8.562469e+001 7.941166e+001 1.000000e+001
      vertex   -8.555910e+001 7.963145e+001 1.200000e+001
    endloop
  endfacet
  facet normal 1.091819e-001 -3.258138e-002 0.000000e+000
    outer loop
      vertex   -8.555910e+001 7.963145e+001 1.200000e+001
      vertex   -8.562469e+001 7.941166e+001 1.000000e+001
      vertex   -8.555910e+001 7.963145e+001 1.000000e+001
    endloop
  endfacet
  facet normal 9.813721e-001 -1.921168e-001 0.000000e+000
    outer loop
      vertex   -8.555910e+001 7.963145e+001 1.200000e+001
      vertex   -8.555910e+001 7.963145e+001 1.000000e+001
      vertex   -8.551503e+001 7.985656e+001 1.200000e+001
    endloop
  endfacet
  facet normal 1.118196e-001 -2.189020e-002 0.000000e+000
    outer loop
      vertex   -8.551503e+001 7.985656e+001 1.200000e+001
      vertex   -8.555910e+001 7.963145e+001 1.000000e+001
      vertex   -8.551503e+001 7.985656e+001 1.000000e+001
    endloop
  endfacet
  facet normal 9.953305e-001 -9.652617e-002 0.000000e+000
    outer loop
      vertex   -8.551503e+001 7.985656e+001 1.200000e+001
      vertex   -8.551503e+001 7.985656e+001 1.000000e+001
      vertex   -8.549289e+001 8.008486e+001 1.200000e+001
    endloop
  endfacet
  facet normal 1.134076e-001 -1.099816e-002 0.000000e+000
    outer loop
      vertex   -8.549289e+001 8.008486e+001 1.200000e+001
      vertex   -8.551503e+001 7.985656e+001 1.000000e+001
      vertex   -8.549289e+001 8.008486e+001 1.000000e+001
    endloop
  endfacet
  facet normal 1.000000e+000 -0.000000e+000 0.000000e+000
    outer loop
      vertex   -8.549289e+001 8.008486e+001 1.200000e+001
      vertex   -8.549289e+001 8.008486e+001 1.000000e+001
      vertex   -8.549289e+001 8.031424e+001 1.200000e+001
    endloop
  endfacet
  facet normal 1.139420e-001 0.000000e+000 0.000000e+000
    outer loop
      vertex   -8.549289e+001 8.031424e+001 1.200000e+001
      vertex   -8.549289e+001 8.008486e+001 1.000000e+001
      vertex   -8.549289e+001 8.031424e+001 1.000000e+001
    endloop
  endfacet
  facet normal 9.953305e-001 9.652617e-002 0.000000e+000
    outer loop
      vertex   -8.549289e+001 8.031424e+001 1.200000e+001
      vertex   -8.549289e+001 8.031424e+001 1.000000e+001
      vertex   -8.551503e+001 8.054254e+001 1.200000e+001
    endloop
  endfacet
  facet normal 1.134076e-001 1.099816e-002 0.000000e+000
    outer loop
      vertex   -8.551503e+001 8.054254e+001 1.200000e+001
      vertex   -8.549289e+001 8.031424e+001 1.000000e+001
      vertex   -8.551503e+001 8.054254e+001 1.000000e+001
    endloop
  endfacet
  facet normal 9.813721e-001 1.921168e-001 0.000000e+000
    outer loop
      vertex   -8.551503e+001 8.054254e+001 1.200000e+001
      vertex   -8.551503e+001 8.054254e+001 1.000000e+001
      vertex   -8.555910e+001 8.076765e+001 1.200000e+001
    endloop
  endfacet
  facet normal 1.118196e-001 2.189020e-002 0.000000e+000
    outer loop
      vertex   -8.555910e+001 8.076765e+001 1.200000e+001
      vertex   -8.551503e+001 8.054254e+001 1.000000e+001
      vertex   -8.555910e+001 8.076765e+001 1.000000e+001
    endloop
  endfacet
  facet normal 9.582436e-001 2.859530e-001 0.000000e+000
    outer loop
      vertex   -8.555910e+001 8.076765e+001 1.200000e+001
      vertex   -8.555910e+001 8.076765e+001 1.000000e+001
      vertex   -8.562469e+001 8.098744e+001 1.200000e+001
    endloop
  endfacet
  facet normal 1.091819e-001 3.258138e-002 0.000000e+000
    outer loop
      vertex   -8.562469e+001 8.098744e+001 1.200000e+001
      vertex   -8.555910e+001 8.076765e+001 1.000000e+001
      vertex   -8.562469e+001 8.098744e+001 1.000000e+001
    endloop
  endfacet
  facet normal 9.261814e-001 3.770782e-001 0.000000e+000
    outer loop
      vertex   -8.562469e+001 8.098744e+001 1.200000e+001
      vertex   -8.562469e+001 8.098744e+001 1.000000e+001
      vertex   -8.571118e+001 8.119989e+001 1.200000e+001
    endloop
  endfacet
  facet normal 1.055323e-001 4.296556e-002 0.000000e+000
    outer loop
      vertex   -8.571118e+001 8.119989e+001 1.200000e+001
      vertex   -8.562469e+001 8.098744e+001 1.000000e+001
      vertex   -8.571118e+001 8.119989e+001 1.000000e+001
    endloop
  endfacet
  facet normal 8.854530e-001 4.647290e-001 0.000000e+000
    outer loop
      vertex   -8.571118e+001 8.119989e+001 1.200000e+001
      vertex   -8.571118e+001 8.119989e+001 1.000000e+001
      vertex   -8.581778e+001 8.140299e+001 1.200000e+001
    endloop
  endfacet
  facet normal 1.008897e-001 5.295184e-002 0.000000e+000
    outer loop
      vertex   -8.581778e+001 8.140299e+001 1.200000e+001
      vertex   -8.571118e+001 8.119989e+001 1.000000e+001
      vertex   -8.581778e+001 8.140299e+001 1.000000e+001
    endloop
  endfacet
  facet normal 8.364806e-001 5.479966e-001 0.000000e+000
    outer loop
      vertex   -8.581778e+001 8.140299e+001 1.200000e+001
      vertex   -8.581778e+001 8.140299e+001 1.000000e+001
      vertex   -8.594347e+001 8.159486e+001 1.200000e+001
    endloop
  endfacet
  facet normal 9.530728e-002 6.243787e-002 0.000000e+000
    outer loop
      vertex   -8.594347e+001 8.159486e+001 1.200000e+001
      vertex   -8.581778e+001 8.140299e+001 1.000000e+001
      vertex   -8.594347e+001 8.159486e+001 1.000000e+001
    endloop
  endfacet
  facet normal 7.796504e-001 6.262150e-001 0.000000e+000
    outer loop
      vertex   -8.594347e+001 8.159486e+001 1.200000e+001
      vertex   -8.594347e+001 8.159486e+001 1.000000e+001
      vertex   -8.608711e+001 8.177369e+001 1.200000e+001
    endloop
  endfacet
  facet normal 8.883418e-002 7.135158e-002 0.000000e+000
    outer loop
      vertex   -8.608711e+001 8.177369e+001 1.200000e+001
      vertex   -8.594347e+001 8.159486e+001 1.000000e+001
      vertex   -8.608711e+001 8.177369e+001 1.000000e+001
    endloop
  endfacet
  facet normal 7.156197e-001 6.984901e-001 0.000000e+000
    outer loop
      vertex   -8.608711e+001 8.177369e+001 1.200000e+001
      vertex   -8.608711e+001 8.177369e+001 1.000000e+001
      vertex   -8.624733e+001 8.193784e+001 1.200000e+001
    endloop
  endfacet
  facet normal 8.153871e-002 7.958693e-002 0.000000e+000
    outer loop
      vertex   -8.624733e+001 8.193784e+001 1.200000e+001
      vertex   -8.608711e+001 8.177369e+001 1.000000e+001
      vertex   -8.624733e+001 8.193784e+001 1.000000e+001
    endloop
  endfacet
  facet normal 6.448412e-001 7.643166e-001 0.000000e+000
    outer loop
      vertex   -8.624733e+001 8.193784e+001 1.200000e+001
      vertex   -8.624733e+001 8.193784e+001 1.000000e+001
      vertex   -8.642265e+001 8.208575e+001 1.200000e+001
    endloop
  endfacet
  facet normal 7.347390e-002 8.708706e-002 0.000000e+000
    outer loop
      vertex   -8.642265e+001 8.208575e+001 1.200000e+001
      vertex   -8.624733e+001 8.193784e+001 1.000000e+001
      vertex   -8.642265e+001 8.208575e+001 1.000000e+001
    endloop
  endfacet
  facet normal 5.680454e-001 8.229972e-001 0.000000e+000
    outer loop
      vertex   -8.642265e+001 8.208575e+001 1.200000e+001
      vertex   -8.642265e+001 8.208575e+001 1.000000e+001
      vertex   -8.661142e+001 8.221604e+001 1.200000e+001
    endloop
  endfacet
  facet normal 6.472313e-002 9.377237e-002 0.000000e+000
    outer loop
      vertex   -8.661142e+001 8.221604e+001 1.200000e+001
      vertex   -8.642265e+001 8.208575e+001 1.000000e+001
      vertex   -8.661142e+001 8.221604e+001 1.000000e+001
    endloop
  endfacet
  facet normal 4.859931e-001 8.739626e-001 0.000000e+000
    outer loop
      vertex   -8.661142e+001 8.221604e+001 1.200000e+001
      vertex   -8.661142e+001 8.221604e+001 1.000000e+001
      vertex   -8.681188e+001 8.232751e+001 1.200000e+001
    endloop
  endfacet
  facet normal 5.537357e-002 9.957844e-002 0.000000e+000
    outer loop
      vertex   -8.681188e+001 8.232751e+001 1.200000e+001
      vertex   -8.661142e+001 8.221604e+001 1.000000e+001
      vertex   -8.681188e+001 8.232751e+001 1.000000e+001
    endloop
  endfacet
  facet normal 3.993718e-001 9.167891e-001 0.000000e+000
    outer loop
      vertex   -8.681188e+001 8.232751e+001 1.200000e+001
      vertex   -8.681188e+001 8.232751e+001 1.000000e+001
      vertex   -8.702217e+001 8.241912e+001 1.200000e+001
    endloop
  endfacet
  facet normal 4.550478e-002 1.044597e-001 0.000000e+000
    outer loop
      vertex   -8.702217e+001 8.241912e+001 1.200000e+001
      vertex   -8.681188e+001 8.232751e+001 1.000000e+001
      vertex   -8.702217e+001 8.241912e+001 1.000000e+001
    endloop
  endfacet
  facet normal 3.090244e-001 9.510541e-001 0.000000e+000
    outer loop
      vertex   -8.702217e+001 8.241912e+001 1.200000e+001
      vertex   -8.702217e+001 8.241912e+001 1.000000e+001
      vertex   -8.724033e+001 8.249001e+001 1.200000e+001
    endloop
  endfacet
  facet normal 3.521152e-002 1.083670e-001 0.000000e+000
    outer loop
      vertex   -8.724033e+001 8.249001e+001 1.200000e+001
      vertex   -8.702217e+001 8.241912e+001 1.000000e+001
      vertex   -8.724033e+001 8.249001e+001 1.000000e+001
    endloop
  endfacet
  facet normal 2.157716e-001 9.764439e-001 0.000000e+000
    outer loop
      vertex   -8.724033e+001 8.249001e+001 1.200000e+001
      vertex   -8.724033e+001 8.249001e+001 1.000000e+001
      vertex   -8.746429e+001 8.253950e+001 1.200000e+001
    endloop
  endfacet
  facet normal 2.458479e-002 1.112550e-001 0.000000e+000
    outer loop
      vertex   -8.746429e+001 8.253950e+001 1.200000e+001
      vertex   -8.724033e+001 8.249001e+001 1.000000e+001
      vertex   -8.746429e+001 8.253950e+001 1.000000e+001
    endloop
  endfacet
  facet normal 1.205380e-001 9.927087e-001 0.000000e+000
    outer loop
      vertex   -8.746429e+001 8.253950e+001 1.200000e+001
      vertex   -8.746429e+001 8.253950e+001 1.000000e+001
      vertex   -8.769200e+001 8.256715e+001 1.200000e+001
    endloop
  endfacet
  facet normal 1.373443e-002 1.131120e-001 0.000000e+000
    outer loop
      vertex   -8.769200e+001 8.256715e+001 1.200000e+001
      vertex   -8.746429e+001 8.253950e+001 1.000000e+001
      vertex   -8.769200e+001 8.256715e+001 1.000000e+001
    endloop
  endfacet
  facet normal 2.414867e-002 9.997084e-001 0.000000e+000
    outer loop
      vertex   -8.769200e+001 8.256715e+001 1.200000e+001
      vertex   -8.769200e+001 8.256715e+001 1.000000e+001
      vertex   -8.792130e+001 8.257269e+001 1.200000e+001
    endloop
  endfacet
  facet normal 2.751435e-003 1.139041e-001 0.000000e+000
    outer loop
      vertex   -8.792130e+001 8.257269e+001 1.200000e+001
      vertex   -8.769200e+001 8.256715e+001 1.000000e+001
      vertex   -8.792130e+001 8.257269e+001 1.000000e+001
    endloop
  endfacet
  facet normal -7.240997e-002 9.973750e-001 0.000000e+000
    outer loop
      vertex   -8.792130e+001 8.257269e+001 1.200000e+001
      vertex   -8.792130e+001 8.257269e+001 1.000000e+001
      vertex   -8.815008e+001 8.255608e+001 1.200000e+001
    endloop
  endfacet
  facet normal -8.250512e-003 1.136426e-001 0.000000e+000
    outer loop
      vertex   -8.815008e+001 8.255608e+001 1.200000e+001
      vertex   -8.792130e+001 8.257269e+001 1.000000e+001
      vertex   -8.815008e+001 8.255608e+001 1.000000e+001
    endloop
  endfacet
  facet normal -1.683674e-001 9.857243e-001 0.000000e+000
    outer loop
      vertex   -8.815008e+001 8.255608e+001 1.200000e+001
      vertex   -8.815008e+001 8.255608e+001 1.000000e+001
      vertex   -8.837618e+001 8.251746e+001 1.200000e+001
    endloop
  endfacet
  facet normal -1.918424e-002 1.123161e-001 0.000000e+000
    outer loop
      vertex   -8.837618e+001 8.251746e+001 1.200000e+001
      vertex   -8.815008e+001 8.255608e+001 1.000000e+001
      vertex   -8.837618e+001 8.251746e+001 1.000000e+001
    endloop
  endfacet
  facet normal -2.627065e-001 9.648758e-001 0.000000e+000
    outer loop
      vertex   -8.837618e+001 8.251746e+001 1.200000e+001
      vertex   -8.837618e+001 8.251746e+001 1.000000e+001
      vertex   -8.859750e+001 8.245720e+001 1.200000e+001
    endloop
  endfacet
  facet normal -2.993228e-002 1.099361e-001 0.000000e+000
    outer loop
      vertex   -8.859750e+001 8.245720e+001 1.200000e+001
      vertex   -8.837618e+001 8.251746e+001 1.000000e+001
      vertex   -8.859750e+001 8.245720e+001 1.000000e+001
    endloop
  endfacet
  facet normal -3.546021e-001 9.350173e-001 0.000000e+000
    outer loop
      vertex   -8.859750e+001 8.245720e+001 1.200000e+001
      vertex   -8.859750e+001 8.245720e+001 1.000000e+001
      vertex   -8.881197e+001 8.237586e+001 1.200000e+001
    endloop
  endfacet
  facet normal -4.040363e-002 1.065366e-001 0.000000e+000
    outer loop
      vertex   -8.881197e+001 8.237586e+001 1.200000e+001
      vertex   -8.859750e+001 8.245720e+001 1.000000e+001
      vertex   -8.881197e+001 8.237586e+001 1.000000e+001
    endloop
  endfacet
  facet normal -4.432045e-001 8.964205e-001 0.000000e+000
    outer loop
      vertex   -8.881197e+001 8.237586e+001 1.200000e+001
      vertex   -8.881197e+001 8.237586e+001 1.000000e+001
      vertex   -8.901759e+001 8.227420e+001 1.200000e+001
    endloop
  endfacet
  facet normal -5.049980e-002 1.021403e-001 0.000000e+000
    outer loop
      vertex   -8.901759e+001 8.227420e+001 1.200000e+001
      vertex   -8.881197e+001 8.237586e+001 1.000000e+001
      vertex   -8.901759e+001 8.227420e+001 1.000000e+001
    endloop
  endfacet
  facet normal -5.276319e-001 8.494731e-001 0.000000e+000
    outer loop
      vertex   -8.901759e+001 8.227420e+001 1.200000e+001
      vertex   -8.901759e+001 8.227420e+001 1.000000e+001
      vertex   -8.921243e+001 8.215318e+001 1.200000e+001
    endloop
  endfacet
  facet normal -6.011846e-002 9.678909e-002 0.000000e+000
    outer loop
      vertex   -8.921243e+001 8.215318e+001 1.200000e+001
      vertex   -8.901759e+001 8.227420e+001 1.000000e+001
      vertex   -8.921243e+001 8.215318e+001 1.000000e+001
    endloop
  endfacet
  facet normal -6.071550e-001 7.945834e-001 0.000000e+000
    outer loop
      vertex   -8.921243e+001 8.215318e+001 1.200000e+001
      vertex   -8.921243e+001 8.215318e+001 1.000000e+001
      vertex   -8.939469e+001 8.201391e+001 1.200000e+001
    endloop
  endfacet
  facet normal -6.918000e-002 9.053582e-002 0.000000e+000
    outer loop
      vertex   -8.939469e+001 8.201391e+001 1.200000e+001
      vertex   -8.921243e+001 8.215318e+001 1.000000e+001
      vertex   -8.939469e+001 8.201391e+001 1.000000e+001
    endloop
  endfacet
  facet normal -6.810313e-001 7.322543e-001 0.000000e+000
    outer loop
      vertex   -8.939469e+001 8.201391e+001 1.200000e+001
      vertex   -8.939469e+001 8.201391e+001 1.000000e+001
      vertex   -8.956265e+001 8.185770e+001 1.200000e+001
    endloop
  endfacet
  facet normal -7.759727e-002 8.343364e-002 0.000000e+000
    outer loop
      vertex   -8.956265e+001 8.185770e+001 1.200000e+001
      vertex   -8.939469e+001 8.201391e+001 1.000000e+001
      vertex   -8.956265e+001 8.185770e+001 1.000000e+001
    endloop
  endfacet
  facet normal -7.484929e-001 6.631428e-001 0.000000e+000
    outer loop
      vertex   -8.956265e+001 8.185770e+001 1.200000e+001
      vertex   -8.956265e+001 8.185770e+001 1.000000e+001
      vertex   -8.971476e+001 8.168601e+001 1.200000e+001
    endloop
  endfacet
  facet normal -8.528310e-002 7.555833e-002 0.000000e+000
    outer loop
      vertex   -8.971476e+001 8.168601e+001 1.200000e+001
      vertex   -8.956265e+001 8.185770e+001 1.000000e+001
      vertex   -8.971476e+001 8.168601e+001 1.000000e+001
    endloop
  endfacet
  facet normal -8.090122e-001 5.877919e-001 0.000000e+000
    outer loop
      vertex   -8.971476e+001 8.168601e+001 1.200000e+001
      vertex   -8.971476e+001 8.168601e+001 1.000000e+001
      vertex   -8.984959e+001 8.150044e+001 1.200000e+001
    endloop
  endfacet
  facet normal -9.218061e-002 6.697429e-002 0.000000e+000
    outer loop
      vertex   -8.984959e+001 8.150044e+001 1.200000e+001
      vertex   -8.971476e+001 8.168601e+001 1.000000e+001
      vertex   -8.984959e+001 8.150044e+001 1.000000e+001
    endloop
  endfacet
  facet normal -8.619795e-001 5.069431e-001 0.000000e+000
    outer loop
      vertex   -8.984959e+001 8.150044e+001 1.200000e+001
      vertex   -8.984959e+001 8.150044e+001 1.000000e+001
      vertex   -8.996587e+001 8.130273e+001 1.200000e+001
    endloop
  endfacet
  facet normal -9.821408e-002 5.776117e-002 0.000000e+000
    outer loop
      vertex   -8.996587e+001 8.130273e+001 1.200000e+001
      vertex   -8.984959e+001 8.150044e+001 1.000000e+001
      vertex   -8.996587e+001 8.130273e+001 1.000000e+001
    endloop
  endfacet
  facet normal -9.068787e-001 4.213918e-001 0.000000e+000
    outer loop
      vertex   -8.996587e+001 8.130273e+001 1.200000e+001
      vertex   -8.996587e+001 8.130273e+001 1.000000e+001
      vertex   -9.006252e+001 8.109471e+001 1.200000e+001
    endloop
  endfacet
  facet normal -1.033304e-001 4.801366e-002 0.000000e+000
    outer loop
      vertex   -9.006252e+001 8.109471e+001 1.200000e+001
      vertex   -8.996587e+001 8.130273e+001 1.000000e+001
      vertex   -9.006252e+001 8.109471e+001 1.000000e+001
    endloop
  endfacet
  facet normal -9.433074e-001 3.319205e-001 0.000000e+000
    outer loop
      vertex   -9.006252e+001 8.109471e+001 1.200000e+001
      vertex   -9.006252e+001 8.109471e+001 1.000000e+001
      vertex   -9.013866e+001 8.087834e+001 1.200000e+001
    endloop
  endfacet
  facet normal -1.074803e-001 3.781896e-002 0.000000e+000
    outer loop
      vertex   -9.013866e+001 8.087834e+001 1.200000e+001
      vertex   -9.006252e+001 8.109471e+001 1.000000e+001
      vertex   -9.013866e+001 8.087834e+001 1.000000e+001
    endloop
  endfacet
  facet normal -9.709413e-001 2.393177e-001 0.000000e+000
    outer loop
      vertex   -9.013866e+001 8.087834e+001 1.200000e+001
      vertex   -9.013866e+001 8.087834e+001 1.000000e+001
      vertex   -9.019355e+001 8.065563e+001 1.200000e+001
    endloop
  endfacet
  facet normal -1.106296e-001 2.726800e-002 0.000000e+000
    outer loop
      vertex   -9.019355e+001 8.065563e+001 1.200000e+001
      vertex   -9.013866e+001 8.087834e+001 1.000000e+001
      vertex   -9.019355e+001 8.065563e+001 1.000000e+001
    endloop
  endfacet
  facet normal -9.895070e-001 1.444847e-001 0.000000e+000
    outer loop
      vertex   -9.019355e+001 8.065563e+001 1.200000e+001
      vertex   -9.019355e+001 8.065563e+001 1.000000e+001
      vertex   -9.022669e+001 8.042866e+001 1.200000e+001
    endloop
  endfacet
  facet normal -1.127481e-001 1.646312e-002 0.000000e+000
    outer loop
      vertex   -9.022669e+001 8.042866e+001 1.200000e+001
      vertex   -9.019355e+001 8.065563e+001 1.000000e+001
      vertex   -9.022669e+001 8.042866e+001 1.000000e+001
    endloop
  endfacet
  facet normal 0.000000e+000 -0.000000e+000 9.997076e-001
    outer loop
      vertex   -9.022669e+001 7.997044e+001 1.200000e+001
      vertex   -8.549289e+001 8.008486e+001 1.200000e+001
      vertex   -9.023778e+001 8.019955e+001 1.200000e+001
    endloop
  endfacet
  facet normal -0.000000e+000 0.000000e+000 4.831385e-002
    outer loop
      vertex   -9.023778e+001 8.019955e+001 1.200000e+001
      vertex   -8.549289e+001 8.008486e+001 1.200000e+001
      vertex   -8.549289e+001 8.031424e+001 1.200000e+001
    endloop
  endfacet
  facet normal 0.000000e+000 0.000000e+000 9.973720e-001
    outer loop
      vertex   -9.023778e+001 8.019955e+001 1.200000e+001
      vertex   -8.549289e+001 8.031424e+001 1.200000e+001
      vertex   -9.022669e+001 8.042866e+001 1.200000e+001
    endloop
  endfacet
  facet normal -0.000000e+000 0.000000e+000 4.831286e-002
    outer loop
      vertex   -9.022669e+001 8.042866e+001 1.200000e+001
      vertex   -8.549289e+001 8.031424e+001 1.200000e+001
      vertex   -8.551503e+001 8.054254e+001 1.200000e+001
    endloop
  endfacet
  facet normal 0.000000e+000 0.000000e+000 9.857268e-001
    outer loop
      vertex   -9.022669e+001 8.042866e+001 1.200000e+001
      vertex   -8.551503e+001 8.054254e+001 1.200000e+001
      vertex   -9.019355e+001 8.065563e+001 1.200000e+001
    endloop
  endfacet
  facet normal -0.000000e+000 0.000000e+000 4.831406e-002
    outer loop
      vertex   -9.019355e+001 8.065563e+001 1.200000e+001
      vertex   -8.551503e+001 8.054254e+001 1.200000e+001
      vertex   -8.555910e+001 8.076765e+001 1.200000e+001
    endloop
  endfacet
  facet normal 0.000000e+000 0.000000e+000 9.648752e-001
    outer loop
      vertex   -9.019355e+001 8.065563e+001 1.200000e+001
      vertex   -8.555910e+001 8.076765e+001 1.200000e+001
      vertex   -9.013866e+001 8.087834e+001 1.200000e+001
    endloop
  endfacet
  facet normal -0.000000e+000 0.000000e+000 4.831278e-002
    outer loop
      vertex   -9.013866e+001 8.087834e+001 1.200000e+001
      vertex   -8.555910e+001 8.076765e+001 1.200000e+001
      vertex   -8.562469e+001 8.098744e+001 1.200000e+001
    endloop
  endfacet
  facet normal 0.000000e+000 0.000000e+000 9.350120e-001
    outer loop
      vertex   -9.013866e+001 8.087834e+001 1.200000e+001
      vertex   -8.562469e+001 8.098744e+001 1.200000e+001
      vertex   -9.006252e+001 8.109471e+001 1.200000e+001
    endloop
  endfacet
  facet normal -0.000000e+000 0.000000e+000 4.831489e-002
    outer loop
      vertex   -9.006252e+001 8.109471e+001 1.200000e+001
      vertex   -8.562469e+001 8.098744e+001 1.200000e+001
      vertex   -8.571118e+001 8.119989e+001 1.200000e+001
    endloop
  endfacet
  facet normal 0.000000e+000 0.000000e+000 8.964311e-001
    outer loop
      vertex   -9.006252e+001 8.109471e+001 1.200000e+001
      vertex   -8.571118e+001 8.119989e+001 1.200000e+001
      vertex   -8.996587e+001 8.130273e+001 1.200000e+001
    endloop
  endfacet
  facet normal -0.000000e+000 0.000000e+000 4.831349e-002
    outer loop
      vertex   -8.996587e+001 8.130273e+001 1.200000e+001
      vertex   -8.571118e+001 8.119989e+001 1.200000e+001
      vertex   -8.581778e+001 8.140299e+001 1.200000e+001
    endloop
  endfacet
  facet normal 0.000000e+000 0.000000e+000 8.494778e-001
    outer loop
      vertex   -8.996587e+001 8.130273e+001 1.200000e+001
      vertex   -8.581778e+001 8.140299e+001 1.200000e+001
      vertex   -8.984959e+001 8.150044e+001 1.200000e+001
    endloop
  endfacet
  facet normal -0.000000e+000 0.000000e+000 4.831291e-002
    outer loop
      vertex   -8.984959e+001 8.150044e+001 1.200000e+001
      vertex   -8.581778e+001 8.140299e+001 1.200000e+001
      vertex   -8.594347e+001 8.159486e+001 1.200000e+001
    endloop
  endfacet
  facet normal 0.000000e+000 0.000000e+000 7.945727e-001
    outer loop
      vertex   -8.984959e+001 8.150044e+001 1.200000e+001
      vertex   -8.594347e+001 8.159486e+001 1.200000e+001
      vertex   -8.971476e+001 8.168601e+001 1.200000e+001
    endloop
  endfacet
  facet normal -0.000000e+000 0.000000e+000 4.831195e-002
    outer loop
      vertex   -8.971476e+001 8.168601e+001 1.200000e+001
      vertex   -8.594347e+001 8.159486e+001 1.200000e+001
      vertex   -8.608711e+001 8.177369e+001 1.200000e+001
    endloop
  endfacet
  facet normal 0.000000e+000 0.000000e+000 7.322515e-001
    outer loop
      vertex   -8.971476e+001 8.168601e+001 1.200000e+001
      vertex   -8.608711e+001 8.177369e+001 1.200000e+001
      vertex   -8.956265e+001 8.185770e+001 1.200000e+001
    endloop
  endfacet
  facet normal -0.000000e+000 0.000000e+000 4.831512e-002
    outer loop
      vertex   -8.956265e+001 8.185770e+001 1.200000e+001
      vertex   -8.608711e+001 8.177369e+001 1.200000e+001
      vertex   -8.624733e+001 8.193784e+001 1.200000e+001
    endloop
  endfacet
  facet normal 0.000000e+000 0.000000e+000 6.631374e-001
    outer loop
      vertex   -8.956265e+001 8.185770e+001 1.200000e+001
      vertex   -8.624733e+001 8.193784e+001 1.200000e+001
      vertex   -8.939469e+001 8.201391e+001 1.200000e+001
    endloop
  endfacet
  facet normal -0.000000e+000 0.000000e+000 4.831344e-002
    outer loop
      vertex   -8.939469e+001 8.201391e+001 1.200000e+001
      vertex   -8.624733e+001 8.193784e+001 1.200000e+001
      vertex   -8.642265e+001 8.208575e+001 1.200000e+001
    endloop
  endfacet
  facet normal 0.000000e+000 0.000000e+000 5.877771e-001
    outer loop
      vertex   -8.939469e+001 8.201391e+001 1.200000e+001
      vertex   -8.642265e+001 8.208575e+001 1.200000e+001
      vertex   -8.921243e+001 8.215318e+001 1.200000e+001
    endloop
  endfacet
  facet normal -0.000000e+000 0.000000e+000 4.831146e-002
    outer loop
      vertex   -8.921243e+001 8.215318e+001 1.200000e+001
      vertex   -8.642265e+001 8.208575e+001 1.200000e+001
      vertex   -8.661142e+001 8.221604e+001 1.200000e+001
    endloop
  endfacet
  facet normal 0.000000e+000 0.000000e+000 5.069522e-001
    outer loop
      vertex   -8.921243e+001 8.215318e+001 1.200000e+001
      vertex   -8.661142e+001 8.221604e+001 1.200000e+001
      vertex   -8.901759e+001 8.227420e+001 1.200000e+001
    endloop
  endfacet
  facet normal -0.000000e+000 0.000000e+000 4.831360e-002
    outer loop
      vertex   -8.901759e+001 8.227420e+001 1.200000e+001
      vertex   -8.661142e+001 8.221604e+001 1.200000e+001
      vertex   -8.681188e+001 8.232751e+001 1.200000e+001
    endloop
  endfacet
  facet normal 0.000000e+000 0.000000e+000 4.214140e-001
    outer loop
      vertex   -8.901759e+001 8.227420e+001 1.200000e+001
      vertex   -8.681188e+001 8.232751e+001 1.200000e+001
      vertex   -8.881197e+001 8.237586e+001 1.200000e+001
    endloop
  endfacet
  facet normal -0.000000e+000 0.000000e+000 4.831412e-002
    outer loop
      vertex   -8.881197e+001 8.237586e+001 1.200000e+001
      vertex   -8.681188e+001 8.232751e+001 1.200000e+001
      vertex   -8.702217e+001 8.241912e+001 1.200000e+001
    endloop
  endfacet
  facet normal 0.000000e+000 0.000000e+000 3.319061e-001
    outer loop
      vertex   -8.881197e+001 8.237586e+001 1.200000e+001
      vertex   -8.702217e+001 8.241912e+001 1.200000e+001
      vertex   -8.859750e+001 8.245720e+001 1.200000e+001
    endloop
  endfacet
  facet normal -0.000000e+000 0.000000e+000 4.831613e-002
    outer loop
      vertex   -8.859750e+001 8.245720e+001 1.200000e+001
      vertex   -8.702217e+001 8.241912e+001 1.200000e+001
      vertex   -8.724033e+001 8.249001e+001 1.200000e+001
    endloop
  endfacet
  facet normal 0.000000e+000 0.000000e+000 2.393129e-001
    outer loop
      vertex   -8.859750e+001 8.245720e+001 1.200000e+001
      vertex   -8.724033e+001 8.249001e+001 1.200000e+001
      vertex   -8.837618e+001 8.251746e+001 1.200000e+001
    endloop
  endfacet
  facet normal -0.000000e+000 0.000000e+000 4.831014e-002
    outer loop
      vertex   -8.837618e+001 8.251746e+001 1.200000e+001
      vertex   -8.724033e+001 8.249001e+001 1.200000e+001
      vertex   -8.746429e+001 8.253950e+001 1.200000e+001
    endloop
  endfacet
  facet normal 0.000000e+000 0.000000e+000 1.444992e-001
    outer loop
      vertex   -8.837618e+001 8.251746e+001 1.200000e+001
      vertex   -8.746429e+001 8.253950e+001 1.200000e+001
      vertex   -8.815008e+001 8.255608e+001 1.200000e+001
    endloop
  endfacet
  facet normal -0.000000e+000 0.000000e+000 4.831339e-002
    outer loop
      vertex   -8.815008e+001 8.255608e+001 1.200000e+001
      vertex   -8.746429e+001 8.253950e+001 1.200000e+001
      vertex   -8.769200e+001 8.256715e+001 1.200000e+001
    endloop
  endfacet
  facet normal 0.000000e+000 0.000000e+000 4.829249e-002
    outer loop
      vertex   -8.815008e+001 8.255608e+001 1.200000e+001
      vertex   -8.769200e+001 8.256715e+001 1.200000e+001
      vertex   -8.792130e+001 8.257269e+001 1.200000e+001
    endloop
  endfacet
  facet normal 0.000000e+000 0.000000e+000 9.927074e-001
    outer loop
      vertex   -8.549289e+001 8.008486e+001 1.200000e+001
      vertex   -9.022669e+001 7.997044e+001 1.200000e+001
      vertex   -8.551503e+001 7.985656e+001 1.200000e+001
    endloop
  endfacet
  facet normal 0.000000e+000 0.000000e+000 4.831308e-002
    outer loop
      vertex   -8.551503e+001 7.985656e+001 1.200000e+001
      vertex   -9.022669e+001 7.997044e+001 1.200000e+001
      vertex   -9.019355e+001 7.974348e+001 1.200000e+001
    endloop
  endfacet
  facet normal 0.000000e+000 0.000000e+000 9.764433e-001
    outer loop
      vertex   -8.551503e+001 7.985656e+001 1.200000e+001
      vertex   -9.019355e+001 7.974348e+001 1.200000e+001
      vertex   -8.555910e+001 7.963145e+001 1.200000e+001
    endloop
  endfacet
  facet normal 0.000000e+000 0.000000e+000 4.831328e-002
    outer loop
      vertex   -8.555910e+001 7.963145e+001 1.200000e+001
      vertex   -9.019355e+001 7.974348e+001 1.200000e+001
      vertex   -9.013866e+001 7.952077e+001 1.200000e+001
    endloop
  endfacet
  facet normal 0.000000e+000 0.000000e+000 9.510545e-001
    outer loop
      vertex   -8.555910e+001 7.963145e+001 1.200000e+001
      vertex   -9.013866e+001 7.952077e+001 1.200000e+001
      vertex   -8.562469e+001 7.941166e+001 1.200000e+001
    endloop
  endfacet
  facet normal 0.000000e+000 0.000000e+000 4.831277e-002
    outer loop
      vertex   -8.562469e+001 7.941166e+001 1.200000e+001
      vertex   -9.013866e+001 7.952077e+001 1.200000e+001
      vertex   -9.006252e+001 7.930440e+001 1.200000e+001
    endloop
  endfacet
  facet normal 0.000000e+000 0.000000e+000 9.167948e-001
    outer loop
      vertex   -8.562469e+001 7.941166e+001 1.200000e+001
      vertex   -9.006252e+001 7.930440e+001 1.200000e+001
      vertex   -8.571118e+001 7.919922e+001 1.200000e+001
    endloop
  endfacet
  facet normal 0.000000e+000 0.000000e+000 4.831357e-002
    outer loop
      vertex   -8.571118e+001 7.919922e+001 1.200000e+001
      vertex   -9.006252e+001 7.930440e+001 1.200000e+001
      vertex   -8.996587e+001 7.909638e+001 1.200000e+001
    endloop
  endfacet
  facet normal 0.000000e+000 0.000000e+000 8.739651e-001
    outer loop
      vertex   -8.571118e+001 7.919922e+001 1.200000e+001
      vertex   -8.996587e+001 7.909638e+001 1.200000e+001
      vertex   -8.581778e+001 7.899612e+001 1.200000e+001
    endloop
  endfacet
  facet normal 0.000000e+000 0.000000e+000 4.831365e-002
    outer loop
      vertex   -8.581778e+001 7.899612e+001 1.200000e+001
      vertex   -8.996587e+001 7.909638e+001 1.200000e+001
      vertex   -8.984959e+001 7.889867e+001 1.200000e+001
    endloop
  endfacet
  facet normal 0.000000e+000 0.000000e+000 8.229949e-001
    outer loop
      vertex   -8.581778e+001 7.899612e+001 1.200000e+001
      vertex   -8.984959e+001 7.889867e+001 1.200000e+001
      vertex   -8.594347e+001 7.880425e+001 1.200000e+001
    endloop
  endfacet
  facet normal 0.000000e+000 0.000000e+000 4.831361e-002
    outer loop
      vertex   -8.594347e+001 7.880425e+001 1.200000e+001
      vertex   -8.984959e+001 7.889867e+001 1.200000e+001
      vertex   -8.971476e+001 7.871310e+001 1.200000e+001
    endloop
  endfacet
  facet normal 0.000000e+000 0.000000e+000 7.643043e-001
    outer loop
      vertex   -8.594347e+001 7.880425e+001 1.200000e+001
      vertex   -8.971476e+001 7.871310e+001 1.200000e+001
      vertex   -8.608711e+001 7.862541e+001 1.200000e+001
    endloop
  endfacet
  facet normal 0.000000e+000 0.000000e+000 4.831398e-002
    outer loop
      vertex   -8.608711e+001 7.862541e+001 1.200000e+001
      vertex   -8.971476e+001 7.871310e+001 1.200000e+001
      vertex   -8.956265e+001 7.854140e+001 1.200000e+001
    endloop
  endfacet
  facet normal 0.000000e+000 0.000000e+000 6.985159e-001
    outer loop
      vertex   -8.608711e+001 7.862541e+001 1.200000e+001
      vertex   -8.956265e+001 7.854140e+001 1.200000e+001
      vertex   -8.624733e+001 7.846127e+001 1.200000e+001
    endloop
  endfacet
  facet normal 0.000000e+000 0.000000e+000 4.831214e-002
    outer loop
      vertex   -8.624733e+001 7.846127e+001 1.200000e+001
      vertex   -8.956265e+001 7.854140e+001 1.200000e+001
      vertex   -8.939469e+001 7.838520e+001 1.200000e+001
    endloop
  endfacet
  facet normal 0.000000e+000 0.000000e+000 6.261845e-001
    outer loop
      vertex   -8.624733e+001 7.846127e+001 1.200000e+001
      vertex   -8.939469e+001 7.838520e+001 1.200000e+001
      vertex   -8.642265e+001 7.831336e+001 1.200000e+001
    endloop
  endfacet
  facet normal 0.000000e+000 0.000000e+000 4.831566e-002
    outer loop
      vertex   -8.642265e+001 7.831336e+001 1.200000e+001
      vertex   -8.939469e+001 7.838520e+001 1.200000e+001
      vertex   -8.921243e+001 7.824593e+001 1.200000e+001
    endloop
  endfacet
  facet normal 0.000000e+000 0.000000e+000 5.480143e-001
    outer loop
      vertex   -8.642265e+001 7.831336e+001 1.200000e+001
      vertex   -8.921243e+001 7.824593e+001 1.200000e+001
      vertex   -8.661142e+001 7.818306e+001 1.200000e+001
    endloop
  endfacet
  facet normal 0.000000e+000 0.000000e+000 4.831243e-002
    outer loop
      vertex   -8.661142e+001 7.818306e+001 1.200000e+001
      vertex   -8.921243e+001 7.824593e+001 1.200000e+001
      vertex   -8.901759e+001 7.812490e+001 1.200000e+001
    endloop
  endfacet
  facet normal 0.000000e+000 0.000000e+000 4.647330e-001
    outer loop
      vertex   -8.661142e+001 7.818306e+001 1.200000e+001
      vertex   -8.901759e+001 7.812490e+001 1.200000e+001
      vertex   -8.681188e+001 7.807159e+001 1.200000e+001
    endloop
  endfacet
  facet normal 0.000000e+000 0.000000e+000 4.831175e-002
    outer loop
      vertex   -8.681188e+001 7.807159e+001 1.200000e+001
      vertex   -8.901759e+001 7.812490e+001 1.200000e+001
      vertex   -8.881197e+001 7.802325e+001 1.200000e+001
    endloop
  endfacet
  facet normal 0.000000e+000 0.000000e+000 3.771039e-001
    outer loop
      vertex   -8.681188e+001 7.807159e+001 1.200000e+001
      vertex   -8.881197e+001 7.802325e+001 1.200000e+001
      vertex   -8.702217e+001 7.797998e+001 1.200000e+001
    endloop
  endfacet
  facet normal 0.000000e+000 0.000000e+000 4.831253e-002
    outer loop
      vertex   -8.702217e+001 7.797998e+001 1.200000e+001
      vertex   -8.881197e+001 7.802325e+001 1.200000e+001
      vertex   -8.859750e+001 7.794191e+001 1.200000e+001
    endloop
  endfacet
  facet normal 0.000000e+000 0.000000e+000 2.859266e-001
    outer loop
      vertex   -8.702217e+001 7.797998e+001 1.200000e+001
      vertex   -8.859750e+001 7.794191e+001 1.200000e+001
      vertex   -8.724033e+001 7.790910e+001 1.200000e+001
    endloop
  endfacet
  facet normal 0.000000e+000 0.000000e+000 4.831841e-002
    outer loop
      vertex   -8.724033e+001 7.790910e+001 1.200000e+001
      vertex   -8.859750e+001 7.794191e+001 1.200000e+001
      vertex   -8.837618e+001 7.788165e+001 1.200000e+001
    endloop
  endfacet
  facet normal 0.000000e+000 0.000000e+000 1.921428e-001
    outer loop
      vertex   -8.724033e+001 7.790910e+001 1.200000e+001
      vertex   -8.837618e+001 7.788165e+001 1.200000e+001
      vertex   -8.746429e+001 7.785960e+001 1.200000e+001
    endloop
  endfacet
  facet normal 0.000000e+000 0.000000e+000 4.830654e-002
    outer loop
      vertex   -8.746429e+001 7.785960e+001 1.200000e+001
      vertex   -8.837618e+001 7.788165e+001 1.200000e+001
      vertex   -8.815008e+001 7.784303e+001 1.200000e+001
    endloop
  endfacet
  facet normal 0.000000e+000 0.000000e+000 9.648944e-002
    outer loop
      vertex   -8.746429e+001 7.785960e+001 1.200000e+001
      vertex   -8.815008e+001 7.784303e+001 1.200000e+001
      vertex   -8.769200e+001 7.783196e+001 1.200000e+001
    endloop
  endfacet
  facet normal 0.000000e+000 0.000000e+000 4.832755e-002
    outer loop
      vertex   -8.769200e+001 7.783196e+001 1.200000e+001
      vertex   -8.815008e+001 7.784303e+001 1.200000e+001
      vertex   -8.792130e+001 7.782642e+001 1.200000e+001
    endloop
  endfacet
  facet normal 1.000000e+000 0.000000e+000 0.000000e+000
    outer loop
      vertex   -6.286395e+001 6.019955e+001 0.000000e+000
      vertex   -6.286395e+001 8.519955e+001 0.000000e+000
      vertex   -6.286395e+001 6.019955e+001 1.000000e+001
    endloop
  endfacet
  facet normal 3.713907e-001 -0.000000e+000 0.000000e+000
    outer loop
      vertex   -6.286395e+001 6.019955e+001 1.000000e+001
      vertex   -6.286395e+001 8.519955e+001 0.000000e+000
      vertex   -6.286395e+001 8.519955e+001 1.000000e+001
    endloop
  endfacet
  facet normal 0.000000e+000 -1.000000e+000 0.000000e+000
    outer loop
      vertex   -1.128639e+002 6.019955e+001 0.000000e+000
      vertex   -6.286395e+001 6.019955e+001 0.000000e+000
      vertex   -1.128639e+002 6.019955e+001 1.000000e+001
    endloop
  endfacet
  facet normal 0.000000e+000 -1.961161e-001 0.000000e+000
    outer loop
      vertex   -1.128639e+002 6.019955e+001 1.000000e+001
      vertex   -6.286395e+001 6.019955e+001 0.000000e+000
      vertex   -6.286395e+001 6.019955e+001 1.000000e+001
    endloop
  endfacet
  facet normal -1.000000e+000 0.000000e+000 0.000000e+000
    outer loop
      vertex   -1.128639e+002 8.519955e+001 0.000000e+000
      vertex   -1.128639e+002 6.019955e+001 0.000000e+000
      vertex   -1.128639e+002 8.519955e+001 1.000000e+001
    endloop
  endfacet
  facet normal -3.713907e-001 -0.000000e+000 0.000000e+000
    outer loop
      vertex   -1.128639e+002 8.519955e+001 1.000000e+001
      vertex   -1.128639e+002 6.019955e+001 0.000000e+000
      vertex   -1.128639e+002 6.019955e+001 1.000000e+001
    endloop
  endfacet
  facet normal 0.000000e+000 1.000000e+000 -0.000000e+000
    outer loop
      vertex   -6.286395e+001 8.519955e+001 0.000000e+000
      vertex   -1.128639e+002 8.519955e+001 0.000000e+000
      vertex   -6.286395e+001 8.519955e+001 1.000000e+001
    endloop
  endfacet
  facet normal 0.000000e+000 1.961161e-001 0.000000e+000
    outer loop
      vertex   -6.286395e+001 8.519955e+001 1.000000e+001
      vertex   -1.128639e+002 8.519955e+001 0.000000e+000
      vertex   -1.128639e+002 8.519955e+001 1.000000e+001
    endloop
  endfacet
  facet normal 0.000000e+000 0.000000e+000 9.623271e-001
    outer loop
      vertex   -9.022669e+001 7.997044e+001 1.000000e+001
      vertex   -9.023778e+001 8.019955e+001 1.000000e+001
      vertex   -1.128639e+002 8.519955e+001 1.000000e+001
    endloop
  endfacet
  facet normal 0.000000e+000 0.000000e+000 9.773182e-003
    outer loop
      vertex   -1.128639e+002 8.519955e+001 1.000000e+001
      vertex   -9.023778e+001 8.019955e+001 1.000000e+001
      vertex   -9.022669e+001 8.042866e+001 1.000000e+001
    endloop
  endfacet
  facet normal 0.000000e+000 0.000000e+000 9.901279e-003
    outer loop
      vertex   -1.128639e+002 8.519955e+001 1.000000e+001
      vertex   -9.022669e+001 8.042866e+001 1.000000e+001
      vertex   -9.019355e+001 8.065563e+001 1.000000e+001
    endloop
  endfacet
  facet normal 0.000000e+000 -0.000000e+000 9.990388e-001
    outer loop
      vertex   -9.019355e+001 8.065563e+001 1.000000e+001
      vertex   -9.013866e+001 8.087834e+001 1.000000e+001
      vertex   -1.128639e+002 8.519955e+001 1.000000e+001
    endloop
  endfacet
  facet normal 0.000000e+000 0.000000e+000 9.788645e-003
    outer loop
      vertex   -1.128639e+002 8.519955e+001 1.000000e+001
      vertex   -9.013866e+001 8.087834e+001 1.000000e+001
      vertex   -9.006252e+001 8.109471e+001 1.000000e+001
    endloop
  endfacet
  facet normal 0.000000e+000 0.000000e+000 9.551255e-003
    outer loop
      vertex   -1.128639e+002 8.519955e+001 1.000000e+001
      vertex   -9.006252e+001 8.109471e+001 1.000000e+001
      vertex   -8.996587e+001 8.130273e+001 1.000000e+001
    endloop
  endfacet
  facet normal 0.000000e+000 -0.000000e+000 9.348116e-001
    outer loop
      vertex   -8.996587e+001 8.130273e+001 1.000000e+001
      vertex   -8.984959e+001 8.150044e+001 1.000000e+001
      vertex   -1.128639e+002 8.519955e+001 1.000000e+001
    endloop
  endfacet
  facet normal 0.000000e+000 0.000000e+000 8.738860e-003
    outer loop
      vertex   -1.128639e+002 8.519955e+001 1.000000e+001
      vertex   -8.984959e+001 8.150044e+001 1.000000e+001
      vertex   -8.971476e+001 8.168601e+001 1.000000e+001
    endloop
  endfacet
  facet normal 0.000000e+000 0.000000e+000 8.180448e-003
    outer loop
      vertex   -1.128639e+002 8.519955e+001 1.000000e+001
      vertex   -8.971476e+001 8.168601e+001 1.000000e+001
      vertex   -8.956265e+001 8.185770e+001 1.000000e+001
    endloop
  endfacet
  facet normal 0.000000e+000 -0.000000e+000 7.780893e-001
    outer loop
      vertex   -8.956265e+001 8.185770e+001 1.000000e+001
      vertex   -8.939469e+001 8.201391e+001 1.000000e+001
      vertex   -1.128639e+002 8.519955e+001 1.000000e+001
    endloop
  endfacet
  facet normal 0.000000e+000 0.000000e+000 6.814971e-003
    outer loop
      vertex   -1.128639e+002 8.519955e+001 1.000000e+001
      vertex   -8.939469e+001 8.201391e+001 1.000000e+001
      vertex   -8.921243e+001 8.215318e+001 1.000000e+001
    endloop
  endfacet
  facet normal 0.000000e+000 0.000000e+000 6.032215e-003
    outer loop
      vertex   -1.128639e+002 8.519955e+001 1.000000e+001
      vertex   -8.921243e+001 8.215318e+001 1.000000e+001
      vertex   -8.901759e+001 8.227420e+001 1.000000e+001
    endloop
  endfacet
  facet normal 0.000000e+000 -0.000000e+000 5.490569e-001
    outer loop
      vertex   -8.901759e+001 8.227420e+001 1.000000e+001
      vertex   -8.881197e+001 8.237586e+001 1.000000e+001
      vertex   -1.128639e+002 8.519955e+001 1.000000e+001
    endloop
  endfacet
  facet normal 0.000000e+000 0.000000e+000 4.331907e-003
    outer loop
      vertex   -1.128639e+002 8.519955e+001 1.000000e+001
      vertex   -8.881197e+001 8.237586e+001 1.000000e+001
      vertex   -8.859750e+001 8.245720e+001 1.000000e+001
    endloop
  endfacet
  facet normal 0.000000e+000 0.000000e+000 3.439457e-003
    outer loop
      vertex   -1.128639e+002 8.519955e+001 1.000000e+001
      vertex   -8.859750e+001 8.245720e+001 1.000000e+001
      vertex   -8.837618e+001 8.251746e+001 1.000000e+001
    endloop
  endfacet
  facet normal 0.000000e+000 -0.000000e+000 2.746892e-001
    outer loop
      vertex   -8.837618e+001 8.251746e+001 1.000000e+001
      vertex   -8.815008e+001 8.255608e+001 1.000000e+001
      vertex   -1.128639e+002 8.519955e+001 1.000000e+001
    endloop
  endfacet
  facet normal 0.000000e+000 0.000000e+000 1.628620e-003
    outer loop
      vertex   -1.128639e+002 8.519955e+001 1.000000e+001
      vertex   -8.815008e+001 8.255608e+001 1.000000e+001
      vertex   -8.792130e+001 8.257269e+001 1.000000e+001
    endloop
  endfacet
  facet normal -0.000000e+000 0.000000e+000 1.047371e-001
    outer loop
      vertex   -1.128639e+002 8.519955e+001 1.000000e+001
      vertex   -8.792130e+001 8.257269e+001 1.000000e+001
      vertex   -6.286395e+001 8.519955e+001 1.000000e+001
    endloop
  endfacet
  facet normal 0.000000e+000 0.000000e+000 1.178200e-003
    outer loop
      vertex   -6.286395e+001 8.519955e+001 1.000000e+001
      vertex   -8.792130e+001 8.257269e+001 1.000000e+001
      vertex   -8.769200e+001 8.256715e+001 1.000000e+001
    endloop
  endfacet
  facet normal 0.000000e+000 0.000000e+000 2.081455e-003
    outer loop
      vertex   -6.286395e+001 8.519955e+001 1.000000e+001
      vertex   -8.769200e+001 8.256715e+001 1.000000e+001
      vertex   -8.746429e+001 8.253950e+001 1.000000e+001
    endloop
  endfacet
  facet normal -0.000000e+000 0.000000e+000 3.194930e-001
    outer loop
      vertex   -8.746429e+001 8.253950e+001 1.000000e+001
      vertex   -8.724033e+001 8.249001e+001 1.000000e+001
      vertex   -6.286395e+001 8.519955e+001 1.000000e+001
    endloop
  endfacet
  facet normal 0.000000e+000 0.000000e+000 3.888169e-003
    outer loop
      vertex   -6.286395e+001 8.519955e+001 1.000000e+001
      vertex   -8.724033e+001 8.249001e+001 1.000000e+001
      vertex   -8.702217e+001 8.241912e+001 1.000000e+001
    endloop
  endfacet
  facet normal 0.000000e+000 0.000000e+000 4.769965e-003
    outer loop
      vertex   -6.286395e+001 8.519955e+001 1.000000e+001
      vertex   -8.702217e+001 8.241912e+001 1.000000e+001
      vertex   -8.681188e+001 8.232751e+001 1.000000e+001
    endloop
  endfacet
  facet normal -0.000000e+000 0.000000e+000 5.866026e-001
    outer loop
      vertex   -8.681188e+001 8.232751e+001 1.000000e+001
      vertex   -8.661142e+001 8.221604e+001 1.000000e+001
      vertex   -6.286395e+001 8.519955e+001 1.000000e+001
    endloop
  endfacet
  facet normal 0.000000e+000 0.000000e+000 6.430433e-003
    outer loop
      vertex   -6.286395e+001 8.519955e+001 1.000000e+001
      vertex   -8.661142e+001 8.221604e+001 1.000000e+001
      vertex   -8.642265e+001 8.208575e+001 1.000000e+001
    endloop
  endfacet
  facet normal 0.000000e+000 0.000000e+000 7.183800e-003
    outer loop
      vertex   -6.286395e+001 8.519955e+001 1.000000e+001
      vertex   -8.642265e+001 8.208575e+001 1.000000e+001
      vertex   -8.624733e+001 8.193784e+001 1.000000e+001
    endloop
  endfacet
  facet normal -0.000000e+000 0.000000e+000 8.052550e-001
    outer loop
      vertex   -8.624733e+001 8.193784e+001 1.000000e+001
      vertex   -8.608711e+001 8.177369e+001 1.000000e+001
      vertex   -6.286395e+001 8.519955e+001 1.000000e+001
    endloop
  endfacet
  facet normal 0.000000e+000 0.000000e+000 8.471171e-003
    outer loop
      vertex   -6.286395e+001 8.519955e+001 1.000000e+001
      vertex   -8.608711e+001 8.177369e+001 1.000000e+001
      vertex   -8.594347e+001 8.159486e+001 1.000000e+001
    endloop
  endfacet
  facet normal 0.000000e+000 0.000000e+000 8.981565e-003
    outer loop
      vertex   -6.286395e+001 8.519955e+001 1.000000e+001
      vertex   -8.594347e+001 8.159486e+001 1.000000e+001
      vertex   -8.581778e+001 8.140299e+001 1.000000e+001
    endloop
  endfacet
  facet normal -0.000000e+000 0.000000e+000 9.494200e-001
    outer loop
      vertex   -8.581778e+001 8.140299e+001 1.000000e+001
      vertex   -8.571118e+001 8.119989e+001 1.000000e+001
      vertex   -6.286395e+001 8.519955e+001 1.000000e+001
    endloop
  endfacet
  facet normal 0.000000e+000 0.000000e+000 9.684999e-003
    outer loop
      vertex   -6.286395e+001 8.519955e+001 1.000000e+001
      vertex   -8.571118e+001 8.119989e+001 1.000000e+001
      vertex   -8.562469e+001 8.098744e+001 1.000000e+001
    endloop
  endfacet
  facet normal 0.000000e+000 0.000000e+000 9.862592e-003
    outer loop
      vertex   -6.286395e+001 8.519955e+001 1.000000e+001
      vertex   -8.562469e+001 8.098744e+001 1.000000e+001
      vertex   -8.555910e+001 8.076765e+001 1.000000e+001
    endloop
  endfacet
  facet normal -0.000000e+000 0.000000e+000 9.999999e-001
    outer loop
      vertex   -8.555910e+001 8.076765e+001 1.000000e+001
      vertex   -8.551503e+001 8.054254e+001 1.000000e+001
      vertex   -6.286395e+001 8.519955e+001 1.000000e+001
    endloop
  endfacet
  facet normal 0.000000e+000 0.000000e+000 9.852293e-003
    outer loop
      vertex   -6.286395e+001 8.519955e+001 1.000000e+001
      vertex   -8.551503e+001 8.054254e+001 1.000000e+001
      vertex   -8.549289e+001 8.031424e+001 1.000000e+001
    endloop
  endfacet
  facet normal 0.000000e+000 0.000000e+000 9.664418e-003
    outer loop
      vertex   -6.286395e+001 8.519955e+001 1.000000e+001
      vertex   -8.549289e+001 8.031424e+001 1.000000e+001
      vertex   -8.549289e+001 8.008486e+001 1.000000e+001
    endloop
  endfacet
  facet normal -0.000000e+000 0.000000e+000 9.495602e-001
    outer loop
      vertex   -8.549289e+001 8.008486e+001 1.000000e+001
      vertex   -8.551503e+001 7.985656e+001 1.000000e+001
      vertex   -6.286395e+001 8.519955e+001 1.000000e+001
    endloop
  endfacet
  facet normal 0.000000e+000 0.000000e+000 8.942722e-003
    outer loop
      vertex   -6.286395e+001 8.519955e+001 1.000000e+001
      vertex   -8.551503e+001 7.985656e+001 1.000000e+001
      vertex   -8.555910e+001 7.963145e+001 1.000000e+001
    endloop
  endfacet
  facet normal 0.000000e+000 0.000000e+000 8.423885e-003
    outer loop
      vertex   -6.286395e+001 8.519955e+001 1.000000e+001
      vertex   -8.555910e+001 7.963145e+001 1.000000e+001
      vertex   -8.562469e+001 7.941166e+001 1.000000e+001
    endloop
  endfacet
  facet normal -0.000000e+000 0.000000e+000 8.046758e-001
    outer loop
      vertex   -8.562469e+001 7.941166e+001 1.000000e+001
      vertex   -8.571118e+001 7.919922e+001 1.000000e+001
      vertex   -6.286395e+001 8.519955e+001 1.000000e+001
    endloop
  endfacet
  facet normal 0.000000e+000 0.000000e+000 7.122881e-003
    outer loop
      vertex   -6.286395e+001 8.519955e+001 1.000000e+001
      vertex   -8.571118e+001 7.919922e+001 1.000000e+001
      vertex   -8.581778e+001 7.899612e+001 1.000000e+001
    endloop
  endfacet
  facet normal 0.000000e+000 0.000000e+000 6.364545e-003
    outer loop
      vertex   -6.286395e+001 8.519955e+001 1.000000e+001
      vertex   -8.581778e+001 7.899612e+001 1.000000e+001
      vertex   -8.594347e+001 7.880425e+001 1.000000e+001
    endloop
  endfacet
  facet normal -0.000000e+000 0.000000e+000 5.841336e-001
    outer loop
      vertex   -8.594347e+001 7.880425e+001 1.000000e+001
      vertex   -8.608711e+001 7.862541e+001 1.000000e+001
      vertex   -6.286395e+001 8.519955e+001 1.000000e+001
    endloop
  endfacet
  facet normal 0.000000e+000 0.000000e+000 4.696643e-003
    outer loop
      vertex   -6.286395e+001 8.519955e+001 1.000000e+001
      vertex   -8.608711e+001 7.862541e+001 1.000000e+001
      vertex   -8.624733e+001 7.846127e+001 1.000000e+001
    endloop
  endfacet
  facet normal 0.000000e+000 0.000000e+000 9.608994e-001
    outer loop
      vertex   -6.286395e+001 8.519955e+001 1.000000e+001
      vertex   -8.624733e+001 7.846127e+001 1.000000e+001
      vertex   -6.286395e+001 6.019955e+001 1.000000e+001
    endloop
  endfacet
  facet normal 0.000000e+000 0.000000e+000 7.553880e-003
    outer loop
      vertex   -6.286395e+001 6.019955e+001 1.000000e+001
      vertex   -8.624733e+001 7.846127e+001 1.000000e+001
      vertex   -8.642265e+001 7.831336e+001 1.000000e+001
    endloop
  endfacet
  facet normal 0.000000e+000 0.000000e+000 7.330468e-003
    outer loop
      vertex   -6.286395e+001 6.019955e+001 1.000000e+001
      vertex   -8.642265e+001 7.831336e+001 1.000000e+001
      vertex   -8.661142e+001 7.818306e+001 1.000000e+001
    endloop
  endfacet
  facet normal 0.000000e+000 0.000000e+000 9.150547e-001
    outer loop
      vertex   -8.661142e+001 7.818306e+001 1.000000e+001
      vertex   -8.681188e+001 7.807159e+001 1.000000e+001
      vertex   -6.286395e+001 6.019955e+001 1.000000e+001
    endloop
  endfacet
  facet normal 0.000000e+000 0.000000e+000 6.640476e-003
    outer loop
      vertex   -6.286395e+001 6.019955e+001 1.000000e+001
      vertex   -8.681188e+001 7.807159e+001 1.000000e+001
      vertex   -8.702217e+001 7.797998e+001 1.000000e+001
    endloop
  endfacet
  facet normal 0.000000e+000 0.000000e+000 6.186334e-003
    outer loop
      vertex   -6.286395e+001 6.019955e+001 1.000000e+001
      vertex   -8.702217e+001 7.797998e+001 1.000000e+001
      vertex   -8.724033e+001 7.790910e+001 1.000000e+001
    endloop
  endfacet
  facet normal 0.000000e+000 0.000000e+000 7.485072e-001
    outer loop
      vertex   -8.724033e+001 7.790910e+001 1.000000e+001
      vertex   -8.746429e+001 7.785960e+001 1.000000e+001
      vertex   -6.286395e+001 6.019955e+001 1.000000e+001
    endloop
  endfacet
  facet normal 0.000000e+000 0.000000e+000 5.098029e-003
    outer loop
      vertex   -6.286395e+001 6.019955e+001 1.000000e+001
      vertex   -8.746429e+001 7.785960e+001 1.000000e+001
      vertex   -8.769200e+001 7.783196e+001 1.000000e+001
    endloop
  endfacet
  facet normal 0.000000e+000 0.000000e+000 4.481373e-003
    outer loop
      vertex   -6.286395e+001 6.019955e+001 1.000000e+001
      vertex   -8.769200e+001 7.783196e+001 1.000000e+001
      vertex   -8.792130e+001 7.782642e+001 1.000000e+001
    endloop
  endfacet
  facet normal 0.000000e+000 0.000000e+000 5.753604e-001
    outer loop
      vertex   -6.286395e+001 6.019955e+001 1.000000e+001
      vertex   -8.792130e+001 7.782642e+001 1.000000e+001
      vertex   -1.128639e+002 6.019955e+001 1.000000e+001
    endloop
  endfacet
  facet normal 0.000000e+000 0.000000e+000 4.794982e-003
    outer loop
      vertex   -1.128639e+002 6.019955e+001 1.000000e+001
      vertex   -8.792130e+001 7.782642e+001 1.000000e+001
      vertex   -8.815008e+001 7.784303e+001 1.000000e+001
    endloop
  endfacet
  facet normal 0.000000e+000 0.000000e+000 5.389963e-003
    outer loop
      vertex   -1.128639e+002 6.019955e+001 1.000000e+001
      vertex   -8.815008e+001 7.784303e+001 1.000000e+001
      vertex   -8.837618e+001 7.788165e+001 1.000000e+001
    endloop
  endfacet
  facet normal 0.000000e+000 0.000000e+000 7.778572e-001
    outer loop
      vertex   -8.837618e+001 7.788165e+001 1.000000e+001
      vertex   -8.859750e+001 7.794191e+001 1.000000e+001
      vertex   -1.128639e+002 6.019955e+001 1.000000e+001
    endloop
  endfacet
  facet normal 0.000000e+000 0.000000e+000 6.421717e-003
    outer loop
      vertex   -1.128639e+002 6.019955e+001 1.000000e+001
      vertex   -8.859750e+001 7.794191e+001 1.000000e+001
      vertex   -8.881197e+001 7.802325e+001 1.000000e+001
    endloop
  endfacet
  facet normal 0.000000e+000 0.000000e+000 6.841449e-003
    outer loop
      vertex   -1.128639e+002 6.019955e+001 1.000000e+001
      vertex   -8.881197e+001 7.802325e+001 1.000000e+001
      vertex   -8.901759e+001 7.812490e+001 1.000000e+001
    endloop
  endfacet
  facet normal 0.000000e+000 0.000000e+000 9.321839e-001
    outer loop
      vertex   -8.901759e+001 7.812490e+001 1.000000e+001
      vertex   -8.921243e+001 7.824593e+001 1.000000e+001
      vertex   -1.128639e+002 6.019955e+001 1.000000e+001
    endloop
  endfacet
  facet normal 0.000000e+000 0.000000e+000 7.452977e-003
    outer loop
      vertex   -1.128639e+002 6.019955e+001 1.000000e+001
      vertex   -8.921243e+001 7.824593e+001 1.000000e+001
      vertex   -8.939469e+001 7.838520e+001 1.000000e+001
    endloop
  endfacet
  facet normal 0.000000e+000 0.000000e+000 7.633021e-003
    outer loop
      vertex   -1.128639e+002 6.019955e+001 1.000000e+001
      vertex   -8.939469e+001 7.838520e+001 1.000000e+001
      vertex   -8.956265e+001 7.854140e+001 1.000000e+001
    endloop
  endfacet
  facet normal 0.000000e+000 0.000000e+000 7.857661e-001
    outer loop
      vertex   -1.128639e+002 6.019955e+001 1.000000e+001
      vertex   -8.956265e+001 7.854140e+001 1.000000e+001
      vertex   -1.128639e+002 8.519955e+001 1.000000e+001
    endloop
  endfacet
  facet normal 0.000000e+000 0.000000e+000 5.128533e-003
    outer loop
      vertex   -1.128639e+002 8.519955e+001 1.000000e+001
      vertex   -8.956265e+001 7.854140e+001 1.000000e+001
      vertex   -8.971476e+001 7.871310e+001 1.000000e+001
    endloop
  endfacet
  facet normal 0.000000e+000 0.000000e+000 5.964047e-003
    outer loop
      vertex   -1.128639e+002 8.519955e+001 1.000000e+001
      vertex   -8.971476e+001 7.871310e+001 1.000000e+001
      vertex   -8.984959e+001 7.889867e+001 1.000000e+001
    endloop
  endfacet
  facet normal 0.000000e+000 0.000000e+000 6.975190e-001
    outer loop
      vertex   -8.984959e+001 7.889867e+001 1.000000e+001
      vertex   -8.996587e+001 7.909638e+001 1.000000e+001
      vertex   -1.128639e+002 8.519955e+001 1.000000e+001
    endloop
  endfacet
  facet normal 0.000000e+000 0.000000e+000 7.477539e-003
    outer loop
      vertex   -1.128639e+002 8.519955e+001 1.000000e+001
      vertex   -8.996587e+001 7.909638e+001 1.000000e+001
      vertex   -9.006252e+001 7.930440e+001 1.000000e+001
    endloop
  endfacet
  facet normal 0.000000e+000 0.000000e+000 8.129425e-003
    outer loop
      vertex   -1.128639e+002 8.519955e+001 1.000000e+001
      vertex   -9.006252e+001 7.930440e+001 1.000000e+001
      vertex   -9.013866e+001 7.952077e+001 1.000000e+001
    endloop
  endfacet
  facet normal 0.000000e+000 0.000000e+000 8.839574e-001
    outer loop
      vertex   -9.013866e+001 7.952077e+001 1.000000e+001
      vertex   -9.019355e+001 7.974348e+001 1.000000e+001
      vertex   -1.128639e+002 8.519955e+001 1.000000e+001
    endloop
  endfacet
  facet normal 0.000000e+000 0.000000e+000 9.164033e-003
    outer loop
      vertex   -1.128639e+002 8.519955e+001 1.000000e+001
      vertex   -9.019355e+001 7.974348e+001 1.000000e+001
      vertex   -9.022669e+001 7.997044e+001 1.000000e+001
    endloop
  endfacet
  facet normal 0.000000e+000 0.000000e+000 -1.000000e+000
    outer loop
      vertex   -1.128639e+002 8.519955e+001 0.000000e+000
      vertex   -6.286395e+001 8.519955e+001 0.000000e+000
      vertex   -1.128639e+002 6.019955e+001 0.000000e+000
    endloop
  endfacet
  facet normal 0.000000e+000 0.000000e+000 -4.472136e-001
    outer loop
      vertex   -1.128639e+002 6.019955e+001 0.000000e+000
      vertex   -6.286395e+001 8.519955e+001 0.000000e+000
      vertex   -6.286395e+001 6.019955e+001 0.000000e+000
    endloop
  endfacet
endsolid
