solid ascii
  facet normal 1.000000e+000 0.000000e+000 0.000000e+000
    outer loop
      vertex   -3.901645e+001 7.535807e+001 0.000000e+000
      vertex   -3.901645e+001 1.003581e+002 0.000000e+000
      vertex   -3.901645e+001 7.535807e+001 3.000000e+001
    endloop
  endfacet
  facet normal 7.682213e-001 -0.000000e+000 0.000000e+000
    outer loop
      vertex   -3.901645e+001 7.535807e+001 3.000000e+001
      vertex   -3.901645e+001 1.003581e+002 0.000000e+000
      vertex   -3.901645e+001 1.003581e+002 3.000000e+001
    endloop
  endfacet
  facet normal 1.000000e+000 0.000000e+000 0.000000e+000
    outer loop
      vertex   -3.901645e+001 7.535807e+001 3.000000e+001
      vertex   -3.901645e+001 1.003581e+002 3.000000e+001
      vertex   -3.901645e+001 7.535807e+001 6.000000e+001
    endloop
  endfacet
  facet normal 7.682213e-001 -0.000000e+000 0.000000e+000
    outer loop
      vertex   -3.901645e+001 7.535807e+001 6.000000e+001
      vertex   -3.901645e+001 1.003581e+002 3.000000e+001
      vertex   -3.901645e+001 1.003581e+002 6.000000e+001
    endloop
  endfacet
  facet normal 3.162278e-001 -9.486833e-001 0.000000e+000
    outer loop
      vertex   -5.401645e+001 7.035807e+001 0.000000e+000
      vertex   -3.901645e+001 7.535807e+001 0.000000e+000
      vertex   -5.401645e+001 7.035807e+001 3.000000e+001
    endloop
  endfacet
  facet normal 2.797514e-001 -8.392543e-001 0.000000e+000
    outer loop
      vertex   -5.401645e+001 7.035807e+001 3.000000e+001
      vertex   -3.901645e+001 7.535807e+001 0.000000e+000
      vertex   -3.901645e+001 7.535807e+001 3.000000e+001
    endloop
  endfacet
  facet normal 3.162278e-001 -9.486833e-001 0.000000e+000
    outer loop
      vertex   -5.401645e+001 7.035807e+001 3.000000e+001
      vertex   -3.901645e+001 7.535807e+001 3.000000e+001
      vertex   -5.401645e+001 7.035807e+001 6.000000e+001
    endloop
  endfacet
  facet normal 2.797514e-001 -8.392543e-001 0.000000e+000
    outer loop
      vertex   -5.401645e+001 7.035807e+001 6.000000e+001
      vertex   -3.901645e+001 7.535807e+001 3.000000e+001
      vertex   -3.901645e+001 7.535807e+001 6.000000e+001
    endloop
  endfacet
  facet normal 9.820392e-001 1.886772e-001 -0.000000e+000
    outer loop
      vertex   -4.380803e+001 1.722462e+001 0.000000e+000
      vertex   -5.401645e+001 7.035807e+001 0.000000e+000
      vertex   -4.380803e+001 1.722462e+001 3.000000e+001
    endloop
  endfacet
  facet normal 4.762111e-001 9.149348e-002 -2.775558e-017
    outer loop
      vertex   -4.380803e+001 1.722462e+001 3.000000e+001
      vertex   -5.401645e+001 7.035807e+001 0.000000e+000
      vertex   -5.401645e+001 7.035807e+001 3.000000e+001
    endloop
  endfacet
  facet normal 9.820392e-001 1.886772e-001 -0.000000e+000
    outer loop
      vertex   -4.380803e+001 1.722462e+001 3.000000e+001
      vertex   -5.401645e+001 7.035807e+001 3.000000e+001
      vertex   -4.380803e+001 1.722462e+001 6.000000e+001
    endloop
  endfacet
  facet normal 4.762111e-001 9.149348e-002 -2.775558e-017
    outer loop
      vertex   -4.380803e+001 1.722462e+001 6.000000e+001
      vertex   -5.401645e+001 7.035807e+001 3.000000e+001
      vertex   -5.401645e+001 7.035807e+001 6.000000e+001
    endloop
  endfacet
  facet normal 5.581242e-001 -8.297574e-001 0.000000e+000
    outer loop
      vertex   -5.401645e+001 1.035807e+001 0.000000e+000
      vertex   -4.380803e+001 1.722462e+001 0.000000e+000
      vertex   -5.401645e+001 1.035807e+001 3.000000e+001
    endloop
  endfacet
  facet normal 5.163880e-001 -7.677085e-001 0.000000e+000
    outer loop
      vertex   -5.401645e+001 1.035807e+001 3.000000e+001
      vertex   -4.380803e+001 1.722462e+001 0.000000e+000
      vertex   -4.380803e+001 1.722462e+001 3.000000e+001
    endloop
  endfacet
  facet normal 5.581242e-001 -8.297574e-001 0.000000e+000
    outer loop
      vertex   -5.401645e+001 1.035807e+001 3.000000e+001
      vertex   -4.380803e+001 1.722462e+001 3.000000e+001
      vertex   -5.401645e+001 1.035807e+001 6.000000e+001
    endloop
  endfacet
  facet normal 5.163880e-001 -7.677085e-001 0.000000e+000
    outer loop
      vertex   -5.401645e+001 1.035807e+001 6.000000e+001
      vertex   -4.380803e+001 1.722462e+001 3.000000e+001
      vertex   -4.380803e+001 1.722462e+001 6.000000e+001
    endloop
  endfacet
  facet normal -9.863939e-001 -1.643989e-001 0.000000e+000
    outer loop
      vertex   -6.401645e+001 7.035807e+001 0.000000e+000
      vertex   -5.901645e+001 4.035807e+001 0.000000e+000
      vertex   -6.401645e+001 7.035807e+001 3.000000e+001
    endloop
  endfacet
  facet normal -6.926921e-001 -1.154486e-001 4.404018e-008
    outer loop
      vertex   -6.401645e+001 7.035807e+001 3.000000e+001
      vertex   -5.901645e+001 4.035807e+001 0.000000e+000
      vertex   -5.401645e+001 1.035807e+001 3.000000e+001
    endloop
  endfacet
  facet normal -6.926921e-001 -1.154486e-001 -4.404018e-008
    outer loop
      vertex   -6.401645e+001 7.035807e+001 3.000000e+001
      vertex   -5.401645e+001 1.035807e+001 3.000000e+001
      vertex   -5.901645e+001 4.035807e+001 6.000000e+001
    endloop
  endfacet
  facet normal -6.926920e-001 -1.154487e-001 -1.387779e-017
    outer loop
      vertex   -5.901645e+001 4.035807e+001 6.000000e+001
      vertex   -5.401645e+001 1.035807e+001 3.000000e+001
      vertex   -5.401645e+001 1.035807e+001 6.000000e+001
    endloop
  endfacet
  facet normal -6.926920e-001 -1.154487e-001 1.387779e-017
    outer loop
      vertex   -5.901645e+001 4.035807e+001 0.000000e+000
      vertex   -5.401645e+001 1.035807e+001 0.000000e+000
      vertex   -5.401645e+001 1.035807e+001 3.000000e+001
    endloop
  endfacet
  facet normal -6.926921e-001 -1.154486e-001 -2.775558e-017
    outer loop
      vertex   -5.901645e+001 4.035807e+001 6.000000e+001
      vertex   -6.401645e+001 7.035807e+001 6.000000e+001
      vertex   -6.401645e+001 7.035807e+001 3.000000e+001
    endloop
  endfacet
  facet normal -4.472136e-001 8.944272e-001 0.000000e+000
    outer loop
      vertex   -4.401645e+001 8.035807e+001 0.000000e+000
      vertex   -6.401645e+001 7.035807e+001 0.000000e+000
      vertex   -4.401645e+001 8.035807e+001 3.000000e+001
    endloop
  endfacet
  facet normal -3.585687e-001 7.171372e-001 5.551115e-017
    outer loop
      vertex   -4.401645e+001 8.035807e+001 3.000000e+001
      vertex   -6.401645e+001 7.035807e+001 0.000000e+000
      vertex   -6.401645e+001 7.035807e+001 3.000000e+001
    endloop
  endfacet
  facet normal -4.472136e-001 8.944272e-001 0.000000e+000
    outer loop
      vertex   -4.401645e+001 8.035807e+001 3.000000e+001
      vertex   -6.401645e+001 7.035807e+001 3.000000e+001
      vertex   -4.401645e+001 8.035807e+001 6.000000e+001
    endloop
  endfacet
  facet normal -3.585687e-001 7.171372e-001 5.551115e-017
    outer loop
      vertex   -4.401645e+001 8.035807e+001 6.000000e+001
      vertex   -6.401645e+001 7.035807e+001 3.000000e+001
      vertex   -6.401645e+001 7.035807e+001 6.000000e+001
    endloop
  endfacet
  facet normal -1.000000e+000 0.000000e+000 0.000000e+000
    outer loop
      vertex   -4.401645e+001 1.003581e+002 0.000000e+000
      vertex   -4.401645e+001 8.035807e+001 0.000000e+000
      vertex   -4.401645e+001 1.003581e+002 3.000000e+001
    endloop
  endfacet
  facet normal -8.320503e-001 -0.000000e+000 0.000000e+000
    outer loop
      vertex   -4.401645e+001 1.003581e+002 3.000000e+001
      vertex   -4.401645e+001 8.035807e+001 0.000000e+000
      vertex   -4.401645e+001 8.035807e+001 3.000000e+001
    endloop
  endfacet
  facet normal -1.000000e+000 0.000000e+000 0.000000e+000
    outer loop
      vertex   -4.401645e+001 1.003581e+002 3.000000e+001
      vertex   -4.401645e+001 8.035807e+001 3.000000e+001
      vertex   -4.401645e+001 1.003581e+002 6.000000e+001
    endloop
  endfacet
  facet normal -8.320503e-001 -0.000000e+000 0.000000e+000
    outer loop
      vertex   -4.401645e+001 1.003581e+002 6.000000e+001
      vertex   -4.401645e+001 8.035807e+001 3.000000e+001
      vertex   -4.401645e+001 8.035807e+001 6.000000e+001
    endloop
  endfacet
  facet normal 0.000000e+000 1.000000e+000 -0.000000e+000
    outer loop
      vertex   -3.901645e+001 1.003581e+002 0.000000e+000
      vertex   -4.401645e+001 1.003581e+002 0.000000e+000
      vertex   -3.901645e+001 1.003581e+002 3.000000e+001
    endloop
  endfacet
  facet normal 0.000000e+000 9.863939e-001 0.000000e+000
    outer loop
      vertex   -3.901645e+001 1.003581e+002 3.000000e+001
      vertex   -4.401645e+001 1.003581e+002 0.000000e+000
      vertex   -4.401645e+001 1.003581e+002 3.000000e+001
    endloop
  endfacet
  facet normal 0.000000e+000 1.000000e+000 -0.000000e+000
    outer loop
      vertex   -3.901645e+001 1.003581e+002 3.000000e+001
      vertex   -4.401645e+001 1.003581e+002 3.000000e+001
      vertex   -3.901645e+001 1.003581e+002 6.000000e+001
    endloop
  endfacet
  facet normal 0.000000e+000 9.863939e-001 0.000000e+000
    outer loop
      vertex   -3.901645e+001 1.003581e+002 6.000000e+001
      vertex   -4.401645e+001 1.003581e+002 3.000000e+001
      vertex   -4.401645e+001 1.003581e+002 6.000000e+001
    endloop
  endfacet
  facet normal -0.000000e+000 0.000000e+000 1.000000e+000
    outer loop
      vertex   -4.401645e+001 1.003581e+002 6.000000e+001
      vertex   -4.401645e+001 8.035807e+001 6.000000e+001
      vertex   -3.901645e+001 1.003581e+002 6.000000e+001
    endloop
  endfacet
  facet normal 0.000000e+000 0.000000e+000 2.425356e-001
    outer loop
      vertex   -3.901645e+001 1.003581e+002 6.000000e+001
      vertex   -4.401645e+001 8.035807e+001 6.000000e+001
      vertex   -3.901645e+001 7.535807e+001 6.000000e+001
    endloop
  endfacet
  facet normal 0.000000e+000 0.000000e+000 8.944272e-001
    outer loop
      vertex   -3.901645e+001 7.535807e+001 6.000000e+001
      vertex   -4.401645e+001 8.035807e+001 6.000000e+001
      vertex   -5.401645e+001 7.035807e+001 6.000000e+001
    endloop
  endfacet
  facet normal 0.000000e+000 -0.000000e+000 7.071068e-001
    outer loop
      vertex   -5.401645e+001 7.035807e+001 6.000000e+001
      vertex   -4.401645e+001 8.035807e+001 6.000000e+001
      vertex   -6.401645e+001 7.035807e+001 6.000000e+001
    endloop
  endfacet
  facet normal 0.000000e+000 0.000000e+000 9.863939e-001
    outer loop
      vertex   -5.401645e+001 7.035807e+001 6.000000e+001
      vertex   -6.401645e+001 7.035807e+001 6.000000e+001
      vertex   -5.901645e+001 4.035807e+001 6.000000e+001
    endloop
  endfacet
  facet normal 0.000000e+000 -0.000000e+000 9.102227e-001
    outer loop
      vertex   -5.401645e+001 1.035807e+001 6.000000e+001
      vertex   -4.380803e+001 1.722462e+001 6.000000e+001
      vertex   -5.901645e+001 4.035807e+001 6.000000e+001
    endloop
  endfacet
  facet normal -0.000000e+000 0.000000e+000 6.792376e-001
    outer loop
      vertex   -5.901645e+001 4.035807e+001 6.000000e+001
      vertex   -4.380803e+001 1.722462e+001 6.000000e+001
      vertex   -5.401645e+001 7.035807e+001 6.000000e+001
    endloop
  endfacet
  facet normal 0.000000e+000 0.000000e+000 -1.000000e+000
    outer loop
      vertex   -4.401645e+001 1.003581e+002 0.000000e+000
      vertex   -3.901645e+001 1.003581e+002 0.000000e+000
      vertex   -4.401645e+001 8.035807e+001 0.000000e+000
    endloop
  endfacet
  facet normal 0.000000e+000 0.000000e+000 -8.574929e-001
    outer loop
      vertex   -4.401645e+001 8.035807e+001 0.000000e+000
      vertex   -3.901645e+001 1.003581e+002 0.000000e+000
      vertex   -3.901645e+001 7.535807e+001 0.000000e+000
    endloop
  endfacet
  facet normal 0.000000e+000 -0.000000e+000 -1.000000e+000
    outer loop
      vertex   -4.401645e+001 8.035807e+001 0.000000e+000
      vertex   -3.901645e+001 7.535807e+001 0.000000e+000
      vertex   -5.401645e+001 7.035807e+001 0.000000e+000
    endloop
  endfacet
  facet normal 0.000000e+000 0.000000e+000 -3.818153e-001
    outer loop
      vertex   -4.380803e+001 1.722462e+001 0.000000e+000
      vertex   -5.901645e+001 4.035807e+001 0.000000e+000
      vertex   -5.401645e+001 7.035807e+001 0.000000e+000
    endloop
  endfacet
  facet normal -0.000000e+000 0.000000e+000 -9.863939e-001
    outer loop
      vertex   -5.401645e+001 7.035807e+001 0.000000e+000
      vertex   -5.901645e+001 4.035807e+001 0.000000e+000
      vertex   -6.401645e+001 7.035807e+001 0.000000e+000
    endloop
  endfacet
  facet normal 0.000000e+000 0.000000e+000 -7.071068e-001
    outer loop
      vertex   -5.401645e+001 7.035807e+001 0.000000e+000
      vertex   -6.401645e+001 7.035807e+001 0.000000e+000
      vertex   -4.401645e+001 8.035807e+001 0.000000e+000
    endloop
  endfacet
  facet normal -0.000000e+000 0.000000e+000 -9.999444e-001
    outer loop
      vertex   -4.380803e+001 1.722462e+001 0.000000e+000
      vertex   -5.401645e+001 1.035807e+001 0.000000e+000
      vertex   -5.901645e+001 4.035807e+001 0.000000e+000
    endloop
  endfacet
  facet normal 0.000000e+000 1.000000e+000 0.000000e+000
    outer loop
      vertex   -2.603090e+001 1.116620e+002 0.000000e+000
      vertex   -2.603090e+001 1.116620e+002 3.000000e+001
      vertex   -2.103090e+001 1.116620e+002 0.000000e+000
    endloop
  endfacet
  facet normal 0.000000e+000 1.643990e-001 -0.000000e+000
    outer loop
      vertex   -2.103090e+001 1.116620e+002 0.000000e+000
      vertex   -2.603090e+001 1.116620e+002 3.000000e+001
      vertex   -2.103090e+001 1.116620e+002 3.000000e+001
    endloop
  endfacet
  facet normal 0.000000e+000 9.863939e-001 0.000000e+000
    outer loop
      vertex   -2.103090e+001 1.116620e+002 3.000000e+001
      vertex   -2.603090e+001 1.116620e+002 3.000000e+001
      vertex   -2.603090e+001 1.116620e+002 6.000000e+001
    endloop
  endfacet
  facet normal 0.000000e+000 1.643990e-001 -0.000000e+000
    outer loop
      vertex   -2.103090e+001 1.116620e+002 3.000000e+001
      vertex   -2.603090e+001 1.116620e+002 6.000000e+001
      vertex   -2.103090e+001 1.116620e+002 6.000000e+001
    endloop
  endfacet
  facet normal 1.000000e+000 0.000000e+000 0.000000e+000
    outer loop
      vertex   -2.103090e+001 1.166197e+001 0.000000e+000
      vertex   -2.103090e+001 6.166197e+001 0.000000e+000
      vertex   -2.103090e+001 1.166197e+001 3.000000e+001
    endloop
  endfacet
  facet normal 8.823529e-001 -0.000000e+000 0.000000e+000
    outer loop
      vertex   -2.103090e+001 1.166197e+001 3.000000e+001
      vertex   -2.103090e+001 6.166197e+001 0.000000e+000
      vertex   -2.103090e+001 6.166197e+001 6.000000e+001
    endloop
  endfacet
  facet normal 8.574929e-001 0.000000e+000 0.000000e+000
    outer loop
      vertex   -2.103090e+001 1.166197e+001 3.000000e+001
      vertex   -2.103090e+001 6.166197e+001 6.000000e+001
      vertex   -2.103090e+001 1.166197e+001 6.000000e+001
    endloop
  endfacet
  facet normal 1.000000e+000 0.000000e+000 -0.000000e+000
    outer loop
      vertex   -2.103090e+001 1.116620e+002 0.000000e+000
      vertex   -2.103090e+001 1.116620e+002 3.000000e+001
      vertex   -2.103090e+001 6.166197e+001 0.000000e+000
    endloop
  endfacet
  facet normal 8.574929e-001 0.000000e+000 0.000000e+000
    outer loop
      vertex   -2.103090e+001 6.166197e+001 0.000000e+000
      vertex   -2.103090e+001 1.116620e+002 3.000000e+001
      vertex   -2.103090e+001 6.166197e+001 6.000000e+001
    endloop
  endfacet
  facet normal 8.574929e-001 0.000000e+000 -0.000000e+000
    outer loop
      vertex   -2.103090e+001 1.116620e+002 3.000000e+001
      vertex   -2.103090e+001 1.116620e+002 6.000000e+001
      vertex   -2.103090e+001 6.166197e+001 6.000000e+001
    endloop
  endfacet
  facet normal 0.000000e+000 -1.000000e+000 0.000000e+000
    outer loop
      vertex   -2.103090e+001 1.166197e+001 0.000000e+000
      vertex   -2.103090e+001 1.166197e+001 3.000000e+001
      vertex   -2.603090e+001 1.166197e+001 0.000000e+000
    endloop
  endfacet
  facet normal 0.000000e+000 -1.643990e-001 0.000000e+000
    outer loop
      vertex   -2.603090e+001 1.166197e+001 0.000000e+000
      vertex   -2.103090e+001 1.166197e+001 3.000000e+001
      vertex   -2.603090e+001 1.166197e+001 3.000000e+001
    endloop
  endfacet
  facet normal 0.000000e+000 -9.863939e-001 0.000000e+000
    outer loop
      vertex   -2.603090e+001 1.166197e+001 3.000000e+001
      vertex   -2.103090e+001 1.166197e+001 3.000000e+001
      vertex   -2.103090e+001 1.166197e+001 6.000000e+001
    endloop
  endfacet
  facet normal 0.000000e+000 -1.643990e-001 0.000000e+000
    outer loop
      vertex   -2.603090e+001 1.166197e+001 3.000000e+001
      vertex   -2.103090e+001 1.166197e+001 6.000000e+001
      vertex   -2.603090e+001 1.166197e+001 6.000000e+001
    endloop
  endfacet
  facet normal -1.000000e+000 0.000000e+000 0.000000e+000
    outer loop
      vertex   -2.603090e+001 1.116620e+002 0.000000e+000
      vertex   -2.603090e+001 6.166197e+001 0.000000e+000
      vertex   -2.603090e+001 1.116620e+002 3.000000e+001
    endloop
  endfacet
  facet normal -8.823529e-001 -0.000000e+000 0.000000e+000
    outer loop
      vertex   -2.603090e+001 1.116620e+002 3.000000e+001
      vertex   -2.603090e+001 6.166197e+001 0.000000e+000
      vertex   -2.603090e+001 6.166197e+001 6.000000e+001
    endloop
  endfacet
  facet normal -8.574929e-001 0.000000e+000 0.000000e+000
    outer loop
      vertex   -2.603090e+001 1.116620e+002 3.000000e+001
      vertex   -2.603090e+001 6.166197e+001 6.000000e+001
      vertex   -2.603090e+001 1.116620e+002 6.000000e+001
    endloop
  endfacet
  facet normal -1.000000e+000 0.000000e+000 0.000000e+000
    outer loop
      vertex   -2.603090e+001 1.166197e+001 0.000000e+000
      vertex   -2.603090e+001 1.166197e+001 3.000000e+001
      vertex   -2.603090e+001 6.166197e+001 0.000000e+000
    endloop
  endfacet
  facet normal -8.574929e-001 0.000000e+000 0.000000e+000
    outer loop
      vertex   -2.603090e+001 6.166197e+001 0.000000e+000
      vertex   -2.603090e+001 1.166197e+001 3.000000e+001
      vertex   -2.603090e+001 6.166197e+001 6.000000e+001
    endloop
  endfacet
  facet normal -8.574929e-001 0.000000e+000 0.000000e+000
    outer loop
      vertex   -2.603090e+001 1.166197e+001 3.000000e+001
      vertex   -2.603090e+001 1.166197e+001 6.000000e+001
      vertex   -2.603090e+001 6.166197e+001 6.000000e+001
    endloop
  endfacet
  facet normal 0.000000e+000 0.000000e+000 1.000000e+000
    outer loop
      vertex   -2.103090e+001 1.116620e+002 6.000000e+001
      vertex   -2.603090e+001 1.116620e+002 6.000000e+001
      vertex   -2.103090e+001 6.166197e+001 6.000000e+001
    endloop
  endfacet
  facet normal 0.000000e+000 0.000000e+000 9.950372e-001
    outer loop
      vertex   -2.103090e+001 6.166197e+001 6.000000e+001
      vertex   -2.603090e+001 1.116620e+002 6.000000e+001
      vertex   -2.603090e+001 6.166197e+001 6.000000e+001
    endloop
  endfacet
  facet normal 0.000000e+000 0.000000e+000 1.000000e+000
    outer loop
      vertex   -2.103090e+001 6.166197e+001 6.000000e+001
      vertex   -2.603090e+001 6.166197e+001 6.000000e+001
      vertex   -2.103090e+001 1.166197e+001 6.000000e+001
    endloop
  endfacet
  facet normal 0.000000e+000 0.000000e+000 9.950372e-001
    outer loop
      vertex   -2.103090e+001 1.166197e+001 6.000000e+001
      vertex   -2.603090e+001 6.166197e+001 6.000000e+001
      vertex   -2.603090e+001 1.166197e+001 6.000000e+001
    endloop
  endfacet
  facet normal 0.000000e+000 0.000000e+000 -1.000000e+000
    outer loop
      vertex   -2.103090e+001 1.166197e+001 0.000000e+000
      vertex   -2.603090e+001 1.166197e+001 0.000000e+000
      vertex   -2.103090e+001 6.166197e+001 0.000000e+000
    endloop
  endfacet
  facet normal -0.000000e+000 0.000000e+000 -9.950372e-001
    outer loop
      vertex   -2.103090e+001 6.166197e+001 0.000000e+000
      vertex   -2.603090e+001 1.166197e+001 0.000000e+000
      vertex   -2.603090e+001 6.166197e+001 0.000000e+000
    endloop
  endfacet
  facet normal 0.000000e+000 0.000000e+000 -1.000000e+000
    outer loop
      vertex   -2.103090e+001 6.166197e+001 0.000000e+000
      vertex   -2.603090e+001 6.166197e+001 0.000000e+000
      vertex   -2.103090e+001 1.116620e+002 0.000000e+000
    endloop
  endfacet
  facet normal -0.000000e+000 0.000000e+000 -9.950372e-001
    outer loop
      vertex   -2.103090e+001 1.116620e+002 0.000000e+000
      vertex   -2.603090e+001 6.166197e+001 0.000000e+000
      vertex   -2.603090e+001 1.116620e+002 0.000000e+000
    endloop
  endfacet
endsolid
