solid ascii
  facet normal 1.000000e+000 0.000000e+000 -0.000000e+000
    outer loop
      vertex   -9.500182e+001 3.003069e+001 0.000000e+000
      vertex   -9.500182e+001 3.003069e+001 8.000001e+000
      vertex   -9.500182e+001 3.000000e+001 0.000000e+000
    endloop
  endfacet
  facet normal 3.835888e-003 0.000000e+000 0.000000e+000
    outer loop
      vertex   -9.500182e+001 3.000000e+001 0.000000e+000
      vertex   -9.500182e+001 3.003069e+001 8.000001e+000
      vertex   -9.500182e+001 3.000000e+001 8.000001e+000
    endloop
  endfacet
  facet normal 0.000000e+000 -1.000000e+000 0.000000e+000
    outer loop
      vertex   -9.500000e+001 3.003069e+001 0.000000e+000
      vertex   -9.500000e+001 3.003069e+001 8.000001e+000
      vertex   -9.500182e+001 3.003069e+001 0.000000e+000
    endloop
  endfacet
  facet normal 0.000000e+000 -2.279281e-004 0.000000e+000
    outer loop
      vertex   -9.500182e+001 3.003069e+001 0.000000e+000
      vertex   -9.500000e+001 3.003069e+001 8.000001e+000
      vertex   -9.500182e+001 3.003069e+001 8.000001e+000
    endloop
  endfacet
  facet normal -1.000000e+000 0.000000e+000 0.000000e+000
    outer loop
      vertex   -3.000000e+001 3.000000e+001 8.000000e+000
      vertex   -3.000000e+001 6.833334e+001 8.000000e+000
      vertex   -3.000000e+001 3.000000e+001 0.000000e+000
    endloop
  endfacet
  facet normal -2.042942e-001 0.000000e+000 0.000000e+000
    outer loop
      vertex   -3.000000e+001 3.000000e+001 0.000000e+000
      vertex   -3.000000e+001 6.833334e+001 8.000000e+000
      vertex   -3.000000e+001 6.833334e+001 0.000000e+000
    endloop
  endfacet
  facet normal -9.789096e-001 0.000000e+000 0.000000e+000
    outer loop
      vertex   -3.000000e+001 6.833334e+001 0.000000e+000
      vertex   -3.000000e+001 6.833334e+001 8.000000e+000
      vertex   -3.000000e+001 1.066667e+002 8.000000e+000
    endloop
  endfacet
  facet normal -2.042942e-001 0.000000e+000 0.000000e+000
    outer loop
      vertex   -3.000000e+001 6.833334e+001 0.000000e+000
      vertex   -3.000000e+001 1.066667e+002 8.000000e+000
      vertex   -3.000000e+001 1.066667e+002 0.000000e+000
    endloop
  endfacet
  facet normal -9.789096e-001 0.000000e+000 0.000000e+000
    outer loop
      vertex   -3.000000e+001 1.066667e+002 0.000000e+000
      vertex   -3.000000e+001 1.066667e+002 8.000000e+000
      vertex   -3.000000e+001 1.450000e+002 8.000000e+000
    endloop
  endfacet
  facet normal -2.042942e-001 0.000000e+000 0.000000e+000
    outer loop
      vertex   -3.000000e+001 1.066667e+002 0.000000e+000
      vertex   -3.000000e+001 1.450000e+002 8.000000e+000
      vertex   -3.000000e+001 1.450000e+002 0.000000e+000
    endloop
  endfacet
  facet normal 0.000000e+000 0.000000e+000 1.520572e-001
    outer loop
      vertex   -6.250000e+001 2.500000e+001 8.000000e+000
      vertex   -2.500000e+001 2.500000e+001 8.000000e+000
      vertex   -3.000000e+001 3.000000e+001 8.000000e+000
    endloop
  endfacet
  facet normal -0.000000e+000 0.000000e+000 7.961622e-001
    outer loop
      vertex   -3.000000e+001 3.000000e+001 8.000000e+000
      vertex   -2.500000e+001 2.500000e+001 8.000000e+000
      vertex   -2.500000e+001 6.666666e+001 8.000000e+000
    endloop
  endfacet
  facet normal 0.000000e+000 0.000000e+000 1.351132e-001
    outer loop
      vertex   -3.000000e+001 3.000000e+001 8.000000e+000
      vertex   -2.500000e+001 6.666666e+001 8.000000e+000
      vertex   -3.000000e+001 6.833334e+001 8.000000e+000
    endloop
  endfacet
  facet normal -0.000000e+000 0.000000e+000 9.805805e-001
    outer loop
      vertex   -3.000000e+001 6.833334e+001 8.000000e+000
      vertex   -2.500000e+001 6.666666e+001 8.000000e+000
      vertex   -2.500000e+001 1.083333e+002 8.000000e+000
    endloop
  endfacet
  facet normal 0.000000e+000 0.000000e+000 1.240347e-001
    outer loop
      vertex   -3.000000e+001 6.833334e+001 8.000000e+000
      vertex   -2.500000e+001 1.083333e+002 8.000000e+000
      vertex   -3.000000e+001 1.066667e+002 8.000000e+000
    endloop
  endfacet
  facet normal 0.000000e+000 0.000000e+000 9.486830e-001
    outer loop
      vertex   -3.000000e+001 1.066667e+002 8.000000e+000
      vertex   -2.500000e+001 1.083333e+002 8.000000e+000
      vertex   -3.000000e+001 1.450000e+002 8.000000e+000
    endloop
  endfacet
  facet normal -0.000000e+000 0.000000e+000 7.961622e-001
    outer loop
      vertex   -3.000000e+001 1.450000e+002 8.000000e+000
      vertex   -2.500000e+001 1.083333e+002 8.000000e+000
      vertex   -2.500000e+001 1.500000e+002 8.000000e+000
    endloop
  endfacet
  facet normal 0.000000e+000 -0.000000e+000 8.064050e-001
    outer loop
      vertex   -3.000000e+001 1.450000e+002 8.000000e+000
      vertex   -2.500000e+001 1.500000e+002 8.000000e+000
      vertex   -6.250000e+001 1.500000e+002 8.000000e+000
    endloop
  endfacet
  facet normal -0.000000e+000 0.000000e+000 7.071068e-001
    outer loop
      vertex   -1.000000e+002 1.500000e+002 8.000000e+000
      vertex   -9.500000e+001 1.450000e+002 8.000000e+000
      vertex   -6.250000e+001 1.500000e+002 8.000000e+000
    endloop
  endfacet
  facet normal 0.000000e+000 0.000000e+000 9.883717e-001
    outer loop
      vertex   -6.250000e+001 1.500000e+002 8.000000e+000
      vertex   -9.500000e+001 1.450000e+002 8.000000e+000
      vertex   -6.250000e+001 1.450000e+002 8.000000e+000
    endloop
  endfacet
  facet normal 0.000000e+000 0.000000e+000 9.883717e-001
    outer loop
      vertex   -6.250000e+001 1.500000e+002 8.000000e+000
      vertex   -6.250000e+001 1.450000e+002 8.000000e+000
      vertex   -3.000000e+001 1.450000e+002 8.000000e+000
    endloop
  endfacet
  facet normal 0.000000e+000 0.000000e+000 7.071068e-001
    outer loop
      vertex   -1.000000e+002 1.500000e+002 8.000000e+000
      vertex   -1.000000e+002 1.083333e+002 8.000000e+000
      vertex   -9.500000e+001 1.450000e+002 8.000000e+000
    endloop
  endfacet
  facet normal 0.000000e+000 0.000000e+000 1.350975e-001
    outer loop
      vertex   -9.500000e+001 1.450000e+002 8.000000e+000
      vertex   -1.000000e+002 1.083333e+002 8.000000e+000
      vertex   -9.500058e+001 1.083333e+002 8.000000e+000
    endloop
  endfacet
  facet normal 0.000000e+000 0.000000e+000 1.581366e-005
    outer loop
      vertex   -9.500000e+001 1.450000e+002 8.000000e+000
      vertex   -9.500058e+001 1.083333e+002 8.000000e+000
      vertex   -9.500000e+001 1.066769e+002 8.000000e+000
    endloop
  endfacet
  facet normal 0.000000e+000 0.000000e+000 9.491540e-001
    outer loop
      vertex   -9.500000e+001 1.066769e+002 8.000000e+000
      vertex   -9.500058e+001 1.083333e+002 8.000000e+000
      vertex   -1.000000e+002 1.083333e+002 8.000000e+000
    endloop
  endfacet
  facet normal 0.000000e+000 0.000000e+000 9.492641e-001
    outer loop
      vertex   -9.500000e+001 1.066769e+002 8.000000e+000
      vertex   -1.000000e+002 1.083333e+002 8.000000e+000
      vertex   -9.500000e+001 6.835379e+001 8.000000e+000
    endloop
  endfacet
  facet normal 0.000000e+000 0.000000e+000 9.798653e-001
    outer loop
      vertex   -9.500000e+001 6.835379e+001 8.000000e+000
      vertex   -1.000000e+002 1.083333e+002 8.000000e+000
      vertex   -1.000000e+002 6.666666e+001 8.000000e+000
    endloop
  endfacet
  facet normal 0.000000e+000 0.000000e+000 9.472778e-001
    outer loop
      vertex   -9.500000e+001 6.835379e+001 8.000000e+000
      vertex   -1.000000e+002 6.666666e+001 8.000000e+000
      vertex   -9.500124e+001 6.666666e+001 8.000000e+000
    endloop
  endfacet
  facet normal 0.000000e+000 2.603109e-008 1.000000e+000
    outer loop
      vertex   -9.500124e+001 6.666666e+001 8.000000e+000
      vertex   -1.000000e+002 6.666666e+001 8.000000e+000
      vertex   -9.500182e+001 3.003069e+001 8.000001e+000
    endloop
  endfacet
  facet normal 0.000000e+000 1.295605e-012 4.977144e-005
    outer loop
      vertex   -9.500124e+001 6.666666e+001 8.000000e+000
      vertex   -9.500182e+001 3.003069e+001 8.000001e+000
      vertex   -9.500000e+001 3.003069e+001 8.000001e+000
    endloop
  endfacet
  facet normal -2.579216e-008 0.000000e+000 1.351759e-001
    outer loop
      vertex   -1.000000e+002 6.666666e+001 8.000000e+000
      vertex   -1.000000e+002 2.500000e+001 8.000000e+000
      vertex   -9.500182e+001 3.003069e+001 8.000001e+000
    endloop
  endfacet
  facet normal -1.344810e-007 0.000000e+000 7.048109e-001
    outer loop
      vertex   -9.500182e+001 3.003069e+001 8.000001e+000
      vertex   -1.000000e+002 2.500000e+001 8.000000e+000
      vertex   -9.500182e+001 3.000000e+001 8.000001e+000
    endloop
  endfacet
  facet normal 0.000000e+000 -1.538292e-007 8.065078e-001
    outer loop
      vertex   -9.500182e+001 3.000000e+001 8.000001e+000
      vertex   -1.000000e+002 2.500000e+001 8.000000e+000
      vertex   -6.250000e+001 2.500000e+001 8.000000e+000
    endloop
  endfacet
  facet normal 4.461570e-009 8.135339e-013 1.520489e-001
    outer loop
      vertex   -9.500182e+001 3.000000e+001 8.000001e+000
      vertex   -6.250000e+001 2.500000e+001 8.000000e+000
      vertex   -6.250091e+001 3.000000e+001 8.000000e+000
    endloop
  endfacet
  facet normal -0.000000e+000 0.000000e+000 1.000000e+000
    outer loop
      vertex   -6.250091e+001 3.000000e+001 8.000000e+000
      vertex   -6.250000e+001 2.500000e+001 8.000000e+000
      vertex   -3.000000e+001 3.000000e+001 8.000000e+000
    endloop
  endfacet
  facet normal -1.145986e-009 8.447132e-013 3.394454e-005
    outer loop
      vertex   -9.500000e+001 3.003069e+001 8.000001e+000
      vertex   -9.500000e+001 6.835379e+001 8.000000e+000
      vertex   -9.500124e+001 6.666666e+001 8.000000e+000
    endloop
  endfacet
  facet normal 0.000000e+000 -1.000000e+000 0.000000e+000
    outer loop
      vertex   -9.500000e+001 1.450000e+002 0.000000e+000
      vertex   -6.250000e+001 1.450000e+002 0.000000e+000
      vertex   -9.500000e+001 1.450000e+002 8.000000e+000
    endloop
  endfacet
  facet normal 0.000000e+000 -2.390191e-001 0.000000e+000
    outer loop
      vertex   -9.500000e+001 1.450000e+002 8.000000e+000
      vertex   -6.250000e+001 1.450000e+002 0.000000e+000
      vertex   -6.250000e+001 1.450000e+002 8.000000e+000
    endloop
  endfacet
  facet normal 0.000000e+000 -9.710149e-001 0.000000e+000
    outer loop
      vertex   -6.250000e+001 1.450000e+002 8.000000e+000
      vertex   -6.250000e+001 1.450000e+002 0.000000e+000
      vertex   -3.000000e+001 1.450000e+002 0.000000e+000
    endloop
  endfacet
  facet normal 0.000000e+000 -2.390191e-001 0.000000e+000
    outer loop
      vertex   -6.250000e+001 1.450000e+002 8.000000e+000
      vertex   -3.000000e+001 1.450000e+002 0.000000e+000
      vertex   -3.000000e+001 1.450000e+002 8.000000e+000
    endloop
  endfacet
  facet normal 1.000000e+000 0.000000e+000 0.000000e+000
    outer loop
      vertex   -9.500000e+001 3.003069e+001 8.000001e+000
      vertex   -9.500000e+001 3.003069e+001 0.000000e+000
      vertex   -9.500000e+001 6.835379e+001 8.000000e+000
    endloop
  endfacet
  facet normal 9.788986e-001 0.000000e+000 0.000000e+000
    outer loop
      vertex   -9.500000e+001 6.835379e+001 8.000000e+000
      vertex   -9.500000e+001 3.003069e+001 0.000000e+000
      vertex   -9.500000e+001 6.835379e+001 0.000000e+000
    endloop
  endfacet
  facet normal 9.788986e-001 0.000000e+000 0.000000e+000
    outer loop
      vertex   -9.500000e+001 6.835379e+001 8.000000e+000
      vertex   -9.500000e+001 6.835379e+001 0.000000e+000
      vertex   -9.500000e+001 1.066769e+002 0.000000e+000
    endloop
  endfacet
  facet normal 2.043464e-001 -0.000000e+000 0.000000e+000
    outer loop
      vertex   -9.500000e+001 6.835379e+001 8.000000e+000
      vertex   -9.500000e+001 1.066769e+002 0.000000e+000
      vertex   -9.500000e+001 1.066769e+002 8.000000e+000
    endloop
  endfacet
  facet normal 9.788986e-001 0.000000e+000 0.000000e+000
    outer loop
      vertex   -9.500000e+001 1.066769e+002 8.000000e+000
      vertex   -9.500000e+001 1.066769e+002 0.000000e+000
      vertex   -9.500000e+001 1.450000e+002 0.000000e+000
    endloop
  endfacet
  facet normal 2.043464e-001 -0.000000e+000 0.000000e+000
    outer loop
      vertex   -9.500000e+001 1.066769e+002 8.000000e+000
      vertex   -9.500000e+001 1.450000e+002 0.000000e+000
      vertex   -9.500000e+001 1.450000e+002 8.000000e+000
    endloop
  endfacet
  facet normal 0.000000e+000 1.000000e+000 -0.000000e+000
    outer loop
      vertex   -3.000000e+001 3.000000e+001 0.000000e+000
      vertex   -6.250091e+001 3.000000e+001 0.000000e+000
      vertex   -3.000000e+001 3.000000e+001 8.000000e+000
    endloop
  endfacet
  facet normal 0.000000e+000 2.390127e-001 0.000000e+000
    outer loop
      vertex   -3.000000e+001 3.000000e+001 8.000000e+000
      vertex   -6.250091e+001 3.000000e+001 0.000000e+000
      vertex   -6.250091e+001 3.000000e+001 8.000000e+000
    endloop
  endfacet
  facet normal 0.000000e+000 9.710164e-001 0.000000e+000
    outer loop
      vertex   -6.250091e+001 3.000000e+001 8.000000e+000
      vertex   -6.250091e+001 3.000000e+001 0.000000e+000
      vertex   -9.500182e+001 3.000000e+001 0.000000e+000
    endloop
  endfacet
  facet normal 0.000000e+000 2.390127e-001 0.000000e+000
    outer loop
      vertex   -6.250091e+001 3.000000e+001 8.000000e+000
      vertex   -9.500182e+001 3.000000e+001 0.000000e+000
      vertex   -9.500182e+001 3.000000e+001 8.000001e+000
    endloop
  endfacet
  facet normal 0.000000e+000 -1.000000e+000 0.000000e+000
    outer loop
      vertex   -1.000000e+002 2.500000e+001 0.000000e+000
      vertex   -6.250000e+001 2.500000e+001 0.000000e+000
      vertex   -1.000000e+002 2.500000e+001 8.000000e+000
    endloop
  endfacet
  facet normal 0.000000e+000 -2.086385e-001 0.000000e+000
    outer loop
      vertex   -1.000000e+002 2.500000e+001 8.000000e+000
      vertex   -6.250000e+001 2.500000e+001 0.000000e+000
      vertex   -6.250000e+001 2.500000e+001 8.000000e+000
    endloop
  endfacet
  facet normal 0.000000e+000 -9.779928e-001 0.000000e+000
    outer loop
      vertex   -6.250000e+001 2.500000e+001 8.000000e+000
      vertex   -6.250000e+001 2.500000e+001 0.000000e+000
      vertex   -2.500000e+001 2.500000e+001 0.000000e+000
    endloop
  endfacet
  facet normal 0.000000e+000 -2.086385e-001 0.000000e+000
    outer loop
      vertex   -6.250000e+001 2.500000e+001 8.000000e+000
      vertex   -2.500000e+001 2.500000e+001 0.000000e+000
      vertex   -2.500000e+001 2.500000e+001 8.000000e+000
    endloop
  endfacet
  facet normal -1.000000e+000 0.000000e+000 0.000000e+000
    outer loop
      vertex   -1.000000e+002 1.500000e+002 0.000000e+000
      vertex   -1.000000e+002 1.083333e+002 0.000000e+000
      vertex   -1.000000e+002 1.500000e+002 8.000000e+000
    endloop
  endfacet
  facet normal -1.885560e-001 -0.000000e+000 0.000000e+000
    outer loop
      vertex   -1.000000e+002 1.500000e+002 8.000000e+000
      vertex   -1.000000e+002 1.083333e+002 0.000000e+000
      vertex   -1.000000e+002 1.083333e+002 8.000000e+000
    endloop
  endfacet
  facet normal -9.820625e-001 0.000000e+000 -0.000000e+000
    outer loop
      vertex   -1.000000e+002 1.083333e+002 8.000000e+000
      vertex   -1.000000e+002 1.083333e+002 0.000000e+000
      vertex   -1.000000e+002 6.666666e+001 0.000000e+000
    endloop
  endfacet
  facet normal -1.885560e-001 -0.000000e+000 0.000000e+000
    outer loop
      vertex   -1.000000e+002 1.083333e+002 8.000000e+000
      vertex   -1.000000e+002 6.666666e+001 0.000000e+000
      vertex   -1.000000e+002 6.666666e+001 8.000000e+000
    endloop
  endfacet
  facet normal -9.820625e-001 0.000000e+000 -0.000000e+000
    outer loop
      vertex   -1.000000e+002 6.666666e+001 8.000000e+000
      vertex   -1.000000e+002 6.666666e+001 0.000000e+000
      vertex   -1.000000e+002 2.500000e+001 0.000000e+000
    endloop
  endfacet
  facet normal -1.885560e-001 -0.000000e+000 0.000000e+000
    outer loop
      vertex   -1.000000e+002 6.666666e+001 8.000000e+000
      vertex   -1.000000e+002 2.500000e+001 0.000000e+000
      vertex   -1.000000e+002 2.500000e+001 8.000000e+000
    endloop
  endfacet
  facet normal 0.000000e+000 1.000000e+000 -0.000000e+000
    outer loop
      vertex   -2.500000e+001 1.500000e+002 0.000000e+000
      vertex   -6.250000e+001 1.500000e+002 0.000000e+000
      vertex   -2.500000e+001 1.500000e+002 8.000000e+000
    endloop
  endfacet
  facet normal 0.000000e+000 2.086385e-001 0.000000e+000
    outer loop
      vertex   -2.500000e+001 1.500000e+002 8.000000e+000
      vertex   -6.250000e+001 1.500000e+002 0.000000e+000
      vertex   -6.250000e+001 1.500000e+002 8.000000e+000
    endloop
  endfacet
  facet normal 0.000000e+000 9.779928e-001 0.000000e+000
    outer loop
      vertex   -6.250000e+001 1.500000e+002 8.000000e+000
      vertex   -6.250000e+001 1.500000e+002 0.000000e+000
      vertex   -1.000000e+002 1.500000e+002 0.000000e+000
    endloop
  endfacet
  facet normal 0.000000e+000 2.086385e-001 0.000000e+000
    outer loop
      vertex   -6.250000e+001 1.500000e+002 8.000000e+000
      vertex   -1.000000e+002 1.500000e+002 0.000000e+000
      vertex   -1.000000e+002 1.500000e+002 8.000000e+000
    endloop
  endfacet
  facet normal 1.000000e+000 0.000000e+000 0.000000e+000
    outer loop
      vertex   -2.500000e+001 2.500000e+001 0.000000e+000
      vertex   -2.500000e+001 6.666666e+001 0.000000e+000
      vertex   -2.500000e+001 2.500000e+001 8.000000e+000
    endloop
  endfacet
  facet normal 1.885560e-001 -0.000000e+000 0.000000e+000
    outer loop
      vertex   -2.500000e+001 2.500000e+001 8.000000e+000
      vertex   -2.500000e+001 6.666666e+001 0.000000e+000
      vertex   -2.500000e+001 6.666666e+001 8.000000e+000
    endloop
  endfacet
  facet normal 9.820625e-001 0.000000e+000 0.000000e+000
    outer loop
      vertex   -2.500000e+001 6.666666e+001 8.000000e+000
      vertex   -2.500000e+001 6.666666e+001 0.000000e+000
      vertex   -2.500000e+001 1.083333e+002 0.000000e+000
    endloop
  endfacet
  facet normal 1.885560e-001 -0.000000e+000 0.000000e+000
    outer loop
      vertex   -2.500000e+001 6.666666e+001 8.000000e+000
      vertex   -2.500000e+001 1.083333e+002 0.000000e+000
      vertex   -2.500000e+001 1.083333e+002 8.000000e+000
    endloop
  endfacet
  facet normal 9.820625e-001 0.000000e+000 0.000000e+000
    outer loop
      vertex   -2.500000e+001 1.083333e+002 8.000000e+000
      vertex   -2.500000e+001 1.083333e+002 0.000000e+000
      vertex   -2.500000e+001 1.500000e+002 0.000000e+000
    endloop
  endfacet
  facet normal 1.885560e-001 -0.000000e+000 0.000000e+000
    outer loop
      vertex   -2.500000e+001 1.083333e+002 8.000000e+000
      vertex   -2.500000e+001 1.500000e+002 0.000000e+000
      vertex   -2.500000e+001 1.500000e+002 8.000000e+000
    endloop
  endfacet
  facet normal -0.000000e+000 -0.000000e+000 -1.000000e+000
    outer loop
      vertex   -6.250091e+001 3.000000e+001 0.000000e+000
      vertex   -6.250000e+001 2.500000e+001 0.000000e+000
      vertex   -9.500182e+001 3.000000e+001 0.000000e+000
    endloop
  endfacet
  facet normal 0.000000e+000 -0.000000e+000 -8.065078e-001
    outer loop
      vertex   -9.500182e+001 3.000000e+001 0.000000e+000
      vertex   -6.250000e+001 2.500000e+001 0.000000e+000
      vertex   -1.000000e+002 2.500000e+001 0.000000e+000
    endloop
  endfacet
  facet normal -0.000000e+000 0.000000e+000 -7.069778e-001
    outer loop
      vertex   -9.500182e+001 3.000000e+001 0.000000e+000
      vertex   -1.000000e+002 2.500000e+001 0.000000e+000
      vertex   -9.500182e+001 3.003069e+001 0.000000e+000
    endloop
  endfacet
  facet normal -0.000000e+000 0.000000e+000 -7.942349e-001
    outer loop
      vertex   -9.500182e+001 3.003069e+001 0.000000e+000
      vertex   -1.000000e+002 2.500000e+001 0.000000e+000
      vertex   -1.000000e+002 6.666666e+001 0.000000e+000
    endloop
  endfacet
  facet normal 0.000000e+000 0.000000e+000 -9.908216e-001
    outer loop
      vertex   -9.500182e+001 3.003069e+001 0.000000e+000
      vertex   -1.000000e+002 6.666666e+001 0.000000e+000
      vertex   -9.500000e+001 3.003069e+001 0.000000e+000
    endloop
  endfacet
  facet normal 0.000000e+000 0.000000e+000 -1.352243e-001
    outer loop
      vertex   -9.500000e+001 3.003069e+001 0.000000e+000
      vertex   -1.000000e+002 6.666666e+001 0.000000e+000
      vertex   -9.500000e+001 6.835379e+001 0.000000e+000
    endloop
  endfacet
  facet normal -0.000000e+000 0.000000e+000 -9.798653e-001
    outer loop
      vertex   -9.500000e+001 6.835379e+001 0.000000e+000
      vertex   -1.000000e+002 6.666666e+001 0.000000e+000
      vertex   -1.000000e+002 1.083333e+002 0.000000e+000
    endloop
  endfacet
  facet normal 0.000000e+000 0.000000e+000 -1.240972e-001
    outer loop
      vertex   -9.500000e+001 6.835379e+001 0.000000e+000
      vertex   -1.000000e+002 1.083333e+002 0.000000e+000
      vertex   -9.500000e+001 1.066769e+002 0.000000e+000
    endloop
  endfacet
  facet normal 0.000000e+000 0.000000e+000 -9.492641e-001
    outer loop
      vertex   -9.500000e+001 1.066769e+002 0.000000e+000
      vertex   -1.000000e+002 1.083333e+002 0.000000e+000
      vertex   -9.500000e+001 1.450000e+002 0.000000e+000
    endloop
  endfacet
  facet normal -0.000000e+000 0.000000e+000 -7.961622e-001
    outer loop
      vertex   -9.500000e+001 1.450000e+002 0.000000e+000
      vertex   -1.000000e+002 1.083333e+002 0.000000e+000
      vertex   -1.000000e+002 1.500000e+002 0.000000e+000
    endloop
  endfacet
  facet normal 0.000000e+000 0.000000e+000 -8.064050e-001
    outer loop
      vertex   -9.500000e+001 1.450000e+002 0.000000e+000
      vertex   -1.000000e+002 1.500000e+002 0.000000e+000
      vertex   -6.250000e+001 1.500000e+002 0.000000e+000
    endloop
  endfacet
  facet normal 0.000000e+000 0.000000e+000 -1.000000e+000
    outer loop
      vertex   -6.250091e+001 3.000000e+001 0.000000e+000
      vertex   -3.000000e+001 3.000000e+001 0.000000e+000
      vertex   -6.250000e+001 2.500000e+001 0.000000e+000
    endloop
  endfacet
  facet normal 0.000000e+000 0.000000e+000 -1.520572e-001
    outer loop
      vertex   -6.250000e+001 2.500000e+001 0.000000e+000
      vertex   -3.000000e+001 3.000000e+001 0.000000e+000
      vertex   -2.500000e+001 2.500000e+001 0.000000e+000
    endloop
  endfacet
  facet normal 0.000000e+000 0.000000e+000 -7.071068e-001
    outer loop
      vertex   -2.500000e+001 2.500000e+001 0.000000e+000
      vertex   -3.000000e+001 3.000000e+001 0.000000e+000
      vertex   -2.500000e+001 6.666666e+001 0.000000e+000
    endloop
  endfacet
  facet normal -0.000000e+000 0.000000e+000 -9.827104e-001
    outer loop
      vertex   -2.500000e+001 6.666666e+001 0.000000e+000
      vertex   -3.000000e+001 3.000000e+001 0.000000e+000
      vertex   -3.000000e+001 6.833334e+001 0.000000e+000
    endloop
  endfacet
  facet normal 0.000000e+000 0.000000e+000 -9.021338e-001
    outer loop
      vertex   -2.500000e+001 6.666666e+001 0.000000e+000
      vertex   -3.000000e+001 6.833334e+001 0.000000e+000
      vertex   -3.000000e+001 1.066667e+002 0.000000e+000
    endloop
  endfacet
  facet normal 0.000000e+000 0.000000e+000 -1.240347e-001
    outer loop
      vertex   -2.500000e+001 6.666666e+001 0.000000e+000
      vertex   -3.000000e+001 1.066667e+002 0.000000e+000
      vertex   -2.500000e+001 1.083333e+002 0.000000e+000
    endloop
  endfacet
  facet normal -0.000000e+000 0.000000e+000 -9.827104e-001
    outer loop
      vertex   -2.500000e+001 1.083333e+002 0.000000e+000
      vertex   -3.000000e+001 1.066667e+002 0.000000e+000
      vertex   -3.000000e+001 1.450000e+002 0.000000e+000
    endloop
  endfacet
  facet normal 0.000000e+000 0.000000e+000 -1.351132e-001
    outer loop
      vertex   -2.500000e+001 1.083333e+002 0.000000e+000
      vertex   -3.000000e+001 1.450000e+002 0.000000e+000
      vertex   -2.500000e+001 1.500000e+002 0.000000e+000
    endloop
  endfacet
  facet normal -0.000000e+000 0.000000e+000 -7.071068e-001
    outer loop
      vertex   -2.500000e+001 1.500000e+002 0.000000e+000
      vertex   -3.000000e+001 1.450000e+002 0.000000e+000
      vertex   -6.250000e+001 1.500000e+002 0.000000e+000
    endloop
  endfacet
  facet normal 0.000000e+000 0.000000e+000 -9.883717e-001
    outer loop
      vertex   -6.250000e+001 1.500000e+002 0.000000e+000
      vertex   -3.000000e+001 1.450000e+002 0.000000e+000
      vertex   -6.250000e+001 1.450000e+002 0.000000e+000
    endloop
  endfacet
  facet normal 0.000000e+000 -0.000000e+000 -9.883717e-001
    outer loop
      vertex   -6.250000e+001 1.500000e+002 0.000000e+000
      vertex   -6.250000e+001 1.450000e+002 0.000000e+000
      vertex   -9.500000e+001 1.450000e+002 0.000000e+000
    endloop
  endfacet
endsolid
