solid ascii
  facet normal 0.000000e+000 -1.000000e+000 0.000000e+000
    outer loop
      vertex   -1.700000e+002 9.500000e+001 0.000000e+000
      vertex   -1.316667e+002 9.500000e+001 0.000000e+000
      vertex   -1.700000e+002 9.500000e+001 8.000000e+000
    endloop
  endfacet
  facet normal 0.000000e+000 -2.042942e-001 0.000000e+000
    outer loop
      vertex   -1.700000e+002 9.500000e+001 8.000000e+000
      vertex   -1.316667e+002 9.500000e+001 0.000000e+000
      vertex   -1.316667e+002 9.500000e+001 8.000000e+000
    endloop
  endfacet
  facet normal 0.000000e+000 -9.789096e-001 0.000000e+000
    outer loop
      vertex   -1.316667e+002 9.500000e+001 8.000000e+000
      vertex   -1.316667e+002 9.500000e+001 0.000000e+000
      vertex   -9.333334e+001 9.500000e+001 0.000000e+000
    endloop
  endfacet
  facet normal 0.000000e+000 -2.042942e-001 0.000000e+000
    outer loop
      vertex   -1.316667e+002 9.500000e+001 8.000000e+000
      vertex   -9.333334e+001 9.500000e+001 0.000000e+000
      vertex   -9.333334e+001 9.500000e+001 8.000000e+000
    endloop
  endfacet
  facet normal 0.000000e+000 -9.789096e-001 0.000000e+000
    outer loop
      vertex   -9.333334e+001 9.500000e+001 8.000000e+000
      vertex   -9.333334e+001 9.500000e+001 0.000000e+000
      vertex   -5.500000e+001 9.500000e+001 0.000000e+000
    endloop
  endfacet
  facet normal 0.000000e+000 -2.042942e-001 0.000000e+000
    outer loop
      vertex   -9.333334e+001 9.500000e+001 8.000000e+000
      vertex   -5.500000e+001 9.500000e+001 0.000000e+000
      vertex   -5.500000e+001 9.500000e+001 8.000000e+000
    endloop
  endfacet
  facet normal 1.000000e+000 0.000000e+000 0.000000e+000
    outer loop
      vertex   -1.700000e+002 3.000000e+001 0.000000e+000
      vertex   -1.700000e+002 6.250000e+001 0.000000e+000
      vertex   -1.700000e+002 3.000000e+001 8.000000e+000
    endloop
  endfacet
  facet normal 2.390191e-001 -0.000000e+000 0.000000e+000
    outer loop
      vertex   -1.700000e+002 3.000000e+001 8.000000e+000
      vertex   -1.700000e+002 6.250000e+001 0.000000e+000
      vertex   -1.700000e+002 6.250000e+001 8.000000e+000
    endloop
  endfacet
  facet normal 9.710149e-001 0.000000e+000 0.000000e+000
    outer loop
      vertex   -1.700000e+002 6.250000e+001 8.000000e+000
      vertex   -1.700000e+002 6.250000e+001 0.000000e+000
      vertex   -1.700000e+002 9.500000e+001 0.000000e+000
    endloop
  endfacet
  facet normal 2.390191e-001 -0.000000e+000 0.000000e+000
    outer loop
      vertex   -1.700000e+002 6.250000e+001 8.000000e+000
      vertex   -1.700000e+002 9.500000e+001 0.000000e+000
      vertex   -1.700000e+002 9.500000e+001 8.000000e+000
    endloop
  endfacet
  facet normal 0.000000e+000 1.000000e+000 -0.000000e+000
    outer loop
      vertex   -5.500000e+001 3.000000e+001 0.000000e+000
      vertex   -9.333334e+001 3.000000e+001 0.000000e+000
      vertex   -5.500000e+001 3.000000e+001 8.000000e+000
    endloop
  endfacet
  facet normal 0.000000e+000 2.042942e-001 0.000000e+000
    outer loop
      vertex   -5.500000e+001 3.000000e+001 8.000000e+000
      vertex   -9.333334e+001 3.000000e+001 0.000000e+000
      vertex   -9.333334e+001 3.000000e+001 8.000000e+000
    endloop
  endfacet
  facet normal 0.000000e+000 9.789096e-001 0.000000e+000
    outer loop
      vertex   -9.333334e+001 3.000000e+001 8.000000e+000
      vertex   -9.333334e+001 3.000000e+001 0.000000e+000
      vertex   -1.316667e+002 3.000000e+001 0.000000e+000
    endloop
  endfacet
  facet normal 0.000000e+000 2.042942e-001 0.000000e+000
    outer loop
      vertex   -9.333334e+001 3.000000e+001 8.000000e+000
      vertex   -1.316667e+002 3.000000e+001 0.000000e+000
      vertex   -1.316667e+002 3.000000e+001 8.000000e+000
    endloop
  endfacet
  facet normal 0.000000e+000 9.789096e-001 0.000000e+000
    outer loop
      vertex   -1.316667e+002 3.000000e+001 8.000000e+000
      vertex   -1.316667e+002 3.000000e+001 0.000000e+000
      vertex   -1.700000e+002 3.000000e+001 0.000000e+000
    endloop
  endfacet
  facet normal 0.000000e+000 2.042942e-001 0.000000e+000
    outer loop
      vertex   -1.316667e+002 3.000000e+001 8.000000e+000
      vertex   -1.700000e+002 3.000000e+001 0.000000e+000
      vertex   -1.700000e+002 3.000000e+001 8.000000e+000
    endloop
  endfacet
  facet normal -1.000000e+000 0.000000e+000 0.000000e+000
    outer loop
      vertex   -5.500000e+001 9.500000e+001 0.000000e+000
      vertex   -5.500000e+001 6.250000e+001 0.000000e+000
      vertex   -5.500000e+001 9.500000e+001 8.000000e+000
    endloop
  endfacet
  facet normal -2.390191e-001 -0.000000e+000 0.000000e+000
    outer loop
      vertex   -5.500000e+001 9.500000e+001 8.000000e+000
      vertex   -5.500000e+001 6.250000e+001 0.000000e+000
      vertex   -5.500000e+001 6.250000e+001 8.000000e+000
    endloop
  endfacet
  facet normal -9.710149e-001 0.000000e+000 -0.000000e+000
    outer loop
      vertex   -5.500000e+001 6.250000e+001 8.000000e+000
      vertex   -5.500000e+001 6.250000e+001 0.000000e+000
      vertex   -5.500000e+001 3.000000e+001 0.000000e+000
    endloop
  endfacet
  facet normal -2.390191e-001 -0.000000e+000 0.000000e+000
    outer loop
      vertex   -5.500000e+001 6.250000e+001 8.000000e+000
      vertex   -5.500000e+001 3.000000e+001 0.000000e+000
      vertex   -5.500000e+001 3.000000e+001 8.000000e+000
    endloop
  endfacet
  facet normal 1.000000e+000 0.000000e+000 0.000000e+000
    outer loop
      vertex   -5.000000e+001 2.500000e+001 0.000000e+000
      vertex   -5.000000e+001 6.250000e+001 0.000000e+000
      vertex   -5.000000e+001 2.500000e+001 8.000000e+000
    endloop
  endfacet
  facet normal 2.086385e-001 -0.000000e+000 0.000000e+000
    outer loop
      vertex   -5.000000e+001 2.500000e+001 8.000000e+000
      vertex   -5.000000e+001 6.250000e+001 0.000000e+000
      vertex   -5.000000e+001 6.250000e+001 8.000000e+000
    endloop
  endfacet
  facet normal 9.779928e-001 0.000000e+000 0.000000e+000
    outer loop
      vertex   -5.000000e+001 6.250000e+001 8.000000e+000
      vertex   -5.000000e+001 6.250000e+001 0.000000e+000
      vertex   -5.000000e+001 1.000000e+002 0.000000e+000
    endloop
  endfacet
  facet normal 2.086385e-001 -0.000000e+000 0.000000e+000
    outer loop
      vertex   -5.000000e+001 6.250000e+001 8.000000e+000
      vertex   -5.000000e+001 1.000000e+002 0.000000e+000
      vertex   -5.000000e+001 1.000000e+002 8.000000e+000
    endloop
  endfacet
  facet normal 0.000000e+000 -1.000000e+000 0.000000e+000
    outer loop
      vertex   -1.750000e+002 2.500000e+001 0.000000e+000
      vertex   -1.333333e+002 2.500000e+001 0.000000e+000
      vertex   -1.750000e+002 2.500000e+001 8.000000e+000
    endloop
  endfacet
  facet normal 0.000000e+000 -1.885560e-001 0.000000e+000
    outer loop
      vertex   -1.750000e+002 2.500000e+001 8.000000e+000
      vertex   -1.333333e+002 2.500000e+001 0.000000e+000
      vertex   -1.333333e+002 2.500000e+001 8.000000e+000
    endloop
  endfacet
  facet normal 0.000000e+000 -9.820625e-001 0.000000e+000
    outer loop
      vertex   -1.333333e+002 2.500000e+001 8.000000e+000
      vertex   -1.333333e+002 2.500000e+001 0.000000e+000
      vertex   -9.166666e+001 2.500000e+001 0.000000e+000
    endloop
  endfacet
  facet normal 0.000000e+000 -1.885560e-001 0.000000e+000
    outer loop
      vertex   -1.333333e+002 2.500000e+001 8.000000e+000
      vertex   -9.166666e+001 2.500000e+001 0.000000e+000
      vertex   -9.166666e+001 2.500000e+001 8.000000e+000
    endloop
  endfacet
  facet normal 0.000000e+000 -9.820625e-001 0.000000e+000
    outer loop
      vertex   -9.166666e+001 2.500000e+001 8.000000e+000
      vertex   -9.166666e+001 2.500000e+001 0.000000e+000
      vertex   -5.000000e+001 2.500000e+001 0.000000e+000
    endloop
  endfacet
  facet normal 0.000000e+000 -1.885560e-001 0.000000e+000
    outer loop
      vertex   -9.166666e+001 2.500000e+001 8.000000e+000
      vertex   -5.000000e+001 2.500000e+001 0.000000e+000
      vertex   -5.000000e+001 2.500000e+001 8.000000e+000
    endloop
  endfacet
  facet normal -1.000000e+000 0.000000e+000 0.000000e+000
    outer loop
      vertex   -1.750000e+002 1.000000e+002 0.000000e+000
      vertex   -1.750000e+002 6.250000e+001 0.000000e+000
      vertex   -1.750000e+002 1.000000e+002 8.000000e+000
    endloop
  endfacet
  facet normal -2.086385e-001 -0.000000e+000 0.000000e+000
    outer loop
      vertex   -1.750000e+002 1.000000e+002 8.000000e+000
      vertex   -1.750000e+002 6.250000e+001 0.000000e+000
      vertex   -1.750000e+002 6.250000e+001 8.000000e+000
    endloop
  endfacet
  facet normal -9.779928e-001 0.000000e+000 -0.000000e+000
    outer loop
      vertex   -1.750000e+002 6.250000e+001 8.000000e+000
      vertex   -1.750000e+002 6.250000e+001 0.000000e+000
      vertex   -1.750000e+002 2.500000e+001 0.000000e+000
    endloop
  endfacet
  facet normal -2.086385e-001 -0.000000e+000 0.000000e+000
    outer loop
      vertex   -1.750000e+002 6.250000e+001 8.000000e+000
      vertex   -1.750000e+002 2.500000e+001 0.000000e+000
      vertex   -1.750000e+002 2.500000e+001 8.000000e+000
    endloop
  endfacet
  facet normal 0.000000e+000 1.000000e+000 -0.000000e+000
    outer loop
      vertex   -5.000000e+001 1.000000e+002 0.000000e+000
      vertex   -9.166666e+001 1.000000e+002 0.000000e+000
      vertex   -5.000000e+001 1.000000e+002 8.000000e+000
    endloop
  endfacet
  facet normal 0.000000e+000 1.885560e-001 0.000000e+000
    outer loop
      vertex   -5.000000e+001 1.000000e+002 8.000000e+000
      vertex   -9.166666e+001 1.000000e+002 0.000000e+000
      vertex   -9.166666e+001 1.000000e+002 8.000000e+000
    endloop
  endfacet
  facet normal 0.000000e+000 9.820625e-001 0.000000e+000
    outer loop
      vertex   -9.166666e+001 1.000000e+002 8.000000e+000
      vertex   -9.166666e+001 1.000000e+002 0.000000e+000
      vertex   -1.333333e+002 1.000000e+002 0.000000e+000
    endloop
  endfacet
  facet normal 0.000000e+000 1.885560e-001 0.000000e+000
    outer loop
      vertex   -9.166666e+001 1.000000e+002 8.000000e+000
      vertex   -1.333333e+002 1.000000e+002 0.000000e+000
      vertex   -1.333333e+002 1.000000e+002 8.000000e+000
    endloop
  endfacet
  facet normal 0.000000e+000 9.820625e-001 0.000000e+000
    outer loop
      vertex   -1.333333e+002 1.000000e+002 8.000000e+000
      vertex   -1.333333e+002 1.000000e+002 0.000000e+000
      vertex   -1.750000e+002 1.000000e+002 0.000000e+000
    endloop
  endfacet
  facet normal 0.000000e+000 1.885560e-001 0.000000e+000
    outer loop
      vertex   -1.333333e+002 1.000000e+002 8.000000e+000
      vertex   -1.750000e+002 1.000000e+002 0.000000e+000
      vertex   -1.750000e+002 1.000000e+002 8.000000e+000
    endloop
  endfacet
  facet normal -0.000000e+000 0.000000e+000 9.486830e-001
    outer loop
      vertex   -9.333334e+001 3.000000e+001 8.000000e+000
      vertex   -9.166666e+001 2.500000e+001 8.000000e+000
      vertex   -5.500000e+001 3.000000e+001 8.000000e+000
    endloop
  endfacet
  facet normal 0.000000e+000 0.000000e+000 7.961622e-001
    outer loop
      vertex   -5.500000e+001 3.000000e+001 8.000000e+000
      vertex   -9.166666e+001 2.500000e+001 8.000000e+000
      vertex   -5.000000e+001 2.500000e+001 8.000000e+000
    endloop
  endfacet
  facet normal -0.000000e+000 0.000000e+000 8.064050e-001
    outer loop
      vertex   -5.500000e+001 3.000000e+001 8.000000e+000
      vertex   -5.000000e+001 2.500000e+001 8.000000e+000
      vertex   -5.000000e+001 6.250000e+001 8.000000e+000
    endloop
  endfacet
  facet normal 0.000000e+000 0.000000e+000 9.486830e-001
    outer loop
      vertex   -9.333334e+001 3.000000e+001 8.000000e+000
      vertex   -1.316667e+002 3.000000e+001 8.000000e+000
      vertex   -9.166666e+001 2.500000e+001 8.000000e+000
    endloop
  endfacet
  facet normal 0.000000e+000 0.000000e+000 1.240347e-001
    outer loop
      vertex   -9.166666e+001 2.500000e+001 8.000000e+000
      vertex   -1.316667e+002 3.000000e+001 8.000000e+000
      vertex   -1.333333e+002 2.500000e+001 8.000000e+000
    endloop
  endfacet
  facet normal 0.000000e+000 -0.000000e+000 9.827109e-001
    outer loop
      vertex   -1.333333e+002 2.500000e+001 8.000000e+000
      vertex   -1.316667e+002 3.000000e+001 8.000000e+000
      vertex   -1.700000e+002 3.000000e+001 8.000000e+000
    endloop
  endfacet
  facet normal 0.000000e+000 0.000000e+000 1.351132e-001
    outer loop
      vertex   -1.333333e+002 2.500000e+001 8.000000e+000
      vertex   -1.700000e+002 3.000000e+001 8.000000e+000
      vertex   -1.750000e+002 2.500000e+001 8.000000e+000
    endloop
  endfacet
  facet normal 0.000000e+000 0.000000e+000 7.071068e-001
    outer loop
      vertex   -1.750000e+002 2.500000e+001 8.000000e+000
      vertex   -1.700000e+002 3.000000e+001 8.000000e+000
      vertex   -1.750000e+002 6.250000e+001 8.000000e+000
    endloop
  endfacet
  facet normal -0.000000e+000 0.000000e+000 9.883717e-001
    outer loop
      vertex   -1.750000e+002 6.250000e+001 8.000000e+000
      vertex   -1.700000e+002 3.000000e+001 8.000000e+000
      vertex   -1.700000e+002 6.250000e+001 8.000000e+000
    endloop
  endfacet
  facet normal 0.000000e+000 0.000000e+000 9.883717e-001
    outer loop
      vertex   -1.750000e+002 6.250000e+001 8.000000e+000
      vertex   -1.700000e+002 6.250000e+001 8.000000e+000
      vertex   -1.700000e+002 9.500000e+001 8.000000e+000
    endloop
  endfacet
  facet normal 0.000000e+000 0.000000e+000 9.486839e-001
    outer loop
      vertex   -1.316667e+002 9.500000e+001 8.000000e+000
      vertex   -1.333333e+002 1.000000e+002 8.000000e+000
      vertex   -1.700000e+002 9.500000e+001 8.000000e+000
    endloop
  endfacet
  facet normal 0.000000e+000 -0.000000e+000 7.961622e-001
    outer loop
      vertex   -1.700000e+002 9.500000e+001 8.000000e+000
      vertex   -1.333333e+002 1.000000e+002 8.000000e+000
      vertex   -1.750000e+002 1.000000e+002 8.000000e+000
    endloop
  endfacet
  facet normal 0.000000e+000 0.000000e+000 8.064050e-001
    outer loop
      vertex   -1.700000e+002 9.500000e+001 8.000000e+000
      vertex   -1.750000e+002 1.000000e+002 8.000000e+000
      vertex   -1.750000e+002 6.250000e+001 8.000000e+000
    endloop
  endfacet
  facet normal 0.000000e+000 -0.000000e+000 9.486839e-001
    outer loop
      vertex   -1.316667e+002 9.500000e+001 8.000000e+000
      vertex   -9.333334e+001 9.500000e+001 8.000000e+000
      vertex   -1.333333e+002 1.000000e+002 8.000000e+000
    endloop
  endfacet
  facet normal -0.000000e+000 0.000000e+000 1.240348e-001
    outer loop
      vertex   -1.333333e+002 1.000000e+002 8.000000e+000
      vertex   -9.333334e+001 9.500000e+001 8.000000e+000
      vertex   -9.166666e+001 1.000000e+002 8.000000e+000
    endloop
  endfacet
  facet normal 0.000000e+000 0.000000e+000 9.827104e-001
    outer loop
      vertex   -9.166666e+001 1.000000e+002 8.000000e+000
      vertex   -9.333334e+001 9.500000e+001 8.000000e+000
      vertex   -5.500000e+001 9.500000e+001 8.000000e+000
    endloop
  endfacet
  facet normal -0.000000e+000 0.000000e+000 1.351132e-001
    outer loop
      vertex   -9.166666e+001 1.000000e+002 8.000000e+000
      vertex   -5.500000e+001 9.500000e+001 8.000000e+000
      vertex   -5.000000e+001 1.000000e+002 8.000000e+000
    endloop
  endfacet
  facet normal 0.000000e+000 0.000000e+000 7.071068e-001
    outer loop
      vertex   -5.000000e+001 1.000000e+002 8.000000e+000
      vertex   -5.500000e+001 9.500000e+001 8.000000e+000
      vertex   -5.000000e+001 6.250000e+001 8.000000e+000
    endloop
  endfacet
  facet normal 0.000000e+000 0.000000e+000 9.883717e-001
    outer loop
      vertex   -5.000000e+001 6.250000e+001 8.000000e+000
      vertex   -5.500000e+001 9.500000e+001 8.000000e+000
      vertex   -5.500000e+001 6.250000e+001 8.000000e+000
    endloop
  endfacet
  facet normal 0.000000e+000 0.000000e+000 9.883717e-001
    outer loop
      vertex   -5.000000e+001 6.250000e+001 8.000000e+000
      vertex   -5.500000e+001 6.250000e+001 8.000000e+000
      vertex   -5.500000e+001 3.000000e+001 8.000000e+000
    endloop
  endfacet
  facet normal -0.000000e+000 0.000000e+000 -9.486839e-001
    outer loop
      vertex   -1.316667e+002 3.000000e+001 0.000000e+000
      vertex   -1.333333e+002 2.500000e+001 0.000000e+000
      vertex   -1.700000e+002 3.000000e+001 0.000000e+000
    endloop
  endfacet
  facet normal 0.000000e+000 -0.000000e+000 -7.961622e-001
    outer loop
      vertex   -1.700000e+002 3.000000e+001 0.000000e+000
      vertex   -1.333333e+002 2.500000e+001 0.000000e+000
      vertex   -1.750000e+002 2.500000e+001 0.000000e+000
    endloop
  endfacet
  facet normal -0.000000e+000 0.000000e+000 -8.064050e-001
    outer loop
      vertex   -1.700000e+002 3.000000e+001 0.000000e+000
      vertex   -1.750000e+002 2.500000e+001 0.000000e+000
      vertex   -1.750000e+002 6.250000e+001 0.000000e+000
    endloop
  endfacet
  facet normal 0.000000e+000 -0.000000e+000 -9.486839e-001
    outer loop
      vertex   -1.316667e+002 3.000000e+001 0.000000e+000
      vertex   -9.333334e+001 3.000000e+001 0.000000e+000
      vertex   -1.333333e+002 2.500000e+001 0.000000e+000
    endloop
  endfacet
  facet normal 0.000000e+000 0.000000e+000 -1.240348e-001
    outer loop
      vertex   -1.333333e+002 2.500000e+001 0.000000e+000
      vertex   -9.333334e+001 3.000000e+001 0.000000e+000
      vertex   -9.166666e+001 2.500000e+001 0.000000e+000
    endloop
  endfacet
  facet normal 0.000000e+000 0.000000e+000 -9.827104e-001
    outer loop
      vertex   -9.166666e+001 2.500000e+001 0.000000e+000
      vertex   -9.333334e+001 3.000000e+001 0.000000e+000
      vertex   -5.500000e+001 3.000000e+001 0.000000e+000
    endloop
  endfacet
  facet normal 0.000000e+000 0.000000e+000 -1.351132e-001
    outer loop
      vertex   -9.166666e+001 2.500000e+001 0.000000e+000
      vertex   -5.500000e+001 3.000000e+001 0.000000e+000
      vertex   -5.000000e+001 2.500000e+001 0.000000e+000
    endloop
  endfacet
  facet normal 0.000000e+000 0.000000e+000 -7.071068e-001
    outer loop
      vertex   -5.000000e+001 2.500000e+001 0.000000e+000
      vertex   -5.500000e+001 3.000000e+001 0.000000e+000
      vertex   -5.000000e+001 6.250000e+001 0.000000e+000
    endloop
  endfacet
  facet normal -0.000000e+000 0.000000e+000 -9.883717e-001
    outer loop
      vertex   -5.000000e+001 6.250000e+001 0.000000e+000
      vertex   -5.500000e+001 3.000000e+001 0.000000e+000
      vertex   -5.500000e+001 6.250000e+001 0.000000e+000
    endloop
  endfacet
  facet normal 0.000000e+000 0.000000e+000 -9.883717e-001
    outer loop
      vertex   -5.000000e+001 6.250000e+001 0.000000e+000
      vertex   -5.500000e+001 6.250000e+001 0.000000e+000
      vertex   -5.500000e+001 9.500000e+001 0.000000e+000
    endloop
  endfacet
  facet normal 0.000000e+000 0.000000e+000 -9.486830e-001
    outer loop
      vertex   -9.333334e+001 9.500000e+001 0.000000e+000
      vertex   -9.166666e+001 1.000000e+002 0.000000e+000
      vertex   -5.500000e+001 9.500000e+001 0.000000e+000
    endloop
  endfacet
  facet normal 0.000000e+000 0.000000e+000 -7.961622e-001
    outer loop
      vertex   -5.500000e+001 9.500000e+001 0.000000e+000
      vertex   -9.166666e+001 1.000000e+002 0.000000e+000
      vertex   -5.000000e+001 1.000000e+002 0.000000e+000
    endloop
  endfacet
  facet normal 0.000000e+000 0.000000e+000 -8.064050e-001
    outer loop
      vertex   -5.500000e+001 9.500000e+001 0.000000e+000
      vertex   -5.000000e+001 1.000000e+002 0.000000e+000
      vertex   -5.000000e+001 6.250000e+001 0.000000e+000
    endloop
  endfacet
  facet normal 0.000000e+000 0.000000e+000 -9.486830e-001
    outer loop
      vertex   -9.333334e+001 9.500000e+001 0.000000e+000
      vertex   -1.316667e+002 9.500000e+001 0.000000e+000
      vertex   -9.166666e+001 1.000000e+002 0.000000e+000
    endloop
  endfacet
  facet normal -0.000000e+000 0.000000e+000 -1.240347e-001
    outer loop
      vertex   -9.166666e+001 1.000000e+002 0.000000e+000
      vertex   -1.316667e+002 9.500000e+001 0.000000e+000
      vertex   -1.333333e+002 1.000000e+002 0.000000e+000
    endloop
  endfacet
  facet normal 0.000000e+000 -0.000000e+000 -9.827109e-001
    outer loop
      vertex   -1.333333e+002 1.000000e+002 0.000000e+000
      vertex   -1.316667e+002 9.500000e+001 0.000000e+000
      vertex   -1.700000e+002 9.500000e+001 0.000000e+000
    endloop
  endfacet
  facet normal -0.000000e+000 0.000000e+000 -1.351132e-001
    outer loop
      vertex   -1.333333e+002 1.000000e+002 0.000000e+000
      vertex   -1.700000e+002 9.500000e+001 0.000000e+000
      vertex   -1.750000e+002 1.000000e+002 0.000000e+000
    endloop
  endfacet
  facet normal 0.000000e+000 0.000000e+000 -7.071068e-001
    outer loop
      vertex   -1.750000e+002 1.000000e+002 0.000000e+000
      vertex   -1.700000e+002 9.500000e+001 0.000000e+000
      vertex   -1.750000e+002 6.250000e+001 0.000000e+000
    endloop
  endfacet
  facet normal 0.000000e+000 0.000000e+000 -9.883717e-001
    outer loop
      vertex   -1.750000e+002 6.250000e+001 0.000000e+000
      vertex   -1.700000e+002 9.500000e+001 0.000000e+000
      vertex   -1.700000e+002 6.250000e+001 0.000000e+000
    endloop
  endfacet
  facet normal 0.000000e+000 0.000000e+000 -9.883717e-001
    outer loop
      vertex   -1.750000e+002 6.250000e+001 0.000000e+000
      vertex   -1.700000e+002 6.250000e+001 0.000000e+000
      vertex   -1.700000e+002 3.000000e+001 0.000000e+000
    endloop
  endfacet
endsolid
