solid ascii
  facet normal -1.000000e+000 0.000000e+000 0.000000e+000
    outer loop
      vertex   -6.300000e+001 1.250000e+002 0.000000e+000
      vertex   -6.300000e+001 8.750000e+001 0.000000e+000
      vertex   -6.300000e+001 1.250000e+002 5.000000e+001
    endloop
  endfacet
  facet normal -8.000000e-001 -0.000000e+000 0.000000e+000
    outer loop
      vertex   -6.300000e+001 1.250000e+002 5.000000e+001
      vertex   -6.300000e+001 8.750000e+001 0.000000e+000
      vertex   -6.300000e+001 8.750000e+001 5.000000e+001
    endloop
  endfacet
  facet normal -1.000000e+000 0.000000e+000 0.000000e+000
    outer loop
      vertex   -6.300000e+001 1.250000e+002 5.000000e+001
      vertex   -6.300000e+001 8.750000e+001 5.000000e+001
      vertex   -6.300000e+001 1.250000e+002 1.000000e+002
    endloop
  endfacet
  facet normal -8.000000e-001 -0.000000e+000 0.000000e+000
    outer loop
      vertex   -6.300000e+001 1.250000e+002 1.000000e+002
      vertex   -6.300000e+001 8.750000e+001 5.000000e+001
      vertex   -6.300000e+001 8.750000e+001 1.000000e+002
    endloop
  endfacet
  facet normal -6.000000e-001 0.000000e+000 -0.000000e+000
    outer loop
      vertex   -6.300000e+001 8.750000e+001 1.000000e+002
      vertex   -6.300000e+001 8.750000e+001 5.000000e+001
      vertex   -6.300000e+001 5.000000e+001 5.000000e+001
    endloop
  endfacet
  facet normal -8.000000e-001 -0.000000e+000 0.000000e+000
    outer loop
      vertex   -6.300000e+001 8.750000e+001 1.000000e+002
      vertex   -6.300000e+001 5.000000e+001 5.000000e+001
      vertex   -6.300000e+001 5.000000e+001 1.000000e+002
    endloop
  endfacet
  facet normal -1.000000e+000 0.000000e+000 0.000000e+000
    outer loop
      vertex   -6.300000e+001 8.750000e+001 0.000000e+000
      vertex   -6.300000e+001 5.000000e+001 0.000000e+000
      vertex   -6.300000e+001 8.750000e+001 5.000000e+001
    endloop
  endfacet
  facet normal -8.000000e-001 -0.000000e+000 0.000000e+000
    outer loop
      vertex   -6.300000e+001 8.750000e+001 5.000000e+001
      vertex   -6.300000e+001 5.000000e+001 0.000000e+000
      vertex   -6.300000e+001 5.000000e+001 5.000000e+001
    endloop
  endfacet
  facet normal 0.000000e+000 1.000000e+000 -0.000000e+000
    outer loop
      vertex   -4.800000e+001 1.250000e+002 0.000000e+000
      vertex   -6.300000e+001 1.250000e+002 0.000000e+000
      vertex   -4.800000e+001 1.250000e+002 5.000000e+001
    endloop
  endfacet
  facet normal 0.000000e+000 9.578263e-001 0.000000e+000
    outer loop
      vertex   -4.800000e+001 1.250000e+002 5.000000e+001
      vertex   -6.300000e+001 1.250000e+002 0.000000e+000
      vertex   -6.300000e+001 1.250000e+002 5.000000e+001
    endloop
  endfacet
  facet normal 0.000000e+000 1.000000e+000 -0.000000e+000
    outer loop
      vertex   -4.800000e+001 1.250000e+002 5.000000e+001
      vertex   -6.300000e+001 1.250000e+002 5.000000e+001
      vertex   -4.800000e+001 1.250000e+002 1.000000e+002
    endloop
  endfacet
  facet normal 0.000000e+000 9.578263e-001 0.000000e+000
    outer loop
      vertex   -4.800000e+001 1.250000e+002 1.000000e+002
      vertex   -6.300000e+001 1.250000e+002 5.000000e+001
      vertex   -6.300000e+001 1.250000e+002 1.000000e+002
    endloop
  endfacet
  facet normal 0.000000e+000 0.000000e+000 9.524242e-001
    outer loop
      vertex   -4.800000e+001 1.250000e+002 1.000000e+002
      vertex   -6.300000e+001 1.250000e+002 1.000000e+002
      vertex   -5.600000e+001 1.000000e+002 1.000000e+002
    endloop
  endfacet
  facet normal 0.000000e+000 0.000000e+000 7.057612e-001
    outer loop
      vertex   -5.600000e+001 1.000000e+002 1.000000e+002
      vertex   -6.300000e+001 1.250000e+002 1.000000e+002
      vertex   -6.300000e+001 8.750000e+001 1.000000e+002
    endloop
  endfacet
  facet normal 0.000000e+000 0.000000e+000 4.886034e-001
    outer loop
      vertex   -5.600000e+001 1.000000e+002 1.000000e+002
      vertex   -6.300000e+001 8.750000e+001 1.000000e+002
      vertex   -5.600000e+001 5.000000e+001 1.000000e+002
    endloop
  endfacet
  facet normal 0.000000e+000 0.000000e+000 9.830202e-001
    outer loop
      vertex   -5.600000e+001 5.000000e+001 1.000000e+002
      vertex   -6.300000e+001 8.750000e+001 1.000000e+002
      vertex   -6.300000e+001 5.000000e+001 1.000000e+002
    endloop
  endfacet
  facet normal 0.000000e+000 0.000000e+000 9.524242e-001
    outer loop
      vertex   -5.600000e+001 1.000000e+002 1.000000e+002
      vertex   -4.100000e+001 1.000000e+002 1.000000e+002
      vertex   -4.800000e+001 1.250000e+002 1.000000e+002
    endloop
  endfacet
  facet normal -0.000000e+000 0.000000e+000 5.192878e-001
    outer loop
      vertex   -4.800000e+001 1.250000e+002 1.000000e+002
      vertex   -4.100000e+001 1.000000e+002 1.000000e+002
      vertex   -4.100000e+001 1.500000e+002 1.000000e+002
    endloop
  endfacet
  facet normal 0.000000e+000 0.000000e+000 2.696299e-001
    outer loop
      vertex   -4.800000e+001 1.250000e+002 1.000000e+002
      vertex   -4.100000e+001 1.500000e+002 1.000000e+002
      vertex   -4.800000e+001 1.500000e+002 1.000000e+002
    endloop
  endfacet
  facet normal 1.000000e+000 0.000000e+000 0.000000e+000
    outer loop
      vertex   -5.600000e+001 5.000000e+001 0.000000e+000
      vertex   -5.600000e+001 1.000000e+002 0.000000e+000
      vertex   -5.600000e+001 5.000000e+001 5.000000e+001
    endloop
  endfacet
  facet normal 7.071068e-001 -0.000000e+000 0.000000e+000
    outer loop
      vertex   -5.600000e+001 5.000000e+001 5.000000e+001
      vertex   -5.600000e+001 1.000000e+002 0.000000e+000
      vertex   -5.600000e+001 1.000000e+002 5.000000e+001
    endloop
  endfacet
  facet normal 1.000000e+000 0.000000e+000 0.000000e+000
    outer loop
      vertex   -5.600000e+001 5.000000e+001 5.000000e+001
      vertex   -5.600000e+001 1.000000e+002 5.000000e+001
      vertex   -5.600000e+001 5.000000e+001 1.000000e+002
    endloop
  endfacet
  facet normal 7.071068e-001 -0.000000e+000 0.000000e+000
    outer loop
      vertex   -5.600000e+001 5.000000e+001 1.000000e+002
      vertex   -5.600000e+001 1.000000e+002 5.000000e+001
      vertex   -5.600000e+001 1.000000e+002 1.000000e+002
    endloop
  endfacet
  facet normal -1.000000e+000 0.000000e+000 0.000000e+000
    outer loop
      vertex   -4.800000e+001 1.500000e+002 0.000000e+000
      vertex   -4.800000e+001 1.250000e+002 0.000000e+000
      vertex   -4.800000e+001 1.500000e+002 5.000000e+001
    endloop
  endfacet
  facet normal -8.944272e-001 -0.000000e+000 0.000000e+000
    outer loop
      vertex   -4.800000e+001 1.500000e+002 5.000000e+001
      vertex   -4.800000e+001 1.250000e+002 0.000000e+000
      vertex   -4.800000e+001 1.250000e+002 5.000000e+001
    endloop
  endfacet
  facet normal -1.000000e+000 0.000000e+000 0.000000e+000
    outer loop
      vertex   -4.800000e+001 1.500000e+002 5.000000e+001
      vertex   -4.800000e+001 1.250000e+002 5.000000e+001
      vertex   -4.800000e+001 1.500000e+002 1.000000e+002
    endloop
  endfacet
  facet normal -8.944272e-001 -0.000000e+000 0.000000e+000
    outer loop
      vertex   -4.800000e+001 1.500000e+002 1.000000e+002
      vertex   -4.800000e+001 1.250000e+002 5.000000e+001
      vertex   -4.800000e+001 1.250000e+002 1.000000e+002
    endloop
  endfacet
  facet normal -0.000000e+000 -1.000000e+000 -0.000000e+000
    outer loop
      vertex   -5.600000e+001 5.000000e+001 1.000000e+002
      vertex   -6.300000e+001 5.000000e+001 1.000000e+002
      vertex   -5.600000e+001 5.000000e+001 5.000000e+001
    endloop
  endfacet
  facet normal 0.000000e+000 -9.903417e-001 0.000000e+000
    outer loop
      vertex   -5.600000e+001 5.000000e+001 5.000000e+001
      vertex   -6.300000e+001 5.000000e+001 1.000000e+002
      vertex   -6.300000e+001 5.000000e+001 5.000000e+001
    endloop
  endfacet
  facet normal -0.000000e+000 -1.000000e+000 -0.000000e+000
    outer loop
      vertex   -5.600000e+001 5.000000e+001 5.000000e+001
      vertex   -6.300000e+001 5.000000e+001 5.000000e+001
      vertex   -5.600000e+001 5.000000e+001 0.000000e+000
    endloop
  endfacet
  facet normal 0.000000e+000 -9.903417e-001 0.000000e+000
    outer loop
      vertex   -5.600000e+001 5.000000e+001 0.000000e+000
      vertex   -6.300000e+001 5.000000e+001 5.000000e+001
      vertex   -6.300000e+001 5.000000e+001 0.000000e+000
    endloop
  endfacet
  facet normal 0.000000e+000 1.000000e+000 -0.000000e+000
    outer loop
      vertex   -4.100000e+001 1.500000e+002 0.000000e+000
      vertex   -4.800000e+001 1.500000e+002 0.000000e+000
      vertex   -4.100000e+001 1.500000e+002 5.000000e+001
    endloop
  endfacet
  facet normal 0.000000e+000 9.903417e-001 0.000000e+000
    outer loop
      vertex   -4.100000e+001 1.500000e+002 5.000000e+001
      vertex   -4.800000e+001 1.500000e+002 0.000000e+000
      vertex   -4.800000e+001 1.500000e+002 5.000000e+001
    endloop
  endfacet
  facet normal 0.000000e+000 1.000000e+000 -0.000000e+000
    outer loop
      vertex   -4.100000e+001 1.500000e+002 5.000000e+001
      vertex   -4.800000e+001 1.500000e+002 5.000000e+001
      vertex   -4.100000e+001 1.500000e+002 1.000000e+002
    endloop
  endfacet
  facet normal 0.000000e+000 9.903417e-001 0.000000e+000
    outer loop
      vertex   -4.100000e+001 1.500000e+002 1.000000e+002
      vertex   -4.800000e+001 1.500000e+002 5.000000e+001
      vertex   -4.800000e+001 1.500000e+002 1.000000e+002
    endloop
  endfacet
  facet normal 1.000000e+000 0.000000e+000 0.000000e+000
    outer loop
      vertex   -4.100000e+001 1.000000e+002 0.000000e+000
      vertex   -4.100000e+001 1.500000e+002 0.000000e+000
      vertex   -4.100000e+001 1.000000e+002 5.000000e+001
    endloop
  endfacet
  facet normal 7.071068e-001 -0.000000e+000 0.000000e+000
    outer loop
      vertex   -4.100000e+001 1.000000e+002 5.000000e+001
      vertex   -4.100000e+001 1.500000e+002 0.000000e+000
      vertex   -4.100000e+001 1.500000e+002 5.000000e+001
    endloop
  endfacet
  facet normal 1.000000e+000 0.000000e+000 0.000000e+000
    outer loop
      vertex   -4.100000e+001 1.000000e+002 5.000000e+001
      vertex   -4.100000e+001 1.500000e+002 5.000000e+001
      vertex   -4.100000e+001 1.000000e+002 1.000000e+002
    endloop
  endfacet
  facet normal 7.071068e-001 -0.000000e+000 0.000000e+000
    outer loop
      vertex   -4.100000e+001 1.000000e+002 1.000000e+002
      vertex   -4.100000e+001 1.500000e+002 5.000000e+001
      vertex   -4.100000e+001 1.500000e+002 1.000000e+002
    endloop
  endfacet
  facet normal -0.000000e+000 -1.000000e+000 -0.000000e+000
    outer loop
      vertex   -4.100000e+001 1.000000e+002 1.000000e+002
      vertex   -5.600000e+001 1.000000e+002 1.000000e+002
      vertex   -4.100000e+001 1.000000e+002 5.000000e+001
    endloop
  endfacet
  facet normal 0.000000e+000 -9.578263e-001 0.000000e+000
    outer loop
      vertex   -4.100000e+001 1.000000e+002 5.000000e+001
      vertex   -5.600000e+001 1.000000e+002 1.000000e+002
      vertex   -5.600000e+001 1.000000e+002 5.000000e+001
    endloop
  endfacet
  facet normal -0.000000e+000 -1.000000e+000 -0.000000e+000
    outer loop
      vertex   -4.100000e+001 1.000000e+002 5.000000e+001
      vertex   -5.600000e+001 1.000000e+002 5.000000e+001
      vertex   -4.100000e+001 1.000000e+002 0.000000e+000
    endloop
  endfacet
  facet normal 0.000000e+000 -9.578263e-001 0.000000e+000
    outer loop
      vertex   -4.100000e+001 1.000000e+002 0.000000e+000
      vertex   -5.600000e+001 1.000000e+002 5.000000e+001
      vertex   -5.600000e+001 1.000000e+002 0.000000e+000
    endloop
  endfacet
  facet normal 0.000000e+000 0.000000e+000 -1.000000e+000
    outer loop
      vertex   -6.300000e+001 5.000000e+001 0.000000e+000
      vertex   -6.300000e+001 8.750000e+001 0.000000e+000
      vertex   -5.600000e+001 5.000000e+001 0.000000e+000
    endloop
  endfacet
  facet normal 0.000000e+000 0.000000e+000 -1.834971e-001
    outer loop
      vertex   -5.600000e+001 5.000000e+001 0.000000e+000
      vertex   -6.300000e+001 8.750000e+001 0.000000e+000
      vertex   -5.600000e+001 1.000000e+002 0.000000e+000
    endloop
  endfacet
  facet normal -0.000000e+000 0.000000e+000 -7.057612e-001
    outer loop
      vertex   -5.600000e+001 1.000000e+002 0.000000e+000
      vertex   -6.300000e+001 8.750000e+001 0.000000e+000
      vertex   -6.300000e+001 1.250000e+002 0.000000e+000
    endloop
  endfacet
  facet normal 0.000000e+000 0.000000e+000 -5.502901e-001
    outer loop
      vertex   -5.600000e+001 1.000000e+002 0.000000e+000
      vertex   -6.300000e+001 1.250000e+002 0.000000e+000
      vertex   -4.800000e+001 1.250000e+002 0.000000e+000
    endloop
  endfacet
  facet normal 0.000000e+000 0.000000e+000 -1.000000e+000
    outer loop
      vertex   -4.800000e+001 1.500000e+002 0.000000e+000
      vertex   -4.100000e+001 1.500000e+002 0.000000e+000
      vertex   -4.800000e+001 1.250000e+002 0.000000e+000
    endloop
  endfacet
  facet normal 0.000000e+000 0.000000e+000 -5.192878e-001
    outer loop
      vertex   -4.800000e+001 1.250000e+002 0.000000e+000
      vertex   -4.100000e+001 1.500000e+002 0.000000e+000
      vertex   -4.100000e+001 1.000000e+002 0.000000e+000
    endloop
  endfacet
  facet normal 0.000000e+000 -0.000000e+000 -5.502901e-001
    outer loop
      vertex   -4.800000e+001 1.250000e+002 0.000000e+000
      vertex   -4.100000e+001 1.000000e+002 0.000000e+000
      vertex   -5.600000e+001 1.000000e+002 0.000000e+000
    endloop
  endfacet
  facet normal -1.000000e+000 0.000000e+000 0.000000e+000
    outer loop
      vertex   -3.600000e+001 1.500000e+002 0.000000e+000
      vertex   -3.600000e+001 1.000000e+002 0.000000e+000
      vertex   -3.600000e+001 1.500000e+002 5.000000e+001
    endloop
  endfacet
  facet normal -7.071068e-001 -0.000000e+000 0.000000e+000
    outer loop
      vertex   -3.600000e+001 1.500000e+002 5.000000e+001
      vertex   -3.600000e+001 1.000000e+002 0.000000e+000
      vertex   -3.600000e+001 1.000000e+002 5.000000e+001
    endloop
  endfacet
  facet normal -1.000000e+000 0.000000e+000 0.000000e+000
    outer loop
      vertex   -3.600000e+001 1.500000e+002 5.000000e+001
      vertex   -3.600000e+001 1.000000e+002 5.000000e+001
      vertex   -3.600000e+001 1.500000e+002 1.000000e+002
    endloop
  endfacet
  facet normal -7.071068e-001 -0.000000e+000 0.000000e+000
    outer loop
      vertex   -3.600000e+001 1.500000e+002 1.000000e+002
      vertex   -3.600000e+001 1.000000e+002 5.000000e+001
      vertex   -3.600000e+001 1.000000e+002 1.000000e+002
    endloop
  endfacet
  facet normal -7.071068e-001 0.000000e+000 -0.000000e+000
    outer loop
      vertex   -3.600000e+001 1.000000e+002 1.000000e+002
      vertex   -3.600000e+001 1.000000e+002 5.000000e+001
      vertex   -3.600000e+001 5.000000e+001 5.000000e+001
    endloop
  endfacet
  facet normal -7.071068e-001 -0.000000e+000 0.000000e+000
    outer loop
      vertex   -3.600000e+001 1.000000e+002 1.000000e+002
      vertex   -3.600000e+001 5.000000e+001 5.000000e+001
      vertex   -3.600000e+001 5.000000e+001 1.000000e+002
    endloop
  endfacet
  facet normal -1.000000e+000 0.000000e+000 0.000000e+000
    outer loop
      vertex   -3.600000e+001 1.000000e+002 0.000000e+000
      vertex   -3.600000e+001 5.000000e+001 0.000000e+000
      vertex   -3.600000e+001 1.000000e+002 5.000000e+001
    endloop
  endfacet
  facet normal -7.071068e-001 -0.000000e+000 0.000000e+000
    outer loop
      vertex   -3.600000e+001 1.000000e+002 5.000000e+001
      vertex   -3.600000e+001 5.000000e+001 0.000000e+000
      vertex   -3.600000e+001 5.000000e+001 5.000000e+001
    endloop
  endfacet
  facet normal 0.000000e+000 0.000000e+000 -1.000000e+000
    outer loop
      vertex   -3.000000e+001 5.000000e+001 0.000000e+000
      vertex   -3.600000e+001 5.000000e+001 0.000000e+000
      vertex   -3.000000e+001 1.000000e+002 0.000000e+000
    endloop
  endfacet
  facet normal -0.000000e+000 0.000000e+000 -9.928768e-001
    outer loop
      vertex   -3.000000e+001 1.000000e+002 0.000000e+000
      vertex   -3.600000e+001 5.000000e+001 0.000000e+000
      vertex   -3.600000e+001 1.000000e+002 0.000000e+000
    endloop
  endfacet
  facet normal 0.000000e+000 0.000000e+000 -1.000000e+000
    outer loop
      vertex   -3.000000e+001 1.000000e+002 0.000000e+000
      vertex   -3.600000e+001 1.000000e+002 0.000000e+000
      vertex   -3.000000e+001 1.500000e+002 0.000000e+000
    endloop
  endfacet
  facet normal -0.000000e+000 0.000000e+000 -9.928768e-001
    outer loop
      vertex   -3.000000e+001 1.500000e+002 0.000000e+000
      vertex   -3.600000e+001 1.000000e+002 0.000000e+000
      vertex   -3.600000e+001 1.500000e+002 0.000000e+000
    endloop
  endfacet
  facet normal 0.000000e+000 1.000000e+000 -0.000000e+000
    outer loop
      vertex   -3.000000e+001 1.500000e+002 0.000000e+000
      vertex   -3.600000e+001 1.500000e+002 0.000000e+000
      vertex   -3.000000e+001 1.500000e+002 5.000000e+001
    endloop
  endfacet
  facet normal 0.000000e+000 9.928768e-001 0.000000e+000
    outer loop
      vertex   -3.000000e+001 1.500000e+002 5.000000e+001
      vertex   -3.600000e+001 1.500000e+002 0.000000e+000
      vertex   -3.600000e+001 1.500000e+002 5.000000e+001
    endloop
  endfacet
  facet normal 0.000000e+000 1.000000e+000 -0.000000e+000
    outer loop
      vertex   -3.000000e+001 1.500000e+002 5.000000e+001
      vertex   -3.600000e+001 1.500000e+002 5.000000e+001
      vertex   -3.000000e+001 1.500000e+002 1.000000e+002
    endloop
  endfacet
  facet normal 0.000000e+000 9.928768e-001 0.000000e+000
    outer loop
      vertex   -3.000000e+001 1.500000e+002 1.000000e+002
      vertex   -3.600000e+001 1.500000e+002 5.000000e+001
      vertex   -3.600000e+001 1.500000e+002 1.000000e+002
    endloop
  endfacet
  facet normal 1.000000e+000 0.000000e+000 0.000000e+000
    outer loop
      vertex   -3.000000e+001 5.000000e+001 0.000000e+000
      vertex   -3.000000e+001 1.000000e+002 0.000000e+000
      vertex   -3.000000e+001 5.000000e+001 5.000000e+001
    endloop
  endfacet
  facet normal 7.071068e-001 -0.000000e+000 0.000000e+000
    outer loop
      vertex   -3.000000e+001 5.000000e+001 5.000000e+001
      vertex   -3.000000e+001 1.000000e+002 0.000000e+000
      vertex   -3.000000e+001 1.000000e+002 5.000000e+001
    endloop
  endfacet
  facet normal 1.000000e+000 0.000000e+000 0.000000e+000
    outer loop
      vertex   -3.000000e+001 5.000000e+001 5.000000e+001
      vertex   -3.000000e+001 1.000000e+002 5.000000e+001
      vertex   -3.000000e+001 5.000000e+001 1.000000e+002
    endloop
  endfacet
  facet normal 7.071068e-001 -0.000000e+000 0.000000e+000
    outer loop
      vertex   -3.000000e+001 5.000000e+001 1.000000e+002
      vertex   -3.000000e+001 1.000000e+002 5.000000e+001
      vertex   -3.000000e+001 1.000000e+002 1.000000e+002
    endloop
  endfacet
  facet normal 7.071068e-001 0.000000e+000 0.000000e+000
    outer loop
      vertex   -3.000000e+001 1.000000e+002 1.000000e+002
      vertex   -3.000000e+001 1.000000e+002 5.000000e+001
      vertex   -3.000000e+001 1.500000e+002 5.000000e+001
    endloop
  endfacet
  facet normal 7.071068e-001 -0.000000e+000 0.000000e+000
    outer loop
      vertex   -3.000000e+001 1.000000e+002 1.000000e+002
      vertex   -3.000000e+001 1.500000e+002 5.000000e+001
      vertex   -3.000000e+001 1.500000e+002 1.000000e+002
    endloop
  endfacet
  facet normal 1.000000e+000 0.000000e+000 0.000000e+000
    outer loop
      vertex   -3.000000e+001 1.000000e+002 0.000000e+000
      vertex   -3.000000e+001 1.500000e+002 0.000000e+000
      vertex   -3.000000e+001 1.000000e+002 5.000000e+001
    endloop
  endfacet
  facet normal 7.071068e-001 -0.000000e+000 0.000000e+000
    outer loop
      vertex   -3.000000e+001 1.000000e+002 5.000000e+001
      vertex   -3.000000e+001 1.500000e+002 0.000000e+000
      vertex   -3.000000e+001 1.500000e+002 5.000000e+001
    endloop
  endfacet
  facet normal -0.000000e+000 -1.000000e+000 -0.000000e+000
    outer loop
      vertex   -3.000000e+001 5.000000e+001 1.000000e+002
      vertex   -3.600000e+001 5.000000e+001 1.000000e+002
      vertex   -3.000000e+001 5.000000e+001 5.000000e+001
    endloop
  endfacet
  facet normal 0.000000e+000 -9.928768e-001 0.000000e+000
    outer loop
      vertex   -3.000000e+001 5.000000e+001 5.000000e+001
      vertex   -3.600000e+001 5.000000e+001 1.000000e+002
      vertex   -3.600000e+001 5.000000e+001 5.000000e+001
    endloop
  endfacet
  facet normal -0.000000e+000 -1.000000e+000 -0.000000e+000
    outer loop
      vertex   -3.000000e+001 5.000000e+001 5.000000e+001
      vertex   -3.600000e+001 5.000000e+001 5.000000e+001
      vertex   -3.000000e+001 5.000000e+001 0.000000e+000
    endloop
  endfacet
  facet normal 0.000000e+000 -9.928768e-001 0.000000e+000
    outer loop
      vertex   -3.000000e+001 5.000000e+001 0.000000e+000
      vertex   -3.600000e+001 5.000000e+001 5.000000e+001
      vertex   -3.600000e+001 5.000000e+001 0.000000e+000
    endloop
  endfacet
  facet normal 0.000000e+000 0.000000e+000 1.000000e+000
    outer loop
      vertex   -3.000000e+001 1.500000e+002 1.000000e+002
      vertex   -3.600000e+001 1.500000e+002 1.000000e+002
      vertex   -3.000000e+001 1.000000e+002 1.000000e+002
    endloop
  endfacet
  facet normal 0.000000e+000 0.000000e+000 9.928768e-001
    outer loop
      vertex   -3.000000e+001 1.000000e+002 1.000000e+002
      vertex   -3.600000e+001 1.500000e+002 1.000000e+002
      vertex   -3.600000e+001 1.000000e+002 1.000000e+002
    endloop
  endfacet
  facet normal 0.000000e+000 0.000000e+000 1.000000e+000
    outer loop
      vertex   -3.000000e+001 1.000000e+002 1.000000e+002
      vertex   -3.600000e+001 1.000000e+002 1.000000e+002
      vertex   -3.000000e+001 5.000000e+001 1.000000e+002
    endloop
  endfacet
  facet normal 0.000000e+000 0.000000e+000 9.928768e-001
    outer loop
      vertex   -3.000000e+001 5.000000e+001 1.000000e+002
      vertex   -3.600000e+001 1.000000e+002 1.000000e+002
      vertex   -3.600000e+001 5.000000e+001 1.000000e+002
    endloop
  endfacet
endsolid
