solid ascii
  facet normal -1.000000e+000 0.000000e+000 0.000000e+000
    outer loop
      vertex   -2.060000e+002 1.250000e+002 4.750000e+001
      vertex   -2.060000e+002 1.200000e+002 4.750000e+001
      vertex   -2.060000e+002 1.250000e+002 5.250000e+001
    endloop
  endfacet
  facet normal -7.071068e-001 -0.000000e+000 0.000000e+000
    outer loop
      vertex   -2.060000e+002 1.250000e+002 5.250000e+001
      vertex   -2.060000e+002 1.200000e+002 4.750000e+001
      vertex   -2.060000e+002 1.200000e+002 5.250000e+001
    endloop
  endfacet
  facet normal 0.000000e+000 1.000000e+000 -0.000000e+000
    outer loop
      vertex   -1.860000e+002 1.250000e+002 4.750000e+001
      vertex   -2.060000e+002 1.250000e+002 4.750000e+001
      vertex   -1.860000e+002 1.250000e+002 5.250000e+001
    endloop
  endfacet
  facet normal 0.000000e+000 2.425356e-001 0.000000e+000
    outer loop
      vertex   -1.860000e+002 1.250000e+002 5.250000e+001
      vertex   -2.060000e+002 1.250000e+002 4.750000e+001
      vertex   -2.060000e+002 1.250000e+002 5.250000e+001
    endloop
  endfacet
  facet normal 1.000000e+000 0.000000e+000 0.000000e+000
    outer loop
      vertex   -1.860000e+002 1.200000e+002 4.750000e+001
      vertex   -1.860000e+002 1.250000e+002 4.750000e+001
      vertex   -1.860000e+002 1.200000e+002 5.250000e+001
    endloop
  endfacet
  facet normal 7.071068e-001 -0.000000e+000 0.000000e+000
    outer loop
      vertex   -1.860000e+002 1.200000e+002 5.250000e+001
      vertex   -1.860000e+002 1.250000e+002 4.750000e+001
      vertex   -1.860000e+002 1.250000e+002 5.250000e+001
    endloop
  endfacet
  facet normal 0.000000e+000 -1.000000e+000 0.000000e+000
    outer loop
      vertex   -2.060000e+002 1.200000e+002 4.750000e+001
      vertex   -1.860000e+002 1.200000e+002 4.750000e+001
      vertex   -2.060000e+002 1.200000e+002 5.250000e+001
    endloop
  endfacet
  facet normal 0.000000e+000 -2.425356e-001 0.000000e+000
    outer loop
      vertex   -2.060000e+002 1.200000e+002 5.250000e+001
      vertex   -1.860000e+002 1.200000e+002 4.750000e+001
      vertex   -1.860000e+002 1.200000e+002 5.250000e+001
    endloop
  endfacet
  facet normal 0.000000e+000 0.000000e+000 1.000000e+000
    outer loop
      vertex   -2.060000e+002 1.200000e+002 5.250000e+001
      vertex   -1.860000e+002 1.200000e+002 5.250000e+001
      vertex   -2.060000e+002 1.250000e+002 5.250000e+001
    endloop
  endfacet
  facet normal -0.000000e+000 0.000000e+000 2.425356e-001
    outer loop
      vertex   -2.060000e+002 1.250000e+002 5.250000e+001
      vertex   -1.860000e+002 1.200000e+002 5.250000e+001
      vertex   -1.860000e+002 1.250000e+002 5.250000e+001
    endloop
  endfacet
  facet normal 0.000000e+000 0.000000e+000 -1.000000e+000
    outer loop
      vertex   -1.860000e+002 1.200000e+002 4.750000e+001
      vertex   -2.060000e+002 1.200000e+002 4.750000e+001
      vertex   -1.860000e+002 1.250000e+002 4.750000e+001
    endloop
  endfacet
  facet normal -0.000000e+000 0.000000e+000 -2.425356e-001
    outer loop
      vertex   -1.860000e+002 1.250000e+002 4.750000e+001
      vertex   -2.060000e+002 1.200000e+002 4.750000e+001
      vertex   -2.060000e+002 1.250000e+002 4.750000e+001
    endloop
  endfacet
endsolid
