solid ascii
  facet normal 0.000000e+000 -1.000000e+000 0.000000e+000
    outer loop
      vertex   -7.500000e+001 1.800000e+002 0.000000e+000
      vertex   -7.000000e+001 1.800000e+002 0.000000e+000
      vertex   -7.500000e+001 1.800000e+002 5.000000e+001
    endloop
  endfacet
  facet normal 0.000000e+000 -9.950372e-001 0.000000e+000
    outer loop
      vertex   -7.500000e+001 1.800000e+002 5.000000e+001
      vertex   -7.000000e+001 1.800000e+002 0.000000e+000
      vertex   -7.000000e+001 1.800000e+002 5.000000e+001
    endloop
  endfacet
  facet normal 0.000000e+000 -1.000000e+000 0.000000e+000
    outer loop
      vertex   -7.500000e+001 1.800000e+002 5.000000e+001
      vertex   -7.000000e+001 1.800000e+002 5.000000e+001
      vertex   -7.500000e+001 1.800000e+002 1.000000e+002
    endloop
  endfacet
  facet normal 0.000000e+000 -9.950372e-001 0.000000e+000
    outer loop
      vertex   -7.500000e+001 1.800000e+002 1.000000e+002
      vertex   -7.000000e+001 1.800000e+002 5.000000e+001
      vertex   -7.000000e+001 1.800000e+002 1.000000e+002
    endloop
  endfacet
  facet normal -1.000000e+000 0.000000e+000 0.000000e+000
    outer loop
      vertex   -7.500000e+001 1.850000e+002 0.000000e+000
      vertex   -7.500000e+001 1.800000e+002 0.000000e+000
      vertex   -7.500000e+001 1.850000e+002 5.000000e+001
    endloop
  endfacet
  facet normal -9.950372e-001 -0.000000e+000 0.000000e+000
    outer loop
      vertex   -7.500000e+001 1.850000e+002 5.000000e+001
      vertex   -7.500000e+001 1.800000e+002 0.000000e+000
      vertex   -7.500000e+001 1.800000e+002 5.000000e+001
    endloop
  endfacet
  facet normal -1.000000e+000 0.000000e+000 0.000000e+000
    outer loop
      vertex   -7.500000e+001 1.850000e+002 5.000000e+001
      vertex   -7.500000e+001 1.800000e+002 5.000000e+001
      vertex   -7.500000e+001 1.850000e+002 1.000000e+002
    endloop
  endfacet
  facet normal -9.950372e-001 -0.000000e+000 0.000000e+000
    outer loop
      vertex   -7.500000e+001 1.850000e+002 1.000000e+002
      vertex   -7.500000e+001 1.800000e+002 5.000000e+001
      vertex   -7.500000e+001 1.800000e+002 1.000000e+002
    endloop
  endfacet
  facet normal 0.000000e+000 1.000000e+000 -0.000000e+000
    outer loop
      vertex   -7.000000e+001 2.350000e+002 0.000000e+000
      vertex   -8.000000e+001 2.350000e+002 0.000000e+000
      vertex   -7.000000e+001 2.350000e+002 5.000000e+001
    endloop
  endfacet
  facet normal 0.000000e+000 9.805807e-001 0.000000e+000
    outer loop
      vertex   -7.000000e+001 2.350000e+002 5.000000e+001
      vertex   -8.000000e+001 2.350000e+002 0.000000e+000
      vertex   -8.000000e+001 2.350000e+002 5.000000e+001
    endloop
  endfacet
  facet normal 0.000000e+000 1.000000e+000 -0.000000e+000
    outer loop
      vertex   -7.000000e+001 2.350000e+002 5.000000e+001
      vertex   -8.000000e+001 2.350000e+002 5.000000e+001
      vertex   -7.000000e+001 2.350000e+002 1.000000e+002
    endloop
  endfacet
  facet normal 0.000000e+000 9.805807e-001 0.000000e+000
    outer loop
      vertex   -7.000000e+001 2.350000e+002 1.000000e+002
      vertex   -8.000000e+001 2.350000e+002 5.000000e+001
      vertex   -8.000000e+001 2.350000e+002 1.000000e+002
    endloop
  endfacet
  facet normal 1.000000e+000 0.000000e+000 0.000000e+000
    outer loop
      vertex   -7.000000e+001 1.800000e+002 0.000000e+000
      vertex   -7.000000e+001 2.350000e+002 0.000000e+000
      vertex   -7.000000e+001 1.800000e+002 5.000000e+001
    endloop
  endfacet
  facet normal 6.726728e-001 -0.000000e+000 0.000000e+000
    outer loop
      vertex   -7.000000e+001 1.800000e+002 5.000000e+001
      vertex   -7.000000e+001 2.350000e+002 0.000000e+000
      vertex   -7.000000e+001 2.350000e+002 5.000000e+001
    endloop
  endfacet
  facet normal 1.000000e+000 0.000000e+000 0.000000e+000
    outer loop
      vertex   -7.000000e+001 1.800000e+002 5.000000e+001
      vertex   -7.000000e+001 2.350000e+002 5.000000e+001
      vertex   -7.000000e+001 1.800000e+002 1.000000e+002
    endloop
  endfacet
  facet normal 6.726728e-001 -0.000000e+000 0.000000e+000
    outer loop
      vertex   -7.000000e+001 1.800000e+002 1.000000e+002
      vertex   -7.000000e+001 2.350000e+002 5.000000e+001
      vertex   -7.000000e+001 2.350000e+002 1.000000e+002
    endloop
  endfacet
  facet normal 0.000000e+000 -1.000000e+000 0.000000e+000
    outer loop
      vertex   -8.000000e+001 1.850000e+002 0.000000e+000
      vertex   -7.500000e+001 1.850000e+002 0.000000e+000
      vertex   -8.000000e+001 1.850000e+002 5.000000e+001
    endloop
  endfacet
  facet normal 0.000000e+000 -9.950372e-001 0.000000e+000
    outer loop
      vertex   -8.000000e+001 1.850000e+002 5.000000e+001
      vertex   -7.500000e+001 1.850000e+002 0.000000e+000
      vertex   -7.500000e+001 1.850000e+002 5.000000e+001
    endloop
  endfacet
  facet normal 0.000000e+000 -1.000000e+000 0.000000e+000
    outer loop
      vertex   -8.000000e+001 1.850000e+002 5.000000e+001
      vertex   -7.500000e+001 1.850000e+002 5.000000e+001
      vertex   -8.000000e+001 1.850000e+002 1.000000e+002
    endloop
  endfacet
  facet normal 0.000000e+000 -9.950372e-001 0.000000e+000
    outer loop
      vertex   -8.000000e+001 1.850000e+002 1.000000e+002
      vertex   -7.500000e+001 1.850000e+002 5.000000e+001
      vertex   -7.500000e+001 1.850000e+002 1.000000e+002
    endloop
  endfacet
  facet normal -1.000000e+000 0.000000e+000 0.000000e+000
    outer loop
      vertex   -8.000000e+001 2.350000e+002 0.000000e+000
      vertex   -8.000000e+001 1.850000e+002 0.000000e+000
      vertex   -8.000000e+001 2.350000e+002 5.000000e+001
    endloop
  endfacet
  facet normal -7.071068e-001 -0.000000e+000 0.000000e+000
    outer loop
      vertex   -8.000000e+001 2.350000e+002 5.000000e+001
      vertex   -8.000000e+001 1.850000e+002 0.000000e+000
      vertex   -8.000000e+001 1.850000e+002 5.000000e+001
    endloop
  endfacet
  facet normal -1.000000e+000 0.000000e+000 0.000000e+000
    outer loop
      vertex   -8.000000e+001 2.350000e+002 5.000000e+001
      vertex   -8.000000e+001 1.850000e+002 5.000000e+001
      vertex   -8.000000e+001 2.350000e+002 1.000000e+002
    endloop
  endfacet
  facet normal -7.071068e-001 -0.000000e+000 0.000000e+000
    outer loop
      vertex   -8.000000e+001 2.350000e+002 1.000000e+002
      vertex   -8.000000e+001 1.850000e+002 5.000000e+001
      vertex   -8.000000e+001 1.850000e+002 1.000000e+002
    endloop
  endfacet
  facet normal 0.000000e+000 0.000000e+000 1.000000e+000
    outer loop
      vertex   -8.000000e+001 1.850000e+002 1.000000e+002
      vertex   -7.500000e+001 1.850000e+002 1.000000e+002
      vertex   -8.000000e+001 2.350000e+002 1.000000e+002
    endloop
  endfacet
  facet normal -0.000000e+000 0.000000e+000 9.950372e-001
    outer loop
      vertex   -8.000000e+001 2.350000e+002 1.000000e+002
      vertex   -7.500000e+001 1.850000e+002 1.000000e+002
      vertex   -7.000000e+001 2.350000e+002 1.000000e+002
    endloop
  endfacet
  facet normal 0.000000e+000 0.000000e+000 9.950372e-002
    outer loop
      vertex   -7.000000e+001 2.350000e+002 1.000000e+002
      vertex   -7.500000e+001 1.850000e+002 1.000000e+002
      vertex   -7.000000e+001 1.800000e+002 1.000000e+002
    endloop
  endfacet
  facet normal 0.000000e+000 0.000000e+000 7.071068e-001
    outer loop
      vertex   -7.000000e+001 1.800000e+002 1.000000e+002
      vertex   -7.500000e+001 1.850000e+002 1.000000e+002
      vertex   -7.500000e+001 1.800000e+002 1.000000e+002
    endloop
  endfacet
  facet normal 0.000000e+000 0.000000e+000 -1.000000e+000
    outer loop
      vertex   -8.000000e+001 1.850000e+002 0.000000e+000
      vertex   -8.000000e+001 2.350000e+002 0.000000e+000
      vertex   -7.500000e+001 1.850000e+002 0.000000e+000
    endloop
  endfacet
  facet normal 0.000000e+000 0.000000e+000 -1.980198e-001
    outer loop
      vertex   -7.500000e+001 1.850000e+002 0.000000e+000
      vertex   -8.000000e+001 2.350000e+002 0.000000e+000
      vertex   -7.000000e+001 2.350000e+002 0.000000e+000
    endloop
  endfacet
  facet normal 0.000000e+000 0.000000e+000 -7.739573e-001
    outer loop
      vertex   -7.500000e+001 1.850000e+002 0.000000e+000
      vertex   -7.000000e+001 2.350000e+002 0.000000e+000
      vertex   -7.000000e+001 1.800000e+002 0.000000e+000
    endloop
  endfacet
  facet normal 0.000000e+000 0.000000e+000 -7.071068e-001
    outer loop
      vertex   -7.000000e+001 1.800000e+002 0.000000e+000
      vertex   -7.500000e+001 1.800000e+002 0.000000e+000
      vertex   -7.500000e+001 1.850000e+002 0.000000e+000
    endloop
  endfacet
endsolid
