solid ascii
  facet normal 1.000000e+000 -7.105427e-016 0.000000e+000
    outer loop
      vertex   -4.884981e-014 -3.552714e-014 0.000000e+000
      vertex   -1.332268e-014 5.000000e+001 0.000000e+000
      vertex   -4.884981e-014 -3.552714e-014 5.000000e+000
    endloop
  endfacet
  facet normal 9.950372e-002 -7.070164e-017 0.000000e+000
    outer loop
      vertex   -4.884981e-014 -3.552714e-014 5.000000e+000
      vertex   -1.332268e-014 5.000000e+001 0.000000e+000
      vertex   -1.332268e-014 5.000000e+001 5.000000e+000
    endloop
  endfacet
  facet normal 0.000000e+000 -1.000000e+000 0.000000e+000
    outer loop
      vertex   -5.000000e+000 -3.552714e-014 0.000000e+000
      vertex   -4.884981e-014 -3.552714e-014 0.000000e+000
      vertex   -5.000000e+000 -3.552714e-014 5.000000e+000
    endloop
  endfacet
  facet normal 0.000000e+000 -7.071068e-001 0.000000e+000
    outer loop
      vertex   -5.000000e+000 -3.552714e-014 5.000000e+000
      vertex   -4.884981e-014 -3.552714e-014 0.000000e+000
      vertex   -4.884981e-014 -3.552714e-014 5.000000e+000
    endloop
  endfacet
  facet normal -1.000000e+000 0.000000e+000 0.000000e+000
    outer loop
      vertex   -5.000000e+000 4.500000e+001 0.000000e+000
      vertex   -5.000000e+000 -3.552714e-014 0.000000e+000
      vertex   -5.000000e+000 4.500000e+001 5.000000e+000
    endloop
  endfacet
  facet normal -1.104315e-001 -0.000000e+000 0.000000e+000
    outer loop
      vertex   -5.000000e+000 4.500000e+001 5.000000e+000
      vertex   -5.000000e+000 -3.552714e-014 0.000000e+000
      vertex   -5.000000e+000 -3.552714e-014 5.000000e+000
    endloop
  endfacet
  facet normal 0.000000e+000 -1.000000e+000 0.000000e+000
    outer loop
      vertex   -4.500000e+001 4.500000e+001 0.000000e+000
      vertex   -5.000000e+000 4.500000e+001 0.000000e+000
      vertex   -4.500000e+001 4.500000e+001 5.000000e+000
    endloop
  endfacet
  facet normal 0.000000e+000 -1.240347e-001 0.000000e+000
    outer loop
      vertex   -4.500000e+001 4.500000e+001 5.000000e+000
      vertex   -5.000000e+000 4.500000e+001 0.000000e+000
      vertex   -5.000000e+000 4.500000e+001 5.000000e+000
    endloop
  endfacet
  facet normal 1.000000e+000 0.000000e+000 0.000000e+000
    outer loop
      vertex   -4.500000e+001 -3.552714e-014 0.000000e+000
      vertex   -4.500000e+001 4.500000e+001 0.000000e+000
      vertex   -4.500000e+001 -3.552714e-014 5.000000e+000
    endloop
  endfacet
  facet normal 1.104315e-001 -0.000000e+000 0.000000e+000
    outer loop
      vertex   -4.500000e+001 -3.552714e-014 5.000000e+000
      vertex   -4.500000e+001 4.500000e+001 0.000000e+000
      vertex   -4.500000e+001 4.500000e+001 5.000000e+000
    endloop
  endfacet
  facet normal 0.000000e+000 -1.000000e+000 0.000000e+000
    outer loop
      vertex   -5.000000e+001 -3.552714e-014 0.000000e+000
      vertex   -4.500000e+001 -3.552714e-014 0.000000e+000
      vertex   -5.000000e+001 -3.552714e-014 5.000000e+000
    endloop
  endfacet
  facet normal 0.000000e+000 -7.071068e-001 0.000000e+000
    outer loop
      vertex   -5.000000e+001 -3.552714e-014 5.000000e+000
      vertex   -4.500000e+001 -3.552714e-014 0.000000e+000
      vertex   -4.500000e+001 -3.552714e-014 5.000000e+000
    endloop
  endfacet
  facet normal -1.000000e+000 0.000000e+000 0.000000e+000
    outer loop
      vertex   -5.000000e+001 5.000000e+001 0.000000e+000
      vertex   -5.000000e+001 -3.552714e-014 0.000000e+000
      vertex   -5.000000e+001 5.000000e+001 5.000000e+000
    endloop
  endfacet
  facet normal -9.950372e-002 -0.000000e+000 0.000000e+000
    outer loop
      vertex   -5.000000e+001 5.000000e+001 5.000000e+000
      vertex   -5.000000e+001 -3.552714e-014 0.000000e+000
      vertex   -5.000000e+001 -3.552714e-014 5.000000e+000
    endloop
  endfacet
  facet normal 0.000000e+000 1.000000e+000 -0.000000e+000
    outer loop
      vertex   -1.332268e-014 5.000000e+001 0.000000e+000
      vertex   -5.000000e+001 5.000000e+001 0.000000e+000
      vertex   -1.332268e-014 5.000000e+001 5.000000e+000
    endloop
  endfacet
  facet normal 0.000000e+000 9.950372e-002 0.000000e+000
    outer loop
      vertex   -1.332268e-014 5.000000e+001 5.000000e+000
      vertex   -5.000000e+001 5.000000e+001 0.000000e+000
      vertex   -5.000000e+001 5.000000e+001 5.000000e+000
    endloop
  endfacet
  facet normal 0.000000e+000 -0.000000e+000 1.104315e-001
    outer loop
      vertex   -4.884981e-014 -3.552714e-014 5.000000e+000
      vertex   -1.332268e-014 5.000000e+001 5.000000e+000
      vertex   -5.000000e+000 4.500000e+001 5.000000e+000
    endloop
  endfacet
  facet normal 0.000000e+000 -0.000000e+000 7.808688e-001
    outer loop
      vertex   -5.000000e+000 4.500000e+001 5.000000e+000
      vertex   -1.332268e-014 5.000000e+001 5.000000e+000
      vertex   -5.000000e+001 5.000000e+001 5.000000e+000
    endloop
  endfacet
  facet normal 0.000000e+000 0.000000e+000 1.104315e-001
    outer loop
      vertex   -5.000000e+000 4.500000e+001 5.000000e+000
      vertex   -5.000000e+001 5.000000e+001 5.000000e+000
      vertex   -4.500000e+001 4.500000e+001 5.000000e+000
    endloop
  endfacet
  facet normal 0.000000e+000 0.000000e+000 7.808688e-001
    outer loop
      vertex   -4.500000e+001 4.500000e+001 5.000000e+000
      vertex   -5.000000e+001 5.000000e+001 5.000000e+000
      vertex   -5.000000e+001 -3.552714e-014 5.000000e+000
    endloop
  endfacet
  facet normal 0.000000e+000 0.000000e+000 1.104315e-001
    outer loop
      vertex   -4.500000e+001 4.500000e+001 5.000000e+000
      vertex   -5.000000e+001 -3.552714e-014 5.000000e+000
      vertex   -4.500000e+001 -3.552714e-014 5.000000e+000
    endloop
  endfacet
  facet normal 0.000000e+000 0.000000e+000 1.104315e-001
    outer loop
      vertex   -5.000000e+000 4.500000e+001 5.000000e+000
      vertex   -5.000000e+000 -3.552714e-014 5.000000e+000
      vertex   -4.884981e-014 -3.552714e-014 5.000000e+000
    endloop
  endfacet
  facet normal 0.000000e+000 0.000000e+000 -1.104315e-001
    outer loop
      vertex   -5.000000e+001 -3.552714e-014 0.000000e+000
      vertex   -5.000000e+001 5.000000e+001 0.000000e+000
      vertex   -4.500000e+001 4.500000e+001 0.000000e+000
    endloop
  endfacet
  facet normal 0.000000e+000 0.000000e+000 -7.808688e-001
    outer loop
      vertex   -4.500000e+001 4.500000e+001 0.000000e+000
      vertex   -5.000000e+001 5.000000e+001 0.000000e+000
      vertex   -1.332268e-014 5.000000e+001 0.000000e+000
    endloop
  endfacet
  facet normal 0.000000e+000 0.000000e+000 -1.104315e-001
    outer loop
      vertex   -4.500000e+001 4.500000e+001 0.000000e+000
      vertex   -1.332268e-014 5.000000e+001 0.000000e+000
      vertex   -5.000000e+000 4.500000e+001 0.000000e+000
    endloop
  endfacet
  facet normal 0.000000e+000 0.000000e+000 -7.808688e-001
    outer loop
      vertex   -5.000000e+000 4.500000e+001 0.000000e+000
      vertex   -1.332268e-014 5.000000e+001 0.000000e+000
      vertex   -4.884981e-014 -3.552714e-014 0.000000e+000
    endloop
  endfacet
  facet normal 0.000000e+000 0.000000e+000 -1.104315e-001
    outer loop
      vertex   -5.000000e+000 4.500000e+001 0.000000e+000
      vertex   -4.884981e-014 -3.552714e-014 0.000000e+000
      vertex   -5.000000e+000 -3.552714e-014 0.000000e+000
    endloop
  endfacet
  facet normal 0.000000e+000 -0.000000e+000 -1.104315e-001
    outer loop
      vertex   -4.500000e+001 4.500000e+001 0.000000e+000
      vertex   -4.500000e+001 -3.552714e-014 0.000000e+000
      vertex   -5.000000e+001 -3.552714e-014 0.000000e+000
    endloop
  endfacet
endsolid
