solid ascii
  facet normal 0.000000e+000 -1.000000e+000 0.000000e+000
    outer loop
      vertex   -2.400000e+001 1.000000e+000 0.000000e+000
      vertex   -6.000000e+000 1.000000e+000 0.000000e+000
      vertex   -2.400000e+001 1.000000e+000 5.000000e+000
    endloop
  endfacet
  facet normal 0.000000e+000 -2.676439e-001 0.000000e+000
    outer loop
      vertex   -2.400000e+001 1.000000e+000 5.000000e+000
      vertex   -6.000000e+000 1.000000e+000 0.000000e+000
      vertex   -6.000000e+000 1.000000e+000 5.000000e+000
    endloop
  endfacet
  facet normal -1.000000e+000 0.000000e+000 0.000000e+000
    outer loop
      vertex   -2.400000e+001 4.400000e+001 0.000000e+000
      vertex   -2.400000e+001 1.000000e+000 0.000000e+000
      vertex   -2.400000e+001 4.400000e+001 5.000000e+000
    endloop
  endfacet
  facet normal -1.155009e-001 -0.000000e+000 0.000000e+000
    outer loop
      vertex   -2.400000e+001 4.400000e+001 5.000000e+000
      vertex   -2.400000e+001 1.000000e+000 0.000000e+000
      vertex   -2.400000e+001 1.000000e+000 5.000000e+000
    endloop
  endfacet
  facet normal 0.000000e+000 1.000000e+000 -0.000000e+000
    outer loop
      vertex   -6.000000e+000 4.400000e+001 0.000000e+000
      vertex   -2.400000e+001 4.400000e+001 0.000000e+000
      vertex   -6.000000e+000 4.400000e+001 5.000000e+000
    endloop
  endfacet
  facet normal 0.000000e+000 2.676439e-001 0.000000e+000
    outer loop
      vertex   -6.000000e+000 4.400000e+001 5.000000e+000
      vertex   -2.400000e+001 4.400000e+001 0.000000e+000
      vertex   -2.400000e+001 4.400000e+001 5.000000e+000
    endloop
  endfacet
  facet normal 1.000000e+000 0.000000e+000 0.000000e+000
    outer loop
      vertex   -6.000000e+000 1.000000e+000 0.000000e+000
      vertex   -6.000000e+000 4.400000e+001 0.000000e+000
      vertex   -6.000000e+000 1.000000e+000 5.000000e+000
    endloop
  endfacet
  facet normal 1.155009e-001 -0.000000e+000 0.000000e+000
    outer loop
      vertex   -6.000000e+000 1.000000e+000 5.000000e+000
      vertex   -6.000000e+000 4.400000e+001 0.000000e+000
      vertex   -6.000000e+000 4.400000e+001 5.000000e+000
    endloop
  endfacet
  facet normal 0.000000e+000 0.000000e+000 1.000000e+000
    outer loop
      vertex   -6.000000e+000 4.400000e+001 5.000000e+000
      vertex   -2.400000e+001 4.400000e+001 5.000000e+000
      vertex   -6.000000e+000 1.000000e+000 5.000000e+000
    endloop
  endfacet
  facet normal 0.000000e+000 0.000000e+000 9.224410e-001
    outer loop
      vertex   -6.000000e+000 1.000000e+000 5.000000e+000
      vertex   -2.400000e+001 4.400000e+001 5.000000e+000
      vertex   -2.400000e+001 1.000000e+000 5.000000e+000
    endloop
  endfacet
  facet normal 0.000000e+000 0.000000e+000 -1.000000e+000
    outer loop
      vertex   -6.000000e+000 1.000000e+000 0.000000e+000
      vertex   -2.400000e+001 1.000000e+000 0.000000e+000
      vertex   -6.000000e+000 4.400000e+001 0.000000e+000
    endloop
  endfacet
  facet normal -0.000000e+000 0.000000e+000 -9.224410e-001
    outer loop
      vertex   -6.000000e+000 4.400000e+001 0.000000e+000
      vertex   -2.400000e+001 1.000000e+000 0.000000e+000
      vertex   -2.400000e+001 4.400000e+001 0.000000e+000
    endloop
  endfacet
endsolid
