solid ascii
  facet normal 0.000000e+000 1.000000e+000 -0.000000e+000
    outer loop
      vertex   -1.975000e+002 2.000000e+002 0.000000e+000
      vertex   -2.025000e+002 2.000000e+002 0.000000e+000
      vertex   -1.975000e+002 2.000000e+002 4.000000e+001
    endloop
  endfacet
  facet normal 0.000000e+000 9.922779e-001 0.000000e+000
    outer loop
      vertex   -1.975000e+002 2.000000e+002 4.000000e+001
      vertex   -2.025000e+002 2.000000e+002 0.000000e+000
      vertex   -2.025000e+002 2.000000e+002 4.000000e+001
    endloop
  endfacet
  facet normal 1.000000e+000 0.000000e+000 0.000000e+000
    outer loop
      vertex   -1.975000e+002 1.750000e+002 0.000000e+000
      vertex   -1.975000e+002 2.000000e+002 0.000000e+000
      vertex   -1.975000e+002 1.750000e+002 4.000000e+001
    endloop
  endfacet
  facet normal 8.479983e-001 -0.000000e+000 0.000000e+000
    outer loop
      vertex   -1.975000e+002 1.750000e+002 4.000000e+001
      vertex   -1.975000e+002 2.000000e+002 0.000000e+000
      vertex   -1.975000e+002 2.000000e+002 4.000000e+001
    endloop
  endfacet
  facet normal 0.000000e+000 -1.000000e+000 0.000000e+000
    outer loop
      vertex   -2.025000e+002 1.750000e+002 0.000000e+000
      vertex   -1.975000e+002 1.750000e+002 0.000000e+000
      vertex   -2.025000e+002 1.750000e+002 4.000000e+001
    endloop
  endfacet
  facet normal 0.000000e+000 -9.922779e-001 0.000000e+000
    outer loop
      vertex   -2.025000e+002 1.750000e+002 4.000000e+001
      vertex   -1.975000e+002 1.750000e+002 0.000000e+000
      vertex   -1.975000e+002 1.750000e+002 4.000000e+001
    endloop
  endfacet
  facet normal -1.000000e+000 0.000000e+000 0.000000e+000
    outer loop
      vertex   -2.025000e+002 2.000000e+002 0.000000e+000
      vertex   -2.025000e+002 1.750000e+002 0.000000e+000
      vertex   -2.025000e+002 2.000000e+002 4.000000e+001
    endloop
  endfacet
  facet normal -8.479983e-001 -0.000000e+000 0.000000e+000
    outer loop
      vertex   -2.025000e+002 2.000000e+002 4.000000e+001
      vertex   -2.025000e+002 1.750000e+002 0.000000e+000
      vertex   -2.025000e+002 1.750000e+002 4.000000e+001
    endloop
  endfacet
  facet normal 0.000000e+000 0.000000e+000 1.000000e+000
    outer loop
      vertex   -2.025000e+002 1.750000e+002 4.000000e+001
      vertex   -1.975000e+002 1.750000e+002 4.000000e+001
      vertex   -2.025000e+002 2.000000e+002 4.000000e+001
    endloop
  endfacet
  facet normal -0.000000e+000 0.000000e+000 9.805807e-001
    outer loop
      vertex   -2.025000e+002 2.000000e+002 4.000000e+001
      vertex   -1.975000e+002 1.750000e+002 4.000000e+001
      vertex   -1.975000e+002 2.000000e+002 4.000000e+001
    endloop
  endfacet
  facet normal 0.000000e+000 0.000000e+000 -1.000000e+000
    outer loop
      vertex   -2.025000e+002 2.000000e+002 0.000000e+000
      vertex   -1.975000e+002 2.000000e+002 0.000000e+000
      vertex   -2.025000e+002 1.750000e+002 0.000000e+000
    endloop
  endfacet
  facet normal 0.000000e+000 0.000000e+000 -9.805807e-001
    outer loop
      vertex   -2.025000e+002 1.750000e+002 0.000000e+000
      vertex   -1.975000e+002 2.000000e+002 0.000000e+000
      vertex   -1.975000e+002 1.750000e+002 0.000000e+000
    endloop
  endfacet
endsolid
