solid ascii
  facet normal 0.000000e+000 3.077862e-001 -0.000000e+000
    outer loop
      vertex   -1.893390e+001 3.524263e+001 7.918903e+000
      vertex   -1.897343e+001 3.524263e+001 8.041089e+000
      vertex   -1.893390e+001 3.524263e+001 1.025000e+001
    endloop
  endfacet
  facet normal 0.000000e+000 2.947031e-002 0.000000e+000
    outer loop
      vertex   -1.893390e+001 3.524263e+001 1.025000e+001
      vertex   -1.897343e+001 3.524263e+001 8.041089e+000
      vertex   -1.903322e+001 3.524263e+001 8.154741e+000
    endloop
  endfacet
  facet normal 0.000000e+000 4.148951e-002 0.000000e+000
    outer loop
      vertex   -1.893390e+001 3.524263e+001 1.025000e+001
      vertex   -1.903322e+001 3.524263e+001 8.154741e+000
      vertex   -1.911153e+001 3.524263e+001 8.256527e+000
    endloop
  endfacet
  facet normal 0.000000e+000 7.931997e-001 -0.000000e+000
    outer loop
      vertex   -1.911153e+001 3.524263e+001 8.256527e+000
      vertex   -1.920605e+001 3.524263e+001 8.343462e+000
      vertex   -1.893390e+001 3.524263e+001 1.025000e+001
    endloop
  endfacet
  facet normal 0.000000e+000 6.221481e-002 0.000000e+000
    outer loop
      vertex   -1.893390e+001 3.524263e+001 1.025000e+001
      vertex   -1.920605e+001 3.524263e+001 8.343462e+000
      vertex   -1.931402e+001 3.524263e+001 8.412996e+000
    endloop
  endfacet
  facet normal 0.000000e+000 6.789071e-002 0.000000e+000
    outer loop
      vertex   -1.893390e+001 3.524263e+001 1.025000e+001
      vertex   -1.931402e+001 3.524263e+001 8.412996e+000
      vertex   -1.943226e+001 3.524263e+001 8.463093e+000
    endloop
  endfacet
  facet normal 0.000000e+000 9.990894e-001 -0.000000e+000
    outer loop
      vertex   -1.943226e+001 3.524263e+001 8.463093e+000
      vertex   -1.955732e+001 3.524263e+001 8.492283e+000
      vertex   -1.893390e+001 3.524263e+001 1.025000e+001
    endloop
  endfacet
  facet normal 0.000000e+000 6.473672e-002 0.000000e+000
    outer loop
      vertex   -1.893390e+001 3.524263e+001 1.025000e+001
      vertex   -1.955732e+001 3.524263e+001 8.492283e+000
      vertex   -1.968553e+001 3.524263e+001 8.499709e+000
    endloop
  endfacet
  facet normal 0.000000e+000 9.188600e-001 0.000000e+000
    outer loop
      vertex   -1.893390e+001 3.524263e+001 1.025000e+001
      vertex   -1.968553e+001 3.524263e+001 8.499709e+000
      vertex   -2.046464e+001 3.524263e+001 1.025000e+001
    endloop
  endfacet
  facet normal 0.000000e+000 6.510822e-002 0.000000e+000
    outer loop
      vertex   -2.046464e+001 3.524263e+001 1.025000e+001
      vertex   -1.968553e+001 3.524263e+001 8.499709e+000
      vertex   -1.981312e+001 3.524263e+001 8.485155e+000
    endloop
  endfacet
  facet normal 0.000000e+000 6.826293e-002 0.000000e+000
    outer loop
      vertex   -2.046464e+001 3.524263e+001 1.025000e+001
      vertex   -1.981312e+001 3.524263e+001 8.485155e+000
      vertex   -1.993636e+001 3.524263e+001 8.449046e+000
    endloop
  endfacet
  facet normal 0.000000e+000 9.853947e-001 0.000000e+000
    outer loop
      vertex   -1.993636e+001 3.524263e+001 8.449046e+000
      vertex   -2.005164e+001 3.524263e+001 8.392443e+000
      vertex   -2.046464e+001 3.524263e+001 1.025000e+001
    endloop
  endfacet
  facet normal 0.000000e+000 6.018819e-002 0.000000e+000
    outer loop
      vertex   -2.046464e+001 3.524263e+001 1.025000e+001
      vertex   -2.005164e+001 3.524263e+001 8.392443e+000
      vertex   -2.015556e+001 3.524263e+001 8.317004e+000
    endloop
  endfacet
  facet normal 0.000000e+000 5.054069e-002 0.000000e+000
    outer loop
      vertex   -2.046464e+001 3.524263e+001 1.025000e+001
      vertex   -2.015556e+001 3.524263e+001 8.317004e+000
      vertex   -2.024510e+001 3.524263e+001 8.224940e+000
    endloop
  endfacet
  facet normal 0.000000e+000 6.503355e-001 0.000000e+000
    outer loop
      vertex   -2.024510e+001 3.524263e+001 8.224940e+000
      vertex   -2.031761e+001 3.524263e+001 8.118953e+000
      vertex   -2.046464e+001 3.524263e+001 1.025000e+001
    endloop
  endfacet
  facet normal 0.000000e+000 2.723906e-002 0.000000e+000
    outer loop
      vertex   -2.046464e+001 3.524263e+001 1.025000e+001
      vertex   -2.031761e+001 3.524263e+001 8.118953e+000
      vertex   -2.037098e+001 3.524263e+001 8.002148e+000
    endloop
  endfacet
  facet normal 0.000000e+000 1.593173e-002 0.000000e+000
    outer loop
      vertex   -2.046464e+001 3.524263e+001 1.025000e+001
      vertex   -2.037098e+001 3.524263e+001 8.002148e+000
      vertex   -2.040364e+001 3.524263e+001 7.877949e+000
    endloop
  endfacet
  facet normal 0.000000e+000 1.112066e-001 0.000000e+000
    outer loop
      vertex   -2.040364e+001 3.524263e+001 7.877949e+000
      vertex   -2.041464e+001 3.524263e+001 7.750000e+000
      vertex   -2.046464e+001 3.524263e+001 1.025000e+001
    endloop
  endfacet
  facet normal 0.000000e+000 1.999570e-002 0.000000e+000
    outer loop
      vertex   -2.046464e+001 3.524263e+001 1.025000e+001
      vertex   -2.041464e+001 3.524263e+001 7.750000e+000
      vertex   -2.046464e+001 3.524263e+001 5.250000e+000
    endloop
  endfacet
  facet normal 0.000000e+000 5.711354e-003 0.000000e+000
    outer loop
      vertex   -2.046464e+001 3.524263e+001 5.250000e+000
      vertex   -2.041464e+001 3.524263e+001 7.750000e+000
      vertex   -2.040364e+001 3.524263e+001 7.622051e+000
    endloop
  endfacet
  facet normal 0.000000e+000 1.593172e-002 0.000000e+000
    outer loop
      vertex   -2.046464e+001 3.524263e+001 5.250000e+000
      vertex   -2.040364e+001 3.524263e+001 7.622051e+000
      vertex   -2.037098e+001 3.524263e+001 7.497853e+000
    endloop
  endfacet
  facet normal 0.000000e+000 4.530873e-001 0.000000e+000
    outer loop
      vertex   -2.037098e+001 3.524263e+001 7.497853e+000
      vertex   -2.031761e+001 3.524263e+001 7.381047e+000
      vertex   -2.046464e+001 3.524263e+001 5.250000e+000
    endloop
  endfacet
  facet normal 0.000000e+000 3.909744e-002 0.000000e+000
    outer loop
      vertex   -2.046464e+001 3.524263e+001 5.250000e+000
      vertex   -2.031761e+001 3.524263e+001 7.381047e+000
      vertex   -2.024510e+001 3.524263e+001 7.275059e+000
    endloop
  endfacet
  facet normal 0.000000e+000 5.054063e-002 0.000000e+000
    outer loop
      vertex   -2.046464e+001 3.524263e+001 5.250000e+000
      vertex   -2.024510e+001 3.524263e+001 7.275059e+000
      vertex   -2.015556e+001 3.524263e+001 7.182996e+000
    endloop
  endfacet
  facet normal 0.000000e+000 8.918653e-001 0.000000e+000
    outer loop
      vertex   -2.015556e+001 3.524263e+001 7.182996e+000
      vertex   -2.005164e+001 3.524263e+001 7.107557e+000
      vertex   -2.046464e+001 3.524263e+001 5.250000e+000
    endloop
  endfacet
  facet normal 0.000000e+000 6.650116e-002 0.000000e+000
    outer loop
      vertex   -2.046464e+001 3.524263e+001 5.250000e+000
      vertex   -2.005164e+001 3.524263e+001 7.107557e+000
      vertex   -1.993636e+001 3.524263e+001 7.050953e+000
    endloop
  endfacet
  facet normal 0.000000e+000 6.826278e-002 0.000000e+000
    outer loop
      vertex   -2.046464e+001 3.524263e+001 5.250000e+000
      vertex   -1.993636e+001 3.524263e+001 7.050953e+000
      vertex   -1.981312e+001 3.524263e+001 7.014845e+000
    endloop
  endfacet
  facet normal 0.000000e+000 9.713224e-001 0.000000e+000
    outer loop
      vertex   -1.981312e+001 3.524263e+001 7.014845e+000
      vertex   -1.968553e+001 3.524263e+001 7.000291e+000
      vertex   -2.046464e+001 3.524263e+001 5.250000e+000
    endloop
  endfacet
  facet normal 0.000000e+000 9.135784e-001 0.000000e+000
    outer loop
      vertex   -2.046464e+001 3.524263e+001 5.250000e+000
      vertex   -1.968553e+001 3.524263e+001 7.000291e+000
      vertex   -1.893390e+001 3.524263e+001 5.250000e+000
    endloop
  endfacet
  facet normal 0.000000e+000 6.473681e-002 0.000000e+000
    outer loop
      vertex   -1.893390e+001 3.524263e+001 5.250000e+000
      vertex   -1.968553e+001 3.524263e+001 7.000291e+000
      vertex   -1.955732e+001 3.524263e+001 7.007718e+000
    endloop
  endfacet
  facet normal 0.000000e+000 6.879544e-002 0.000000e+000
    outer loop
      vertex   -1.893390e+001 3.524263e+001 5.250000e+000
      vertex   -1.955732e+001 3.524263e+001 7.007718e+000
      vertex   -1.943226e+001 3.524263e+001 7.036907e+000
    endloop
  endfacet
  facet normal -0.000000e+000 9.917225e-001 0.000000e+000
    outer loop
      vertex   -1.943226e+001 3.524263e+001 7.036907e+000
      vertex   -1.931402e+001 3.524263e+001 7.087003e+000
      vertex   -1.893390e+001 3.524263e+001 5.250000e+000
    endloop
  endfacet
  facet normal 0.000000e+000 6.221490e-002 0.000000e+000
    outer loop
      vertex   -1.893390e+001 3.524263e+001 5.250000e+000
      vertex   -1.931402e+001 3.524263e+001 7.087003e+000
      vertex   -1.920605e+001 3.524263e+001 7.156538e+000
    endloop
  endfacet
  facet normal 0.000000e+000 5.289217e-002 0.000000e+000
    outer loop
      vertex   -1.893390e+001 3.524263e+001 5.250000e+000
      vertex   -1.920605e+001 3.524263e+001 7.156538e+000
      vertex   -1.911153e+001 3.524263e+001 7.243473e+000
    endloop
  endfacet
  facet normal -0.000000e+000 6.776872e-001 0.000000e+000
    outer loop
      vertex   -1.911153e+001 3.524263e+001 7.243473e+000
      vertex   -1.903322e+001 3.524263e+001 7.345258e+000
      vertex   -1.893390e+001 3.524263e+001 5.250000e+000
    endloop
  endfacet
  facet normal 0.000000e+000 2.947032e-002 0.000000e+000
    outer loop
      vertex   -1.893390e+001 3.524263e+001 5.250000e+000
      vertex   -1.903322e+001 3.524263e+001 7.345258e+000
      vertex   -1.897343e+001 3.524263e+001 7.458910e+000
    endloop
  endfacet
  facet normal 0.000000e+000 1.789102e-002 -0.000000e+000
    outer loop
      vertex   -1.893390e+001 3.524263e+001 5.250000e+000
      vertex   -1.897343e+001 3.524263e+001 7.458910e+000
      vertex   -1.893390e+001 3.524263e+001 7.581097e+000
    endloop
  endfacet
  facet normal 0.000000e+000 0.000000e+000 1.000000e+000
    outer loop
      vertex   -1.785151e+001 3.416024e+001 1.025000e+001
      vertex   -2.154703e+001 3.416024e+001 1.025000e+001
      vertex   -1.785151e+001 3.262950e+001 1.025000e+001
    endloop
  endfacet
  facet normal 0.000000e+000 0.000000e+000 3.826837e-001
    outer loop
      vertex   -1.785151e+001 3.262950e+001 1.025000e+001
      vertex   -2.154703e+001 3.416024e+001 1.025000e+001
      vertex   -2.154703e+001 3.262950e+001 1.025000e+001
    endloop
  endfacet
  facet normal 0.000000e+000 0.000000e+000 7.071055e-001
    outer loop
      vertex   -1.785151e+001 3.262950e+001 1.025000e+001
      vertex   -2.154703e+001 3.262950e+001 1.025000e+001
      vertex   -1.893390e+001 3.154711e+001 1.025000e+001
    endloop
  endfacet
  facet normal 0.000000e+000 0.000000e+000 3.826829e-001
    outer loop
      vertex   -1.893390e+001 3.154711e+001 1.025000e+001
      vertex   -2.154703e+001 3.262950e+001 1.025000e+001
      vertex   -2.046464e+001 3.154711e+001 1.025000e+001
    endloop
  endfacet
  facet normal 0.000000e+000 0.000000e+000 7.071068e-001
    outer loop
      vertex   -1.893390e+001 3.524263e+001 1.025000e+001
      vertex   -2.046464e+001 3.524263e+001 1.025000e+001
      vertex   -1.785151e+001 3.416024e+001 1.025000e+001
    endloop
  endfacet
  facet normal 0.000000e+000 0.000000e+000 3.826838e-001
    outer loop
      vertex   -1.785151e+001 3.416024e+001 1.025000e+001
      vertex   -2.046464e+001 3.524263e+001 1.025000e+001
      vertex   -2.154703e+001 3.416024e+001 1.025000e+001
    endloop
  endfacet
  facet normal 0.000000e+000 0.000000e+000 -1.000000e+000
    outer loop
      vertex   -1.785151e+001 3.262950e+001 5.250000e+000
      vertex   -2.154703e+001 3.262950e+001 5.250000e+000
      vertex   -1.785151e+001 3.416024e+001 5.250000e+000
    endloop
  endfacet
  facet normal -0.000000e+000 0.000000e+000 -3.826837e-001
    outer loop
      vertex   -1.785151e+001 3.416024e+001 5.250000e+000
      vertex   -2.154703e+001 3.262950e+001 5.250000e+000
      vertex   -2.154703e+001 3.416024e+001 5.250000e+000
    endloop
  endfacet
  facet normal 0.000000e+000 0.000000e+000 -7.071068e-001
    outer loop
      vertex   -1.785151e+001 3.416024e+001 5.250000e+000
      vertex   -2.154703e+001 3.416024e+001 5.250000e+000
      vertex   -1.893390e+001 3.524263e+001 5.250000e+000
    endloop
  endfacet
  facet normal -0.000000e+000 0.000000e+000 -3.826840e-001
    outer loop
      vertex   -1.893390e+001 3.524263e+001 5.250000e+000
      vertex   -2.154703e+001 3.416024e+001 5.250000e+000
      vertex   -2.046464e+001 3.524263e+001 5.250000e+000
    endloop
  endfacet
  facet normal 0.000000e+000 0.000000e+000 -7.071055e-001
    outer loop
      vertex   -1.893390e+001 3.154711e+001 5.250000e+000
      vertex   -2.046464e+001 3.154711e+001 5.250000e+000
      vertex   -1.785151e+001 3.262950e+001 5.250000e+000
    endloop
  endfacet
  facet normal -0.000000e+000 0.000000e+000 -3.826826e-001
    outer loop
      vertex   -1.785151e+001 3.262950e+001 5.250000e+000
      vertex   -2.046464e+001 3.154711e+001 5.250000e+000
      vertex   -2.154703e+001 3.262950e+001 5.250000e+000
    endloop
  endfacet
  facet normal 7.071055e-001 -7.071080e-001 0.000000e+000
    outer loop
      vertex   -1.893390e+001 3.154711e+001 1.025000e+001
      vertex   -1.893390e+001 3.154711e+001 5.250000e+000
      vertex   -1.785151e+001 3.262950e+001 1.025000e+001
    endloop
  endfacet
  facet normal 2.069948e-001 -2.069955e-001 0.000000e+000
    outer loop
      vertex   -1.785151e+001 3.262950e+001 1.025000e+001
      vertex   -1.893390e+001 3.154711e+001 5.250000e+000
      vertex   -1.785151e+001 3.262950e+001 5.250000e+000
    endloop
  endfacet
  facet normal 0.000000e+000 -1.000000e+000 0.000000e+000
    outer loop
      vertex   -2.046464e+001 3.154711e+001 1.025000e+001
      vertex   -2.046464e+001 3.154711e+001 5.250000e+000
      vertex   -1.893390e+001 3.154711e+001 1.025000e+001
    endloop
  endfacet
  facet normal 0.000000e+000 -2.927354e-001 -0.000000e+000
    outer loop
      vertex   -1.893390e+001 3.154711e+001 1.025000e+001
      vertex   -2.046464e+001 3.154711e+001 5.250000e+000
      vertex   -1.893390e+001 3.154711e+001 5.250000e+000
    endloop
  endfacet
  facet normal -7.071062e-001 -7.071074e-001 -0.000000e+000
    outer loop
      vertex   -2.154703e+001 3.262950e+001 1.025000e+001
      vertex   -2.154703e+001 3.262950e+001 5.250000e+000
      vertex   -2.046464e+001 3.154711e+001 1.025000e+001
    endloop
  endfacet
  facet normal -2.069948e-001 -2.069952e-001 -0.000000e+000
    outer loop
      vertex   -2.046464e+001 3.154711e+001 1.025000e+001
      vertex   -2.154703e+001 3.262950e+001 5.250000e+000
      vertex   -2.046464e+001 3.154711e+001 5.250000e+000
    endloop
  endfacet
  facet normal -1.000000e+000 -0.000000e+000 -0.000000e+000
    outer loop
      vertex   -2.154703e+001 3.416024e+001 1.025000e+001
      vertex   -2.154703e+001 3.416024e+001 5.250000e+000
      vertex   -2.154703e+001 3.262950e+001 1.025000e+001
    endloop
  endfacet
  facet normal -2.927357e-001 0.000000e+000 0.000000e+000
    outer loop
      vertex   -2.154703e+001 3.262950e+001 1.025000e+001
      vertex   -2.154703e+001 3.416024e+001 5.250000e+000
      vertex   -2.154703e+001 3.262950e+001 5.250000e+000
    endloop
  endfacet
  facet normal -7.071074e-001 7.071062e-001 0.000000e+000
    outer loop
      vertex   -2.046464e+001 3.524263e+001 1.025000e+001
      vertex   -2.046464e+001 3.524263e+001 5.250000e+000
      vertex   -2.154703e+001 3.416024e+001 1.025000e+001
    endloop
  endfacet
  facet normal -2.069955e-001 2.069952e-001 0.000000e+000
    outer loop
      vertex   -2.154703e+001 3.416024e+001 1.025000e+001
      vertex   -2.046464e+001 3.524263e+001 5.250000e+000
      vertex   -2.154703e+001 3.416024e+001 5.250000e+000
    endloop
  endfacet
  facet normal 1.671635e-001 1.671635e-001 0.000000e+000
    outer loop
      vertex   -1.893390e+001 3.524263e+001 7.581097e+000
      vertex   -1.891947e+001 3.522820e+001 7.665001e+000
      vertex   -1.893390e+001 3.524263e+001 5.250000e+000
    endloop
  endfacet
  facet normal 7.070815e-001 7.070815e-001 0.000000e+000
    outer loop
      vertex   -1.893390e+001 3.524263e+001 5.250000e+000
      vertex   -1.891947e+001 3.522820e+001 7.665001e+000
      vertex   -1.785151e+001 3.416024e+001 5.250000e+000
    endloop
  endfacet
  facet normal 1.232897e-002 1.232841e-002 2.451370e-007
    outer loop
      vertex   -1.785151e+001 3.416024e+001 5.250000e+000
      vertex   -1.891947e+001 3.522820e+001 7.665001e+000
      vertex   -1.891464e+001 3.522336e+001 7.750000e+000
    endloop
  endfacet
  facet normal 3.644246e-001 3.644252e-001 -0.000000e+000
    outer loop
      vertex   -1.785151e+001 3.416024e+001 5.250000e+000
      vertex   -1.891464e+001 3.522336e+001 7.750000e+000
      vertex   -1.785151e+001 3.416024e+001 1.025000e+001
    endloop
  endfacet
  facet normal 1.232897e-002 1.232841e-002 -2.451370e-007
    outer loop
      vertex   -1.785151e+001 3.416024e+001 1.025000e+001
      vertex   -1.891464e+001 3.522336e+001 7.750000e+000
      vertex   -1.891947e+001 3.522820e+001 7.834999e+000
    endloop
  endfacet
  facet normal 5.995197e-001 5.995197e-001 0.000000e+000
    outer loop
      vertex   -1.785151e+001 3.416024e+001 1.025000e+001
      vertex   -1.891947e+001 3.522820e+001 7.834999e+000
      vertex   -1.893390e+001 3.524263e+001 1.025000e+001
    endloop
  endfacet
  facet normal 5.976933e-003 5.976933e-003 0.000000e+000
    outer loop
      vertex   -1.893390e+001 3.524263e+001 1.025000e+001
      vertex   -1.891947e+001 3.522820e+001 7.834999e+000
      vertex   -1.893390e+001 3.524263e+001 7.918903e+000
    endloop
  endfacet
  facet normal 1.000000e+000 -0.000000e+000 0.000000e+000
    outer loop
      vertex   -1.785151e+001 3.262950e+001 1.025000e+001
      vertex   -1.785151e+001 3.262950e+001 5.250000e+000
      vertex   -1.785151e+001 3.416024e+001 1.025000e+001
    endloop
  endfacet
  facet normal 2.927357e-001 0.000000e+000 0.000000e+000
    outer loop
      vertex   -1.785151e+001 3.416024e+001 1.025000e+001
      vertex   -1.785151e+001 3.262950e+001 5.250000e+000
      vertex   -1.785151e+001 3.416024e+001 5.250000e+000
    endloop
  endfacet
  facet normal 9.513072e-001 -9.940285e-004 -3.077370e-001
    outer loop
      vertex   -1.897343e+001 3.524263e+001 7.458910e+000
      vertex   -1.895748e+001 3.774263e+001 7.500145e+000
      vertex   -1.893390e+001 3.524263e+001 7.581097e+000
    endloop
  endfacet
  facet normal 4.920657e-002 4.915037e-005 -1.281202e-002
    outer loop
      vertex   -1.893390e+001 3.524263e+001 7.581097e+000
      vertex   -1.895748e+001 3.774263e+001 7.500145e+000
      vertex   -1.892543e+001 3.774263e+001 7.623250e+000
    endloop
  endfacet
  facet normal 9.743291e-001 -4.765307e-004 -1.677056e-001
    outer loop
      vertex   -1.893390e+001 3.524263e+001 7.581097e+000
      vertex   -1.892543e+001 3.774263e+001 7.623250e+000
      vertex   -1.891947e+001 3.522820e+001 7.665001e+000
    endloop
  endfacet
  facet normal 5.037317e-002 4.814300e-005 -4.287353e-003
    outer loop
      vertex   -1.891947e+001 3.522820e+001 7.665001e+000
      vertex   -1.892543e+001 3.774263e+001 7.623250e+000
      vertex   -1.891464e+001 3.774263e+001 7.750000e+000
    endloop
  endfacet
  facet normal 9.981276e-001 0.000000e+000 -5.673318e-002
    outer loop
      vertex   -1.891947e+001 3.522820e+001 7.665001e+000
      vertex   -1.891464e+001 3.774263e+001 7.750000e+000
      vertex   -1.891464e+001 3.522336e+001 7.750000e+000
    endloop
  endfacet
  facet normal 9.967836e-001 -0.000000e+000 5.665678e-002
    outer loop
      vertex   -1.891464e+001 3.522336e+001 7.750000e+000
      vertex   -1.891464e+001 3.774263e+001 7.750000e+000
      vertex   -1.891947e+001 3.522820e+001 7.834999e+000
    endloop
  endfacet
  facet normal 5.037317e-002 4.814300e-005 4.287353e-003
    outer loop
      vertex   -1.891947e+001 3.522820e+001 7.834999e+000
      vertex   -1.891464e+001 3.774263e+001 7.750000e+000
      vertex   -1.892543e+001 3.774263e+001 7.876750e+000
    endloop
  endfacet
  facet normal 9.687427e-001 -4.737984e-004 1.667441e-001
    outer loop
      vertex   -1.891947e+001 3.522820e+001 7.834999e+000
      vertex   -1.892543e+001 3.774263e+001 7.876750e+000
      vertex   -1.893390e+001 3.524263e+001 7.918903e+000
    endloop
  endfacet
  facet normal 4.920657e-002 4.915037e-005 1.281202e-002
    outer loop
      vertex   -1.893390e+001 3.524263e+001 7.918903e+000
      vertex   -1.892543e+001 3.774263e+001 7.876750e+000
      vertex   -1.895748e+001 3.774263e+001 7.999855e+000
    endloop
  endfacet
  facet normal 9.509149e-001 -9.936575e-004 3.076113e-001
    outer loop
      vertex   -1.893390e+001 3.524263e+001 7.918903e+000
      vertex   -1.895748e+001 3.774263e+001 7.999855e+000
      vertex   -1.897343e+001 3.524263e+001 8.041089e+000
    endloop
  endfacet
  facet normal 4.633366e-002 4.980968e-005 2.094387e-002
    outer loop
      vertex   -1.897343e+001 3.524263e+001 8.041089e+000
      vertex   -1.895748e+001 3.774263e+001 7.999855e+000
      vertex   -1.900988e+001 3.774263e+001 8.115771e+000
    endloop
  endfacet
  facet normal 8.845051e-001 -1.006703e-003 4.653462e-001
    outer loop
      vertex   -1.897343e+001 3.524263e+001 8.041089e+000
      vertex   -1.900988e+001 3.774263e+001 8.115771e+000
      vertex   -1.903322e+001 3.524263e+001 8.154741e+000
    endloop
  endfacet
  facet normal 4.212781e-002 5.040764e-005 2.847353e-002
    outer loop
      vertex   -1.903322e+001 3.524263e+001 8.154741e+000
      vertex   -1.900988e+001 3.774263e+001 8.115771e+000
      vertex   -1.908111e+001 3.774263e+001 8.221165e+000
    endloop
  endfacet
  facet normal 7.921705e-001 -1.018421e-003 6.094213e-001
    outer loop
      vertex   -1.903322e+001 3.524263e+001 8.154741e+000
      vertex   -1.908111e+001 3.774263e+001 8.221165e+000
      vertex   -1.911153e+001 3.524263e+001 8.256527e+000
    endloop
  endfacet
  facet normal 3.671042e-002 5.101169e-005 3.518445e-002
    outer loop
      vertex   -1.911153e+001 3.524263e+001 8.256527e+000
      vertex   -1.908111e+001 3.774263e+001 8.221165e+000
      vertex   -1.916913e+001 3.774263e+001 8.313004e+000
    endloop
  endfacet
  facet normal 6.766036e-001 -1.028888e-003 7.356408e-001
    outer loop
      vertex   -1.911153e+001 3.524263e+001 8.256527e+000
      vertex   -1.916913e+001 3.774263e+001 8.313004e+000
      vertex   -1.920605e+001 3.524263e+001 8.343462e+000
    endloop
  endfacet
  facet normal 3.023622e-002 5.157877e-005 4.088220e-002
    outer loop
      vertex   -1.920605e+001 3.524263e+001 8.343462e+000
      vertex   -1.916913e+001 3.774263e+001 8.313004e+000
      vertex   -1.927141e+001 3.774263e+001 8.388647e+000
    endloop
  endfacet
  facet normal 5.411822e-001 -1.039227e-003 8.403051e-001
    outer loop
      vertex   -1.920605e+001 3.524263e+001 8.343462e+000
      vertex   -1.927141e+001 3.774263e+001 8.388647e+000
      vertex   -1.931402e+001 3.524263e+001 8.412996e+000
    endloop
  endfacet
  facet normal 2.289240e-002 5.205453e-005 4.540359e-002
    outer loop
      vertex   -1.931402e+001 3.524263e+001 8.412996e+000
      vertex   -1.927141e+001 3.774263e+001 8.388647e+000
      vertex   -1.938499e+001 3.774263e+001 8.445917e+000
    endloop
  endfacet
  facet normal 3.899069e-001 -1.049168e-003 9.203228e-001
    outer loop
      vertex   -1.931402e+001 3.524263e+001 8.412996e+000
      vertex   -1.938499e+001 3.774263e+001 8.445917e+000
      vertex   -1.943226e+001 3.524263e+001 8.463093e+000
    endloop
  endfacet
  facet normal 1.488975e-002 5.251304e-005 4.862050e-002
    outer loop
      vertex   -1.943226e+001 3.524263e+001 8.463093e+000
      vertex   -1.938499e+001 3.774263e+001 8.445917e+000
      vertex   -1.950663e+001 3.774263e+001 8.483167e+000
    endloop
  endfacet
  facet normal 6.438439e-003 -2.122130e-004 5.028078e-002
    outer loop
      vertex   -1.943226e+001 3.524263e+001 8.463093e+000
      vertex   -1.950663e+001 3.774263e+001 8.483167e+000
      vertex   -1.963281e+001 3.774263e+001 8.499324e+000
    endloop
  endfacet
  facet normal 9.110880e-001 9.795178e-004 -4.118325e-001
    outer loop
      vertex   -1.895748e+001 3.774263e+001 7.500145e+000
      vertex   -1.897343e+001 3.524263e+001 7.458910e+000
      vertex   -1.900988e+001 3.774263e+001 7.384229e+000
    endloop
  endfacet
  facet normal 4.542830e-002 -5.169986e-005 -2.390024e-002
    outer loop
      vertex   -1.900988e+001 3.774263e+001 7.384229e+000
      vertex   -1.897343e+001 3.524263e+001 7.458910e+000
      vertex   -1.903322e+001 3.524263e+001 7.345258e+000
    endloop
  endfacet
  facet normal 8.283732e-001 9.912496e-004 -5.598819e-001
    outer loop
      vertex   -1.900988e+001 3.774263e+001 7.384229e+000
      vertex   -1.903322e+001 3.524263e+001 7.345258e+000
      vertex   -1.908111e+001 3.774263e+001 7.278835e+000
    endloop
  endfacet
  facet normal 4.068517e-002 -5.230907e-005 -3.129948e-002
    outer loop
      vertex   -1.908111e+001 3.774263e+001 7.278835e+000
      vertex   -1.903322e+001 3.524263e+001 7.345258e+000
      vertex   -1.911153e+001 3.524263e+001 7.243473e+000
    endloop
  endfacet
  facet normal 7.218233e-001 1.002993e-003 -6.918260e-001
    outer loop
      vertex   -1.908111e+001 3.774263e+001 7.278835e+000
      vertex   -1.911153e+001 3.524263e+001 7.243473e+000
      vertex   -1.916913e+001 3.774263e+001 7.186996e+000
    endloop
  endfacet
  facet normal 3.474937e-002 -5.283965e-005 -3.778164e-002
    outer loop
      vertex   -1.916913e+001 3.774263e+001 7.186996e+000
      vertex   -1.911153e+001 3.524263e+001 7.243473e+000
      vertex   -1.920605e+001 3.524263e+001 7.156538e+000
    endloop
  endfacet
  facet normal 5.945255e-001 1.014116e-003 -8.038489e-001
    outer loop
      vertex   -1.916913e+001 3.774263e+001 7.186996e+000
      vertex   -1.920605e+001 3.524263e+001 7.156538e+000
      vertex   -1.927141e+001 3.774263e+001 7.111353e+000
    endloop
  endfacet
  facet normal 2.779471e-002 -5.337144e-005 -4.315684e-002
    outer loop
      vertex   -1.927141e+001 3.774263e+001 7.111353e+000
      vertex   -1.920605e+001 3.524263e+001 7.156538e+000
      vertex   -1.931402e+001 3.524263e+001 7.087003e+000
    endloop
  endfacet
  facet normal 4.501202e-001 1.023761e-003 -8.927523e-001
    outer loop
      vertex   -1.927141e+001 3.774263e+001 7.111353e+000
      vertex   -1.931402e+001 3.524263e+001 7.087003e+000
      vertex   -1.938499e+001 3.774263e+001 7.054083e+000
    endloop
  endfacet
  facet normal 2.002475e-002 -5.386491e-005 -4.726572e-002
    outer loop
      vertex   -1.938499e+001 3.774263e+001 7.054083e+000
      vertex   -1.931402e+001 3.524263e+001 7.087003e+000
      vertex   -1.943226e+001 3.524263e+001 7.036907e+000
    endloop
  endfacet
  facet normal 2.927615e-001 1.032874e-003 -9.559739e-001
    outer loop
      vertex   -1.938499e+001 3.774263e+001 7.054083e+000
      vertex   -1.943226e+001 3.524263e+001 7.036907e+000
      vertex   -1.950663e+001 3.774263e+001 7.016834e+000
    endloop
  endfacet
  facet normal 1.166763e-002 -5.430476e-005 -4.998932e-002
    outer loop
      vertex   -1.950663e+001 3.774263e+001 7.016834e+000
      vertex   -1.943226e+001 3.524263e+001 7.036907e+000
      vertex   -1.955732e+001 3.524263e+001 7.007718e+000
    endloop
  endfacet
  facet normal 1.269931e-001 1.041076e-003 -9.916897e-001
    outer loop
      vertex   -1.950663e+001 3.774263e+001 7.016834e+000
      vertex   -1.955732e+001 3.524263e+001 7.007718e+000
      vertex   -1.963281e+001 3.774263e+001 7.000676e+000
    endloop
  endfacet
  facet normal 2.968670e-003 -5.471636e-005 -5.124754e-002
    outer loop
      vertex   -1.963281e+001 3.774263e+001 7.000676e+000
      vertex   -1.955732e+001 3.524263e+001 7.007718e+000
      vertex   -1.968553e+001 3.524263e+001 7.000291e+000
    endloop
  endfacet
  facet normal -4.243435e-002 1.048623e-003 -9.988768e-001
    outer loop
      vertex   -1.963281e+001 3.774263e+001 7.000676e+000
      vertex   -1.968553e+001 3.524263e+001 7.000291e+000
      vertex   -1.975990e+001 3.774263e+001 7.006075e+000
    endloop
  endfacet
  facet normal -5.817856e-003 -5.507584e-005 -5.100302e-002
    outer loop
      vertex   -1.975990e+001 3.774263e+001 7.006075e+000
      vertex   -1.968553e+001 3.524263e+001 7.000291e+000
      vertex   -1.981312e+001 3.524263e+001 7.014845e+000
    endloop
  endfacet
  facet normal -2.106299e-001 1.055303e-003 -9.773279e-001
    outer loop
      vertex   -1.975990e+001 3.774263e+001 7.006075e+000
      vertex   -1.981312e+001 3.524263e+001 7.014845e+000
      vertex   -1.988425e+001 3.774263e+001 7.032875e+000
    endloop
  endfacet
  facet normal -1.443348e-002 -5.540090e-005 -4.926260e-002
    outer loop
      vertex   -1.988425e+001 3.774263e+001 7.032875e+000
      vertex   -1.981312e+001 3.524263e+001 7.014845e+000
      vertex   -1.993636e+001 3.524263e+001 7.050953e+000
    endloop
  endfacet
  facet normal -3.727633e-001 1.061163e-003 -9.276643e-001
    outer loop
      vertex   -1.988425e+001 3.774263e+001 7.032875e+000
      vertex   -1.993636e+001 3.524263e+001 7.050953e+000
      vertex   -2.000229e+001 3.774263e+001 7.080306e+000
    endloop
  endfacet
  facet normal -2.262619e-002 -5.568653e-005 -4.607886e-002
    outer loop
      vertex   -2.000229e+001 3.774263e+001 7.080306e+000
      vertex   -1.993636e+001 3.524263e+001 7.050953e+000
      vertex   -2.005164e+001 3.524263e+001 7.107557e+000
    endloop
  endfacet
  facet normal -5.241744e-001 1.066427e-003 -8.513126e-001
    outer loop
      vertex   -2.000229e+001 3.774263e+001 7.080306e+000
      vertex   -2.005164e+001 3.524263e+001 7.107557e+000
      vertex   -2.011061e+001 3.774263e+001 7.147002e+000
    endloop
  endfacet
  facet normal -3.015564e-002 -5.593243e-005 -4.154253e-002
    outer loop
      vertex   -2.011061e+001 3.774263e+001 7.147002e+000
      vertex   -2.005164e+001 3.524263e+001 7.107557e+000
      vertex   -2.015556e+001 3.524263e+001 7.182996e+000
    endloop
  endfacet
  facet normal -6.605017e-001 1.070443e-003 -7.504714e-001
    outer loop
      vertex   -2.011061e+001 3.774263e+001 7.147002e+000
      vertex   -2.015556e+001 3.524263e+001 7.182996e+000
      vertex   -2.020610e+001 3.774263e+001 7.231046e+000
    endloop
  endfacet
  facet normal -3.680068e-002 -5.612684e-005 -3.579008e-002
    outer loop
      vertex   -2.020610e+001 3.774263e+001 7.231046e+000
      vertex   -2.015556e+001 3.524263e+001 7.182996e+000
      vertex   -2.024510e+001 3.524263e+001 7.275059e+000
    endloop
  endfacet
  facet normal -7.778181e-001 1.074389e-003 -6.280494e-001
    outer loop
      vertex   -2.020610e+001 3.774263e+001 7.231046e+000
      vertex   -2.024510e+001 3.524263e+001 7.275059e+000
      vertex   -2.028602e+001 3.774263e+001 7.330019e+000
    endloop
  endfacet
  facet normal -4.236709e-002 -5.628693e-005 -2.898696e-002
    outer loop
      vertex   -2.028602e+001 3.774263e+001 7.330019e+000
      vertex   -2.024510e+001 3.524263e+001 7.275059e+000
      vertex   -2.031761e+001 3.524263e+001 7.381047e+000
    endloop
  endfacet
  facet normal -8.727645e-001 1.077195e-003 -4.875511e-001
    outer loop
      vertex   -2.028602e+001 3.774263e+001 7.330019e+000
      vertex   -2.031761e+001 3.524263e+001 7.381047e+000
      vertex   -2.034806e+001 3.774263e+001 7.441074e+000
    endloop
  endfacet
  facet normal -4.669129e-002 -5.640840e-005 -2.133368e-002
    outer loop
      vertex   -2.034806e+001 3.774263e+001 7.441074e+000
      vertex   -2.031761e+001 3.524263e+001 7.381047e+000
      vertex   -2.037098e+001 3.524263e+001 7.497853e+000
    endloop
  endfacet
  facet normal -9.425924e-001 1.078630e-003 -3.330465e-001
    outer loop
      vertex   -2.034806e+001 3.774263e+001 7.441074e+000
      vertex   -2.037098e+001 3.524263e+001 7.497853e+000
      vertex   -2.039044e+001 3.774263e+001 7.561017e+000
    endloop
  endfacet
  facet normal -4.964635e-002 -5.651999e-005 -1.305594e-002
    outer loop
      vertex   -2.039044e+001 3.774263e+001 7.561017e+000
      vertex   -2.037098e+001 3.524263e+001 7.497853e+000
      vertex   -2.040364e+001 3.524263e+001 7.622051e+000
    endloop
  endfacet
  facet normal -9.853095e-001 1.079718e-003 -1.689430e-001
    outer loop
      vertex   -2.039044e+001 3.774263e+001 7.561017e+000
      vertex   -2.040364e+001 3.524263e+001 7.622051e+000
      vertex   -2.041194e+001 3.774263e+001 7.686396e+000
    endloop
  endfacet
  facet normal -5.114589e-002 -5.653461e-005 -4.395441e-003
    outer loop
      vertex   -2.041194e+001 3.774263e+001 7.686396e+000
      vertex   -2.040364e+001 3.524263e+001 7.622051e+000
      vertex   -2.041464e+001 3.524263e+001 7.750000e+000
    endloop
  endfacet
  facet normal -9.996759e-001 1.080735e-003 0.000000e+000
    outer loop
      vertex   -2.041194e+001 3.774263e+001 7.686396e+000
      vertex   -2.041464e+001 3.524263e+001 7.750000e+000
      vertex   -2.041194e+001 3.774263e+001 7.813604e+000
    endloop
  endfacet
  facet normal -5.114589e-002 -5.653461e-005 4.395441e-003
    outer loop
      vertex   -2.041194e+001 3.774263e+001 7.813604e+000
      vertex   -2.041464e+001 3.524263e+001 7.750000e+000
      vertex   -2.040364e+001 3.524263e+001 7.877949e+000
    endloop
  endfacet
  facet normal -9.852851e-001 1.079691e-003 1.689388e-001
    outer loop
      vertex   -2.041194e+001 3.774263e+001 7.813604e+000
      vertex   -2.040364e+001 3.524263e+001 7.877949e+000
      vertex   -2.039044e+001 3.774263e+001 7.938983e+000
    endloop
  endfacet
  facet normal -4.964654e-002 -5.651898e-005 1.305594e-002
    outer loop
      vertex   -2.039044e+001 3.774263e+001 7.938983e+000
      vertex   -2.040364e+001 3.524263e+001 7.877949e+000
      vertex   -2.037098e+001 3.524263e+001 8.002148e+000
    endloop
  endfacet
  facet normal -9.425454e-001 1.078673e-003 3.330312e-001
    outer loop
      vertex   -2.039044e+001 3.774263e+001 7.938983e+000
      vertex   -2.037098e+001 3.524263e+001 8.002148e+000
      vertex   -2.034806e+001 3.774263e+001 8.058926e+000
    endloop
  endfacet
  facet normal -4.669110e-002 -5.640201e-005 2.133368e-002
    outer loop
      vertex   -2.034806e+001 3.774263e+001 8.058926e+000
      vertex   -2.037098e+001 3.524263e+001 8.002148e+000
      vertex   -2.031761e+001 3.524263e+001 8.118953e+000
    endloop
  endfacet
  facet normal -8.727007e-001 1.077159e-003 4.875133e-001
    outer loop
      vertex   -2.034806e+001 3.774263e+001 8.058926e+000
      vertex   -2.031761e+001 3.524263e+001 8.118953e+000
      vertex   -2.028602e+001 3.774263e+001 8.169981e+000
    endloop
  endfacet
  facet normal -4.236690e-002 -5.628934e-005 2.898696e-002
    outer loop
      vertex   -2.028602e+001 3.774263e+001 8.169981e+000
      vertex   -2.031761e+001 3.524263e+001 8.118953e+000
      vertex   -2.024510e+001 3.524263e+001 8.224940e+000
    endloop
  endfacet
  facet normal -7.777411e-001 1.074163e-003 6.279873e-001
    outer loop
      vertex   -2.028602e+001 3.774263e+001 8.169981e+000
      vertex   -2.024510e+001 3.524263e+001 8.224940e+000
      vertex   -2.020610e+001 3.774263e+001 8.268954e+000
    endloop
  endfacet
  facet normal -3.680106e-002 -5.612772e-005 3.579008e-002
    outer loop
      vertex   -2.020610e+001 3.774263e+001 8.268954e+000
      vertex   -2.024510e+001 3.524263e+001 8.224940e+000
      vertex   -2.015556e+001 3.524263e+001 8.317004e+000
    endloop
  endfacet
  facet normal -6.604200e-001 1.070454e-003 7.503785e-001
    outer loop
      vertex   -2.020610e+001 3.774263e+001 8.268954e+000
      vertex   -2.015556e+001 3.524263e+001 8.317004e+000
      vertex   -2.011061e+001 3.774263e+001 8.352998e+000
    endloop
  endfacet
  facet normal -3.015526e-002 -5.593136e-005 4.154253e-002
    outer loop
      vertex   -2.011061e+001 3.774263e+001 8.352998e+000
      vertex   -2.015556e+001 3.524263e+001 8.317004e+000
      vertex   -2.005164e+001 3.524263e+001 8.392443e+000
    endloop
  endfacet
  facet normal -5.240939e-001 1.066196e-003 8.511879e-001
    outer loop
      vertex   -2.011061e+001 3.774263e+001 8.352998e+000
      vertex   -2.005164e+001 3.524263e+001 8.392443e+000
      vertex   -2.000229e+001 3.774263e+001 8.419694e+000
    endloop
  endfacet
  facet normal -2.262619e-002 -5.568653e-005 4.607886e-002
    outer loop
      vertex   -2.000229e+001 3.774263e+001 8.419694e+000
      vertex   -2.005164e+001 3.524263e+001 8.392443e+000
      vertex   -1.993636e+001 3.524263e+001 8.449046e+000
    endloop
  endfacet
  facet normal -3.727020e-001 1.060879e-003 9.275023e-001
    outer loop
      vertex   -2.000229e+001 3.774263e+001 8.419694e+000
      vertex   -1.993636e+001 3.524263e+001 8.449046e+000
      vertex   -1.988425e+001 3.774263e+001 8.467125e+000
    endloop
  endfacet
  facet normal -1.443386e-002 -5.540235e-005 4.926260e-002
    outer loop
      vertex   -1.988425e+001 3.774263e+001 8.467125e+000
      vertex   -1.993636e+001 3.524263e+001 8.449046e+000
      vertex   -1.981312e+001 3.524263e+001 8.485155e+000
    endloop
  endfacet
  facet normal -2.105882e-001 1.055280e-003 9.771345e-001
    outer loop
      vertex   -1.988425e+001 3.774263e+001 8.467125e+000
      vertex   -1.981312e+001 3.524263e+001 8.485155e+000
      vertex   -1.975990e+001 3.774263e+001 8.493925e+000
    endloop
  endfacet
  facet normal -5.817666e-003 -5.507017e-005 5.100302e-002
    outer loop
      vertex   -1.975990e+001 3.774263e+001 8.493925e+000
      vertex   -1.981312e+001 3.524263e+001 8.485155e+000
      vertex   -1.968553e+001 3.524263e+001 8.499709e+000
    endloop
  endfacet
  facet normal 2.959482e-003 2.062502e-004 5.109221e-002
    outer loop
      vertex   -1.975990e+001 3.774263e+001 8.493925e+000
      vertex   -1.968553e+001 3.524263e+001 8.499709e+000
      vertex   -1.955732e+001 3.524263e+001 8.492283e+000
    endloop
  endfacet
  facet normal -4.230138e-002 -4.081912e-003 9.958348e-001
    outer loop
      vertex   -1.975990e+001 3.774263e+001 8.493925e+000
      vertex   -1.955732e+001 3.524263e+001 8.492283e+000
      vertex   -1.963281e+001 3.774263e+001 8.499324e+000
    endloop
  endfacet
  facet normal 1.163208e-002 2.108641e-004 4.983537e-002
    outer loop
      vertex   -1.963281e+001 3.774263e+001 8.499324e+000
      vertex   -1.955732e+001 3.524263e+001 8.492283e+000
      vertex   -1.943226e+001 3.524263e+001 8.463093e+000
    endloop
  endfacet
  facet normal 0.000000e+000 1.689994e-001 0.000000e+000
    outer loop
      vertex   -1.891464e+001 3.774263e+001 7.750000e+000
      vertex   -1.892543e+001 3.774263e+001 7.623250e+000
      vertex   -1.892543e+001 3.774263e+001 7.876750e+000
    endloop
  endfacet
  facet normal 0.000000e+000 2.519711e-001 0.000000e+000
    outer loop
      vertex   -1.892543e+001 3.774263e+001 7.876750e+000
      vertex   -1.892543e+001 3.774263e+001 7.623250e+000
      vertex   -1.895748e+001 3.774263e+001 7.999855e+000
    endloop
  endfacet
  facet normal 0.000000e+000 8.480367e-002 0.000000e+000
    outer loop
      vertex   -1.895748e+001 3.774263e+001 7.999855e+000
      vertex   -1.892543e+001 3.774263e+001 7.623250e+000
      vertex   -1.895748e+001 3.774263e+001 7.500145e+000
    endloop
  endfacet
  facet normal 0.000000e+000 4.118969e-001 0.000000e+000
    outer loop
      vertex   -1.895748e+001 3.774263e+001 7.999855e+000
      vertex   -1.895748e+001 3.774263e+001 7.500145e+000
      vertex   -1.900988e+001 3.774263e+001 8.115771e+000
    endloop
  endfacet
  facet normal 0.000000e+000 8.480472e-002 0.000000e+000
    outer loop
      vertex   -1.900988e+001 3.774263e+001 8.115771e+000
      vertex   -1.895748e+001 3.774263e+001 7.500145e+000
      vertex   -1.900988e+001 3.774263e+001 7.384229e+000
    endloop
  endfacet
  facet normal 0.000000e+000 5.599760e-001 0.000000e+000
    outer loop
      vertex   -1.900988e+001 3.774263e+001 8.115771e+000
      vertex   -1.900988e+001 3.774263e+001 7.384229e+000
      vertex   -1.908111e+001 3.774263e+001 8.221165e+000
    endloop
  endfacet
  facet normal 0.000000e+000 8.480592e-002 0.000000e+000
    outer loop
      vertex   -1.908111e+001 3.774263e+001 8.221165e+000
      vertex   -1.900988e+001 3.774263e+001 7.384229e+000
      vertex   -1.908111e+001 3.774263e+001 7.278835e+000
    endloop
  endfacet
  facet normal 0.000000e+000 6.919426e-001 0.000000e+000
    outer loop
      vertex   -1.908111e+001 3.774263e+001 8.221165e+000
      vertex   -1.908111e+001 3.774263e+001 7.278835e+000
      vertex   -1.916913e+001 3.774263e+001 8.313004e+000
    endloop
  endfacet
  facet normal 0.000000e+000 8.480728e-002 0.000000e+000
    outer loop
      vertex   -1.916913e+001 3.774263e+001 8.313004e+000
      vertex   -1.908111e+001 3.774263e+001 7.278835e+000
      vertex   -1.916913e+001 3.774263e+001 7.186996e+000
    endloop
  endfacet
  facet normal 0.000000e+000 8.039980e-001 0.000000e+000
    outer loop
      vertex   -1.916913e+001 3.774263e+001 8.313004e+000
      vertex   -1.916913e+001 3.774263e+001 7.186996e+000
      vertex   -1.927141e+001 3.774263e+001 8.388647e+000
    endloop
  endfacet
  facet normal 0.000000e+000 8.480614e-002 0.000000e+000
    outer loop
      vertex   -1.927141e+001 3.774263e+001 8.388647e+000
      vertex   -1.916913e+001 3.774263e+001 7.186996e+000
      vertex   -1.927141e+001 3.774263e+001 7.111353e+000
    endloop
  endfacet
  facet normal 0.000000e+000 8.929228e-001 0.000000e+000
    outer loop
      vertex   -1.927141e+001 3.774263e+001 8.388647e+000
      vertex   -1.927141e+001 3.774263e+001 7.111353e+000
      vertex   -1.938499e+001 3.774263e+001 8.445917e+000
    endloop
  endfacet
  facet normal 0.000000e+000 8.480465e-002 0.000000e+000
    outer loop
      vertex   -1.938499e+001 3.774263e+001 8.445917e+000
      vertex   -1.927141e+001 3.774263e+001 7.111353e+000
      vertex   -1.938499e+001 3.774263e+001 7.054083e+000
    endloop
  endfacet
  facet normal 0.000000e+000 9.561673e-001 0.000000e+000
    outer loop
      vertex   -1.938499e+001 3.774263e+001 8.445917e+000
      vertex   -1.938499e+001 3.774263e+001 7.054083e+000
      vertex   -1.950663e+001 3.774263e+001 8.483167e+000
    endloop
  endfacet
  facet normal 0.000000e+000 8.480635e-002 0.000000e+000
    outer loop
      vertex   -1.950663e+001 3.774263e+001 8.483167e+000
      vertex   -1.938499e+001 3.774263e+001 7.054083e+000
      vertex   -1.950663e+001 3.774263e+001 7.016834e+000
    endloop
  endfacet
  facet normal 0.000000e+000 9.919011e-001 0.000000e+000
    outer loop
      vertex   -1.950663e+001 3.774263e+001 8.483167e+000
      vertex   -1.950663e+001 3.774263e+001 7.016834e+000
      vertex   -1.963281e+001 3.774263e+001 8.499324e+000
    endloop
  endfacet
  facet normal 0.000000e+000 8.480608e-002 0.000000e+000
    outer loop
      vertex   -1.963281e+001 3.774263e+001 8.499324e+000
      vertex   -1.950663e+001 3.774263e+001 7.016834e+000
      vertex   -1.963281e+001 3.774263e+001 7.000676e+000
    endloop
  endfacet
  facet normal 0.000000e+000 9.990990e-001 0.000000e+000
    outer loop
      vertex   -1.963281e+001 3.774263e+001 8.499324e+000
      vertex   -1.963281e+001 3.774263e+001 7.000676e+000
      vertex   -1.975990e+001 3.774263e+001 8.493925e+000
    endloop
  endfacet
  facet normal 0.000000e+000 8.480594e-002 0.000000e+000
    outer loop
      vertex   -1.975990e+001 3.774263e+001 8.493925e+000
      vertex   -1.963281e+001 3.774263e+001 7.000676e+000
      vertex   -1.975990e+001 3.774263e+001 7.006075e+000
    endloop
  endfacet
  facet normal 0.000000e+000 9.775553e-001 0.000000e+000
    outer loop
      vertex   -1.975990e+001 3.774263e+001 8.493925e+000
      vertex   -1.975990e+001 3.774263e+001 7.006075e+000
      vertex   -1.988425e+001 3.774263e+001 8.467125e+000
    endloop
  endfacet
  facet normal 0.000000e+000 8.480573e-002 0.000000e+000
    outer loop
      vertex   -1.988425e+001 3.774263e+001 8.467125e+000
      vertex   -1.975990e+001 3.774263e+001 7.006075e+000
      vertex   -1.988425e+001 3.774263e+001 7.032875e+000
    endloop
  endfacet
  facet normal 0.000000e+000 9.278887e-001 0.000000e+000
    outer loop
      vertex   -1.988425e+001 3.774263e+001 8.467125e+000
      vertex   -1.988425e+001 3.774263e+001 7.032875e+000
      vertex   -2.000229e+001 3.774263e+001 8.419694e+000
    endloop
  endfacet
  facet normal 0.000000e+000 8.480635e-002 0.000000e+000
    outer loop
      vertex   -2.000229e+001 3.774263e+001 8.419694e+000
      vertex   -1.988425e+001 3.774263e+001 7.032875e+000
      vertex   -2.000229e+001 3.774263e+001 7.080306e+000
    endloop
  endfacet
  facet normal 0.000000e+000 8.515306e-001 0.000000e+000
    outer loop
      vertex   -2.000229e+001 3.774263e+001 8.419694e+000
      vertex   -2.000229e+001 3.774263e+001 7.080306e+000
      vertex   -2.011061e+001 3.774263e+001 8.352998e+000
    endloop
  endfacet
  facet normal 0.000000e+000 8.480598e-002 0.000000e+000
    outer loop
      vertex   -2.011061e+001 3.774263e+001 8.352998e+000
      vertex   -2.000229e+001 3.774263e+001 7.080306e+000
      vertex   -2.011061e+001 3.774263e+001 7.147002e+000
    endloop
  endfacet
  facet normal 0.000000e+000 7.506704e-001 0.000000e+000
    outer loop
      vertex   -2.011061e+001 3.774263e+001 8.352998e+000
      vertex   -2.011061e+001 3.774263e+001 7.147002e+000
      vertex   -2.020610e+001 3.774263e+001 8.268954e+000
    endloop
  endfacet
  facet normal 0.000000e+000 8.480524e-002 0.000000e+000
    outer loop
      vertex   -2.020610e+001 3.774263e+001 8.268954e+000
      vertex   -2.011061e+001 3.774263e+001 7.147002e+000
      vertex   -2.020610e+001 3.774263e+001 7.231046e+000
    endloop
  endfacet
  facet normal 0.000000e+000 6.282231e-001 0.000000e+000
    outer loop
      vertex   -2.020610e+001 3.774263e+001 8.268954e+000
      vertex   -2.020610e+001 3.774263e+001 7.231046e+000
      vertex   -2.028602e+001 3.774263e+001 8.169981e+000
    endloop
  endfacet
  facet normal 0.000000e+000 8.480680e-002 0.000000e+000
    outer loop
      vertex   -2.028602e+001 3.774263e+001 8.169981e+000
      vertex   -2.020610e+001 3.774263e+001 7.231046e+000
      vertex   -2.028602e+001 3.774263e+001 7.330019e+000
    endloop
  endfacet
  facet normal 0.000000e+000 4.876899e-001 0.000000e+000
    outer loop
      vertex   -2.028602e+001 3.774263e+001 8.169981e+000
      vertex   -2.028602e+001 3.774263e+001 7.330019e+000
      vertex   -2.034806e+001 3.774263e+001 8.058926e+000
    endloop
  endfacet
  facet normal 0.000000e+000 8.480500e-002 0.000000e+000
    outer loop
      vertex   -2.034806e+001 3.774263e+001 8.058926e+000
      vertex   -2.028602e+001 3.774263e+001 7.330019e+000
      vertex   -2.034806e+001 3.774263e+001 7.441074e+000
    endloop
  endfacet
  facet normal 0.000000e+000 3.331475e-001 0.000000e+000
    outer loop
      vertex   -2.034806e+001 3.774263e+001 8.058926e+000
      vertex   -2.034806e+001 3.774263e+001 7.441074e+000
      vertex   -2.039044e+001 3.774263e+001 7.938983e+000
    endloop
  endfacet
  facet normal 0.000000e+000 8.480798e-002 0.000000e+000
    outer loop
      vertex   -2.039044e+001 3.774263e+001 7.938983e+000
      vertex   -2.034806e+001 3.774263e+001 7.441074e+000
      vertex   -2.039044e+001 3.774263e+001 7.561017e+000
    endloop
  endfacet
  facet normal 0.000000e+000 1.689956e-001 0.000000e+000
    outer loop
      vertex   -2.039044e+001 3.774263e+001 7.938983e+000
      vertex   -2.039044e+001 3.774263e+001 7.561017e+000
      vertex   -2.041194e+001 3.774263e+001 7.813604e+000
    endloop
  endfacet
  facet normal 0.000000e+000 8.480333e-002 0.000000e+000
    outer loop
      vertex   -2.041194e+001 3.774263e+001 7.813604e+000
      vertex   -2.039044e+001 3.774263e+001 7.561017e+000
      vertex   -2.041194e+001 3.774263e+001 7.686396e+000
    endloop
  endfacet
endsolid
