solid ascii
  facet normal 0.000000e+000 -1.000000e+000 0.000000e+000
    outer loop
      vertex   -9.293071e+000 7.605733e+001 0.000000e+000
      vertex   -9.293071e+000 7.605733e+001 1.200000e+001
      vertex   -5.729307e+001 7.605733e+001 0.000000e+000
    endloop
  endfacet
  facet normal 0.000000e+000 -9.701425e-001 0.000000e+000
    outer loop
      vertex   -5.729307e+001 7.605733e+001 0.000000e+000
      vertex   -9.293071e+000 7.605733e+001 1.200000e+001
      vertex   -5.729307e+001 7.605733e+001 1.200000e+001
    endloop
  endfacet
  facet normal -1.000000e+000 -0.000000e+000 -0.000000e+000
    outer loop
      vertex   -5.729307e+001 1.720573e+002 1.200000e+001
      vertex   -5.729307e+001 1.720573e+002 0.000000e+000
      vertex   -5.729307e+001 1.240573e+002 1.200000e+001
    endloop
  endfacet
  facet normal -9.701425e-001 0.000000e+000 0.000000e+000
    outer loop
      vertex   -5.729307e+001 1.240573e+002 1.200000e+001
      vertex   -5.729307e+001 1.720573e+002 0.000000e+000
      vertex   -5.729307e+001 1.240573e+002 0.000000e+000
    endloop
  endfacet
  facet normal -1.000000e+000 -0.000000e+000 -0.000000e+000
    outer loop
      vertex   -5.729307e+001 1.240573e+002 1.200000e+001
      vertex   -5.729307e+001 1.240573e+002 0.000000e+000
      vertex   -5.729307e+001 7.605733e+001 1.200000e+001
    endloop
  endfacet
  facet normal -9.701425e-001 0.000000e+000 0.000000e+000
    outer loop
      vertex   -5.729307e+001 7.605733e+001 1.200000e+001
      vertex   -5.729307e+001 1.240573e+002 0.000000e+000
      vertex   -5.729307e+001 7.605733e+001 0.000000e+000
    endloop
  endfacet
  facet normal 0.000000e+000 1.000000e+000 0.000000e+000
    outer loop
      vertex   -5.729307e+001 1.720573e+002 0.000000e+000
      vertex   -5.729307e+001 1.720573e+002 1.200000e+001
      vertex   -9.293071e+000 1.720573e+002 0.000000e+000
    endloop
  endfacet
  facet normal 0.000000e+000 9.701425e-001 -0.000000e+000
    outer loop
      vertex   -9.293071e+000 1.720573e+002 0.000000e+000
      vertex   -5.729307e+001 1.720573e+002 1.200000e+001
      vertex   -9.293071e+000 1.720573e+002 1.200000e+001
    endloop
  endfacet
  facet normal 1.000000e+000 -0.000000e+000 0.000000e+000
    outer loop
      vertex   -9.293071e+000 7.605733e+001 1.200000e+001
      vertex   -9.293071e+000 7.605733e+001 0.000000e+000
      vertex   -9.293071e+000 1.240573e+002 1.200000e+001
    endloop
  endfacet
  facet normal 9.701425e-001 0.000000e+000 0.000000e+000
    outer loop
      vertex   -9.293071e+000 1.240573e+002 1.200000e+001
      vertex   -9.293071e+000 7.605733e+001 0.000000e+000
      vertex   -9.293071e+000 1.240573e+002 0.000000e+000
    endloop
  endfacet
  facet normal 1.000000e+000 -0.000000e+000 0.000000e+000
    outer loop
      vertex   -9.293071e+000 1.240573e+002 1.200000e+001
      vertex   -9.293071e+000 1.240573e+002 0.000000e+000
      vertex   -9.293071e+000 1.720573e+002 1.200000e+001
    endloop
  endfacet
  facet normal 9.701425e-001 0.000000e+000 0.000000e+000
    outer loop
      vertex   -9.293071e+000 1.720573e+002 1.200000e+001
      vertex   -9.293071e+000 1.240573e+002 0.000000e+000
      vertex   -9.293071e+000 1.720573e+002 0.000000e+000
    endloop
  endfacet
  facet normal 0.000000e+000 0.000000e+000 1.000000e+000
    outer loop
      vertex   -5.729307e+001 7.605733e+001 1.200000e+001
      vertex   -9.293071e+000 7.605733e+001 1.200000e+001
      vertex   -5.729307e+001 1.240573e+002 1.200000e+001
    endloop
  endfacet
  facet normal -0.000000e+000 0.000000e+000 7.071068e-001
    outer loop
      vertex   -5.729307e+001 1.240573e+002 1.200000e+001
      vertex   -9.293071e+000 7.605733e+001 1.200000e+001
      vertex   -9.293071e+000 1.240573e+002 1.200000e+001
    endloop
  endfacet
  facet normal 0.000000e+000 0.000000e+000 1.000000e+000
    outer loop
      vertex   -5.729307e+001 1.240573e+002 1.200000e+001
      vertex   -9.293071e+000 1.240573e+002 1.200000e+001
      vertex   -5.729307e+001 1.720573e+002 1.200000e+001
    endloop
  endfacet
  facet normal -0.000000e+000 0.000000e+000 7.071068e-001
    outer loop
      vertex   -5.729307e+001 1.720573e+002 1.200000e+001
      vertex   -9.293071e+000 1.240573e+002 1.200000e+001
      vertex   -9.293071e+000 1.720573e+002 1.200000e+001
    endloop
  endfacet
  facet normal 0.000000e+000 0.000000e+000 -1.000000e+000
    outer loop
      vertex   -5.729307e+001 1.720573e+002 0.000000e+000
      vertex   -9.293071e+000 1.720573e+002 0.000000e+000
      vertex   -5.729307e+001 1.240573e+002 0.000000e+000
    endloop
  endfacet
  facet normal 0.000000e+000 0.000000e+000 -7.071068e-001
    outer loop
      vertex   -5.729307e+001 1.240573e+002 0.000000e+000
      vertex   -9.293071e+000 1.720573e+002 0.000000e+000
      vertex   -9.293071e+000 1.240573e+002 0.000000e+000
    endloop
  endfacet
  facet normal 0.000000e+000 0.000000e+000 -1.000000e+000
    outer loop
      vertex   -5.729307e+001 1.240573e+002 0.000000e+000
      vertex   -9.293071e+000 1.240573e+002 0.000000e+000
      vertex   -5.729307e+001 7.605733e+001 0.000000e+000
    endloop
  endfacet
  facet normal 0.000000e+000 0.000000e+000 -7.071068e-001
    outer loop
      vertex   -5.729307e+001 7.605733e+001 0.000000e+000
      vertex   -9.293071e+000 1.240573e+002 0.000000e+000
      vertex   -9.293071e+000 7.605733e+001 0.000000e+000
    endloop
  endfacet
endsolid
