solid ascii
  facet normal -1.000000e+000 0.000000e+000 0.000000e+000
    outer loop
      vertex   -9.341365e+000 1.746093e+002 0.000000e+000
      vertex   -9.341365e+000 1.246093e+002 0.000000e+000
      vertex   -9.341365e+000 1.746093e+002 1.000000e+001
    endloop
  endfacet
  facet normal -1.961161e-001 -0.000000e+000 0.000000e+000
    outer loop
      vertex   -9.341365e+000 1.746093e+002 1.000000e+001
      vertex   -9.341365e+000 1.246093e+002 0.000000e+000
      vertex   -9.341365e+000 1.246093e+002 1.000000e+001
    endloop
  endfacet
  facet normal -9.805807e-001 0.000000e+000 -0.000000e+000
    outer loop
      vertex   -9.341365e+000 1.246093e+002 1.000000e+001
      vertex   -9.341365e+000 1.246093e+002 0.000000e+000
      vertex   -9.341365e+000 7.460933e+001 0.000000e+000
    endloop
  endfacet
  facet normal -1.961161e-001 -0.000000e+000 0.000000e+000
    outer loop
      vertex   -9.341365e+000 1.246093e+002 1.000000e+001
      vertex   -9.341365e+000 7.460933e+001 0.000000e+000
      vertex   -9.341365e+000 7.460933e+001 1.000000e+001
    endloop
  endfacet
  facet normal 0.000000e+000 -1.000000e+000 0.000000e+000
    outer loop
      vertex   -5.934137e+001 1.746093e+002 0.000000e+000
      vertex   -9.341365e+000 1.746093e+002 0.000000e+000
      vertex   -5.934137e+001 1.746093e+002 1.000000e+001
    endloop
  endfacet
  facet normal 0.000000e+000 -1.961161e-001 0.000000e+000
    outer loop
      vertex   -5.934137e+001 1.746093e+002 1.000000e+001
      vertex   -9.341365e+000 1.746093e+002 0.000000e+000
      vertex   -9.341365e+000 1.746093e+002 1.000000e+001
    endloop
  endfacet
  facet normal 1.000000e+000 0.000000e+000 0.000000e+000
    outer loop
      vertex   -5.934137e+001 7.460933e+001 0.000000e+000
      vertex   -5.934137e+001 1.246093e+002 0.000000e+000
      vertex   -5.934137e+001 7.460933e+001 1.000000e+001
    endloop
  endfacet
  facet normal 1.961161e-001 -0.000000e+000 0.000000e+000
    outer loop
      vertex   -5.934137e+001 7.460933e+001 1.000000e+001
      vertex   -5.934137e+001 1.246093e+002 0.000000e+000
      vertex   -5.934137e+001 1.246093e+002 1.000000e+001
    endloop
  endfacet
  facet normal 9.805807e-001 0.000000e+000 0.000000e+000
    outer loop
      vertex   -5.934137e+001 1.246093e+002 1.000000e+001
      vertex   -5.934137e+001 1.246093e+002 0.000000e+000
      vertex   -5.934137e+001 1.746093e+002 0.000000e+000
    endloop
  endfacet
  facet normal 1.961161e-001 -0.000000e+000 0.000000e+000
    outer loop
      vertex   -5.934137e+001 1.246093e+002 1.000000e+001
      vertex   -5.934137e+001 1.746093e+002 0.000000e+000
      vertex   -5.934137e+001 1.746093e+002 1.000000e+001
    endloop
  endfacet
  facet normal 0.000000e+000 1.000000e+000 -0.000000e+000
    outer loop
      vertex   -9.341365e+000 7.460933e+001 0.000000e+000
      vertex   -5.934137e+001 7.460933e+001 0.000000e+000
      vertex   -9.341365e+000 7.460933e+001 1.000000e+001
    endloop
  endfacet
  facet normal 0.000000e+000 1.961161e-001 0.000000e+000
    outer loop
      vertex   -9.341365e+000 7.460933e+001 1.000000e+001
      vertex   -5.934137e+001 7.460933e+001 0.000000e+000
      vertex   -5.934137e+001 7.460933e+001 1.000000e+001
    endloop
  endfacet
  facet normal 0.000000e+000 1.000000e+000 -0.000000e+000
    outer loop
      vertex   -4.341365e+000 1.796093e+002 0.000000e+000
      vertex   -3.434137e+001 1.796093e+002 0.000000e+000
      vertex   -4.341365e+000 1.796093e+002 1.000000e+001
    endloop
  endfacet
  facet normal 0.000000e+000 3.162278e-001 0.000000e+000
    outer loop
      vertex   -4.341365e+000 1.796093e+002 1.000000e+001
      vertex   -3.434137e+001 1.796093e+002 0.000000e+000
      vertex   -3.434137e+001 1.796093e+002 1.000000e+001
    endloop
  endfacet
  facet normal 0.000000e+000 9.486833e-001 0.000000e+000
    outer loop
      vertex   -3.434137e+001 1.796093e+002 1.000000e+001
      vertex   -3.434137e+001 1.796093e+002 0.000000e+000
      vertex   -6.434136e+001 1.796093e+002 0.000000e+000
    endloop
  endfacet
  facet normal 0.000000e+000 3.162278e-001 0.000000e+000
    outer loop
      vertex   -3.434137e+001 1.796093e+002 1.000000e+001
      vertex   -6.434136e+001 1.796093e+002 0.000000e+000
      vertex   -6.434136e+001 1.796093e+002 1.000000e+001
    endloop
  endfacet
  facet normal 1.000000e+000 0.000000e+000 0.000000e+000
    outer loop
      vertex   -4.341365e+000 6.960933e+001 0.000000e+000
      vertex   -4.341365e+000 1.246093e+002 0.000000e+000
      vertex   -4.341365e+000 6.960933e+001 1.000000e+001
    endloop
  endfacet
  facet normal 1.788854e-001 -0.000000e+000 0.000000e+000
    outer loop
      vertex   -4.341365e+000 6.960933e+001 1.000000e+001
      vertex   -4.341365e+000 1.246093e+002 0.000000e+000
      vertex   -4.341365e+000 1.246093e+002 1.000000e+001
    endloop
  endfacet
  facet normal 9.838699e-001 0.000000e+000 0.000000e+000
    outer loop
      vertex   -4.341365e+000 1.246093e+002 1.000000e+001
      vertex   -4.341365e+000 1.246093e+002 0.000000e+000
      vertex   -4.341365e+000 1.796093e+002 0.000000e+000
    endloop
  endfacet
  facet normal 1.788854e-001 -0.000000e+000 0.000000e+000
    outer loop
      vertex   -4.341365e+000 1.246093e+002 1.000000e+001
      vertex   -4.341365e+000 1.796093e+002 0.000000e+000
      vertex   -4.341365e+000 1.796093e+002 1.000000e+001
    endloop
  endfacet
  facet normal 0.000000e+000 -1.000000e+000 0.000000e+000
    outer loop
      vertex   -6.434136e+001 6.960933e+001 0.000000e+000
      vertex   -3.434137e+001 6.960933e+001 0.000000e+000
      vertex   -6.434136e+001 6.960933e+001 1.000000e+001
    endloop
  endfacet
  facet normal 0.000000e+000 -3.162278e-001 0.000000e+000
    outer loop
      vertex   -6.434136e+001 6.960933e+001 1.000000e+001
      vertex   -3.434137e+001 6.960933e+001 0.000000e+000
      vertex   -3.434137e+001 6.960933e+001 1.000000e+001
    endloop
  endfacet
  facet normal 0.000000e+000 -9.486833e-001 0.000000e+000
    outer loop
      vertex   -3.434137e+001 6.960933e+001 1.000000e+001
      vertex   -3.434137e+001 6.960933e+001 0.000000e+000
      vertex   -4.341365e+000 6.960933e+001 0.000000e+000
    endloop
  endfacet
  facet normal 0.000000e+000 -3.162278e-001 0.000000e+000
    outer loop
      vertex   -3.434137e+001 6.960933e+001 1.000000e+001
      vertex   -4.341365e+000 6.960933e+001 0.000000e+000
      vertex   -4.341365e+000 6.960933e+001 1.000000e+001
    endloop
  endfacet
  facet normal -1.000000e+000 0.000000e+000 0.000000e+000
    outer loop
      vertex   -6.434136e+001 1.796093e+002 0.000000e+000
      vertex   -6.434136e+001 1.246093e+002 0.000000e+000
      vertex   -6.434136e+001 1.796093e+002 1.000000e+001
    endloop
  endfacet
  facet normal -1.788854e-001 -0.000000e+000 0.000000e+000
    outer loop
      vertex   -6.434136e+001 1.796093e+002 1.000000e+001
      vertex   -6.434136e+001 1.246093e+002 0.000000e+000
      vertex   -6.434136e+001 1.246093e+002 1.000000e+001
    endloop
  endfacet
  facet normal -9.838699e-001 0.000000e+000 -0.000000e+000
    outer loop
      vertex   -6.434136e+001 1.246093e+002 1.000000e+001
      vertex   -6.434136e+001 1.246093e+002 0.000000e+000
      vertex   -6.434136e+001 6.960933e+001 0.000000e+000
    endloop
  endfacet
  facet normal -1.788854e-001 -0.000000e+000 0.000000e+000
    outer loop
      vertex   -6.434136e+001 1.246093e+002 1.000000e+001
      vertex   -6.434136e+001 6.960933e+001 0.000000e+000
      vertex   -6.434136e+001 6.960933e+001 1.000000e+001
    endloop
  endfacet
  facet normal -0.000000e+000 0.000000e+000 1.961161e-001
    outer loop
      vertex   -5.934137e+001 7.460933e+001 1.000000e+001
      vertex   -3.434137e+001 6.960933e+001 1.000000e+001
      vertex   -9.341365e+000 7.460933e+001 1.000000e+001
    endloop
  endfacet
  facet normal 0.000000e+000 0.000000e+000 8.320503e-001
    outer loop
      vertex   -9.341365e+000 7.460933e+001 1.000000e+001
      vertex   -3.434137e+001 6.960933e+001 1.000000e+001
      vertex   -4.341365e+000 6.960933e+001 1.000000e+001
    endloop
  endfacet
  facet normal -0.000000e+000 0.000000e+000 7.739573e-001
    outer loop
      vertex   -9.341365e+000 7.460933e+001 1.000000e+001
      vertex   -4.341365e+000 6.960933e+001 1.000000e+001
      vertex   -4.341365e+000 1.246093e+002 1.000000e+001
    endloop
  endfacet
  facet normal 0.000000e+000 0.000000e+000 1.000000e+000
    outer loop
      vertex   -5.934137e+001 1.246093e+002 1.000000e+001
      vertex   -6.434136e+001 1.246093e+002 1.000000e+001
      vertex   -5.934137e+001 7.460933e+001 1.000000e+001
    endloop
  endfacet
  facet normal 0.000000e+000 0.000000e+000 7.739570e-001
    outer loop
      vertex   -5.934137e+001 7.460933e+001 1.000000e+001
      vertex   -6.434136e+001 1.246093e+002 1.000000e+001
      vertex   -6.434136e+001 6.960933e+001 1.000000e+001
    endloop
  endfacet
  facet normal 0.000000e+000 0.000000e+000 8.320505e-001
    outer loop
      vertex   -5.934137e+001 7.460933e+001 1.000000e+001
      vertex   -6.434136e+001 6.960933e+001 1.000000e+001
      vertex   -3.434137e+001 6.960933e+001 1.000000e+001
    endloop
  endfacet
  facet normal 0.000000e+000 -0.000000e+000 1.000000e+000
    outer loop
      vertex   -5.934137e+001 1.246093e+002 1.000000e+001
      vertex   -5.934137e+001 1.746093e+002 1.000000e+001
      vertex   -6.434136e+001 1.246093e+002 1.000000e+001
    endloop
  endfacet
  facet normal 0.000000e+000 0.000000e+000 9.950364e-002
    outer loop
      vertex   -6.434136e+001 1.246093e+002 1.000000e+001
      vertex   -5.934137e+001 1.746093e+002 1.000000e+001
      vertex   -6.434136e+001 1.796093e+002 1.000000e+001
    endloop
  endfacet
  facet normal -0.000000e+000 0.000000e+000 7.071071e-001
    outer loop
      vertex   -6.434136e+001 1.796093e+002 1.000000e+001
      vertex   -5.934137e+001 1.746093e+002 1.000000e+001
      vertex   -3.434137e+001 1.796093e+002 1.000000e+001
    endloop
  endfacet
  facet normal 0.000000e+000 0.000000e+000 3.846154e-001
    outer loop
      vertex   -3.434137e+001 1.796093e+002 1.000000e+001
      vertex   -5.934137e+001 1.746093e+002 1.000000e+001
      vertex   -9.341365e+000 1.746093e+002 1.000000e+001
    endloop
  endfacet
  facet normal -0.000000e+000 0.000000e+000 1.961161e-001
    outer loop
      vertex   -3.434137e+001 1.796093e+002 1.000000e+001
      vertex   -9.341365e+000 1.746093e+002 1.000000e+001
      vertex   -4.341365e+000 1.796093e+002 1.000000e+001
    endloop
  endfacet
  facet normal 0.000000e+000 0.000000e+000 7.071068e-001
    outer loop
      vertex   -4.341365e+000 1.796093e+002 1.000000e+001
      vertex   -9.341365e+000 1.746093e+002 1.000000e+001
      vertex   -4.341365e+000 1.246093e+002 1.000000e+001
    endloop
  endfacet
  facet normal 0.000000e+000 0.000000e+000 9.950372e-001
    outer loop
      vertex   -4.341365e+000 1.246093e+002 1.000000e+001
      vertex   -9.341365e+000 1.746093e+002 1.000000e+001
      vertex   -9.341365e+000 1.246093e+002 1.000000e+001
    endloop
  endfacet
  facet normal 0.000000e+000 0.000000e+000 9.950372e-001
    outer loop
      vertex   -4.341365e+000 1.246093e+002 1.000000e+001
      vertex   -9.341365e+000 1.246093e+002 1.000000e+001
      vertex   -9.341365e+000 7.460933e+001 1.000000e+001
    endloop
  endfacet
  facet normal -0.000000e+000 0.000000e+000 -1.961161e-001
    outer loop
      vertex   -9.341365e+000 7.460933e+001 0.000000e+000
      vertex   -3.434137e+001 6.960933e+001 0.000000e+000
      vertex   -5.934137e+001 7.460933e+001 0.000000e+000
    endloop
  endfacet
  facet normal 0.000000e+000 -0.000000e+000 -8.320505e-001
    outer loop
      vertex   -5.934137e+001 7.460933e+001 0.000000e+000
      vertex   -3.434137e+001 6.960933e+001 0.000000e+000
      vertex   -6.434136e+001 6.960933e+001 0.000000e+000
    endloop
  endfacet
  facet normal -0.000000e+000 0.000000e+000 -7.739570e-001
    outer loop
      vertex   -5.934137e+001 7.460933e+001 0.000000e+000
      vertex   -6.434136e+001 6.960933e+001 0.000000e+000
      vertex   -6.434136e+001 1.246093e+002 0.000000e+000
    endloop
  endfacet
  facet normal 0.000000e+000 0.000000e+000 -1.000000e+000
    outer loop
      vertex   -9.341365e+000 1.246093e+002 0.000000e+000
      vertex   -4.341365e+000 1.246093e+002 0.000000e+000
      vertex   -9.341365e+000 7.460933e+001 0.000000e+000
    endloop
  endfacet
  facet normal 0.000000e+000 0.000000e+000 -7.739573e-001
    outer loop
      vertex   -9.341365e+000 7.460933e+001 0.000000e+000
      vertex   -4.341365e+000 1.246093e+002 0.000000e+000
      vertex   -4.341365e+000 6.960933e+001 0.000000e+000
    endloop
  endfacet
  facet normal 0.000000e+000 -0.000000e+000 -8.320503e-001
    outer loop
      vertex   -9.341365e+000 7.460933e+001 0.000000e+000
      vertex   -4.341365e+000 6.960933e+001 0.000000e+000
      vertex   -3.434137e+001 6.960933e+001 0.000000e+000
    endloop
  endfacet
  facet normal 0.000000e+000 0.000000e+000 -1.000000e+000
    outer loop
      vertex   -9.341365e+000 1.246093e+002 0.000000e+000
      vertex   -9.341365e+000 1.746093e+002 0.000000e+000
      vertex   -4.341365e+000 1.246093e+002 0.000000e+000
    endloop
  endfacet
  facet normal 0.000000e+000 0.000000e+000 -9.950372e-002
    outer loop
      vertex   -4.341365e+000 1.246093e+002 0.000000e+000
      vertex   -9.341365e+000 1.746093e+002 0.000000e+000
      vertex   -4.341365e+000 1.796093e+002 0.000000e+000
    endloop
  endfacet
  facet normal -0.000000e+000 0.000000e+000 -7.071068e-001
    outer loop
      vertex   -4.341365e+000 1.796093e+002 0.000000e+000
      vertex   -9.341365e+000 1.746093e+002 0.000000e+000
      vertex   -3.434137e+001 1.796093e+002 0.000000e+000
    endloop
  endfacet
  facet normal 0.000000e+000 -0.000000e+000 -3.846154e-001
    outer loop
      vertex   -3.434137e+001 1.796093e+002 0.000000e+000
      vertex   -9.341365e+000 1.746093e+002 0.000000e+000
      vertex   -5.934137e+001 1.746093e+002 0.000000e+000
    endloop
  endfacet
  facet normal -0.000000e+000 0.000000e+000 -1.961161e-001
    outer loop
      vertex   -3.434137e+001 1.796093e+002 0.000000e+000
      vertex   -5.934137e+001 1.746093e+002 0.000000e+000
      vertex   -6.434136e+001 1.796093e+002 0.000000e+000
    endloop
  endfacet
  facet normal 0.000000e+000 0.000000e+000 -7.071065e-001
    outer loop
      vertex   -6.434136e+001 1.796093e+002 0.000000e+000
      vertex   -5.934137e+001 1.746093e+002 0.000000e+000
      vertex   -6.434136e+001 1.246093e+002 0.000000e+000
    endloop
  endfacet
  facet normal 0.000000e+000 0.000000e+000 -9.950372e-001
    outer loop
      vertex   -6.434136e+001 1.246093e+002 0.000000e+000
      vertex   -5.934137e+001 1.746093e+002 0.000000e+000
      vertex   -5.934137e+001 1.246093e+002 0.000000e+000
    endloop
  endfacet
  facet normal 0.000000e+000 0.000000e+000 -9.950372e-001
    outer loop
      vertex   -6.434136e+001 1.246093e+002 0.000000e+000
      vertex   -5.934137e+001 1.246093e+002 0.000000e+000
      vertex   -5.934137e+001 7.460933e+001 0.000000e+000
    endloop
  endfacet
endsolid
