solid ascii
  facet normal 0.000000e+000 -1.000000e+000 0.000000e+000
    outer loop
      vertex   1.224597e+000 6.955709e+001 0.000000e+000
      vertex   1.224597e+000 6.955709e+001 1.000000e+001
      vertex   -4.775403e+000 6.955709e+001 0.000000e+000
    endloop
  endfacet
  facet normal 0.000000e+000 -5.144957e-001 0.000000e+000
    outer loop
      vertex   -4.775403e+000 6.955709e+001 0.000000e+000
      vertex   1.224597e+000 6.955709e+001 1.000000e+001
      vertex   -4.775403e+000 6.955709e+001 1.000000e+001
    endloop
  endfacet
  facet normal -1.000000e+000 -0.000000e+000 -0.000000e+000
    outer loop
      vertex   -4.775403e+000 1.795571e+002 1.000000e+001
      vertex   -4.775403e+000 1.795571e+002 0.000000e+000
      vertex   -4.775403e+000 1.245571e+002 1.000000e+001
    endloop
  endfacet
  facet normal -9.838699e-001 0.000000e+000 0.000000e+000
    outer loop
      vertex   -4.775403e+000 1.245571e+002 1.000000e+001
      vertex   -4.775403e+000 1.795571e+002 0.000000e+000
      vertex   -4.775403e+000 1.245571e+002 0.000000e+000
    endloop
  endfacet
  facet normal -1.000000e+000 -0.000000e+000 -0.000000e+000
    outer loop
      vertex   -4.775403e+000 1.245571e+002 1.000000e+001
      vertex   -4.775403e+000 1.245571e+002 0.000000e+000
      vertex   -4.775403e+000 6.955709e+001 1.000000e+001
    endloop
  endfacet
  facet normal -9.838699e-001 0.000000e+000 0.000000e+000
    outer loop
      vertex   -4.775403e+000 6.955709e+001 1.000000e+001
      vertex   -4.775403e+000 1.245571e+002 0.000000e+000
      vertex   -4.775403e+000 6.955709e+001 0.000000e+000
    endloop
  endfacet
  facet normal 0.000000e+000 1.000000e+000 0.000000e+000
    outer loop
      vertex   -4.775403e+000 1.795571e+002 0.000000e+000
      vertex   -4.775403e+000 1.795571e+002 1.000000e+001
      vertex   1.224597e+000 1.795571e+002 0.000000e+000
    endloop
  endfacet
  facet normal 0.000000e+000 5.144957e-001 -0.000000e+000
    outer loop
      vertex   1.224597e+000 1.795571e+002 0.000000e+000
      vertex   -4.775403e+000 1.795571e+002 1.000000e+001
      vertex   1.224597e+000 1.795571e+002 1.000000e+001
    endloop
  endfacet
  facet normal 1.000000e+000 -0.000000e+000 0.000000e+000
    outer loop
      vertex   1.224597e+000 6.955709e+001 1.000000e+001
      vertex   1.224597e+000 6.955709e+001 0.000000e+000
      vertex   1.224597e+000 1.245571e+002 1.000000e+001
    endloop
  endfacet
  facet normal 9.838699e-001 0.000000e+000 0.000000e+000
    outer loop
      vertex   1.224597e+000 1.245571e+002 1.000000e+001
      vertex   1.224597e+000 6.955709e+001 0.000000e+000
      vertex   1.224597e+000 1.245571e+002 0.000000e+000
    endloop
  endfacet
  facet normal 1.000000e+000 -0.000000e+000 0.000000e+000
    outer loop
      vertex   1.224597e+000 1.245571e+002 1.000000e+001
      vertex   1.224597e+000 1.245571e+002 0.000000e+000
      vertex   1.224597e+000 1.795571e+002 1.000000e+001
    endloop
  endfacet
  facet normal 9.838699e-001 0.000000e+000 0.000000e+000
    outer loop
      vertex   1.224597e+000 1.795571e+002 1.000000e+001
      vertex   1.224597e+000 1.245571e+002 0.000000e+000
      vertex   1.224597e+000 1.795571e+002 0.000000e+000
    endloop
  endfacet
  facet normal 0.000000e+000 0.000000e+000 1.000000e+000
    outer loop
      vertex   -4.775403e+000 6.955709e+001 1.000000e+001
      vertex   1.224597e+000 6.955709e+001 1.000000e+001
      vertex   -4.775403e+000 1.245571e+002 1.000000e+001
    endloop
  endfacet
  facet normal -0.000000e+000 0.000000e+000 9.941022e-001
    outer loop
      vertex   -4.775403e+000 1.245571e+002 1.000000e+001
      vertex   1.224597e+000 6.955709e+001 1.000000e+001
      vertex   1.224597e+000 1.245571e+002 1.000000e+001
    endloop
  endfacet
  facet normal 0.000000e+000 0.000000e+000 1.000000e+000
    outer loop
      vertex   -4.775403e+000 1.245571e+002 1.000000e+001
      vertex   1.224597e+000 1.245571e+002 1.000000e+001
      vertex   -4.775403e+000 1.795571e+002 1.000000e+001
    endloop
  endfacet
  facet normal -0.000000e+000 0.000000e+000 9.941022e-001
    outer loop
      vertex   -4.775403e+000 1.795571e+002 1.000000e+001
      vertex   1.224597e+000 1.245571e+002 1.000000e+001
      vertex   1.224597e+000 1.795571e+002 1.000000e+001
    endloop
  endfacet
  facet normal 0.000000e+000 0.000000e+000 -1.000000e+000
    outer loop
      vertex   -4.775403e+000 1.795571e+002 0.000000e+000
      vertex   1.224597e+000 1.795571e+002 0.000000e+000
      vertex   -4.775403e+000 1.245571e+002 0.000000e+000
    endloop
  endfacet
  facet normal 0.000000e+000 0.000000e+000 -9.941022e-001
    outer loop
      vertex   -4.775403e+000 1.245571e+002 0.000000e+000
      vertex   1.224597e+000 1.795571e+002 0.000000e+000
      vertex   1.224597e+000 1.245571e+002 0.000000e+000
    endloop
  endfacet
  facet normal 0.000000e+000 0.000000e+000 -1.000000e+000
    outer loop
      vertex   -4.775403e+000 1.245571e+002 0.000000e+000
      vertex   1.224597e+000 1.245571e+002 0.000000e+000
      vertex   -4.775403e+000 6.955709e+001 0.000000e+000
    endloop
  endfacet
  facet normal 0.000000e+000 0.000000e+000 -9.941022e-001
    outer loop
      vertex   -4.775403e+000 6.955709e+001 0.000000e+000
      vertex   1.224597e+000 1.245571e+002 0.000000e+000
      vertex   1.224597e+000 6.955709e+001 0.000000e+000
    endloop
  endfacet
endsolid
