solid ascii
  facet normal 1.000000e+000 0.000000e+000 0.000000e+000
    outer loop
      vertex   -1.245167e+002 4.862516e+001 1.958360e+001
      vertex   -1.245167e+002 9.862516e+001 1.958360e+001
      vertex   -1.245167e+002 4.862516e+001 5.958360e+001
    endloop
  endfacet
  facet normal 6.246951e-001 -0.000000e+000 0.000000e+000
    outer loop
      vertex   -1.245167e+002 4.862516e+001 5.958360e+001
      vertex   -1.245167e+002 9.862516e+001 1.958360e+001
      vertex   -1.245167e+002 9.862516e+001 5.958360e+001
    endloop
  endfacet
  facet normal 1.000000e+000 0.000000e+000 0.000000e+000
    outer loop
      vertex   -1.245167e+002 4.862516e+001 5.958360e+001
      vertex   -1.245167e+002 9.862516e+001 5.958360e+001
      vertex   -1.245167e+002 4.862516e+001 9.958360e+001
    endloop
  endfacet
  facet normal 6.246950e-001 -0.000000e+000 0.000000e+000
    outer loop
      vertex   -1.245167e+002 4.862516e+001 9.958360e+001
      vertex   -1.245167e+002 9.862516e+001 5.958360e+001
      vertex   -1.245167e+002 9.862516e+001 9.958360e+001
    endloop
  endfacet
  facet normal 7.808688e-001 0.000000e+000 0.000000e+000
    outer loop
      vertex   -1.245167e+002 9.862516e+001 9.958360e+001
      vertex   -1.245167e+002 9.862516e+001 5.958360e+001
      vertex   -1.245167e+002 1.486252e+002 5.958360e+001
    endloop
  endfacet
  facet normal 6.246951e-001 -0.000000e+000 0.000000e+000
    outer loop
      vertex   -1.245167e+002 9.862516e+001 9.958360e+001
      vertex   -1.245167e+002 1.486252e+002 5.958360e+001
      vertex   -1.245167e+002 1.486252e+002 9.958360e+001
    endloop
  endfacet
  facet normal 7.808688e-001 0.000000e+000 0.000000e+000
    outer loop
      vertex   -1.245167e+002 1.486252e+002 9.958360e+001
      vertex   -1.245167e+002 1.486252e+002 5.958360e+001
      vertex   -1.245167e+002 1.986252e+002 5.958360e+001
    endloop
  endfacet
  facet normal 6.246950e-001 -0.000000e+000 0.000000e+000
    outer loop
      vertex   -1.245167e+002 1.486252e+002 9.958360e+001
      vertex   -1.245167e+002 1.986252e+002 5.958360e+001
      vertex   -1.245167e+002 1.986252e+002 9.958360e+001
    endloop
  endfacet
  facet normal 1.000000e+000 0.000000e+000 0.000000e+000
    outer loop
      vertex   -1.245167e+002 9.862516e+001 1.958360e+001
      vertex   -1.245167e+002 1.486252e+002 1.958360e+001
      vertex   -1.245167e+002 9.862516e+001 5.958360e+001
    endloop
  endfacet
  facet normal 6.246951e-001 -0.000000e+000 0.000000e+000
    outer loop
      vertex   -1.245167e+002 9.862516e+001 5.958360e+001
      vertex   -1.245167e+002 1.486252e+002 1.958360e+001
      vertex   -1.245167e+002 1.486252e+002 5.958360e+001
    endloop
  endfacet
  facet normal 1.000000e+000 0.000000e+000 0.000000e+000
    outer loop
      vertex   -1.245167e+002 1.486252e+002 1.958360e+001
      vertex   -1.245167e+002 1.986252e+002 1.958360e+001
      vertex   -1.245167e+002 1.486252e+002 5.958360e+001
    endloop
  endfacet
  facet normal 6.246951e-001 -0.000000e+000 0.000000e+000
    outer loop
      vertex   -1.245167e+002 1.486252e+002 5.958360e+001
      vertex   -1.245167e+002 1.986252e+002 1.958360e+001
      vertex   -1.245167e+002 1.986252e+002 5.958360e+001
    endloop
  endfacet
  facet normal 0.000000e+000 -1.000000e+000 0.000000e+000
    outer loop
      vertex   -1.495167e+002 4.862516e+001 1.958360e+001
      vertex   -1.245167e+002 4.862516e+001 1.958360e+001
      vertex   -1.495167e+002 4.862516e+001 5.958360e+001
    endloop
  endfacet
  facet normal 0.000000e+000 -8.479984e-001 0.000000e+000
    outer loop
      vertex   -1.495167e+002 4.862516e+001 5.958360e+001
      vertex   -1.245167e+002 4.862516e+001 1.958360e+001
      vertex   -1.245167e+002 4.862516e+001 5.958360e+001
    endloop
  endfacet
  facet normal 0.000000e+000 -1.000000e+000 0.000000e+000
    outer loop
      vertex   -1.495167e+002 4.862516e+001 5.958360e+001
      vertex   -1.245167e+002 4.862516e+001 5.958360e+001
      vertex   -1.495167e+002 4.862516e+001 9.958360e+001
    endloop
  endfacet
  facet normal 0.000000e+000 -8.479984e-001 0.000000e+000
    outer loop
      vertex   -1.495167e+002 4.862516e+001 9.958360e+001
      vertex   -1.245167e+002 4.862516e+001 5.958360e+001
      vertex   -1.245167e+002 4.862516e+001 9.958360e+001
    endloop
  endfacet
  facet normal -1.000000e+000 0.000000e+000 0.000000e+000
    outer loop
      vertex   -1.495167e+002 1.986252e+002 1.958360e+001
      vertex   -1.495167e+002 1.486252e+002 1.958360e+001
      vertex   -1.495167e+002 1.986252e+002 5.958360e+001
    endloop
  endfacet
  facet normal -6.246951e-001 -0.000000e+000 0.000000e+000
    outer loop
      vertex   -1.495167e+002 1.986252e+002 5.958360e+001
      vertex   -1.495167e+002 1.486252e+002 1.958360e+001
      vertex   -1.495167e+002 1.486252e+002 5.958360e+001
    endloop
  endfacet
  facet normal -1.000000e+000 0.000000e+000 0.000000e+000
    outer loop
      vertex   -1.495167e+002 1.986252e+002 5.958360e+001
      vertex   -1.495167e+002 1.486252e+002 5.958360e+001
      vertex   -1.495167e+002 1.986252e+002 9.958360e+001
    endloop
  endfacet
  facet normal -6.246950e-001 -0.000000e+000 0.000000e+000
    outer loop
      vertex   -1.495167e+002 1.986252e+002 9.958360e+001
      vertex   -1.495167e+002 1.486252e+002 5.958360e+001
      vertex   -1.495167e+002 1.486252e+002 9.958360e+001
    endloop
  endfacet
  facet normal -7.808688e-001 0.000000e+000 -0.000000e+000
    outer loop
      vertex   -1.495167e+002 1.486252e+002 9.958360e+001
      vertex   -1.495167e+002 1.486252e+002 5.958360e+001
      vertex   -1.495167e+002 9.862516e+001 5.958360e+001
    endloop
  endfacet
  facet normal -6.246951e-001 -0.000000e+000 0.000000e+000
    outer loop
      vertex   -1.495167e+002 1.486252e+002 9.958360e+001
      vertex   -1.495167e+002 9.862516e+001 5.958360e+001
      vertex   -1.495167e+002 9.862516e+001 9.958360e+001
    endloop
  endfacet
  facet normal -7.808688e-001 0.000000e+000 -0.000000e+000
    outer loop
      vertex   -1.495167e+002 9.862516e+001 9.958360e+001
      vertex   -1.495167e+002 9.862516e+001 5.958360e+001
      vertex   -1.495167e+002 4.862516e+001 5.958360e+001
    endloop
  endfacet
  facet normal -6.246950e-001 -0.000000e+000 0.000000e+000
    outer loop
      vertex   -1.495167e+002 9.862516e+001 9.958360e+001
      vertex   -1.495167e+002 4.862516e+001 5.958360e+001
      vertex   -1.495167e+002 4.862516e+001 9.958360e+001
    endloop
  endfacet
  facet normal -1.000000e+000 0.000000e+000 0.000000e+000
    outer loop
      vertex   -1.495167e+002 1.486252e+002 1.958360e+001
      vertex   -1.495167e+002 9.862516e+001 1.958360e+001
      vertex   -1.495167e+002 1.486252e+002 5.958360e+001
    endloop
  endfacet
  facet normal -6.246951e-001 -0.000000e+000 0.000000e+000
    outer loop
      vertex   -1.495167e+002 1.486252e+002 5.958360e+001
      vertex   -1.495167e+002 9.862516e+001 1.958360e+001
      vertex   -1.495167e+002 9.862516e+001 5.958360e+001
    endloop
  endfacet
  facet normal -1.000000e+000 0.000000e+000 0.000000e+000
    outer loop
      vertex   -1.495167e+002 9.862516e+001 1.958360e+001
      vertex   -1.495167e+002 4.862516e+001 1.958360e+001
      vertex   -1.495167e+002 9.862516e+001 5.958360e+001
    endloop
  endfacet
  facet normal -6.246951e-001 -0.000000e+000 0.000000e+000
    outer loop
      vertex   -1.495167e+002 9.862516e+001 5.958360e+001
      vertex   -1.495167e+002 4.862516e+001 1.958360e+001
      vertex   -1.495167e+002 4.862516e+001 5.958360e+001
    endloop
  endfacet
  facet normal -8.944272e-001 4.472135e-001 0.000000e+000
    outer loop
      vertex   -1.245167e+002 2.486252e+002 1.958360e+001
      vertex   -1.495167e+002 1.986252e+002 1.958360e+001
      vertex   -1.245167e+002 2.486252e+002 5.958360e+001
    endloop
  endfacet
  facet normal -5.204801e-001 2.602400e-001 0.000000e+000
    outer loop
      vertex   -1.245167e+002 2.486252e+002 5.958360e+001
      vertex   -1.495167e+002 1.986252e+002 1.958360e+001
      vertex   -1.495167e+002 1.986252e+002 5.958360e+001
    endloop
  endfacet
  facet normal -8.944272e-001 4.472135e-001 0.000000e+000
    outer loop
      vertex   -1.245167e+002 2.486252e+002 5.958360e+001
      vertex   -1.495167e+002 1.986252e+002 5.958360e+001
      vertex   -1.245167e+002 2.486252e+002 9.958360e+001
    endloop
  endfacet
  facet normal -5.204800e-001 2.602400e-001 0.000000e+000
    outer loop
      vertex   -1.245167e+002 2.486252e+002 9.958360e+001
      vertex   -1.495167e+002 1.986252e+002 5.958360e+001
      vertex   -1.495167e+002 1.986252e+002 9.958360e+001
    endloop
  endfacet
  facet normal 0.000000e+000 1.000000e+000 -0.000000e+000
    outer loop
      vertex   -9.951667e+001 2.486252e+002 1.958360e+001
      vertex   -1.245167e+002 2.486252e+002 1.958360e+001
      vertex   -9.951667e+001 2.486252e+002 5.958360e+001
    endloop
  endfacet
  facet normal 0.000000e+000 8.479983e-001 0.000000e+000
    outer loop
      vertex   -9.951667e+001 2.486252e+002 5.958360e+001
      vertex   -1.245167e+002 2.486252e+002 1.958360e+001
      vertex   -1.245167e+002 2.486252e+002 5.958360e+001
    endloop
  endfacet
  facet normal 0.000000e+000 1.000000e+000 -0.000000e+000
    outer loop
      vertex   -9.951667e+001 2.486252e+002 5.958360e+001
      vertex   -1.245167e+002 2.486252e+002 5.958360e+001
      vertex   -9.951667e+001 2.486252e+002 9.958360e+001
    endloop
  endfacet
  facet normal 0.000000e+000 8.479983e-001 0.000000e+000
    outer loop
      vertex   -9.951667e+001 2.486252e+002 9.958360e+001
      vertex   -1.245167e+002 2.486252e+002 5.958360e+001
      vertex   -1.245167e+002 2.486252e+002 9.958360e+001
    endloop
  endfacet
  facet normal 8.944272e-001 -4.472136e-001 0.000000e+000
    outer loop
      vertex   -1.245167e+002 1.986252e+002 1.958360e+001
      vertex   -9.951667e+001 2.486252e+002 1.958360e+001
      vertex   -1.245167e+002 1.986252e+002 5.958360e+001
    endloop
  endfacet
  facet normal 5.204800e-001 -2.602400e-001 0.000000e+000
    outer loop
      vertex   -1.245167e+002 1.986252e+002 5.958360e+001
      vertex   -9.951667e+001 2.486252e+002 1.958360e+001
      vertex   -9.951667e+001 2.486252e+002 5.958360e+001
    endloop
  endfacet
  facet normal 8.944272e-001 -4.472136e-001 0.000000e+000
    outer loop
      vertex   -1.245167e+002 1.986252e+002 5.958360e+001
      vertex   -9.951667e+001 2.486252e+002 5.958360e+001
      vertex   -1.245167e+002 1.986252e+002 9.958360e+001
    endloop
  endfacet
  facet normal 5.204800e-001 -2.602400e-001 0.000000e+000
    outer loop
      vertex   -1.245167e+002 1.986252e+002 9.958360e+001
      vertex   -9.951667e+001 2.486252e+002 5.958360e+001
      vertex   -9.951667e+001 2.486252e+002 9.958360e+001
    endloop
  endfacet
  facet normal 0.000000e+000 0.000000e+000 8.944272e-001
    outer loop
      vertex   -9.951667e+001 2.486252e+002 9.958360e+001
      vertex   -1.245167e+002 2.486252e+002 9.958360e+001
      vertex   -1.245167e+002 1.986252e+002 9.958360e+001
    endloop
  endfacet
  facet normal 0.000000e+000 -0.000000e+000 1.000000e+000
    outer loop
      vertex   -1.245167e+002 1.986252e+002 9.958360e+001
      vertex   -1.245167e+002 2.486252e+002 9.958360e+001
      vertex   -1.495167e+002 1.986252e+002 9.958360e+001
    endloop
  endfacet
  facet normal 0.000000e+000 0.000000e+000 1.000000e+000
    outer loop
      vertex   -1.245167e+002 1.986252e+002 9.958360e+001
      vertex   -1.495167e+002 1.986252e+002 9.958360e+001
      vertex   -1.245167e+002 1.486252e+002 9.958360e+001
    endloop
  endfacet
  facet normal 0.000000e+000 0.000000e+000 8.944272e-001
    outer loop
      vertex   -1.245167e+002 1.486252e+002 9.958360e+001
      vertex   -1.495167e+002 1.986252e+002 9.958360e+001
      vertex   -1.495167e+002 1.486252e+002 9.958360e+001
    endloop
  endfacet
  facet normal 0.000000e+000 0.000000e+000 1.000000e+000
    outer loop
      vertex   -1.245167e+002 1.486252e+002 9.958360e+001
      vertex   -1.495167e+002 1.486252e+002 9.958360e+001
      vertex   -1.245167e+002 9.862516e+001 9.958360e+001
    endloop
  endfacet
  facet normal 0.000000e+000 0.000000e+000 8.944272e-001
    outer loop
      vertex   -1.245167e+002 9.862516e+001 9.958360e+001
      vertex   -1.495167e+002 1.486252e+002 9.958360e+001
      vertex   -1.495167e+002 9.862516e+001 9.958360e+001
    endloop
  endfacet
  facet normal 0.000000e+000 0.000000e+000 1.000000e+000
    outer loop
      vertex   -1.245167e+002 9.862516e+001 9.958360e+001
      vertex   -1.495167e+002 9.862516e+001 9.958360e+001
      vertex   -1.245167e+002 4.862516e+001 9.958360e+001
    endloop
  endfacet
  facet normal 0.000000e+000 0.000000e+000 8.944272e-001
    outer loop
      vertex   -1.245167e+002 4.862516e+001 9.958360e+001
      vertex   -1.495167e+002 9.862516e+001 9.958360e+001
      vertex   -1.495167e+002 4.862516e+001 9.958360e+001
    endloop
  endfacet
  facet normal -0.000000e+000 0.000000e+000 -8.944272e-001
    outer loop
      vertex   -9.951667e+001 2.486252e+002 1.958360e+001
      vertex   -1.245167e+002 1.986252e+002 1.958360e+001
      vertex   -1.245167e+002 2.486252e+002 1.958360e+001
    endloop
  endfacet
  facet normal 0.000000e+000 -0.000000e+000 -4.472135e-001
    outer loop
      vertex   -1.245167e+002 2.486252e+002 1.958360e+001
      vertex   -1.245167e+002 1.986252e+002 1.958360e+001
      vertex   -1.495167e+002 1.986252e+002 1.958360e+001
    endloop
  endfacet
  facet normal 0.000000e+000 0.000000e+000 -1.000000e+000
    outer loop
      vertex   -1.495167e+002 1.986252e+002 1.958360e+001
      vertex   -1.245167e+002 1.986252e+002 1.958360e+001
      vertex   -1.495167e+002 1.486252e+002 1.958360e+001
    endloop
  endfacet
  facet normal 0.000000e+000 0.000000e+000 -8.944272e-001
    outer loop
      vertex   -1.495167e+002 1.486252e+002 1.958360e+001
      vertex   -1.245167e+002 1.986252e+002 1.958360e+001
      vertex   -1.245167e+002 1.486252e+002 1.958360e+001
    endloop
  endfacet
  facet normal 0.000000e+000 0.000000e+000 -1.000000e+000
    outer loop
      vertex   -1.495167e+002 1.486252e+002 1.958360e+001
      vertex   -1.245167e+002 1.486252e+002 1.958360e+001
      vertex   -1.495167e+002 9.862516e+001 1.958360e+001
    endloop
  endfacet
  facet normal 0.000000e+000 0.000000e+000 -8.944272e-001
    outer loop
      vertex   -1.495167e+002 9.862516e+001 1.958360e+001
      vertex   -1.245167e+002 1.486252e+002 1.958360e+001
      vertex   -1.245167e+002 9.862516e+001 1.958360e+001
    endloop
  endfacet
  facet normal 0.000000e+000 0.000000e+000 -1.000000e+000
    outer loop
      vertex   -1.495167e+002 9.862516e+001 1.958360e+001
      vertex   -1.245167e+002 9.862516e+001 1.958360e+001
      vertex   -1.495167e+002 4.862516e+001 1.958360e+001
    endloop
  endfacet
  facet normal 0.000000e+000 0.000000e+000 -8.944272e-001
    outer loop
      vertex   -1.495167e+002 4.862516e+001 1.958360e+001
      vertex   -1.245167e+002 9.862516e+001 1.958360e+001
      vertex   -1.245167e+002 4.862516e+001 1.958360e+001
    endloop
  endfacet
  facet normal -1.000000e+000 0.000000e+000 0.000000e+000
    outer loop
      vertex   -2.250000e+002 1.487949e+002 1.958360e+001
      vertex   -2.250000e+002 9.879485e+001 1.958360e+001
      vertex   -2.250000e+002 1.487949e+002 5.958360e+001
    endloop
  endfacet
  facet normal -6.246950e-001 -0.000000e+000 0.000000e+000
    outer loop
      vertex   -2.250000e+002 1.487949e+002 5.958360e+001
      vertex   -2.250000e+002 9.879485e+001 1.958360e+001
      vertex   -2.250000e+002 9.879485e+001 5.958360e+001
    endloop
  endfacet
  facet normal -1.000000e+000 0.000000e+000 0.000000e+000
    outer loop
      vertex   -2.250000e+002 1.487949e+002 5.958360e+001
      vertex   -2.250000e+002 9.879485e+001 5.958360e+001
      vertex   -2.250000e+002 1.487949e+002 9.958360e+001
    endloop
  endfacet
  facet normal -6.246949e-001 -0.000000e+000 0.000000e+000
    outer loop
      vertex   -2.250000e+002 1.487949e+002 9.958360e+001
      vertex   -2.250000e+002 9.879485e+001 5.958360e+001
      vertex   -2.250000e+002 9.879485e+001 9.958360e+001
    endloop
  endfacet
  facet normal -1.240657e-001 0.000000e+000 -0.000000e+000
    outer loop
      vertex   -2.250000e+002 9.879485e+001 9.958360e+001
      vertex   -2.250000e+002 9.879485e+001 5.958360e+001
      vertex   -2.250000e+002 9.483346e+001 6.790047e+001
    endloop
  endfacet
  facet normal -4.995884e-001 0.000000e+000 0.000000e+000
    outer loop
      vertex   -2.250000e+002 9.879485e+001 9.958360e+001
      vertex   -2.250000e+002 9.483346e+001 6.790047e+001
      vertex   -2.250000e+002 7.483346e+001 6.790047e+001
    endloop
  endfacet
  facet normal -7.360983e-001 0.000000e+000 0.000000e+000
    outer loop
      vertex   -2.250000e+002 4.879486e+001 1.958360e+001
      vertex   -2.250000e+002 7.483346e+001 4.790047e+001
      vertex   -2.250000e+002 9.879485e+001 1.958360e+001
    endloop
  endfacet
  facet normal -5.339654e-001 0.000000e+000 0.000000e+000
    outer loop
      vertex   -2.250000e+002 9.879485e+001 1.958360e+001
      vertex   -2.250000e+002 7.483346e+001 4.790047e+001
      vertex   -2.250000e+002 9.483346e+001 4.790047e+001
    endloop
  endfacet
  facet normal -1.385461e-001 0.000000e+000 0.000000e+000
    outer loop
      vertex   -2.250000e+002 9.879485e+001 1.958360e+001
      vertex   -2.250000e+002 9.483346e+001 4.790047e+001
      vertex   -2.250000e+002 9.879485e+001 5.958360e+001
    endloop
  endfacet
  facet normal -6.971538e-001 -0.000000e+000 0.000000e+000
    outer loop
      vertex   -2.250000e+002 9.879485e+001 5.958360e+001
      vertex   -2.250000e+002 9.483346e+001 4.790047e+001
      vertex   -2.250000e+002 9.483346e+001 6.790047e+001
    endloop
  endfacet
  facet normal -6.768746e-001 0.000000e+000 0.000000e+000
    outer loop
      vertex   -2.250000e+002 4.879486e+001 1.958360e+001
      vertex   -2.250000e+002 4.879486e+001 5.958360e+001
      vertex   -2.250000e+002 7.483346e+001 4.790047e+001
    endloop
  endfacet
  facet normal -9.123699e-001 0.000000e+000 0.000000e+000
    outer loop
      vertex   -2.250000e+002 7.483346e+001 4.790047e+001
      vertex   -2.250000e+002 4.879486e+001 5.958360e+001
      vertex   -2.250000e+002 7.483346e+001 6.790047e+001
    endloop
  endfacet
  facet normal -9.291253e-001 -0.000000e+000 0.000000e+000
    outer loop
      vertex   -2.250000e+002 7.483346e+001 6.790047e+001
      vertex   -2.250000e+002 4.879486e+001 5.958360e+001
      vertex   -2.250000e+002 4.879486e+001 9.958360e+001
    endloop
  endfacet
  facet normal -9.724288e-001 0.000000e+000 0.000000e+000
    outer loop
      vertex   -2.250000e+002 7.483346e+001 6.790047e+001
      vertex   -2.250000e+002 4.879486e+001 9.958360e+001
      vertex   -2.250000e+002 9.879485e+001 9.958360e+001
    endloop
  endfacet
  facet normal 1.000000e+000 0.000000e+000 0.000000e+000
    outer loop
      vertex   -1.750000e+002 1.237949e+002 1.958360e+001
      vertex   -1.750000e+002 1.612949e+002 1.958360e+001
      vertex   -1.750000e+002 1.237949e+002 5.958360e+001
    endloop
  endfacet
  facet normal 7.295371e-001 -0.000000e+000 0.000000e+000
    outer loop
      vertex   -1.750000e+002 1.237949e+002 5.958360e+001
      vertex   -1.750000e+002 1.612949e+002 1.958360e+001
      vertex   -1.750000e+002 1.612949e+002 5.958360e+001
    endloop
  endfacet
  facet normal 1.000000e+000 0.000000e+000 0.000000e+000
    outer loop
      vertex   -1.750000e+002 1.237949e+002 5.958360e+001
      vertex   -1.750000e+002 1.612949e+002 5.958360e+001
      vertex   -1.750000e+002 1.237949e+002 9.958360e+001
    endloop
  endfacet
  facet normal 7.295371e-001 -0.000000e+000 0.000000e+000
    outer loop
      vertex   -1.750000e+002 1.237949e+002 9.958360e+001
      vertex   -1.750000e+002 1.612949e+002 5.958360e+001
      vertex   -1.750000e+002 1.612949e+002 9.958360e+001
    endloop
  endfacet
  facet normal 6.839412e-001 0.000000e+000 0.000000e+000
    outer loop
      vertex   -1.750000e+002 1.612949e+002 9.958360e+001
      vertex   -1.750000e+002 1.612949e+002 5.958360e+001
      vertex   -1.750000e+002 1.987949e+002 5.958360e+001
    endloop
  endfacet
  facet normal 7.295372e-001 -0.000000e+000 0.000000e+000
    outer loop
      vertex   -1.750000e+002 1.612949e+002 9.958360e+001
      vertex   -1.750000e+002 1.987949e+002 5.958360e+001
      vertex   -1.750000e+002 1.987949e+002 9.958360e+001
    endloop
  endfacet
  facet normal 1.000000e+000 0.000000e+000 0.000000e+000
    outer loop
      vertex   -1.750000e+002 1.612949e+002 1.958360e+001
      vertex   -1.750000e+002 1.987949e+002 1.958360e+001
      vertex   -1.750000e+002 1.612949e+002 5.958360e+001
    endloop
  endfacet
  facet normal 7.295372e-001 -0.000000e+000 0.000000e+000
    outer loop
      vertex   -1.750000e+002 1.612949e+002 5.958360e+001
      vertex   -1.750000e+002 1.987949e+002 1.958360e+001
      vertex   -1.750000e+002 1.987949e+002 5.958360e+001
    endloop
  endfacet
  facet normal 0.000000e+000 -1.000000e+000 0.000000e+000
    outer loop
      vertex   -2.000000e+002 1.237949e+002 1.958360e+001
      vertex   -1.750000e+002 1.237949e+002 1.958360e+001
      vertex   -2.000000e+002 1.237949e+002 5.958360e+001
    endloop
  endfacet
  facet normal 0.000000e+000 -8.479983e-001 0.000000e+000
    outer loop
      vertex   -2.000000e+002 1.237949e+002 5.958360e+001
      vertex   -1.750000e+002 1.237949e+002 1.958360e+001
      vertex   -1.750000e+002 1.237949e+002 5.958360e+001
    endloop
  endfacet
  facet normal 0.000000e+000 -1.000000e+000 0.000000e+000
    outer loop
      vertex   -2.000000e+002 1.237949e+002 5.958360e+001
      vertex   -1.750000e+002 1.237949e+002 5.958360e+001
      vertex   -2.000000e+002 1.237949e+002 9.958360e+001
    endloop
  endfacet
  facet normal 0.000000e+000 -8.479983e-001 0.000000e+000
    outer loop
      vertex   -2.000000e+002 1.237949e+002 9.958360e+001
      vertex   -1.750000e+002 1.237949e+002 5.958360e+001
      vertex   -1.750000e+002 1.237949e+002 9.958360e+001
    endloop
  endfacet
  facet normal 1.000000e+000 0.000000e+000 0.000000e+000
    outer loop
      vertex   -2.000000e+002 4.879486e+001 1.958360e+001
      vertex   -2.000000e+002 8.629485e+001 1.958360e+001
      vertex   -2.000000e+002 4.879486e+001 5.958360e+001
    endloop
  endfacet
  facet normal 7.295372e-001 -0.000000e+000 0.000000e+000
    outer loop
      vertex   -2.000000e+002 4.879486e+001 5.958360e+001
      vertex   -2.000000e+002 8.629485e+001 1.958360e+001
      vertex   -2.000000e+002 8.629485e+001 5.958360e+001
    endloop
  endfacet
  facet normal 1.000000e+000 0.000000e+000 0.000000e+000
    outer loop
      vertex   -2.000000e+002 4.879486e+001 5.958360e+001
      vertex   -2.000000e+002 8.629485e+001 5.958360e+001
      vertex   -2.000000e+002 4.879486e+001 9.958360e+001
    endloop
  endfacet
  facet normal 7.295372e-001 -0.000000e+000 0.000000e+000
    outer loop
      vertex   -2.000000e+002 4.879486e+001 9.958360e+001
      vertex   -2.000000e+002 8.629485e+001 5.958360e+001
      vertex   -2.000000e+002 8.629485e+001 9.958360e+001
    endloop
  endfacet
  facet normal 6.839412e-001 0.000000e+000 0.000000e+000
    outer loop
      vertex   -2.000000e+002 8.629485e+001 9.958360e+001
      vertex   -2.000000e+002 8.629485e+001 5.958360e+001
      vertex   -2.000000e+002 1.237949e+002 5.958360e+001
    endloop
  endfacet
  facet normal 7.295372e-001 -0.000000e+000 0.000000e+000
    outer loop
      vertex   -2.000000e+002 8.629485e+001 9.958360e+001
      vertex   -2.000000e+002 1.237949e+002 5.958360e+001
      vertex   -2.000000e+002 1.237949e+002 9.958360e+001
    endloop
  endfacet
  facet normal 1.000000e+000 0.000000e+000 0.000000e+000
    outer loop
      vertex   -2.000000e+002 8.629485e+001 1.958360e+001
      vertex   -2.000000e+002 1.237949e+002 1.958360e+001
      vertex   -2.000000e+002 8.629485e+001 5.958360e+001
    endloop
  endfacet
  facet normal 7.295372e-001 -0.000000e+000 0.000000e+000
    outer loop
      vertex   -2.000000e+002 8.629485e+001 5.958360e+001
      vertex   -2.000000e+002 1.237949e+002 1.958360e+001
      vertex   -2.000000e+002 1.237949e+002 5.958360e+001
    endloop
  endfacet
  facet normal 0.000000e+000 -1.000000e+000 0.000000e+000
    outer loop
      vertex   -2.250000e+002 4.879486e+001 1.958360e+001
      vertex   -2.000000e+002 4.879486e+001 1.958360e+001
      vertex   -2.250000e+002 4.879486e+001 5.958360e+001
    endloop
  endfacet
  facet normal 0.000000e+000 -8.479983e-001 0.000000e+000
    outer loop
      vertex   -2.250000e+002 4.879486e+001 5.958360e+001
      vertex   -2.000000e+002 4.879486e+001 1.958360e+001
      vertex   -2.000000e+002 4.879486e+001 5.958360e+001
    endloop
  endfacet
  facet normal 0.000000e+000 -1.000000e+000 0.000000e+000
    outer loop
      vertex   -2.250000e+002 4.879486e+001 5.958360e+001
      vertex   -2.000000e+002 4.879486e+001 5.958360e+001
      vertex   -2.250000e+002 4.879486e+001 9.958360e+001
    endloop
  endfacet
  facet normal 0.000000e+000 -8.479983e-001 0.000000e+000
    outer loop
      vertex   -2.250000e+002 4.879486e+001 9.958360e+001
      vertex   -2.000000e+002 4.879486e+001 5.958360e+001
      vertex   -2.000000e+002 4.879486e+001 9.958360e+001
    endloop
  endfacet
  facet normal 0.000000e+000 1.000000e+000 -0.000000e+000
    outer loop
      vertex   -2.000000e+002 1.487949e+002 1.958360e+001
      vertex   -2.250000e+002 1.487949e+002 1.958360e+001
      vertex   -2.000000e+002 1.487949e+002 5.958360e+001
    endloop
  endfacet
  facet normal 0.000000e+000 8.479983e-001 0.000000e+000
    outer loop
      vertex   -2.000000e+002 1.487949e+002 5.958360e+001
      vertex   -2.250000e+002 1.487949e+002 1.958360e+001
      vertex   -2.250000e+002 1.487949e+002 5.958360e+001
    endloop
  endfacet
  facet normal 0.000000e+000 1.000000e+000 -0.000000e+000
    outer loop
      vertex   -2.000000e+002 1.487949e+002 5.958360e+001
      vertex   -2.250000e+002 1.487949e+002 5.958360e+001
      vertex   -2.000000e+002 1.487949e+002 9.958360e+001
    endloop
  endfacet
  facet normal 0.000000e+000 8.479983e-001 0.000000e+000
    outer loop
      vertex   -2.000000e+002 1.487949e+002 9.958360e+001
      vertex   -2.250000e+002 1.487949e+002 5.958360e+001
      vertex   -2.250000e+002 1.487949e+002 9.958360e+001
    endloop
  endfacet
  facet normal -1.000000e+000 0.000000e+000 0.000000e+000
    outer loop
      vertex   -2.000000e+002 1.987949e+002 1.958360e+001
      vertex   -2.000000e+002 1.487949e+002 1.958360e+001
      vertex   -2.000000e+002 1.987949e+002 5.958360e+001
    endloop
  endfacet
  facet normal -6.246951e-001 -0.000000e+000 0.000000e+000
    outer loop
      vertex   -2.000000e+002 1.987949e+002 5.958360e+001
      vertex   -2.000000e+002 1.487949e+002 1.958360e+001
      vertex   -2.000000e+002 1.487949e+002 5.958360e+001
    endloop
  endfacet
  facet normal -1.000000e+000 0.000000e+000 0.000000e+000
    outer loop
      vertex   -2.000000e+002 1.987949e+002 5.958360e+001
      vertex   -2.000000e+002 1.487949e+002 5.958360e+001
      vertex   -2.000000e+002 1.987949e+002 9.958360e+001
    endloop
  endfacet
  facet normal -6.246950e-001 -0.000000e+000 0.000000e+000
    outer loop
      vertex   -2.000000e+002 1.987949e+002 9.958360e+001
      vertex   -2.000000e+002 1.487949e+002 5.958360e+001
      vertex   -2.000000e+002 1.487949e+002 9.958360e+001
    endloop
  endfacet
  facet normal -7.071068e-001 7.071068e-001 0.000000e+000
    outer loop
      vertex   -1.500000e+002 2.487949e+002 1.958360e+001
      vertex   -1.750000e+002 2.237949e+002 1.958360e+001
      vertex   -1.500000e+002 2.487949e+002 5.958360e+001
    endloop
  endfacet
  facet normal -5.298129e-001 5.298129e-001 0.000000e+000
    outer loop
      vertex   -1.500000e+002 2.487949e+002 5.958360e+001
      vertex   -1.750000e+002 2.237949e+002 1.958360e+001
      vertex   -1.750000e+002 2.237949e+002 5.958360e+001
    endloop
  endfacet
  facet normal -7.071068e-001 7.071068e-001 0.000000e+000
    outer loop
      vertex   -1.500000e+002 2.487949e+002 5.958360e+001
      vertex   -1.750000e+002 2.237949e+002 5.958360e+001
      vertex   -1.500000e+002 2.487949e+002 9.958360e+001
    endloop
  endfacet
  facet normal -5.298129e-001 5.298129e-001 0.000000e+000
    outer loop
      vertex   -1.500000e+002 2.487949e+002 9.958360e+001
      vertex   -1.750000e+002 2.237949e+002 5.958360e+001
      vertex   -1.750000e+002 2.237949e+002 9.958360e+001
    endloop
  endfacet
  facet normal -4.682929e-001 4.682929e-001 0.000000e+000
    outer loop
      vertex   -1.750000e+002 2.237949e+002 9.958360e+001
      vertex   -1.750000e+002 2.237949e+002 5.958360e+001
      vertex   -2.000000e+002 1.987949e+002 5.958360e+001
    endloop
  endfacet
  facet normal -5.298129e-001 5.298129e-001 0.000000e+000
    outer loop
      vertex   -1.750000e+002 2.237949e+002 9.958360e+001
      vertex   -2.000000e+002 1.987949e+002 5.958360e+001
      vertex   -2.000000e+002 1.987949e+002 9.958360e+001
    endloop
  endfacet
  facet normal -7.071068e-001 7.071068e-001 0.000000e+000
    outer loop
      vertex   -1.750000e+002 2.237949e+002 1.958360e+001
      vertex   -2.000000e+002 1.987949e+002 1.958360e+001
      vertex   -1.750000e+002 2.237949e+002 5.958360e+001
    endloop
  endfacet
  facet normal -5.298129e-001 5.298129e-001 0.000000e+000
    outer loop
      vertex   -1.750000e+002 2.237949e+002 5.958360e+001
      vertex   -2.000000e+002 1.987949e+002 1.958360e+001
      vertex   -2.000000e+002 1.987949e+002 5.958360e+001
    endloop
  endfacet
  facet normal 8.944272e-001 -4.472136e-001 0.000000e+000
    outer loop
      vertex   -1.750000e+002 1.987949e+002 1.958360e+001
      vertex   -1.500000e+002 2.487949e+002 1.958360e+001
      vertex   -1.750000e+002 1.987949e+002 5.958360e+001
    endloop
  endfacet
  facet normal 5.204800e-001 -2.602400e-001 0.000000e+000
    outer loop
      vertex   -1.750000e+002 1.987949e+002 5.958360e+001
      vertex   -1.500000e+002 2.487949e+002 1.958360e+001
      vertex   -1.500000e+002 2.487949e+002 5.958360e+001
    endloop
  endfacet
  facet normal 8.944272e-001 -4.472136e-001 0.000000e+000
    outer loop
      vertex   -1.750000e+002 1.987949e+002 5.958360e+001
      vertex   -1.500000e+002 2.487949e+002 5.958360e+001
      vertex   -1.750000e+002 1.987949e+002 9.958360e+001
    endloop
  endfacet
  facet normal 5.204800e-001 -2.602400e-001 0.000000e+000
    outer loop
      vertex   -1.750000e+002 1.987949e+002 9.958360e+001
      vertex   -1.500000e+002 2.487949e+002 5.958360e+001
      vertex   -1.500000e+002 2.487949e+002 9.958360e+001
    endloop
  endfacet
  facet normal 0.000000e+000 0.000000e+000 3.162278e-001
    outer loop
      vertex   -1.500000e+002 2.487949e+002 9.958360e+001
      vertex   -1.750000e+002 2.237949e+002 9.958360e+001
      vertex   -1.750000e+002 1.987949e+002 9.958360e+001
    endloop
  endfacet
  facet normal 0.000000e+000 -0.000000e+000 1.000000e+000
    outer loop
      vertex   -1.750000e+002 1.987949e+002 9.958360e+001
      vertex   -1.750000e+002 2.237949e+002 9.958360e+001
      vertex   -1.875000e+002 1.987949e+002 9.958360e+001
    endloop
  endfacet
  facet normal 0.000000e+000 0.000000e+000 1.000000e+000
    outer loop
      vertex   -1.750000e+002 1.987949e+002 9.958360e+001
      vertex   -1.875000e+002 1.987949e+002 9.958360e+001
      vertex   -1.750000e+002 1.612949e+002 9.958360e+001
    endloop
  endfacet
  facet normal 0.000000e+000 0.000000e+000 8.944272e-001
    outer loop
      vertex   -1.750000e+002 1.612949e+002 9.958360e+001
      vertex   -1.875000e+002 1.987949e+002 9.958360e+001
      vertex   -1.875000e+002 1.487949e+002 9.958360e+001
    endloop
  endfacet
  facet normal 0.000000e+000 0.000000e+000 7.071068e-001
    outer loop
      vertex   -1.750000e+002 1.612949e+002 9.958360e+001
      vertex   -1.875000e+002 1.487949e+002 9.958360e+001
      vertex   -1.750000e+002 1.237949e+002 9.958360e+001
    endloop
  endfacet
  facet normal 0.000000e+000 0.000000e+000 8.944272e-001
    outer loop
      vertex   -1.750000e+002 1.237949e+002 9.958360e+001
      vertex   -1.875000e+002 1.487949e+002 9.958360e+001
      vertex   -2.000000e+002 1.237949e+002 9.958360e+001
    endloop
  endfacet
  facet normal 0.000000e+000 0.000000e+000 4.472135e-001
    outer loop
      vertex   -2.000000e+002 1.237949e+002 9.958360e+001
      vertex   -1.875000e+002 1.487949e+002 9.958360e+001
      vertex   -2.000000e+002 1.487949e+002 9.958360e+001
    endloop
  endfacet
  facet normal 0.000000e+000 -0.000000e+000 7.071066e-001
    outer loop
      vertex   -2.000000e+002 1.237949e+002 9.958360e+001
      vertex   -2.000000e+002 1.487949e+002 9.958360e+001
      vertex   -2.250000e+002 1.487949e+002 9.958360e+001
    endloop
  endfacet
  facet normal 0.000000e+000 0.000000e+000 3.162278e-001
    outer loop
      vertex   -1.750000e+002 2.237949e+002 9.958360e+001
      vertex   -2.000000e+002 1.987949e+002 9.958360e+001
      vertex   -1.875000e+002 1.987949e+002 9.958360e+001
    endloop
  endfacet
  facet normal 0.000000e+000 0.000000e+000 1.000000e+000
    outer loop
      vertex   -1.875000e+002 1.987949e+002 9.958360e+001
      vertex   -2.000000e+002 1.987949e+002 9.958360e+001
      vertex   -1.875000e+002 1.487949e+002 9.958360e+001
    endloop
  endfacet
  facet normal 0.000000e+000 0.000000e+000 2.425356e-001
    outer loop
      vertex   -2.000000e+002 1.987949e+002 9.958360e+001
      vertex   -2.000000e+002 1.487949e+002 9.958360e+001
      vertex   -1.875000e+002 1.487949e+002 9.958360e+001
    endloop
  endfacet
  facet normal 0.000000e+000 0.000000e+000 7.071066e-001
    outer loop
      vertex   -2.250000e+002 1.487949e+002 9.958360e+001
      vertex   -2.250000e+002 9.879485e+001 9.958360e+001
      vertex   -2.000000e+002 1.237949e+002 9.958360e+001
    endloop
  endfacet
  facet normal 0.000000e+000 0.000000e+000 7.071068e-001
    outer loop
      vertex   -2.000000e+002 1.237949e+002 9.958360e+001
      vertex   -2.250000e+002 9.879485e+001 9.958360e+001
      vertex   -2.000000e+002 8.629485e+001 9.958360e+001
    endloop
  endfacet
  facet normal 0.000000e+000 0.000000e+000 9.922779e-001
    outer loop
      vertex   -2.000000e+002 8.629485e+001 9.958360e+001
      vertex   -2.250000e+002 9.879485e+001 9.958360e+001
      vertex   -2.250000e+002 4.879486e+001 9.958360e+001
    endloop
  endfacet
  facet normal 0.000000e+000 0.000000e+000 5.547003e-001
    outer loop
      vertex   -2.000000e+002 8.629485e+001 9.958360e+001
      vertex   -2.250000e+002 4.879486e+001 9.958360e+001
      vertex   -2.000000e+002 4.879486e+001 9.958360e+001
    endloop
  endfacet
  facet normal 0.000000e+000 0.000000e+000 -3.162278e-001
    outer loop
      vertex   -1.500000e+002 2.487949e+002 1.958360e+001
      vertex   -1.750000e+002 1.987949e+002 1.958360e+001
      vertex   -1.750000e+002 2.237949e+002 1.958360e+001
    endloop
  endfacet
  facet normal 0.000000e+000 -0.000000e+000 -4.472136e-001
    outer loop
      vertex   -1.750000e+002 2.237949e+002 1.958360e+001
      vertex   -1.750000e+002 1.987949e+002 1.958360e+001
      vertex   -1.875000e+002 1.987949e+002 1.958360e+001
    endloop
  endfacet
  facet normal 0.000000e+000 0.000000e+000 -3.162278e-001
    outer loop
      vertex   -1.750000e+002 2.237949e+002 1.958360e+001
      vertex   -1.875000e+002 1.987949e+002 1.958360e+001
      vertex   -2.000000e+002 1.987949e+002 1.958360e+001
    endloop
  endfacet
  facet normal 0.000000e+000 0.000000e+000 -1.000000e+000
    outer loop
      vertex   -2.000000e+002 1.987949e+002 1.958360e+001
      vertex   -1.875000e+002 1.987949e+002 1.958360e+001
      vertex   -2.000000e+002 1.487949e+002 1.958360e+001
    endloop
  endfacet
  facet normal 0.000000e+000 0.000000e+000 -9.701425e-001
    outer loop
      vertex   -2.000000e+002 1.487949e+002 1.958360e+001
      vertex   -1.875000e+002 1.987949e+002 1.958360e+001
      vertex   -1.875000e+002 1.487949e+002 1.958360e+001
    endloop
  endfacet
  facet normal 0.000000e+000 0.000000e+000 -1.000000e+000
    outer loop
      vertex   -2.000000e+002 1.487949e+002 1.958360e+001
      vertex   -1.875000e+002 1.487949e+002 1.958360e+001
      vertex   -2.000000e+002 1.237949e+002 1.958360e+001
    endloop
  endfacet
  facet normal 0.000000e+000 0.000000e+000 -8.944272e-001
    outer loop
      vertex   -2.000000e+002 1.237949e+002 1.958360e+001
      vertex   -1.875000e+002 1.487949e+002 1.958360e+001
      vertex   -1.750000e+002 1.237949e+002 1.958360e+001
    endloop
  endfacet
  facet normal 0.000000e+000 0.000000e+000 -4.472135e-001
    outer loop
      vertex   -1.750000e+002 1.237949e+002 1.958360e+001
      vertex   -1.875000e+002 1.487949e+002 1.958360e+001
      vertex   -1.750000e+002 1.612949e+002 1.958360e+001
    endloop
  endfacet
  facet normal -0.000000e+000 0.000000e+000 -8.944272e-001
    outer loop
      vertex   -1.750000e+002 1.612949e+002 1.958360e+001
      vertex   -1.875000e+002 1.487949e+002 1.958360e+001
      vertex   -1.875000e+002 1.987949e+002 1.958360e+001
    endloop
  endfacet
  facet normal 0.000000e+000 0.000000e+000 -3.162278e-001
    outer loop
      vertex   -1.750000e+002 1.612949e+002 1.958360e+001
      vertex   -1.875000e+002 1.987949e+002 1.958360e+001
      vertex   -1.750000e+002 1.987949e+002 1.958360e+001
    endloop
  endfacet
  facet normal 0.000000e+000 0.000000e+000 -8.944272e-001
    outer loop
      vertex   -2.000000e+002 8.629485e+001 1.958360e+001
      vertex   -2.250000e+002 9.879485e+001 1.958360e+001
      vertex   -2.000000e+002 1.237949e+002 1.958360e+001
    endloop
  endfacet
  facet normal -0.000000e+000 0.000000e+000 -1.000000e+000
    outer loop
      vertex   -2.000000e+002 1.237949e+002 1.958360e+001
      vertex   -2.250000e+002 9.879485e+001 1.958360e+001
      vertex   -2.250000e+002 1.487949e+002 1.958360e+001
    endloop
  endfacet
  facet normal 0.000000e+000 0.000000e+000 -7.071066e-001
    outer loop
      vertex   -2.000000e+002 1.237949e+002 1.958360e+001
      vertex   -2.250000e+002 1.487949e+002 1.958360e+001
      vertex   -2.000000e+002 1.487949e+002 1.958360e+001
    endloop
  endfacet
  facet normal 0.000000e+000 0.000000e+000 -1.000000e+000
    outer loop
      vertex   -2.000000e+002 4.879486e+001 1.958360e+001
      vertex   -2.250000e+002 4.879486e+001 1.958360e+001
      vertex   -2.000000e+002 8.629485e+001 1.958360e+001
    endloop
  endfacet
  facet normal -0.000000e+000 0.000000e+000 -9.922779e-001
    outer loop
      vertex   -2.000000e+002 8.629485e+001 1.958360e+001
      vertex   -2.250000e+002 4.879486e+001 1.958360e+001
      vertex   -2.250000e+002 9.879485e+001 1.958360e+001
    endloop
  endfacet
  facet normal -1.000000e+000 -0.000000e+000 -0.000000e+000
    outer loop
      vertex   -2.550000e+002 9.483346e+001 6.790047e+001
      vertex   -2.550000e+002 9.483346e+001 4.790047e+001
      vertex   -2.550000e+002 7.483346e+001 6.790047e+001
    endloop
  endfacet
  facet normal -7.071068e-001 0.000000e+000 0.000000e+000
    outer loop
      vertex   -2.550000e+002 7.483346e+001 6.790047e+001
      vertex   -2.550000e+002 9.483346e+001 4.790047e+001
      vertex   -2.550000e+002 7.483346e+001 4.790047e+001
    endloop
  endfacet
  facet normal 0.000000e+000 -1.000000e+000 0.000000e+000
    outer loop
      vertex   -2.550000e+002 7.483346e+001 4.790047e+001
      vertex   -2.250000e+002 7.483346e+001 4.790047e+001
      vertex   -2.550000e+002 7.483346e+001 6.790047e+001
    endloop
  endfacet
  facet normal 0.000000e+000 -5.547002e-001 0.000000e+000
    outer loop
      vertex   -2.550000e+002 7.483346e+001 6.790047e+001
      vertex   -2.250000e+002 7.483346e+001 4.790047e+001
      vertex   -2.250000e+002 7.483346e+001 6.790047e+001
    endloop
  endfacet
  facet normal 0.000000e+000 0.000000e+000 -1.000000e+000
    outer loop
      vertex   -2.550000e+002 9.483346e+001 4.790047e+001
      vertex   -2.250000e+002 9.483346e+001 4.790047e+001
      vertex   -2.550000e+002 7.483346e+001 4.790047e+001
    endloop
  endfacet
  facet normal 0.000000e+000 0.000000e+000 -5.547002e-001
    outer loop
      vertex   -2.550000e+002 7.483346e+001 4.790047e+001
      vertex   -2.250000e+002 9.483346e+001 4.790047e+001
      vertex   -2.250000e+002 7.483346e+001 4.790047e+001
    endloop
  endfacet
  facet normal -0.000000e+000 1.000000e+000 0.000000e+000
    outer loop
      vertex   -2.550000e+002 9.483346e+001 6.790047e+001
      vertex   -2.250000e+002 9.483346e+001 6.790047e+001
      vertex   -2.550000e+002 9.483346e+001 4.790047e+001
    endloop
  endfacet
  facet normal 0.000000e+000 5.547002e-001 0.000000e+000
    outer loop
      vertex   -2.550000e+002 9.483346e+001 4.790047e+001
      vertex   -2.250000e+002 9.483346e+001 6.790047e+001
      vertex   -2.250000e+002 9.483346e+001 4.790047e+001
    endloop
  endfacet
  facet normal 0.000000e+000 0.000000e+000 1.000000e+000
    outer loop
      vertex   -2.550000e+002 7.483346e+001 6.790047e+001
      vertex   -2.250000e+002 7.483346e+001 6.790047e+001
      vertex   -2.550000e+002 9.483346e+001 6.790047e+001
    endloop
  endfacet
  facet normal -0.000000e+000 0.000000e+000 5.547002e-001
    outer loop
      vertex   -2.550000e+002 9.483346e+001 6.790047e+001
      vertex   -2.250000e+002 7.483346e+001 6.790047e+001
      vertex   -2.250000e+002 9.483346e+001 6.790047e+001
    endloop
  endfacet
endsolid
