solid ascii
  facet normal 0.000000e+000 8.715609e-002 9.961947e-001
    outer loop
      vertex   -1.696680e+001 3.357820e+001 8.242404e+000
      vertex   -1.796680e+001 3.357820e+001 8.242404e+000
      vertex   -1.696680e+001 3.349137e+001 8.250000e+000
    endloop
  endfacet
  facet normal 0.000000e+000 7.567330e-003 8.649463e-002
    outer loop
      vertex   -1.696680e+001 3.349137e+001 8.250000e+000
      vertex   -1.796680e+001 3.357820e+001 8.242404e+000
      vertex   -1.796680e+001 3.349137e+001 8.250000e+000
    endloop
  endfacet
  facet normal 0.000000e+000 -8.715609e-002 9.961947e-001
    outer loop
      vertex   -1.696680e+001 3.349137e+001 8.250000e+000
      vertex   -1.796680e+001 3.349137e+001 8.250000e+000
      vertex   -1.696680e+001 3.340455e+001 8.242404e+000
    endloop
  endfacet
  facet normal 0.000000e+000 -7.567330e-003 8.649463e-002
    outer loop
      vertex   -1.696680e+001 3.340455e+001 8.242404e+000
      vertex   -1.796680e+001 3.349137e+001 8.250000e+000
      vertex   -1.796680e+001 3.340455e+001 8.242404e+000
    endloop
  endfacet
  facet normal 0.000000e+000 -2.588141e-001 9.659271e-001
    outer loop
      vertex   -1.696680e+001 3.340455e+001 8.242404e+000
      vertex   -1.796680e+001 3.340455e+001 8.242404e+000
      vertex   -1.696680e+001 3.332037e+001 8.219847e+000
    endloop
  endfacet
  facet normal 0.000000e+000 -2.247207e-002 8.386862e-002
    outer loop
      vertex   -1.696680e+001 3.332037e+001 8.219847e+000
      vertex   -1.796680e+001 3.340455e+001 8.242404e+000
      vertex   -1.796680e+001 3.332037e+001 8.219847e+000
    endloop
  endfacet
  facet normal 0.000000e+000 -4.226153e-001 9.063092e-001
    outer loop
      vertex   -1.696680e+001 3.332037e+001 8.219847e+000
      vertex   -1.796680e+001 3.332037e+001 8.219847e+000
      vertex   -1.696680e+001 3.324137e+001 8.183013e+000
    endloop
  endfacet
  facet normal 0.000000e+000 -3.669465e-002 7.869262e-002
    outer loop
      vertex   -1.696680e+001 3.324137e+001 8.183013e+000
      vertex   -1.796680e+001 3.332037e+001 8.219847e+000
      vertex   -1.796680e+001 3.324137e+001 8.183013e+000
    endloop
  endfacet
  facet normal 0.000000e+000 -5.735872e-001 8.191445e-001
    outer loop
      vertex   -1.696680e+001 3.324137e+001 8.183013e+000
      vertex   -1.796680e+001 3.324137e+001 8.183013e+000
      vertex   -1.696680e+001 3.316998e+001 8.133022e+000
    endloop
  endfacet
  facet normal 0.000000e+000 -4.980187e-002 7.112245e-002
    outer loop
      vertex   -1.696680e+001 3.316998e+001 8.133022e+000
      vertex   -1.796680e+001 3.324137e+001 8.183013e+000
      vertex   -1.796680e+001 3.316998e+001 8.133022e+000
    endloop
  endfacet
  facet normal 0.000000e+000 -7.070959e-001 7.071177e-001
    outer loop
      vertex   -1.696680e+001 3.316998e+001 8.133022e+000
      vertex   -1.796680e+001 3.316998e+001 8.133022e+000
      vertex   -1.696680e+001 3.310835e+001 8.071394e+000
    endloop
  endfacet
  facet normal 0.000000e+000 -6.139559e-002 6.139749e-002
    outer loop
      vertex   -1.696680e+001 3.310835e+001 8.071394e+000
      vertex   -1.796680e+001 3.316998e+001 8.133022e+000
      vertex   -1.796680e+001 3.310835e+001 8.071394e+000
    endloop
  endfacet
  facet normal 0.000000e+000 -8.191466e-001 5.735843e-001
    outer loop
      vertex   -1.696680e+001 3.310835e+001 8.071394e+000
      vertex   -1.796680e+001 3.310835e+001 8.071394e+000
      vertex   -1.696680e+001 3.305836e+001 8.000000e+000
    endloop
  endfacet
  facet normal 0.000000e+000 -7.112434e-002 4.980281e-002
    outer loop
      vertex   -1.696680e+001 3.305836e+001 8.000000e+000
      vertex   -1.796680e+001 3.310835e+001 8.071394e+000
      vertex   -1.796680e+001 3.305836e+001 8.000000e+000
    endloop
  endfacet
  facet normal 0.000000e+000 -9.063198e-001 4.225925e-001
    outer loop
      vertex   -1.696680e+001 3.305836e+001 8.000000e+000
      vertex   -1.796680e+001 3.305836e+001 8.000000e+000
      vertex   -1.696680e+001 3.302153e+001 7.921010e+000
    endloop
  endfacet
  facet normal 0.000000e+000 -7.869168e-002 3.669181e-002
    outer loop
      vertex   -1.696680e+001 3.302153e+001 7.921010e+000
      vertex   -1.796680e+001 3.305836e+001 8.000000e+000
      vertex   -1.796680e+001 3.302153e+001 7.921010e+000
    endloop
  endfacet
  facet normal 0.000000e+000 -9.659186e-001 2.588461e-001
    outer loop
      vertex   -1.696680e+001 3.302153e+001 7.921010e+000
      vertex   -1.796680e+001 3.302153e+001 7.921010e+000
      vertex   -1.696680e+001 3.299897e+001 7.836824e+000
    endloop
  endfacet
  facet normal 0.000000e+000 -8.386814e-002 2.247492e-002
    outer loop
      vertex   -1.696680e+001 3.299897e+001 7.836824e+000
      vertex   -1.796680e+001 3.302153e+001 7.921010e+000
      vertex   -1.796680e+001 3.299897e+001 7.836824e+000
    endloop
  endfacet
  facet normal 0.000000e+000 -9.961957e-001 8.714381e-002
    outer loop
      vertex   -1.696680e+001 3.299897e+001 7.836824e+000
      vertex   -1.796680e+001 3.299897e+001 7.836824e+000
      vertex   -1.696680e+001 3.299137e+001 7.750000e+000
    endloop
  endfacet
  facet normal 0.000000e+000 -8.649605e-002 7.566379e-003
    outer loop
      vertex   -1.696680e+001 3.299137e+001 7.750000e+000
      vertex   -1.796680e+001 3.299897e+001 7.836824e+000
      vertex   -1.796680e+001 3.299137e+001 7.750000e+000
    endloop
  endfacet
  facet normal -0.000000e+000 -9.961957e-001 -8.714381e-002
    outer loop
      vertex   -1.696680e+001 3.299137e+001 7.750000e+000
      vertex   -1.796680e+001 3.299137e+001 7.750000e+000
      vertex   -1.696680e+001 3.299897e+001 7.663176e+000
    endloop
  endfacet
  facet normal -0.000000e+000 -8.649605e-002 -7.566379e-003
    outer loop
      vertex   -1.696680e+001 3.299897e+001 7.663176e+000
      vertex   -1.796680e+001 3.299137e+001 7.750000e+000
      vertex   -1.796680e+001 3.299897e+001 7.663176e+000
    endloop
  endfacet
  facet normal -0.000000e+000 -9.659186e-001 -2.588461e-001
    outer loop
      vertex   -1.696680e+001 3.299897e+001 7.663176e+000
      vertex   -1.796680e+001 3.299897e+001 7.663176e+000
      vertex   -1.696680e+001 3.302153e+001 7.578990e+000
    endloop
  endfacet
  facet normal -0.000000e+000 -8.386814e-002 -2.247492e-002
    outer loop
      vertex   -1.696680e+001 3.302153e+001 7.578990e+000
      vertex   -1.796680e+001 3.299897e+001 7.663176e+000
      vertex   -1.796680e+001 3.302153e+001 7.578990e+000
    endloop
  endfacet
  facet normal -0.000000e+000 -9.063198e-001 -4.225925e-001
    outer loop
      vertex   -1.696680e+001 3.302153e+001 7.578990e+000
      vertex   -1.796680e+001 3.302153e+001 7.578990e+000
      vertex   -1.696680e+001 3.305836e+001 7.500000e+000
    endloop
  endfacet
  facet normal -0.000000e+000 -7.869168e-002 -3.669181e-002
    outer loop
      vertex   -1.696680e+001 3.305836e+001 7.500000e+000
      vertex   -1.796680e+001 3.302153e+001 7.578990e+000
      vertex   -1.796680e+001 3.305836e+001 7.500000e+000
    endloop
  endfacet
  facet normal -0.000000e+000 -8.191466e-001 -5.735843e-001
    outer loop
      vertex   -1.696680e+001 3.305836e+001 7.500000e+000
      vertex   -1.796680e+001 3.305836e+001 7.500000e+000
      vertex   -1.696680e+001 3.310835e+001 7.428606e+000
    endloop
  endfacet
  facet normal -0.000000e+000 -7.112434e-002 -4.980281e-002
    outer loop
      vertex   -1.696680e+001 3.310835e+001 7.428606e+000
      vertex   -1.796680e+001 3.305836e+001 7.500000e+000
      vertex   -1.796680e+001 3.310835e+001 7.428606e+000
    endloop
  endfacet
  facet normal -0.000000e+000 -7.070959e-001 -7.071177e-001
    outer loop
      vertex   -1.696680e+001 3.310835e+001 7.428606e+000
      vertex   -1.796680e+001 3.310835e+001 7.428606e+000
      vertex   -1.696680e+001 3.316998e+001 7.366978e+000
    endloop
  endfacet
  facet normal -0.000000e+000 -6.139559e-002 -6.139749e-002
    outer loop
      vertex   -1.696680e+001 3.316998e+001 7.366978e+000
      vertex   -1.796680e+001 3.310835e+001 7.428606e+000
      vertex   -1.796680e+001 3.316998e+001 7.366978e+000
    endloop
  endfacet
  facet normal -0.000000e+000 -5.735835e-001 -8.191471e-001
    outer loop
      vertex   -1.696680e+001 3.316998e+001 7.366978e+000
      vertex   -1.796680e+001 3.316998e+001 7.366978e+000
      vertex   -1.696680e+001 3.324137e+001 7.316988e+000
    endloop
  endfacet
  facet normal -0.000000e+000 -4.980139e-002 -7.112245e-002
    outer loop
      vertex   -1.696680e+001 3.324137e+001 7.316988e+000
      vertex   -1.796680e+001 3.316998e+001 7.366978e+000
      vertex   -1.796680e+001 3.324137e+001 7.316988e+000
    endloop
  endfacet
  facet normal -0.000000e+000 -4.226153e-001 -9.063092e-001
    outer loop
      vertex   -1.696680e+001 3.324137e+001 7.316988e+000
      vertex   -1.796680e+001 3.324137e+001 7.316988e+000
      vertex   -1.696680e+001 3.332037e+001 7.280154e+000
    endloop
  endfacet
  facet normal -0.000000e+000 -3.669465e-002 -7.869262e-002
    outer loop
      vertex   -1.696680e+001 3.332037e+001 7.280154e+000
      vertex   -1.796680e+001 3.324137e+001 7.316988e+000
      vertex   -1.796680e+001 3.332037e+001 7.280154e+000
    endloop
  endfacet
  facet normal -0.000000e+000 -2.588192e-001 -9.659258e-001
    outer loop
      vertex   -1.696680e+001 3.332037e+001 7.280154e+000
      vertex   -1.796680e+001 3.332037e+001 7.280154e+000
      vertex   -1.696680e+001 3.340455e+001 7.257596e+000
    endloop
  endfacet
  facet normal -0.000000e+000 -2.247254e-002 -8.386862e-002
    outer loop
      vertex   -1.696680e+001 3.340455e+001 7.257596e+000
      vertex   -1.796680e+001 3.332037e+001 7.280154e+000
      vertex   -1.796680e+001 3.340455e+001 7.257596e+000
    endloop
  endfacet
  facet normal -0.000000e+000 -8.715609e-002 -9.961947e-001
    outer loop
      vertex   -1.696680e+001 3.340455e+001 7.257596e+000
      vertex   -1.796680e+001 3.340455e+001 7.257596e+000
      vertex   -1.696680e+001 3.349137e+001 7.250000e+000
    endloop
  endfacet
  facet normal -0.000000e+000 -7.567330e-003 -8.649463e-002
    outer loop
      vertex   -1.696680e+001 3.349137e+001 7.250000e+000
      vertex   -1.796680e+001 3.340455e+001 7.257596e+000
      vertex   -1.796680e+001 3.349137e+001 7.250000e+000
    endloop
  endfacet
  facet normal 0.000000e+000 8.715609e-002 -9.961947e-001
    outer loop
      vertex   -1.696680e+001 3.349137e+001 7.250000e+000
      vertex   -1.796680e+001 3.349137e+001 7.250000e+000
      vertex   -1.696680e+001 3.357820e+001 7.257596e+000
    endloop
  endfacet
  facet normal 0.000000e+000 7.567330e-003 -8.649463e-002
    outer loop
      vertex   -1.696680e+001 3.357820e+001 7.257596e+000
      vertex   -1.796680e+001 3.349137e+001 7.250000e+000
      vertex   -1.796680e+001 3.357820e+001 7.257596e+000
    endloop
  endfacet
  facet normal 0.000000e+000 2.588192e-001 -9.659258e-001
    outer loop
      vertex   -1.696680e+001 3.357820e+001 7.257596e+000
      vertex   -1.796680e+001 3.357820e+001 7.257596e+000
      vertex   -1.696680e+001 3.366238e+001 7.280154e+000
    endloop
  endfacet
  facet normal 0.000000e+000 2.247254e-002 -8.386862e-002
    outer loop
      vertex   -1.696680e+001 3.366238e+001 7.280154e+000
      vertex   -1.796680e+001 3.357820e+001 7.257596e+000
      vertex   -1.796680e+001 3.366238e+001 7.280154e+000
    endloop
  endfacet
  facet normal 0.000000e+000 4.226153e-001 -9.063092e-001
    outer loop
      vertex   -1.696680e+001 3.366238e+001 7.280154e+000
      vertex   -1.796680e+001 3.366238e+001 7.280154e+000
      vertex   -1.696680e+001 3.374137e+001 7.316988e+000
    endloop
  endfacet
  facet normal 0.000000e+000 3.669465e-002 -7.869262e-002
    outer loop
      vertex   -1.696680e+001 3.374137e+001 7.316988e+000
      vertex   -1.796680e+001 3.366238e+001 7.280154e+000
      vertex   -1.796680e+001 3.374137e+001 7.316988e+000
    endloop
  endfacet
  facet normal 0.000000e+000 5.735835e-001 -8.191471e-001
    outer loop
      vertex   -1.696680e+001 3.374137e+001 7.316988e+000
      vertex   -1.796680e+001 3.374137e+001 7.316988e+000
      vertex   -1.696680e+001 3.381277e+001 7.366978e+000
    endloop
  endfacet
  facet normal 0.000000e+000 4.980139e-002 -7.112245e-002
    outer loop
      vertex   -1.696680e+001 3.381277e+001 7.366978e+000
      vertex   -1.796680e+001 3.374137e+001 7.316988e+000
      vertex   -1.796680e+001 3.381277e+001 7.366978e+000
    endloop
  endfacet
  facet normal 0.000000e+000 7.070959e-001 -7.071177e-001
    outer loop
      vertex   -1.696680e+001 3.381277e+001 7.366978e+000
      vertex   -1.796680e+001 3.381277e+001 7.366978e+000
      vertex   -1.696680e+001 3.387440e+001 7.428606e+000
    endloop
  endfacet
  facet normal 0.000000e+000 6.139559e-002 -6.139749e-002
    outer loop
      vertex   -1.696680e+001 3.387440e+001 7.428606e+000
      vertex   -1.796680e+001 3.381277e+001 7.366978e+000
      vertex   -1.796680e+001 3.387440e+001 7.428606e+000
    endloop
  endfacet
  facet normal 0.000000e+000 8.191466e-001 -5.735843e-001
    outer loop
      vertex   -1.696680e+001 3.387440e+001 7.428606e+000
      vertex   -1.796680e+001 3.387440e+001 7.428606e+000
      vertex   -1.696680e+001 3.392439e+001 7.500000e+000
    endloop
  endfacet
  facet normal 0.000000e+000 7.112434e-002 -4.980281e-002
    outer loop
      vertex   -1.696680e+001 3.392439e+001 7.500000e+000
      vertex   -1.796680e+001 3.387440e+001 7.428606e+000
      vertex   -1.796680e+001 3.392439e+001 7.500000e+000
    endloop
  endfacet
  facet normal 0.000000e+000 9.063198e-001 -4.225925e-001
    outer loop
      vertex   -1.696680e+001 3.392439e+001 7.500000e+000
      vertex   -1.796680e+001 3.392439e+001 7.500000e+000
      vertex   -1.696680e+001 3.396122e+001 7.578990e+000
    endloop
  endfacet
  facet normal 0.000000e+000 7.869168e-002 -3.669181e-002
    outer loop
      vertex   -1.696680e+001 3.396122e+001 7.578990e+000
      vertex   -1.796680e+001 3.392439e+001 7.500000e+000
      vertex   -1.796680e+001 3.396122e+001 7.578990e+000
    endloop
  endfacet
  facet normal 0.000000e+000 9.659186e-001 -2.588461e-001
    outer loop
      vertex   -1.696680e+001 3.396122e+001 7.578990e+000
      vertex   -1.796680e+001 3.396122e+001 7.578990e+000
      vertex   -1.696680e+001 3.398378e+001 7.663176e+000
    endloop
  endfacet
  facet normal 0.000000e+000 8.386814e-002 -2.247492e-002
    outer loop
      vertex   -1.696680e+001 3.398378e+001 7.663176e+000
      vertex   -1.796680e+001 3.396122e+001 7.578990e+000
      vertex   -1.796680e+001 3.398378e+001 7.663176e+000
    endloop
  endfacet
  facet normal 0.000000e+000 9.961957e-001 -8.714381e-002
    outer loop
      vertex   -1.696680e+001 3.398378e+001 7.663176e+000
      vertex   -1.796680e+001 3.398378e+001 7.663176e+000
      vertex   -1.696680e+001 3.399137e+001 7.750000e+000
    endloop
  endfacet
  facet normal 0.000000e+000 8.649605e-002 -7.566379e-003
    outer loop
      vertex   -1.696680e+001 3.399137e+001 7.750000e+000
      vertex   -1.796680e+001 3.398378e+001 7.663176e+000
      vertex   -1.796680e+001 3.399137e+001 7.750000e+000
    endloop
  endfacet
  facet normal 0.000000e+000 9.961957e-001 8.714381e-002
    outer loop
      vertex   -1.696680e+001 3.399137e+001 7.750000e+000
      vertex   -1.796680e+001 3.399137e+001 7.750000e+000
      vertex   -1.696680e+001 3.398378e+001 7.836824e+000
    endloop
  endfacet
  facet normal 0.000000e+000 8.649605e-002 7.566379e-003
    outer loop
      vertex   -1.696680e+001 3.398378e+001 7.836824e+000
      vertex   -1.796680e+001 3.399137e+001 7.750000e+000
      vertex   -1.796680e+001 3.398378e+001 7.836824e+000
    endloop
  endfacet
  facet normal 0.000000e+000 9.659186e-001 2.588461e-001
    outer loop
      vertex   -1.696680e+001 3.398378e+001 7.836824e+000
      vertex   -1.796680e+001 3.398378e+001 7.836824e+000
      vertex   -1.696680e+001 3.396122e+001 7.921010e+000
    endloop
  endfacet
  facet normal 0.000000e+000 8.386814e-002 2.247492e-002
    outer loop
      vertex   -1.696680e+001 3.396122e+001 7.921010e+000
      vertex   -1.796680e+001 3.398378e+001 7.836824e+000
      vertex   -1.796680e+001 3.396122e+001 7.921010e+000
    endloop
  endfacet
  facet normal 0.000000e+000 9.063198e-001 4.225925e-001
    outer loop
      vertex   -1.696680e+001 3.396122e+001 7.921010e+000
      vertex   -1.796680e+001 3.396122e+001 7.921010e+000
      vertex   -1.696680e+001 3.392439e+001 8.000000e+000
    endloop
  endfacet
  facet normal 0.000000e+000 7.869168e-002 3.669181e-002
    outer loop
      vertex   -1.696680e+001 3.392439e+001 8.000000e+000
      vertex   -1.796680e+001 3.396122e+001 7.921010e+000
      vertex   -1.796680e+001 3.392439e+001 8.000000e+000
    endloop
  endfacet
  facet normal 0.000000e+000 8.191466e-001 5.735843e-001
    outer loop
      vertex   -1.696680e+001 3.392439e+001 8.000000e+000
      vertex   -1.796680e+001 3.392439e+001 8.000000e+000
      vertex   -1.696680e+001 3.387440e+001 8.071394e+000
    endloop
  endfacet
  facet normal 0.000000e+000 7.112434e-002 4.980281e-002
    outer loop
      vertex   -1.696680e+001 3.387440e+001 8.071394e+000
      vertex   -1.796680e+001 3.392439e+001 8.000000e+000
      vertex   -1.796680e+001 3.387440e+001 8.071394e+000
    endloop
  endfacet
  facet normal 0.000000e+000 7.070959e-001 7.071177e-001
    outer loop
      vertex   -1.696680e+001 3.387440e+001 8.071394e+000
      vertex   -1.796680e+001 3.387440e+001 8.071394e+000
      vertex   -1.696680e+001 3.381277e+001 8.133022e+000
    endloop
  endfacet
  facet normal 0.000000e+000 6.139559e-002 6.139749e-002
    outer loop
      vertex   -1.696680e+001 3.381277e+001 8.133022e+000
      vertex   -1.796680e+001 3.387440e+001 8.071394e+000
      vertex   -1.796680e+001 3.381277e+001 8.133022e+000
    endloop
  endfacet
  facet normal 0.000000e+000 5.735872e-001 8.191445e-001
    outer loop
      vertex   -1.696680e+001 3.381277e+001 8.133022e+000
      vertex   -1.796680e+001 3.381277e+001 8.133022e+000
      vertex   -1.696680e+001 3.374137e+001 8.183013e+000
    endloop
  endfacet
  facet normal 0.000000e+000 4.980187e-002 7.112245e-002
    outer loop
      vertex   -1.696680e+001 3.374137e+001 8.183013e+000
      vertex   -1.796680e+001 3.381277e+001 8.133022e+000
      vertex   -1.796680e+001 3.374137e+001 8.183013e+000
    endloop
  endfacet
  facet normal 0.000000e+000 4.226153e-001 9.063092e-001
    outer loop
      vertex   -1.696680e+001 3.374137e+001 8.183013e+000
      vertex   -1.796680e+001 3.374137e+001 8.183013e+000
      vertex   -1.696680e+001 3.366238e+001 8.219847e+000
    endloop
  endfacet
  facet normal 0.000000e+000 3.669465e-002 7.869262e-002
    outer loop
      vertex   -1.696680e+001 3.366238e+001 8.219847e+000
      vertex   -1.796680e+001 3.374137e+001 8.183013e+000
      vertex   -1.796680e+001 3.366238e+001 8.219847e+000
    endloop
  endfacet
  facet normal 0.000000e+000 2.588141e-001 9.659271e-001
    outer loop
      vertex   -1.696680e+001 3.366238e+001 8.219847e+000
      vertex   -1.796680e+001 3.366238e+001 8.219847e+000
      vertex   -1.696680e+001 3.357820e+001 8.242404e+000
    endloop
  endfacet
  facet normal 0.000000e+000 2.247207e-002 8.386862e-002
    outer loop
      vertex   -1.696680e+001 3.357820e+001 8.242404e+000
      vertex   -1.796680e+001 3.366238e+001 8.219847e+000
      vertex   -1.796680e+001 3.357820e+001 8.242404e+000
    endloop
  endfacet
  facet normal 9.961947e-001 -0.000000e+000 0.000000e+000
    outer loop
      vertex   -1.696680e+001 3.340455e+001 8.242404e+000
      vertex   -1.696680e+001 3.340455e+001 7.257596e+000
      vertex   -1.696680e+001 3.349137e+001 8.250000e+000
    endloop
  endfacet
  facet normal 8.715416e-002 0.000000e+000 0.000000e+000
    outer loop
      vertex   -1.696680e+001 3.349137e+001 8.250000e+000
      vertex   -1.696680e+001 3.340455e+001 7.257596e+000
      vertex   -1.696680e+001 3.349137e+001 7.250000e+000
    endloop
  endfacet
  facet normal 9.961947e-001 0.000000e+000 0.000000e+000
    outer loop
      vertex   -1.696680e+001 3.349137e+001 8.250000e+000
      vertex   -1.696680e+001 3.349137e+001 7.250000e+000
      vertex   -1.696680e+001 3.357820e+001 8.242404e+000
    endloop
  endfacet
  facet normal 8.715416e-002 0.000000e+000 0.000000e+000
    outer loop
      vertex   -1.696680e+001 3.357820e+001 8.242404e+000
      vertex   -1.696680e+001 3.349137e+001 7.250000e+000
      vertex   -1.696680e+001 3.357820e+001 7.257596e+000
    endloop
  endfacet
  facet normal 9.659271e-001 0.000000e+000 0.000000e+000
    outer loop
      vertex   -1.696680e+001 3.357820e+001 8.242404e+000
      vertex   -1.696680e+001 3.357820e+001 7.257596e+000
      vertex   -1.696680e+001 3.366238e+001 8.219847e+000
    endloop
  endfacet
  facet normal 8.715628e-002 0.000000e+000 0.000000e+000
    outer loop
      vertex   -1.696680e+001 3.366238e+001 8.219847e+000
      vertex   -1.696680e+001 3.357820e+001 7.257596e+000
      vertex   -1.696680e+001 3.366238e+001 7.280154e+000
    endloop
  endfacet
  facet normal 9.063092e-001 0.000000e+000 0.000000e+000
    outer loop
      vertex   -1.696680e+001 3.366238e+001 8.219847e+000
      vertex   -1.696680e+001 3.366238e+001 7.280154e+000
      vertex   -1.696680e+001 3.374137e+001 8.183013e+000
    endloop
  endfacet
  facet normal 8.715682e-002 0.000000e+000 0.000000e+000
    outer loop
      vertex   -1.696680e+001 3.374137e+001 8.183013e+000
      vertex   -1.696680e+001 3.366238e+001 7.280154e+000
      vertex   -1.696680e+001 3.374137e+001 7.316988e+000
    endloop
  endfacet
  facet normal 8.191445e-001 0.000000e+000 0.000000e+000
    outer loop
      vertex   -1.696680e+001 3.374137e+001 8.183013e+000
      vertex   -1.696680e+001 3.374137e+001 7.316988e+000
      vertex   -1.696680e+001 3.381277e+001 8.133022e+000
    endloop
  endfacet
  facet normal 8.715364e-002 0.000000e+000 0.000000e+000
    outer loop
      vertex   -1.696680e+001 3.381277e+001 8.133022e+000
      vertex   -1.696680e+001 3.374137e+001 7.316988e+000
      vertex   -1.696680e+001 3.381277e+001 7.366978e+000
    endloop
  endfacet
  facet normal 7.071177e-001 0.000000e+000 0.000000e+000
    outer loop
      vertex   -1.696680e+001 3.381277e+001 8.133022e+000
      vertex   -1.696680e+001 3.381277e+001 7.366978e+000
      vertex   -1.696680e+001 3.387440e+001 8.071394e+000
    endloop
  endfacet
  facet normal 8.715829e-002 0.000000e+000 0.000000e+000
    outer loop
      vertex   -1.696680e+001 3.387440e+001 8.071394e+000
      vertex   -1.696680e+001 3.381277e+001 7.366978e+000
      vertex   -1.696680e+001 3.387440e+001 7.428606e+000
    endloop
  endfacet
  facet normal 5.735843e-001 0.000000e+000 0.000000e+000
    outer loop
      vertex   -1.696680e+001 3.387440e+001 8.071394e+000
      vertex   -1.696680e+001 3.387440e+001 7.428606e+000
      vertex   -1.696680e+001 3.392439e+001 8.000000e+000
    endloop
  endfacet
  facet normal 8.715767e-002 0.000000e+000 0.000000e+000
    outer loop
      vertex   -1.696680e+001 3.392439e+001 8.000000e+000
      vertex   -1.696680e+001 3.387440e+001 7.428606e+000
      vertex   -1.696680e+001 3.392439e+001 7.500000e+000
    endloop
  endfacet
  facet normal 4.225925e-001 0.000000e+000 0.000000e+000
    outer loop
      vertex   -1.696680e+001 3.392439e+001 8.000000e+000
      vertex   -1.696680e+001 3.392439e+001 7.500000e+000
      vertex   -1.696680e+001 3.396122e+001 7.921010e+000
    endloop
  endfacet
  facet normal 8.714940e-002 0.000000e+000 0.000000e+000
    outer loop
      vertex   -1.696680e+001 3.396122e+001 7.921010e+000
      vertex   -1.696680e+001 3.392439e+001 7.500000e+000
      vertex   -1.696680e+001 3.396122e+001 7.578990e+000
    endloop
  endfacet
  facet normal 2.588461e-001 0.000000e+000 0.000000e+000
    outer loop
      vertex   -1.696680e+001 3.396122e+001 7.921010e+000
      vertex   -1.696680e+001 3.396122e+001 7.578990e+000
      vertex   -1.696680e+001 3.398378e+001 7.836824e+000
    endloop
  endfacet
  facet normal 8.716560e-002 0.000000e+000 0.000000e+000
    outer loop
      vertex   -1.696680e+001 3.398378e+001 7.836824e+000
      vertex   -1.696680e+001 3.396122e+001 7.578990e+000
      vertex   -1.696680e+001 3.398378e+001 7.663176e+000
    endloop
  endfacet
  facet normal 8.714381e-002 0.000000e+000 0.000000e+000
    outer loop
      vertex   -1.696680e+001 3.398378e+001 7.836824e+000
      vertex   -1.696680e+001 3.398378e+001 7.663176e+000
      vertex   -1.696680e+001 3.399137e+001 7.750000e+000
    endloop
  endfacet
  facet normal 9.659258e-001 0.000000e+000 -0.000000e+000
    outer loop
      vertex   -1.696680e+001 3.340455e+001 7.257596e+000
      vertex   -1.696680e+001 3.340455e+001 8.242404e+000
      vertex   -1.696680e+001 3.332037e+001 7.280154e+000
    endloop
  endfacet
  facet normal 8.715633e-002 0.000000e+000 0.000000e+000
    outer loop
      vertex   -1.696680e+001 3.332037e+001 7.280154e+000
      vertex   -1.696680e+001 3.340455e+001 8.242404e+000
      vertex   -1.696680e+001 3.332037e+001 8.219847e+000
    endloop
  endfacet
  facet normal 9.063092e-001 0.000000e+000 -0.000000e+000
    outer loop
      vertex   -1.696680e+001 3.332037e+001 7.280154e+000
      vertex   -1.696680e+001 3.332037e+001 8.219847e+000
      vertex   -1.696680e+001 3.324137e+001 7.316988e+000
    endloop
  endfacet
  facet normal 8.715682e-002 0.000000e+000 0.000000e+000
    outer loop
      vertex   -1.696680e+001 3.324137e+001 7.316988e+000
      vertex   -1.696680e+001 3.332037e+001 8.219847e+000
      vertex   -1.696680e+001 3.324137e+001 8.183013e+000
    endloop
  endfacet
  facet normal 8.191471e-001 0.000000e+000 -0.000000e+000
    outer loop
      vertex   -1.696680e+001 3.324137e+001 7.316988e+000
      vertex   -1.696680e+001 3.324137e+001 8.183013e+000
      vertex   -1.696680e+001 3.316998e+001 7.366978e+000
    endloop
  endfacet
  facet normal 8.715359e-002 0.000000e+000 0.000000e+000
    outer loop
      vertex   -1.696680e+001 3.316998e+001 7.366978e+000
      vertex   -1.696680e+001 3.324137e+001 8.183013e+000
      vertex   -1.696680e+001 3.316998e+001 8.133022e+000
    endloop
  endfacet
  facet normal 7.071177e-001 0.000000e+000 -0.000000e+000
    outer loop
      vertex   -1.696680e+001 3.316998e+001 7.366978e+000
      vertex   -1.696680e+001 3.316998e+001 8.133022e+000
      vertex   -1.696680e+001 3.310835e+001 7.428606e+000
    endloop
  endfacet
  facet normal 8.715829e-002 0.000000e+000 0.000000e+000
    outer loop
      vertex   -1.696680e+001 3.310835e+001 7.428606e+000
      vertex   -1.696680e+001 3.316998e+001 8.133022e+000
      vertex   -1.696680e+001 3.310835e+001 8.071394e+000
    endloop
  endfacet
  facet normal 5.735843e-001 0.000000e+000 -0.000000e+000
    outer loop
      vertex   -1.696680e+001 3.310835e+001 7.428606e+000
      vertex   -1.696680e+001 3.310835e+001 8.071394e+000
      vertex   -1.696680e+001 3.305836e+001 7.500000e+000
    endloop
  endfacet
  facet normal 8.715767e-002 0.000000e+000 0.000000e+000
    outer loop
      vertex   -1.696680e+001 3.305836e+001 7.500000e+000
      vertex   -1.696680e+001 3.310835e+001 8.071394e+000
      vertex   -1.696680e+001 3.305836e+001 8.000000e+000
    endloop
  endfacet
  facet normal 4.225925e-001 0.000000e+000 -0.000000e+000
    outer loop
      vertex   -1.696680e+001 3.305836e+001 7.500000e+000
      vertex   -1.696680e+001 3.305836e+001 8.000000e+000
      vertex   -1.696680e+001 3.302153e+001 7.578990e+000
    endloop
  endfacet
  facet normal 8.714940e-002 0.000000e+000 0.000000e+000
    outer loop
      vertex   -1.696680e+001 3.302153e+001 7.578990e+000
      vertex   -1.696680e+001 3.305836e+001 8.000000e+000
      vertex   -1.696680e+001 3.302153e+001 7.921010e+000
    endloop
  endfacet
  facet normal 2.588461e-001 0.000000e+000 -0.000000e+000
    outer loop
      vertex   -1.696680e+001 3.302153e+001 7.578990e+000
      vertex   -1.696680e+001 3.302153e+001 7.921010e+000
      vertex   -1.696680e+001 3.299897e+001 7.663176e+000
    endloop
  endfacet
  facet normal 8.716560e-002 0.000000e+000 0.000000e+000
    outer loop
      vertex   -1.696680e+001 3.299897e+001 7.663176e+000
      vertex   -1.696680e+001 3.302153e+001 7.921010e+000
      vertex   -1.696680e+001 3.299897e+001 7.836824e+000
    endloop
  endfacet
  facet normal 8.714381e-002 0.000000e+000 -0.000000e+000
    outer loop
      vertex   -1.696680e+001 3.299897e+001 7.663176e+000
      vertex   -1.696680e+001 3.299897e+001 7.836824e+000
      vertex   -1.696680e+001 3.299137e+001 7.750000e+000
    endloop
  endfacet
  facet normal -9.961947e-001 -0.000000e+000 -0.000000e+000
    outer loop
      vertex   -1.796680e+001 3.357820e+001 8.242404e+000
      vertex   -1.796680e+001 3.357820e+001 7.257596e+000
      vertex   -1.796680e+001 3.349137e+001 8.250000e+000
    endloop
  endfacet
  facet normal -8.715416e-002 0.000000e+000 0.000000e+000
    outer loop
      vertex   -1.796680e+001 3.349137e+001 8.250000e+000
      vertex   -1.796680e+001 3.357820e+001 7.257596e+000
      vertex   -1.796680e+001 3.349137e+001 7.250000e+000
    endloop
  endfacet
  facet normal -9.961947e-001 0.000000e+000 -0.000000e+000
    outer loop
      vertex   -1.796680e+001 3.349137e+001 8.250000e+000
      vertex   -1.796680e+001 3.349137e+001 7.250000e+000
      vertex   -1.796680e+001 3.340455e+001 8.242404e+000
    endloop
  endfacet
  facet normal -8.715416e-002 0.000000e+000 0.000000e+000
    outer loop
      vertex   -1.796680e+001 3.340455e+001 8.242404e+000
      vertex   -1.796680e+001 3.349137e+001 7.250000e+000
      vertex   -1.796680e+001 3.340455e+001 7.257596e+000
    endloop
  endfacet
  facet normal -9.659271e-001 0.000000e+000 -0.000000e+000
    outer loop
      vertex   -1.796680e+001 3.340455e+001 8.242404e+000
      vertex   -1.796680e+001 3.340455e+001 7.257596e+000
      vertex   -1.796680e+001 3.332037e+001 8.219847e+000
    endloop
  endfacet
  facet normal -8.715628e-002 0.000000e+000 0.000000e+000
    outer loop
      vertex   -1.796680e+001 3.332037e+001 8.219847e+000
      vertex   -1.796680e+001 3.340455e+001 7.257596e+000
      vertex   -1.796680e+001 3.332037e+001 7.280154e+000
    endloop
  endfacet
  facet normal -9.063092e-001 0.000000e+000 -0.000000e+000
    outer loop
      vertex   -1.796680e+001 3.332037e+001 8.219847e+000
      vertex   -1.796680e+001 3.332037e+001 7.280154e+000
      vertex   -1.796680e+001 3.324137e+001 8.183013e+000
    endloop
  endfacet
  facet normal -8.715682e-002 0.000000e+000 0.000000e+000
    outer loop
      vertex   -1.796680e+001 3.324137e+001 8.183013e+000
      vertex   -1.796680e+001 3.332037e+001 7.280154e+000
      vertex   -1.796680e+001 3.324137e+001 7.316988e+000
    endloop
  endfacet
  facet normal -8.191445e-001 0.000000e+000 -0.000000e+000
    outer loop
      vertex   -1.796680e+001 3.324137e+001 8.183013e+000
      vertex   -1.796680e+001 3.324137e+001 7.316988e+000
      vertex   -1.796680e+001 3.316998e+001 8.133022e+000
    endloop
  endfacet
  facet normal -8.715364e-002 0.000000e+000 0.000000e+000
    outer loop
      vertex   -1.796680e+001 3.316998e+001 8.133022e+000
      vertex   -1.796680e+001 3.324137e+001 7.316988e+000
      vertex   -1.796680e+001 3.316998e+001 7.366978e+000
    endloop
  endfacet
  facet normal -7.071177e-001 0.000000e+000 -0.000000e+000
    outer loop
      vertex   -1.796680e+001 3.316998e+001 8.133022e+000
      vertex   -1.796680e+001 3.316998e+001 7.366978e+000
      vertex   -1.796680e+001 3.310835e+001 8.071394e+000
    endloop
  endfacet
  facet normal -8.715829e-002 0.000000e+000 0.000000e+000
    outer loop
      vertex   -1.796680e+001 3.310835e+001 8.071394e+000
      vertex   -1.796680e+001 3.316998e+001 7.366978e+000
      vertex   -1.796680e+001 3.310835e+001 7.428606e+000
    endloop
  endfacet
  facet normal -5.735843e-001 0.000000e+000 -0.000000e+000
    outer loop
      vertex   -1.796680e+001 3.310835e+001 8.071394e+000
      vertex   -1.796680e+001 3.310835e+001 7.428606e+000
      vertex   -1.796680e+001 3.305836e+001 8.000000e+000
    endloop
  endfacet
  facet normal -8.715767e-002 0.000000e+000 0.000000e+000
    outer loop
      vertex   -1.796680e+001 3.305836e+001 8.000000e+000
      vertex   -1.796680e+001 3.310835e+001 7.428606e+000
      vertex   -1.796680e+001 3.305836e+001 7.500000e+000
    endloop
  endfacet
  facet normal -4.225925e-001 0.000000e+000 -0.000000e+000
    outer loop
      vertex   -1.796680e+001 3.305836e+001 8.000000e+000
      vertex   -1.796680e+001 3.305836e+001 7.500000e+000
      vertex   -1.796680e+001 3.302153e+001 7.921010e+000
    endloop
  endfacet
  facet normal -8.714940e-002 0.000000e+000 0.000000e+000
    outer loop
      vertex   -1.796680e+001 3.302153e+001 7.921010e+000
      vertex   -1.796680e+001 3.305836e+001 7.500000e+000
      vertex   -1.796680e+001 3.302153e+001 7.578990e+000
    endloop
  endfacet
  facet normal -2.588461e-001 0.000000e+000 -0.000000e+000
    outer loop
      vertex   -1.796680e+001 3.302153e+001 7.921010e+000
      vertex   -1.796680e+001 3.302153e+001 7.578990e+000
      vertex   -1.796680e+001 3.299897e+001 7.836824e+000
    endloop
  endfacet
  facet normal -8.716560e-002 0.000000e+000 0.000000e+000
    outer loop
      vertex   -1.796680e+001 3.299897e+001 7.836824e+000
      vertex   -1.796680e+001 3.302153e+001 7.578990e+000
      vertex   -1.796680e+001 3.299897e+001 7.663176e+000
    endloop
  endfacet
  facet normal -8.714381e-002 0.000000e+000 -0.000000e+000
    outer loop
      vertex   -1.796680e+001 3.299897e+001 7.836824e+000
      vertex   -1.796680e+001 3.299897e+001 7.663176e+000
      vertex   -1.796680e+001 3.299137e+001 7.750000e+000
    endloop
  endfacet
  facet normal -9.659258e-001 0.000000e+000 0.000000e+000
    outer loop
      vertex   -1.796680e+001 3.357820e+001 7.257596e+000
      vertex   -1.796680e+001 3.357820e+001 8.242404e+000
      vertex   -1.796680e+001 3.366238e+001 7.280154e+000
    endloop
  endfacet
  facet normal -8.715633e-002 0.000000e+000 0.000000e+000
    outer loop
      vertex   -1.796680e+001 3.366238e+001 7.280154e+000
      vertex   -1.796680e+001 3.357820e+001 8.242404e+000
      vertex   -1.796680e+001 3.366238e+001 8.219847e+000
    endloop
  endfacet
  facet normal -9.063092e-001 0.000000e+000 0.000000e+000
    outer loop
      vertex   -1.796680e+001 3.366238e+001 7.280154e+000
      vertex   -1.796680e+001 3.366238e+001 8.219847e+000
      vertex   -1.796680e+001 3.374137e+001 7.316988e+000
    endloop
  endfacet
  facet normal -8.715682e-002 0.000000e+000 0.000000e+000
    outer loop
      vertex   -1.796680e+001 3.374137e+001 7.316988e+000
      vertex   -1.796680e+001 3.366238e+001 8.219847e+000
      vertex   -1.796680e+001 3.374137e+001 8.183013e+000
    endloop
  endfacet
  facet normal -8.191471e-001 0.000000e+000 0.000000e+000
    outer loop
      vertex   -1.796680e+001 3.374137e+001 7.316988e+000
      vertex   -1.796680e+001 3.374137e+001 8.183013e+000
      vertex   -1.796680e+001 3.381277e+001 7.366978e+000
    endloop
  endfacet
  facet normal -8.715359e-002 0.000000e+000 0.000000e+000
    outer loop
      vertex   -1.796680e+001 3.381277e+001 7.366978e+000
      vertex   -1.796680e+001 3.374137e+001 8.183013e+000
      vertex   -1.796680e+001 3.381277e+001 8.133022e+000
    endloop
  endfacet
  facet normal -7.071177e-001 0.000000e+000 0.000000e+000
    outer loop
      vertex   -1.796680e+001 3.381277e+001 7.366978e+000
      vertex   -1.796680e+001 3.381277e+001 8.133022e+000
      vertex   -1.796680e+001 3.387440e+001 7.428606e+000
    endloop
  endfacet
  facet normal -8.715829e-002 0.000000e+000 0.000000e+000
    outer loop
      vertex   -1.796680e+001 3.387440e+001 7.428606e+000
      vertex   -1.796680e+001 3.381277e+001 8.133022e+000
      vertex   -1.796680e+001 3.387440e+001 8.071394e+000
    endloop
  endfacet
  facet normal -5.735843e-001 0.000000e+000 0.000000e+000
    outer loop
      vertex   -1.796680e+001 3.387440e+001 7.428606e+000
      vertex   -1.796680e+001 3.387440e+001 8.071394e+000
      vertex   -1.796680e+001 3.392439e+001 7.500000e+000
    endloop
  endfacet
  facet normal -8.715767e-002 0.000000e+000 0.000000e+000
    outer loop
      vertex   -1.796680e+001 3.392439e+001 7.500000e+000
      vertex   -1.796680e+001 3.387440e+001 8.071394e+000
      vertex   -1.796680e+001 3.392439e+001 8.000000e+000
    endloop
  endfacet
  facet normal -4.225925e-001 0.000000e+000 0.000000e+000
    outer loop
      vertex   -1.796680e+001 3.392439e+001 7.500000e+000
      vertex   -1.796680e+001 3.392439e+001 8.000000e+000
      vertex   -1.796680e+001 3.396122e+001 7.578990e+000
    endloop
  endfacet
  facet normal -8.714940e-002 0.000000e+000 0.000000e+000
    outer loop
      vertex   -1.796680e+001 3.396122e+001 7.578990e+000
      vertex   -1.796680e+001 3.392439e+001 8.000000e+000
      vertex   -1.796680e+001 3.396122e+001 7.921010e+000
    endloop
  endfacet
  facet normal -2.588461e-001 0.000000e+000 0.000000e+000
    outer loop
      vertex   -1.796680e+001 3.396122e+001 7.578990e+000
      vertex   -1.796680e+001 3.396122e+001 7.921010e+000
      vertex   -1.796680e+001 3.398378e+001 7.663176e+000
    endloop
  endfacet
  facet normal -8.716560e-002 0.000000e+000 0.000000e+000
    outer loop
      vertex   -1.796680e+001 3.398378e+001 7.663176e+000
      vertex   -1.796680e+001 3.396122e+001 7.921010e+000
      vertex   -1.796680e+001 3.398378e+001 7.836824e+000
    endloop
  endfacet
  facet normal -8.714381e-002 0.000000e+000 0.000000e+000
    outer loop
      vertex   -1.796680e+001 3.398378e+001 7.663176e+000
      vertex   -1.796680e+001 3.398378e+001 7.836824e+000
      vertex   -1.796680e+001 3.399137e+001 7.750000e+000
    endloop
  endfacet
endsolid
