<?xml version="1.0" encoding="UTF-8"?>
<!DOCTYPE svg PUBLIC "-//W3C//DTD SVG 1.1//EN" "http://www.w3.org/Graphics/SVG/1.1/DTD/svg11.dtd">
<!-- Creator: CorelDRAW -->
<svg xmlns="http://www.w3.org/2000/svg" xml:space="preserve" width="210mm" height="297mm" style="shape-rendering:geometricPrecision; text-rendering:geometricPrecision; image-rendering:optimizeQuality; fill-rule:evenodd; clip-rule:evenodd"
viewBox="0 0 210 297"
 xmlns:xlink="http://www.w3.org/1999/xlink"
 version="1.1">
 <defs>
  <style type="text/css">
   <![CDATA[
    .str1 {stroke:red;stroke-width:0.1;stroke-linecap:round}
    .str0 {stroke:#1F1A17;stroke-width:0.2}
    .fil0 {fill:none}
   ]]>
  </style>
 </defs>
 <g id="图层_x0020_1">
  <metadata id="CorelCorpID_0Corel-Layer"/>
  <rect class="fil0 str0" width="210" height="297"/>
  <polygon id="front_outsideCutPath" class="fil0 str1" points="395,-233 387.5,-233 387.5,-231 380.5,-231 380.5,-233 373.5,-233 373.5,-231 366.5,-231 366.5,-233 359.5,-233 359.5,-231 352.5,-231 352.5,-233 345,-233 345,-221 347,-221 347,-214 345,-214 345,-207 347,-207 347,-200 345,-200 345,-193 347,-193 347,-186 345,-186 345,-179 347,-179 347,-172 345,-172 345,-165 347,-165 347,-158 345,-158 345,-151 347,-151 347,-144 345,-144 345,-137 347,-137 347,-130 345,-130 345,-123 347,-123 347,-116 345,-116 345,-109 347,-109 347,-102 345,-102 345,-95 347,-95 347,-88 345,-88 345,-81 347,-81 347,-74 345,-74 345,-67 347,-67 347,-60 345,-60 345,-53 347,-53 347,-46 345,-46 345,-39 347,-39 347,-32 345,-32 345,-25 347,-25 347,-18 345,-18 345,-11 347,-11 347,-4 345,-4 345,3 347,3 347,10 345,10 345,17 347,17 347,24 345,24 345,31 347,31 347,38 345,38 345,45 347,45 347,52 345,52 345,64 352.5,64 352.5,62 359.5,62 359.5,64 366.5,64 366.5,62 373.5,62 373.5,64 380.5,64 380.5,62 387.5,62 387.5,64 395,64 395,52 393,52 393,45 395,45 395,38 393,38 393,31 395,31 395,24 393,24 393,17 395,17 395,10 393,10 393,3 395,3 395,-4 393,-4 393,-11 395,-11 395,-18 393,-18 393,-25 395,-25 395,-32 393,-32 393,-39 395,-39 395,-46 393,-46 393,-53 395,-53 395,-60 393,-60 393,-67 395,-67 395,-74 393,-74 393,-81 395,-81 395,-88 393,-88 393,-95 395,-95 395,-102 393,-102 393,-109 395,-109 395,-116 393,-116 393,-123 395,-123 395,-130 393,-130 393,-137 395,-137 395,-144 393,-144 393,-151 395,-151 395,-158 393,-158 393,-165 395,-165 395,-172 393,-172 393,-179 395,-179 395,-186 393,-186 393,-193 395,-193 395,-200 393,-200 393,-207 395,-207 395,-214 393,-214 393,-221 395,-221 " vector-effect="non-scaling-stroke"/>
  <polygon id="left_outsideCutPath" class="fil0 str1" points="395,69 387.5,69 387.5,67 380.5,67 380.5,69 373.5,69 373.5,67 366.5,67 366.5,69 359.5,69 359.5,67 352.5,67 352.5,69 345,69 345,77.5 347,77.5 347,84.5 345,84.5 345,91.5 347,91.5 347,98.5 345,98.5 345,105.5 347,105.5 347,112.5 345,112.5 345,119.5 347,119.5 347,126.5 345,126.5 345,133.5 347,133.5 347,140.5 345,140.5 345,147.5 347,147.5 347,154.5 345,154.5 345,161.5 347,161.5 347,168.5 345,168.5 345,175.5 347,175.5 347,182.5 345,182.5 345,189.5 347,189.5 347,196.5 345,196.5 345,203.5 347,203.5 347,210.5 345,210.5 345,217.5 347,217.5 347,224.5 345,224.5 345,231.5 347,231.5 347,238.5 345,238.5 345,245.5 347,245.5 347,252.5 345,252.5 345,259.5 347,259.5 347,266.5 345,266.5 345,275 352.5,275 352.5,277 359.5,277 359.5,275 366.5,275 366.5,277 373.5,277 373.5,275 380.5,275 380.5,277 387.5,277 387.5,275 395,275 395,266.5 393,266.5 393,259.5 395,259.5 395,252.5 393,252.5 393,245.5 395,245.5 395,238.5 393,238.5 393,231.5 395,231.5 395,224.5 393,224.5 393,217.5 395,217.5 395,210.5 393,210.5 393,203.5 395,203.5 395,196.5 393,196.5 393,189.5 395,189.5 395,182.5 393,182.5 393,175.5 395,175.5 395,168.5 393,168.5 393,161.5 395,161.5 395,154.5 393,154.5 393,147.5 395,147.5 395,140.5 393,140.5 393,133.5 395,133.5 395,126.5 393,126.5 393,119.5 395,119.5 395,112.5 393,112.5 393,105.5 395,105.5 395,98.5 393,98.5 393,91.5 395,91.5 395,84.5 393,84.5 393,77.5 395,77.5 " vector-effect="non-scaling-stroke"/>
  <polygon id="top_outsideCutPath" class="fil0 str1" points="481.165,-202.82 481.165,-194.32 479.165,-194.32 479.165,-187.32 481.165,-187.32 481.165,-180.32 479.165,-180.32 479.165,-173.32 481.165,-173.32 481.165,-166.32 479.165,-166.32 479.165,-159.32 481.165,-159.32 481.165,-152.32 479.165,-152.32 479.165,-145.32 481.165,-145.32 481.165,-138.32 479.165,-138.32 479.165,-131.32 481.165,-131.32 481.165,-124.32 479.165,-124.32 479.165,-117.32 481.165,-117.32 481.165,-110.32 479.165,-110.32 479.165,-103.32 481.165,-103.32 481.165,-96.3204 479.165,-96.3204 479.165,-89.3204 481.165,-89.3204 481.165,-82.3204 479.165,-82.3204 479.165,-75.3204 481.165,-75.3204 481.165,-68.3204 479.165,-68.3204 479.165,-61.3204 481.165,-61.3204 481.165,-54.3204 479.165,-54.3204 479.165,-47.3204 481.165,-47.3204 481.165,-40.3204 479.165,-40.3204 479.165,-33.3204 481.165,-33.3204 481.165,-26.3204 479.165,-26.3204 479.165,-19.3204 481.165,-19.3204 481.165,-12.3204 479.165,-12.3204 479.165,-5.3204 481.165,-5.3204 481.165,3.1796 491.165,3.1796 491.165,5.1796 498.165,5.1796 498.165,3.1796 505.165,3.1796 505.165,5.1796 512.165,5.1796 512.165,3.1796 519.165,3.1796 519.165,5.1796 526.165,5.1796 526.165,3.1796 533.165,3.1796 533.165,5.1796 540.165,5.1796 540.165,3.1796 547.165,3.1796 547.165,5.1796 554.165,5.1796 554.165,3.1796 561.165,3.1796 561.165,5.1796 568.165,5.1796 568.165,3.1796 575.165,3.1796 575.165,5.1796 582.165,5.1796 582.165,3.1796 589.165,3.1796 589.165,5.1796 596.165,5.1796 596.165,3.1796 603.165,3.1796 603.165,5.1796 610.165,5.1796 610.165,3.1796 617.165,3.1796 617.165,5.1796 624.165,5.1796 624.165,3.1796 631.165,3.1796 631.165,5.1796 638.165,5.1796 638.165,3.1796 645.165,3.1796 645.165,5.1796 652.165,5.1796 652.165,3.1796 659.165,3.1796 659.165,5.1796 666.165,5.1796 666.165,3.1796 673.165,3.1796 673.165,5.1796 680.165,5.1796 680.165,3.1796 687.165,3.1796 687.165,5.1796 694.165,5.1796 694.165,3.1796 701.165,3.1796 701.165,5.1796 708.165,5.1796 708.165,3.1796 715.165,3.1796 715.165,5.1796 722.165,5.1796 722.165,3.1796 729.165,3.1796 729.165,5.1796 736.165,5.1796 736.165,3.1796 743.165,3.1796 743.165,5.1796 750.165,5.1796 750.165,3.1796 757.165,3.1796 757.165,5.1796 764.165,5.1796 764.165,3.1796 774.165,3.1796 774.165,-5.3204 776.165,-5.3204 776.165,-12.3204 774.165,-12.3204 774.165,-19.3204 776.165,-19.3204 776.165,-26.3204 774.165,-26.3204 774.165,-33.3204 776.165,-33.3204 776.165,-40.3204 774.165,-40.3204 774.165,-47.3204 776.165,-47.3204 776.165,-54.3204 774.165,-54.3204 774.165,-61.3204 776.165,-61.3204 776.165,-68.3204 774.165,-68.3204 774.165,-75.3204 776.165,-75.3204 776.165,-82.3204 774.165,-82.3204 774.165,-89.3204 776.165,-89.3204 776.165,-96.3204 774.165,-96.3204 774.165,-103.32 776.165,-103.32 776.165,-110.32 774.165,-110.32 774.165,-117.32 776.165,-117.32 776.165,-124.32 774.165,-124.32 774.165,-131.32 776.165,-131.32 776.165,-138.32 774.165,-138.32 774.165,-145.32 776.165,-145.32 776.165,-152.32 774.165,-152.32 774.165,-159.32 776.165,-159.32 776.165,-166.32 774.165,-166.32 774.165,-173.32 776.165,-173.32 776.165,-180.32 774.165,-180.32 774.165,-187.32 776.165,-187.32 776.165,-194.32 774.165,-194.32 774.165,-202.82 764.165,-202.82 764.165,-204.82 757.165,-204.82 757.165,-202.82 750.165,-202.82 750.165,-204.82 743.165,-204.82 743.165,-202.82 736.165,-202.82 736.165,-204.82 729.165,-204.82 729.165,-202.82 722.165,-202.82 722.165,-204.82 715.165,-204.82 715.165,-202.82 708.165,-202.82 708.165,-204.82 701.165,-204.82 701.165,-202.82 694.165,-202.82 694.165,-204.82 687.165,-204.82 687.165,-202.82 680.165,-202.82 680.165,-204.82 673.165,-204.82 673.165,-202.82 666.165,-202.82 666.165,-204.82 659.165,-204.82 659.165,-202.82 652.165,-202.82 652.165,-204.82 645.165,-204.82 645.165,-202.82 638.165,-202.82 638.165,-204.82 631.165,-204.82 631.165,-202.82 624.165,-202.82 624.165,-204.82 617.165,-204.82 617.165,-202.82 610.165,-202.82 610.165,-204.82 603.165,-204.82 603.165,-202.82 596.165,-202.82 596.165,-204.82 589.165,-204.82 589.165,-202.82 582.165,-202.82 582.165,-204.82 575.165,-204.82 575.165,-202.82 568.165,-202.82 568.165,-204.82 561.165,-204.82 561.165,-202.82 554.165,-202.82 554.165,-204.82 547.165,-204.82 547.165,-202.82 540.165,-202.82 540.165,-204.82 533.165,-204.82 533.165,-202.82 526.165,-202.82 526.165,-204.82 519.165,-204.82 519.165,-202.82 512.165,-202.82 512.165,-204.82 505.165,-204.82 505.165,-202.82 498.165,-202.82 498.165,-204.82 491.165,-204.82 491.165,-202.82 " vector-effect="non-scaling-stroke"/>
  <polygon id="back_outsideCutPath" class="fil0 str1" points="448,-233 440.5,-233 440.5,-231 433.5,-231 433.5,-233 426.5,-233 426.5,-231 419.5,-231 419.5,-233 412.5,-233 412.5,-231 405.5,-231 405.5,-233 398,-233 398,-221 400,-221 400,-214 398,-214 398,-207 400,-207 400,-200 398,-200 398,-193 400,-193 400,-186 398,-186 398,-179 400,-179 400,-172 398,-172 398,-165 400,-165 400,-158 398,-158 398,-151 400,-151 400,-144 398,-144 398,-137 400,-137 400,-130 398,-130 398,-123 400,-123 400,-116 398,-116 398,-109 400,-109 400,-102 398,-102 398,-95 400,-95 400,-88 398,-88 398,-81 400,-81 400,-74 398,-74 398,-67 400,-67 400,-60 398,-60 398,-53 400,-53 400,-46 398,-46 398,-39 400,-39 400,-32 398,-32 398,-25 400,-25 400,-18 398,-18 398,-11 400,-11 400,-4 398,-4 398,3 400,3 400,10 398,10 398,17 400,17 400,24 398,24 398,31 400,31 400,38 398,38 398,45 400,45 400,52 398,52 398,64 405.5,64 405.5,62 412.5,62 412.5,64 419.5,64 419.5,62 426.5,62 426.5,64 433.5,64 433.5,62 440.5,62 440.5,64 448,64 448,52 446,52 446,45 448,45 448,38 446,38 446,31 448,31 448,24 446,24 446,17 448,17 448,10 446,10 446,3 448,3 448,-4 446,-4 446,-11 448,-11 448,-18 446,-18 446,-25 448,-25 448,-32 446,-32 446,-39 448,-39 448,-46 446,-46 446,-53 448,-53 448,-60 446,-60 446,-67 448,-67 448,-74 446,-74 446,-81 448,-81 448,-88 446,-88 446,-95 448,-95 448,-102 446,-102 446,-109 448,-109 448,-116 446,-116 446,-123 448,-123 448,-130 446,-130 446,-137 448,-137 448,-144 446,-144 446,-151 448,-151 448,-158 446,-158 446,-165 448,-165 448,-172 446,-172 446,-179 448,-179 448,-186 446,-186 446,-193 448,-193 448,-200 446,-200 446,-207 448,-207 448,-214 446,-214 446,-221 448,-221 " vector-effect="non-scaling-stroke"/>
  <polygon id="right_outsideCutPath" class="fil0 str1" points="448,69 440.5,69 440.5,67 433.5,67 433.5,69 426.5,69 426.5,67 419.5,67 419.5,69 412.5,69 412.5,67 405.5,67 405.5,69 398,69 398,77.5 400,77.5 400,84.5 398,84.5 398,91.5 400,91.5 400,98.5 398,98.5 398,105.5 400,105.5 400,112.5 398,112.5 398,119.5 400,119.5 400,126.5 398,126.5 398,133.5 400,133.5 400,140.5 398,140.5 398,147.5 400,147.5 400,154.5 398,154.5 398,161.5 400,161.5 400,168.5 398,168.5 398,175.5 400,175.5 400,182.5 398,182.5 398,189.5 400,189.5 400,196.5 398,196.5 398,203.5 400,203.5 400,210.5 398,210.5 398,217.5 400,217.5 400,224.5 398,224.5 398,231.5 400,231.5 400,238.5 398,238.5 398,245.5 400,245.5 400,252.5 398,252.5 398,259.5 400,259.5 400,266.5 398,266.5 398,275 405.5,275 405.5,277 412.5,277 412.5,275 419.5,275 419.5,277 426.5,277 426.5,275 433.5,275 433.5,277 440.5,277 440.5,275 448,275 448,266.5 446,266.5 446,259.5 448,259.5 448,252.5 446,252.5 446,245.5 448,245.5 448,238.5 446,238.5 446,231.5 448,231.5 448,224.5 446,224.5 446,217.5 448,217.5 448,210.5 446,210.5 446,203.5 448,203.5 448,196.5 446,196.5 446,189.5 448,189.5 448,182.5 446,182.5 446,175.5 448,175.5 448,168.5 446,168.5 446,161.5 448,161.5 448,154.5 446,154.5 446,147.5 448,147.5 448,140.5 446,140.5 446,133.5 448,133.5 448,126.5 446,126.5 446,119.5 448,119.5 448,112.5 446,112.5 446,105.5 448,105.5 448,98.5 446,98.5 446,91.5 448,91.5 448,84.5 446,84.5 446,77.5 448,77.5 " vector-effect="non-scaling-stroke"/>
  <path id="bottom_outsideCutPath" class="fil0 str1" d="M477.955 63.4054l1.9996 0 0 7 -1.9996 0m0 7l1.9996 0 0 7 -1.9996 0m0 7l1.9996 0 0 7 -1.9996 0m0 7l1.9996 0 0 7 -1.9996 0m0 7l1.9996 0 0 7 -1.9996 0m0 7l1.9996 0 0 7 -1.9996 0m0 7l1.9996 0 0 7 -1.9996 0m0 7l1.9996 0 0 7 -1.9996 0m0 7l1.9996 0 0 7 -1.9996 0m0 7l1.9996 0 0 7 -1.9996 0m0 7l1.9996 0 0 7 -1.9996 0m0 7l1.9996 0 0 7 -1.9996 0m0 7l1.9996 0 0 8.5 10 0 0 1.9996m7 0l0 -1.9996 7 0 0 1.9996m7 0l0 -1.9996 7 0 0 1.9996m7 0l0 -1.9996 7 0 0 1.9996m7 0l0 -1.9996 7 0 0 1.9996m7 0l0 -1.9996 7 0 0 1.9996m7 0l0 -1.9996 7 0 0 1.9996m7 0l0 -1.9996 7 0 0 1.9996m7 0l0 -1.9996 7 0 0 1.9996m7 0l0 -1.9996 7 0 0 1.9996m7 0l0 -1.9996 7 0 0 1.9996m7 0l0 -1.9996 7 0 0 1.9996m7 0l0 -1.9996 7 0 0 1.9996m7 0l0 -1.9996 7 0 0 1.9996m7 0l0 -1.9996 7 0 0 1.9996m7 0l0 -1.9996 7 0 0 1.9996m7 0l0 -1.9996 7 0 0 1.9996m7 0l0 -1.9996 7 0 0 1.9996m7 0l0 -1.9996 7 0 0 1.9996m7 0l0 -1.9996 7 0 0 1.9996m6.9999 0.0004l0.0001 0 0 -2 10 0 0 -8.5 2 0m0 -7l-2 0 0 -7 2 0m0 -7l-2 0 0 -7 2 0m0 -7l-2 0 0 -7 2 0m0 -7l-2 0 0 -7 2 0m0 -7l-2 0 0 -7 2 0m0 -7l-2 0 0 -7 2 0m0 -7l-2 0 0 -7 2 0m0 -7l-2 0 0 -7 2 0m0 -7l-2 0 0 -7 2 0m0 -7l-2 0 0 -7 2 0m0 -7l-2 0 0 -7 2 0m0 -7l-2 0 0 -7 2 0m0 -7l-2 0 0 -7 2 0m0 -7l-2 0 0 -8.5 -10 0 0 -2m-7 0l0 2 -7 0 0 -2m-7 0l0 2 -7 0 0 -2m-7 0l0 2 -7 0 0 -2m-7 0l0 2 -7 0 0 -2m-7 0l0 2 -7 0 0 -2m-7 0l0 2 -7 0 0 -2m-7 0l0 2 -7 0 0 -2m-7 0l0 2 -7 0 0 -2m-7 0l0 2 -7 0 0 -2m-7 0l0 2 -7 0 0 -2m-7 0l0 2 -7 0 0 -2m-7 0l0 2 -7 0 0 -2m-7 0l0 2 -7 0 0 -2m-7 0l0 2 -7 0 0 -2m-7 0l0 2 -7 0 0 -2m-7 0l0 2 -7 0 0 -2m-7 0l0 2 -7 0 0 -2m-7 0l0 2 -7 0 0 -2m-7 0l0 2 -7 0 0 -2m-7 0l0 2 -10 0 0 8.5 -1.9996 0m0 7l1.9996 0 0 7 -1.9996 0" vector-effect="non-scaling-stroke"/>
  <polygon id="front_outsideCutPath_1" class="fil0 str1" points="801.383,-0.0002 801.383,12.4998 803.383,12.4998 803.383,19.4998 801.383,19.4998 801.383,26.4998 803.383,26.4998 803.383,33.4998 801.383,33.4998 801.383,40.4998 803.383,40.4998 803.383,47.4998 801.383,47.4998 801.383,54.4998 803.383,54.4998 803.383,61.4998 801.383,61.4998 801.383,68.4998 803.383,68.4998 803.383,75.4998 801.383,75.4998 801.383,82.5 803.383,82.5 803.383,89.5 801.383,89.5 801.383,96.5 803.383,96.5 803.383,103.5 801.383,103.5 801.383,110.5 803.383,110.5 803.383,117.5 801.383,117.5 801.383,124.5 803.383,124.5 803.383,131.5 801.383,131.5 801.383,138.5 803.383,138.5 803.383,145.5 801.383,145.5 801.383,152.5 803.383,152.5 803.383,159.5 801.383,159.5 801.383,166.5 803.383,166.5 803.383,173.5 801.383,173.5 801.383,180.5 803.383,180.5 803.383,187.5 801.383,187.5 801.383,194.5 801.383,200 808.883,200 808.883,198 815.883,198 815.883,200 822.883,200 822.883,198 829.883,198 829.883,200 836.883,200 836.883,198 843.883,198 843.883,200 851.383,200 851.383,187.5 849.383,187.5 849.383,180.5 851.383,180.5 851.383,173.5 849.383,173.5 849.383,166.5 851.383,166.5 851.383,159.5 849.383,159.5 849.383,152.5 851.383,152.5 851.383,145.5 849.383,145.5 849.383,138.5 851.383,138.5 851.383,131.5 849.383,131.5 849.383,124.5 851.383,124.5 851.383,117.5 849.383,117.5 849.383,110.5 851.383,110.5 851.383,103.5 849.383,103.5 849.383,96.5 851.383,96.5 851.383,89.5 849.383,89.5 849.383,82.5 851.383,82.5 851.383,75.4998 849.383,75.4998 849.383,68.4998 851.383,68.4998 851.383,61.4998 849.383,61.4998 849.383,54.4998 851.383,54.4998 851.383,47.4998 849.383,47.4998 849.383,40.4998 851.383,40.4998 851.383,33.4998 849.383,33.4998 849.383,26.4998 851.383,26.4998 851.383,19.4998 849.383,19.4998 849.383,12.4998 851.383,12.4998 851.383,5.4998 851.383,-0.0002 843.883,-0.0002 843.883,1.9998 836.883,1.9998 836.883,-0.0002 829.883,-0.0002 829.883,1.9998 822.883,1.9998 822.883,-0.0002 815.883,-0.0002 815.883,1.9998 808.883,1.9998 808.883,-0.0002 " vector-effect="non-scaling-stroke"/>
  <polygon id="left_outsideCutPath_2" class="fil0 str1" points="856.383,-0.0002 856.383,12.4998 854.383,12.4998 854.383,19.4998 856.383,19.4998 856.383,26.4998 854.383,26.4998 854.383,33.4998 856.383,33.4998 856.383,40.4998 854.383,40.4998 854.383,47.4998 856.383,47.4998 856.383,54.4998 854.383,54.4998 854.383,61.4998 856.383,61.4998 856.383,68.4998 854.383,68.4998 854.383,75.4998 856.383,75.4998 856.383,82.5 854.383,82.5 854.383,89.5 856.383,89.5 856.383,96.5 854.383,96.5 854.383,103.5 856.383,103.5 856.383,110.5 854.383,110.5 854.383,117.5 856.383,117.5 856.383,124.5 854.383,124.5 854.383,131.5 856.383,131.5 856.383,138.5 854.383,138.5 854.383,145.5 856.383,145.5 856.383,152.5 854.383,152.5 854.383,159.5 856.383,159.5 856.383,166.5 854.383,166.5 854.383,173.5 856.383,173.5 856.383,180.5 854.383,180.5 854.383,187.5 856.383,187.5 856.383,194.5 856.383,200 861.883,200 861.883,198 868.883,198 868.883,200 875.883,200 875.883,198 882.883,198 882.883,200 889.883,200 889.883,198 896.883,198 896.883,200 902.383,200 902.383,187.5 904.383,187.5 904.383,180.5 902.383,180.5 902.383,173.5 904.383,173.5 904.383,166.5 902.383,166.5 902.383,159.5 904.383,159.5 904.383,152.5 902.383,152.5 902.383,145.5 904.383,145.5 904.383,138.5 902.383,138.5 902.383,131.5 904.383,131.5 904.383,124.5 902.383,124.5 902.383,117.5 904.383,117.5 904.383,110.5 902.383,110.5 902.383,103.5 904.383,103.5 904.383,96.5 902.383,96.5 902.383,89.5 904.383,89.5 904.383,82.5 902.383,82.5 902.383,75.4998 904.383,75.4998 904.383,68.4998 902.383,68.4998 902.383,61.4998 904.383,61.4998 904.383,54.4998 902.383,54.4998 902.383,47.4998 904.383,47.4998 904.383,40.4998 902.383,40.4998 902.383,33.4998 904.383,33.4998 904.383,26.4998 902.383,26.4998 902.383,19.4998 904.383,19.4998 904.383,12.4998 902.383,12.4998 902.383,5.4998 902.383,-0.0002 896.883,-0.0002 896.883,1.9998 889.883,1.9998 889.883,-0.0002 882.883,-0.0002 882.883,1.9998 875.883,1.9998 875.883,-0.0002 868.883,-0.0002 868.883,1.9998 861.883,1.9998 861.883,-0.0002 " vector-effect="non-scaling-stroke"/>
  <path id="top_outsideCutPath_3" class="fil0 str1" d="M651.32 114.405l-1.8648 0 0 -5.5 -5.5 0 0 -2m-7 0l0 2 -7 0 0 -2m-7 0l0 2 -7 0 0 -2m-7 0l0 2 -5.5 0 0 5.5 -2 0m0 7l2 0 0 7 -2 0m0 7l2 0 0 7 -2 0m0 7l2 0 0 5.5 5.5 0 0 1.8649m7 0l0 -1.8649 7 0 0 1.8649m7 0l0 -1.8649 7 0 0 1.8649m7 0l0 -1.8649 5.5 0 0 -5.5 1.8648 0m0 -7l-1.8648 0 0 -7 1.8648 0m0 -7l-1.8648 0 0 -7 1.8648 0" vector-effect="non-scaling-stroke"/>
  <polygon id="back_outsideCutPath_4" class="fil0 str1" points="801.383,-203 801.383,-190.5 803.383,-190.5 803.383,-183.5 801.383,-183.5 801.383,-176.5 803.383,-176.5 803.383,-169.5 801.383,-169.5 801.383,-162.5 803.383,-162.5 803.383,-155.5 801.383,-155.5 801.383,-148.5 803.383,-148.5 803.383,-141.5 801.383,-141.5 801.383,-134.5 803.383,-134.5 803.383,-127.5 801.383,-127.5 801.383,-120.5 803.383,-120.5 803.383,-113.5 801.383,-113.5 801.383,-106.5 803.383,-106.5 803.383,-99.5002 801.383,-99.5002 801.383,-92.5002 803.383,-92.5002 803.383,-85.5002 801.383,-85.5002 801.383,-78.5002 803.383,-78.5002 803.383,-71.5002 801.383,-71.5002 801.383,-64.5002 803.383,-64.5002 803.383,-57.5002 801.383,-57.5002 801.383,-50.5002 803.383,-50.5002 803.383,-43.5002 801.383,-43.5002 801.383,-36.5002 803.383,-36.5002 803.383,-29.5002 801.383,-29.5002 801.383,-22.5002 803.383,-22.5002 803.383,-15.5002 801.383,-15.5002 801.383,-8.5002 801.383,-3.0002 808.883,-3.0002 808.883,-5.0002 815.883,-5.0002 815.883,-3.0002 822.883,-3.0002 822.883,-5.0002 829.883,-5.0002 829.883,-3.0002 836.883,-3.0002 836.883,-5.0002 843.883,-5.0002 843.883,-3.0002 851.383,-3.0002 851.383,-15.5002 849.383,-15.5002 849.383,-22.5002 851.383,-22.5002 851.383,-29.5002 849.383,-29.5002 849.383,-36.5002 851.383,-36.5002 851.383,-43.5002 849.383,-43.5002 849.383,-50.5002 851.383,-50.5002 851.383,-57.5002 849.383,-57.5002 849.383,-64.5002 851.383,-64.5002 851.383,-71.5002 849.383,-71.5002 849.383,-78.5002 851.383,-78.5002 851.383,-85.5002 849.383,-85.5002 849.383,-92.5002 851.383,-92.5002 851.383,-99.5002 849.383,-99.5002 849.383,-106.5 851.383,-106.5 851.383,-113.5 849.383,-113.5 849.383,-120.5 851.383,-120.5 851.383,-127.5 849.383,-127.5 849.383,-134.5 851.383,-134.5 851.383,-141.5 849.383,-141.5 849.383,-148.5 851.383,-148.5 851.383,-155.5 849.383,-155.5 849.383,-162.5 851.383,-162.5 851.383,-169.5 849.383,-169.5 849.383,-176.5 851.383,-176.5 851.383,-183.5 849.383,-183.5 849.383,-190.5 851.383,-190.5 851.383,-197.5 851.383,-203 843.883,-203 843.883,-201 836.883,-201 836.883,-203 829.883,-203 829.883,-201 822.883,-201 822.883,-203 815.883,-203 815.883,-201 808.883,-201 808.883,-203 " vector-effect="non-scaling-stroke"/>
  <polygon id="right_outsideCutPath_5" class="fil0 str1" points="856.383,-203 856.383,-190.5 854.383,-190.5 854.383,-183.5 856.383,-183.5 856.383,-176.5 854.383,-176.5 854.383,-169.5 856.383,-169.5 856.383,-162.5 854.383,-162.5 854.383,-155.5 856.383,-155.5 856.383,-148.5 854.383,-148.5 854.383,-141.5 856.383,-141.5 856.383,-134.5 854.383,-134.5 854.383,-127.5 856.383,-127.5 856.383,-120.5 854.383,-120.5 854.383,-113.5 856.383,-113.5 856.383,-106.5 854.383,-106.5 854.383,-99.5002 856.383,-99.5002 856.383,-92.5002 854.383,-92.5002 854.383,-85.5002 856.383,-85.5002 856.383,-78.5002 854.383,-78.5002 854.383,-71.5002 856.383,-71.5002 856.383,-64.5002 854.383,-64.5002 854.383,-57.5002 856.383,-57.5002 856.383,-50.5002 854.383,-50.5002 854.383,-43.5002 856.383,-43.5002 856.383,-36.5002 854.383,-36.5002 854.383,-29.5002 856.383,-29.5002 856.383,-22.5002 854.383,-22.5002 854.383,-15.5002 856.383,-15.5002 856.383,-8.5002 856.383,-3.0002 861.883,-3.0002 861.883,-5.0002 868.883,-5.0002 868.883,-3.0002 875.883,-3.0002 875.883,-5.0002 882.883,-5.0002 882.883,-3.0002 889.883,-3.0002 889.883,-5.0002 896.883,-5.0002 896.883,-3.0002 902.383,-3.0002 902.383,-15.5002 904.383,-15.5002 904.383,-22.5002 902.383,-22.5002 902.383,-29.5002 904.383,-29.5002 904.383,-36.5002 902.383,-36.5002 902.383,-43.5002 904.383,-43.5002 904.383,-50.5002 902.383,-50.5002 902.383,-57.5002 904.383,-57.5002 904.383,-64.5002 902.383,-64.5002 902.383,-71.5002 904.383,-71.5002 904.383,-78.5002 902.383,-78.5002 902.383,-85.5002 904.383,-85.5002 904.383,-92.5002 902.383,-92.5002 902.383,-99.5002 904.383,-99.5002 904.383,-106.5 902.383,-106.5 902.383,-113.5 904.383,-113.5 904.383,-120.5 902.383,-120.5 902.383,-127.5 904.383,-127.5 904.383,-134.5 902.383,-134.5 902.383,-141.5 904.383,-141.5 904.383,-148.5 902.383,-148.5 902.383,-155.5 904.383,-155.5 904.383,-162.5 902.383,-162.5 902.383,-169.5 904.383,-169.5 904.383,-176.5 902.383,-176.5 902.383,-183.5 904.383,-183.5 904.383,-190.5 902.383,-190.5 902.383,-197.5 902.383,-203 896.883,-203 896.883,-201 889.883,-201 889.883,-203 882.883,-203 882.883,-201 875.883,-201 875.883,-203 868.883,-203 868.883,-201 861.883,-201 861.883,-203 " vector-effect="non-scaling-stroke"/>
  <polygon id="bottom_outsideCutPath_6" class="fil0 str1" points="857,204.578 857,210.078 855,210.078 855,217.078 857,217.078 857,224.078 855,224.078 855,231.078 857,231.078 857,238.078 855,238.078 855,245.078 857,245.078 857,250.578 862.5,250.578 862.5,252.578 869.5,252.578 869.5,250.578 876.5,250.578 876.5,252.578 883.5,252.578 883.5,250.578 890.5,250.578 890.5,252.578 897.5,252.578 897.5,250.578 903,250.578 903,245.078 905,245.078 905,238.078 903,238.078 903,231.078 905,231.078 905,224.078 903,224.078 903,217.078 905,217.078 905,210.078 903,210.078 903,204.578 897.5,204.578 897.5,202.578 890.5,202.578 890.5,204.578 883.5,204.578 883.5,202.578 876.5,202.578 876.5,204.578 869.5,204.578 869.5,202.578 862.5,202.578 862.5,204.578 " vector-effect="non-scaling-stroke"/>
  <rect class="fil0 str0" x="460" y="11.8116" width="332.91" height="240.188"/>
  <path class="fil0 str0" d="M477.955 56.4054l0 -7m278 192.5l-7 0m-7 0l-7 0m-7 0l-7 0m-7 0l-7 0m-7 0l-7 0m-7 0l-7 0m-7 0l-7 0m-7 0l-7 0m-7 0l-7 0m-7 0l-7 0m-7 0l-7 0m-7 0l-7 0m-7 0l-7 0m-7 0l-7 0m-7 0l-7 0m-7 0l-7 0m-7 0l-7.0001 0m-6.9999 0l-7 0m-7 0l-7 0m-7 0l-11.9996 0 0 -10.4996m0 -7l0 -7m0 -7l0 -7m0 -7l0 -7m0 -7l0 -7m0 -7l0 -7m0 -7l0 -7m0 -7l0 -7m0 -7l0 -7m0 -7l0 -7m0 -7l0 -7m0 -7l0 -7m0 -7l0 -7"/>
  <path class="fil0 str0" d="M772.955 42.4054l2.0001 0 0 -10.5 -12.0001 0m-7 0l-7 0m-7 0l-7 0m-7 0l-7 0m-7 0l-7 0m-7 0l-7 0m-7 0l-7 0m-7 0l-7 0m-7 0l-7 0m-7 0l-7 0m-7 0l-7 0m-7 0l-7 0m-7 0l-7 0m-7 0l-7 0m-7 0l-7 0m-7 0l-7 0m-7 0l-7.0001 0m-6.9999 0l-7 0m-7 0l-7 0m-7 0l-7.0001 0m-6.9999 0l-11.9996 0 0 10.5 1.9996 0"/>
  <line class="fil0 str0" x1="774.955" y1="42.4054" x2="772.955" y2= "42.4054" />
  <path class="fil0 str0" d="M762.955 241.905l12.0001 0 0 -10.5m0 -7l0 -7m0 -7l0 -7m0 -7l0 -7m0 -7l0 -7m0 -7l0 -7m0 -7l0 -7m0 -7l0 -7m0 -7l0 -7m0 -7l0 -7m0 -7l0 -7m0 -7l0 -7m0 -7l0 -7m0 -7l0 -7 -2 0"/>
  <path class="fil0 str0" d="M772.955 42.4054l2 0m0 7l0 7 -2 0"/>
  <path class="fil0 str0" d="M651.32 121.405l0 7m0 7l0 7m0 7l0 7.3649 -7.3648 0m-7 0l-7 0m-7 0l-7 0"/>
  <path class="fil0 str0" d="M608.955 154.905l0 1.8649 -7.5 0 0 -7.3649m0 -7l0 -7m0 -7l0 -7m0 -7l0 -7.5 7.5 0 0 2"/>
  <path class="fil0 str0" d="M608.955 108.905l0 -2m7 0l7 0m7 0l7 0m7 0l7.3648 0 0 7.5 -1.8648 0"/>
  <circle class="fil0 str0" cx="879.383" cy="31.0844" r="12.5"/>
  <circle class="fil0 str0" cx="879.383" cy="71.0846" r="12.5"/>
  <circle class="fil0 str0" cx="879.383" cy="111.084" r="12.5"/>
  <path class="fil0 str0" d="M520 -160.5c-8.2829,0 -15,-5.5976 -15,-12.5 0,-6.9024 6.7171,-12.5 15,-12.5"/>
  <path class="fil0 str0" d="M520 -185.5l212.665 0 0 0.0001m0 24.9999l-212.665 0 0 -0.0001"/>
  <path class="fil0 str0" d="M732.5 -30.5c8.2829,0 15,5.5976 15,12.5 0,6.9024 -6.7171,12.5 -15,12.5"/>
  <path class="fil0 str0" d="M520 -30.5l212.665 0 0 0.0001m0 24.9999l-212.665 0 0 -0.0001"/>
  <path class="fil0 str0" d="M520 -5.5c-8.2829,0 -15,-5.5976 -15,-12.5 0,-6.9024 6.7171,-12.5 15,-12.5"/>
  <path class="fil0 str0" d="M732.5 -185.5c8.2829,0 15,5.5976 15,12.5 0,6.9024 -6.7171,12.5 -15,12.5"/>
  <rect class="fil0 str0" transform="matrix(2.6569E-014 1 -1 2.6569E-014 438.18 180.835)" width="35" height="30"/>
 </g>
</svg>
