solid ascii
  facet normal -1.000000e+000 -0.000000e+000 -0.000000e+000
    outer loop
      vertex   -1.500000e+002 2.500000e+002 1.000000e+002
      vertex   -1.500000e+002 2.500000e+002 5.000000e+001
      vertex   -1.500000e+002 2.498040e+002 1.000000e+002
    endloop
  endfacet
  facet normal -3.919953e-003 0.000000e+000 0.000000e+000
    outer loop
      vertex   -1.500000e+002 2.498040e+002 1.000000e+002
      vertex   -1.500000e+002 2.500000e+002 5.000000e+001
      vertex   -1.500000e+002 2.498040e+002 5.000000e+001
    endloop
  endfacet
  facet normal -9.999923e-001 0.000000e+000 0.000000e+000
    outer loop
      vertex   -1.500000e+002 2.498040e+002 5.000000e+001
      vertex   -1.500000e+002 2.500000e+002 5.000000e+001
      vertex   -1.500000e+002 2.500000e+002 0.000000e+000
    endloop
  endfacet
  facet normal -3.919953e-003 0.000000e+000 0.000000e+000
    outer loop
      vertex   -1.500000e+002 2.498040e+002 5.000000e+001
      vertex   -1.500000e+002 2.500000e+002 0.000000e+000
      vertex   -1.500000e+002 2.498040e+002 0.000000e+000
    endloop
  endfacet
  facet normal 0.000000e+000 1.000000e+000 -0.000000e+000
    outer loop
      vertex   -1.350000e+002 3.500000e+002 0.000000e+000
      vertex   -1.500000e+002 3.500000e+002 0.000000e+000
      vertex   -1.350000e+002 3.500000e+002 5.000000e+001
    endloop
  endfacet
  facet normal 0.000000e+000 9.578263e-001 0.000000e+000
    outer loop
      vertex   -1.350000e+002 3.500000e+002 5.000000e+001
      vertex   -1.500000e+002 3.500000e+002 0.000000e+000
      vertex   -1.500000e+002 3.500000e+002 5.000000e+001
    endloop
  endfacet
  facet normal 0.000000e+000 1.000000e+000 -0.000000e+000
    outer loop
      vertex   -1.350000e+002 3.500000e+002 5.000000e+001
      vertex   -1.500000e+002 3.500000e+002 5.000000e+001
      vertex   -1.350000e+002 3.500000e+002 1.000000e+002
    endloop
  endfacet
  facet normal 0.000000e+000 9.578263e-001 0.000000e+000
    outer loop
      vertex   -1.350000e+002 3.500000e+002 1.000000e+002
      vertex   -1.500000e+002 3.500000e+002 5.000000e+001
      vertex   -1.500000e+002 3.500000e+002 1.000000e+002
    endloop
  endfacet
  facet normal 1.000000e+000 0.000000e+000 0.000000e+000
    outer loop
      vertex   -1.350000e+002 2.498040e+002 0.000000e+000
      vertex   -1.350000e+002 2.999020e+002 0.000000e+000
      vertex   -1.350000e+002 2.498040e+002 5.000000e+001
    endloop
  endfacet
  facet normal 7.064141e-001 -0.000000e+000 0.000000e+000
    outer loop
      vertex   -1.350000e+002 2.498040e+002 5.000000e+001
      vertex   -1.350000e+002 2.999020e+002 0.000000e+000
      vertex   -1.350000e+002 2.999020e+002 5.000000e+001
    endloop
  endfacet
  facet normal 1.000000e+000 0.000000e+000 0.000000e+000
    outer loop
      vertex   -1.350000e+002 2.498040e+002 5.000000e+001
      vertex   -1.350000e+002 2.999020e+002 5.000000e+001
      vertex   -1.350000e+002 2.498040e+002 1.000000e+002
    endloop
  endfacet
  facet normal 7.064141e-001 -0.000000e+000 0.000000e+000
    outer loop
      vertex   -1.350000e+002 2.498040e+002 1.000000e+002
      vertex   -1.350000e+002 2.999020e+002 5.000000e+001
      vertex   -1.350000e+002 2.999020e+002 1.000000e+002
    endloop
  endfacet
  facet normal 7.077987e-001 0.000000e+000 0.000000e+000
    outer loop
      vertex   -1.350000e+002 2.999020e+002 1.000000e+002
      vertex   -1.350000e+002 2.999020e+002 5.000000e+001
      vertex   -1.350000e+002 3.500000e+002 5.000000e+001
    endloop
  endfacet
  facet normal 7.064142e-001 -0.000000e+000 0.000000e+000
    outer loop
      vertex   -1.350000e+002 2.999020e+002 1.000000e+002
      vertex   -1.350000e+002 3.500000e+002 5.000000e+001
      vertex   -1.350000e+002 3.500000e+002 1.000000e+002
    endloop
  endfacet
  facet normal 1.000000e+000 0.000000e+000 0.000000e+000
    outer loop
      vertex   -1.350000e+002 2.999020e+002 0.000000e+000
      vertex   -1.350000e+002 3.500000e+002 0.000000e+000
      vertex   -1.350000e+002 2.999020e+002 5.000000e+001
    endloop
  endfacet
  facet normal 7.064142e-001 -0.000000e+000 0.000000e+000
    outer loop
      vertex   -1.350000e+002 2.999020e+002 5.000000e+001
      vertex   -1.350000e+002 3.500000e+002 0.000000e+000
      vertex   -1.350000e+002 3.500000e+002 5.000000e+001
    endloop
  endfacet
  facet normal 0.000000e+000 -1.000000e+000 0.000000e+000
    outer loop
      vertex   -1.500000e+002 2.498040e+002 0.000000e+000
      vertex   -1.350000e+002 2.498040e+002 0.000000e+000
      vertex   -1.500000e+002 2.498040e+002 5.000000e+001
    endloop
  endfacet
  facet normal 0.000000e+000 -9.578263e-001 0.000000e+000
    outer loop
      vertex   -1.500000e+002 2.498040e+002 5.000000e+001
      vertex   -1.350000e+002 2.498040e+002 0.000000e+000
      vertex   -1.350000e+002 2.498040e+002 5.000000e+001
    endloop
  endfacet
  facet normal 0.000000e+000 -1.000000e+000 0.000000e+000
    outer loop
      vertex   -1.500000e+002 2.498040e+002 5.000000e+001
      vertex   -1.350000e+002 2.498040e+002 5.000000e+001
      vertex   -1.500000e+002 2.498040e+002 1.000000e+002
    endloop
  endfacet
  facet normal 0.000000e+000 -9.578263e-001 0.000000e+000
    outer loop
      vertex   -1.500000e+002 2.498040e+002 1.000000e+002
      vertex   -1.350000e+002 2.498040e+002 5.000000e+001
      vertex   -1.350000e+002 2.498040e+002 1.000000e+002
    endloop
  endfacet
  facet normal -1.000000e+000 0.000000e+000 0.000000e+000
    outer loop
      vertex   -1.500000e+002 3.075000e+002 0.000000e+000
      vertex   -1.500000e+002 2.650000e+002 0.000000e+000
      vertex   -1.500000e+002 3.075000e+002 5.000000e+001
    endloop
  endfacet
  facet normal -7.619393e-001 -0.000000e+000 0.000000e+000
    outer loop
      vertex   -1.500000e+002 3.075000e+002 5.000000e+001
      vertex   -1.500000e+002 2.650000e+002 0.000000e+000
      vertex   -1.500000e+002 2.650000e+002 5.000000e+001
    endloop
  endfacet
  facet normal -1.000000e+000 0.000000e+000 0.000000e+000
    outer loop
      vertex   -1.500000e+002 3.075000e+002 5.000000e+001
      vertex   -1.500000e+002 2.650000e+002 5.000000e+001
      vertex   -1.500000e+002 3.075000e+002 1.000000e+002
    endloop
  endfacet
  facet normal -7.619393e-001 -0.000000e+000 0.000000e+000
    outer loop
      vertex   -1.500000e+002 3.075000e+002 1.000000e+002
      vertex   -1.500000e+002 2.650000e+002 5.000000e+001
      vertex   -1.500000e+002 2.650000e+002 1.000000e+002
    endloop
  endfacet
  facet normal -1.000000e+000 0.000000e+000 0.000000e+000
    outer loop
      vertex   -1.500000e+002 3.075000e+002 1.000000e+002
      vertex   -1.500000e+002 3.500000e+002 1.000000e+002
      vertex   -1.500000e+002 3.075000e+002 5.000000e+001
    endloop
  endfacet
  facet normal -7.619393e-001 0.000000e+000 0.000000e+000
    outer loop
      vertex   -1.500000e+002 3.075000e+002 5.000000e+001
      vertex   -1.500000e+002 3.500000e+002 1.000000e+002
      vertex   -1.500000e+002 3.500000e+002 5.000000e+001
    endloop
  endfacet
  facet normal -1.000000e+000 0.000000e+000 0.000000e+000
    outer loop
      vertex   -1.500000e+002 3.075000e+002 5.000000e+001
      vertex   -1.500000e+002 3.500000e+002 5.000000e+001
      vertex   -1.500000e+002 3.075000e+002 0.000000e+000
    endloop
  endfacet
  facet normal -7.619393e-001 0.000000e+000 0.000000e+000
    outer loop
      vertex   -1.500000e+002 3.075000e+002 0.000000e+000
      vertex   -1.500000e+002 3.500000e+002 5.000000e+001
      vertex   -1.500000e+002 3.500000e+002 0.000000e+000
    endloop
  endfacet
  facet normal 0.000000e+000 1.000000e+000 -0.000000e+000
    outer loop
      vertex   -1.500000e+002 2.650000e+002 0.000000e+000
      vertex   -1.950000e+002 2.650000e+002 3.552714e-014
      vertex   -1.500000e+002 2.650000e+002 5.000000e+001
    endloop
  endfacet
  facet normal 0.000000e+000 7.432941e-001 0.000000e+000
    outer loop
      vertex   -1.500000e+002 2.650000e+002 5.000000e+001
      vertex   -1.950000e+002 2.650000e+002 3.552714e-014
      vertex   -1.950000e+002 2.650000e+002 5.000000e+001
    endloop
  endfacet
  facet normal 0.000000e+000 1.000000e+000 -0.000000e+000
    outer loop
      vertex   -1.500000e+002 2.650000e+002 5.000000e+001
      vertex   -1.950000e+002 2.650000e+002 5.000000e+001
      vertex   -1.500000e+002 2.650000e+002 1.000000e+002
    endloop
  endfacet
  facet normal 0.000000e+000 7.432941e-001 0.000000e+000
    outer loop
      vertex   -1.500000e+002 2.650000e+002 1.000000e+002
      vertex   -1.950000e+002 2.650000e+002 5.000000e+001
      vertex   -1.950000e+002 2.650000e+002 1.000000e+002
    endloop
  endfacet
  facet normal 0.000000e+000 -1.000000e+000 0.000000e+000
    outer loop
      vertex   -2.050000e+002 2.500000e+002 7.105427e-014
      vertex   -1.500000e+002 2.500000e+002 0.000000e+000
      vertex   -2.050000e+002 2.500000e+002 5.000000e+001
    endloop
  endfacet
  facet normal 0.000000e+000 -6.726728e-001 0.000000e+000
    outer loop
      vertex   -2.050000e+002 2.500000e+002 5.000000e+001
      vertex   -1.500000e+002 2.500000e+002 0.000000e+000
      vertex   -1.500000e+002 2.500000e+002 5.000000e+001
    endloop
  endfacet
  facet normal 0.000000e+000 -1.000000e+000 0.000000e+000
    outer loop
      vertex   -2.050000e+002 2.500000e+002 5.000000e+001
      vertex   -1.500000e+002 2.500000e+002 5.000000e+001
      vertex   -2.050000e+002 2.500000e+002 1.000000e+002
    endloop
  endfacet
  facet normal 0.000000e+000 -6.726728e-001 0.000000e+000
    outer loop
      vertex   -2.050000e+002 2.500000e+002 1.000000e+002
      vertex   -1.500000e+002 2.500000e+002 5.000000e+001
      vertex   -1.500000e+002 2.500000e+002 1.000000e+002
    endloop
  endfacet
  facet normal -1.000000e+000 0.000000e+000 0.000000e+000
    outer loop
      vertex   -2.050000e+002 3.000000e+002 3.552714e-014
      vertex   -2.050000e+002 2.500000e+002 7.105427e-014
      vertex   -2.050000e+002 3.000000e+002 5.000000e+001
    endloop
  endfacet
  facet normal -7.071068e-001 -0.000000e+000 0.000000e+000
    outer loop
      vertex   -2.050000e+002 3.000000e+002 5.000000e+001
      vertex   -2.050000e+002 2.500000e+002 7.105427e-014
      vertex   -2.050000e+002 2.500000e+002 5.000000e+001
    endloop
  endfacet
  facet normal -1.000000e+000 0.000000e+000 0.000000e+000
    outer loop
      vertex   -2.050000e+002 3.000000e+002 5.000000e+001
      vertex   -2.050000e+002 2.500000e+002 5.000000e+001
      vertex   -2.050000e+002 3.000000e+002 1.000000e+002
    endloop
  endfacet
  facet normal -7.071068e-001 -0.000000e+000 0.000000e+000
    outer loop
      vertex   -2.050000e+002 3.000000e+002 1.000000e+002
      vertex   -2.050000e+002 2.500000e+002 5.000000e+001
      vertex   -2.050000e+002 2.500000e+002 1.000000e+002
    endloop
  endfacet
  facet normal 0.000000e+000 1.000000e+000 -0.000000e+000
    outer loop
      vertex   -1.850000e+002 3.000000e+002 0.000000e+000
      vertex   -2.050000e+002 3.000000e+002 3.552714e-014
      vertex   -1.850000e+002 3.000000e+002 5.000000e+001
    endloop
  endfacet
  facet normal 0.000000e+000 9.284767e-001 0.000000e+000
    outer loop
      vertex   -1.850000e+002 3.000000e+002 5.000000e+001
      vertex   -2.050000e+002 3.000000e+002 3.552714e-014
      vertex   -2.050000e+002 3.000000e+002 5.000000e+001
    endloop
  endfacet
  facet normal 0.000000e+000 1.000000e+000 -0.000000e+000
    outer loop
      vertex   -1.850000e+002 3.000000e+002 5.000000e+001
      vertex   -2.050000e+002 3.000000e+002 5.000000e+001
      vertex   -1.850000e+002 3.000000e+002 1.000000e+002
    endloop
  endfacet
  facet normal 0.000000e+000 9.284767e-001 0.000000e+000
    outer loop
      vertex   -1.850000e+002 3.000000e+002 1.000000e+002
      vertex   -2.050000e+002 3.000000e+002 5.000000e+001
      vertex   -2.050000e+002 3.000000e+002 1.000000e+002
    endloop
  endfacet
  facet normal -1.000000e+000 0.000000e+000 0.000000e+000
    outer loop
      vertex   -1.850000e+002 3.500000e+002 0.000000e+000
      vertex   -1.850000e+002 3.000000e+002 0.000000e+000
      vertex   -1.850000e+002 3.500000e+002 5.000000e+001
    endloop
  endfacet
  facet normal -7.071068e-001 -0.000000e+000 0.000000e+000
    outer loop
      vertex   -1.850000e+002 3.500000e+002 5.000000e+001
      vertex   -1.850000e+002 3.000000e+002 0.000000e+000
      vertex   -1.850000e+002 3.000000e+002 5.000000e+001
    endloop
  endfacet
  facet normal -1.000000e+000 0.000000e+000 0.000000e+000
    outer loop
      vertex   -1.850000e+002 3.500000e+002 5.000000e+001
      vertex   -1.850000e+002 3.000000e+002 5.000000e+001
      vertex   -1.850000e+002 3.500000e+002 1.000000e+002
    endloop
  endfacet
  facet normal -7.071068e-001 -0.000000e+000 0.000000e+000
    outer loop
      vertex   -1.850000e+002 3.500000e+002 1.000000e+002
      vertex   -1.850000e+002 3.000000e+002 5.000000e+001
      vertex   -1.850000e+002 3.000000e+002 1.000000e+002
    endloop
  endfacet
  facet normal 0.000000e+000 1.000000e+000 -0.000000e+000
    outer loop
      vertex   -1.750000e+002 3.500000e+002 0.000000e+000
      vertex   -1.850000e+002 3.500000e+002 0.000000e+000
      vertex   -1.750000e+002 3.500000e+002 5.000000e+001
    endloop
  endfacet
  facet normal 0.000000e+000 9.805807e-001 0.000000e+000
    outer loop
      vertex   -1.750000e+002 3.500000e+002 5.000000e+001
      vertex   -1.850000e+002 3.500000e+002 0.000000e+000
      vertex   -1.850000e+002 3.500000e+002 5.000000e+001
    endloop
  endfacet
  facet normal 0.000000e+000 1.000000e+000 -0.000000e+000
    outer loop
      vertex   -1.750000e+002 3.500000e+002 5.000000e+001
      vertex   -1.850000e+002 3.500000e+002 5.000000e+001
      vertex   -1.750000e+002 3.500000e+002 1.000000e+002
    endloop
  endfacet
  facet normal 0.000000e+000 9.805807e-001 0.000000e+000
    outer loop
      vertex   -1.750000e+002 3.500000e+002 1.000000e+002
      vertex   -1.850000e+002 3.500000e+002 5.000000e+001
      vertex   -1.850000e+002 3.500000e+002 1.000000e+002
    endloop
  endfacet
  facet normal 1.000000e+000 0.000000e+000 0.000000e+000
    outer loop
      vertex   -1.750000e+002 2.900000e+002 0.000000e+000
      vertex   -1.750000e+002 3.200000e+002 0.000000e+000
      vertex   -1.750000e+002 2.900000e+002 5.000000e+001
    endloop
  endfacet
  facet normal 8.574929e-001 -0.000000e+000 0.000000e+000
    outer loop
      vertex   -1.750000e+002 2.900000e+002 5.000000e+001
      vertex   -1.750000e+002 3.200000e+002 0.000000e+000
      vertex   -1.750000e+002 3.500000e+002 5.000000e+001
    endloop
  endfacet
  facet normal 8.574929e-001 0.000000e+000 0.000000e+000
    outer loop
      vertex   -1.750000e+002 2.900000e+002 5.000000e+001
      vertex   -1.750000e+002 3.500000e+002 5.000000e+001
      vertex   -1.750000e+002 3.200000e+002 1.000000e+002
    endloop
  endfacet
  facet normal 8.574929e-001 -0.000000e+000 0.000000e+000
    outer loop
      vertex   -1.750000e+002 3.200000e+002 1.000000e+002
      vertex   -1.750000e+002 3.500000e+002 5.000000e+001
      vertex   -1.750000e+002 3.500000e+002 1.000000e+002
    endloop
  endfacet
  facet normal 8.574929e-001 0.000000e+000 0.000000e+000
    outer loop
      vertex   -1.750000e+002 3.200000e+002 0.000000e+000
      vertex   -1.750000e+002 3.500000e+002 0.000000e+000
      vertex   -1.750000e+002 3.500000e+002 5.000000e+001
    endloop
  endfacet
  facet normal 8.574929e-001 0.000000e+000 0.000000e+000
    outer loop
      vertex   -1.750000e+002 3.200000e+002 1.000000e+002
      vertex   -1.750000e+002 2.900000e+002 1.000000e+002
      vertex   -1.750000e+002 2.900000e+002 5.000000e+001
    endloop
  endfacet
  facet normal 0.000000e+000 -1.000000e+000 0.000000e+000
    outer loop
      vertex   -1.950000e+002 2.900000e+002 3.552714e-014
      vertex   -1.750000e+002 2.900000e+002 0.000000e+000
      vertex   -1.950000e+002 2.900000e+002 5.000000e+001
    endloop
  endfacet
  facet normal 0.000000e+000 -9.284767e-001 0.000000e+000
    outer loop
      vertex   -1.950000e+002 2.900000e+002 5.000000e+001
      vertex   -1.750000e+002 2.900000e+002 0.000000e+000
      vertex   -1.750000e+002 2.900000e+002 5.000000e+001
    endloop
  endfacet
  facet normal 0.000000e+000 -1.000000e+000 0.000000e+000
    outer loop
      vertex   -1.950000e+002 2.900000e+002 5.000000e+001
      vertex   -1.750000e+002 2.900000e+002 5.000000e+001
      vertex   -1.950000e+002 2.900000e+002 1.000000e+002
    endloop
  endfacet
  facet normal 0.000000e+000 -9.284767e-001 0.000000e+000
    outer loop
      vertex   -1.950000e+002 2.900000e+002 1.000000e+002
      vertex   -1.750000e+002 2.900000e+002 5.000000e+001
      vertex   -1.750000e+002 2.900000e+002 1.000000e+002
    endloop
  endfacet
  facet normal 1.000000e+000 0.000000e+000 0.000000e+000
    outer loop
      vertex   -1.950000e+002 2.900000e+002 1.000000e+002
      vertex   -1.950000e+002 2.650000e+002 1.000000e+002
      vertex   -1.950000e+002 2.900000e+002 5.000000e+001
    endloop
  endfacet
  facet normal 8.944272e-001 0.000000e+000 0.000000e+000
    outer loop
      vertex   -1.950000e+002 2.900000e+002 5.000000e+001
      vertex   -1.950000e+002 2.650000e+002 1.000000e+002
      vertex   -1.950000e+002 2.650000e+002 5.000000e+001
    endloop
  endfacet
  facet normal 1.000000e+000 0.000000e+000 0.000000e+000
    outer loop
      vertex   -1.950000e+002 2.900000e+002 5.000000e+001
      vertex   -1.950000e+002 2.650000e+002 5.000000e+001
      vertex   -1.950000e+002 2.900000e+002 3.552714e-014
    endloop
  endfacet
  facet normal 8.944272e-001 0.000000e+000 0.000000e+000
    outer loop
      vertex   -1.950000e+002 2.900000e+002 3.552714e-014
      vertex   -1.950000e+002 2.650000e+002 5.000000e+001
      vertex   -1.950000e+002 2.650000e+002 3.552714e-014
    endloop
  endfacet
  facet normal 0.000000e+000 0.000000e+000 7.071068e-001
    outer loop
      vertex   -1.950000e+002 2.900000e+002 1.000000e+002
      vertex   -2.050000e+002 3.000000e+002 1.000000e+002
      vertex   -1.950000e+002 2.650000e+002 1.000000e+002
    endloop
  endfacet
  facet normal 0.000000e+000 0.000000e+000 7.619393e-001
    outer loop
      vertex   -1.950000e+002 2.650000e+002 1.000000e+002
      vertex   -2.050000e+002 3.000000e+002 1.000000e+002
      vertex   -2.050000e+002 2.500000e+002 1.000000e+002
    endloop
  endfacet
  facet normal 0.000000e+000 0.000000e+000 9.647638e-001
    outer loop
      vertex   -1.950000e+002 2.650000e+002 1.000000e+002
      vertex   -2.050000e+002 2.500000e+002 1.000000e+002
      vertex   -1.500000e+002 2.500000e+002 1.000000e+002
    endloop
  endfacet
  facet normal -0.000000e+000 0.000000e+000 7.071068e-001
    outer loop
      vertex   -2.050000e+002 3.000000e+002 1.000000e+002
      vertex   -1.950000e+002 2.900000e+002 1.000000e+002
      vertex   -1.850000e+002 3.000000e+002 1.000000e+002
    endloop
  endfacet
  facet normal 0.000000e+000 0.000000e+000 1.000000e+000
    outer loop
      vertex   -1.850000e+002 3.000000e+002 1.000000e+002
      vertex   -1.950000e+002 2.900000e+002 1.000000e+002
      vertex   -1.750000e+002 2.900000e+002 1.000000e+002
    endloop
  endfacet
  facet normal -0.000000e+000 0.000000e+000 9.486833e-001
    outer loop
      vertex   -1.850000e+002 3.000000e+002 1.000000e+002
      vertex   -1.750000e+002 2.900000e+002 1.000000e+002
      vertex   -1.750000e+002 3.200000e+002 1.000000e+002
    endloop
  endfacet
  facet normal 0.000000e+000 0.000000e+000 1.000000e+000
    outer loop
      vertex   -1.750000e+002 3.500000e+002 1.000000e+002
      vertex   -1.850000e+002 3.500000e+002 1.000000e+002
      vertex   -1.750000e+002 3.200000e+002 1.000000e+002
    endloop
  endfacet
  facet normal 0.000000e+000 0.000000e+000 7.071068e-001
    outer loop
      vertex   -1.750000e+002 3.200000e+002 1.000000e+002
      vertex   -1.850000e+002 3.500000e+002 1.000000e+002
      vertex   -1.850000e+002 3.000000e+002 1.000000e+002
    endloop
  endfacet
  facet normal 0.000000e+000 0.000000e+000 1.000000e+000
    outer loop
      vertex   -1.500000e+002 2.498040e+002 1.000000e+002
      vertex   -1.350000e+002 2.498040e+002 1.000000e+002
      vertex   -1.500000e+002 2.500000e+002 1.000000e+002
    endloop
  endfacet
  facet normal -0.000000e+000 0.000000e+000 9.999146e-001
    outer loop
      vertex   -1.500000e+002 2.500000e+002 1.000000e+002
      vertex   -1.350000e+002 2.498040e+002 1.000000e+002
      vertex   -1.500000e+002 2.650000e+002 1.000000e+002
    endloop
  endfacet
  facet normal 0.000000e+000 -0.000000e+000 9.486833e-001
    outer loop
      vertex   -1.500000e+002 2.500000e+002 1.000000e+002
      vertex   -1.500000e+002 2.650000e+002 1.000000e+002
      vertex   -1.950000e+002 2.650000e+002 1.000000e+002
    endloop
  endfacet
  facet normal 0.000000e+000 -0.000000e+000 7.025023e-001
    outer loop
      vertex   -1.350000e+002 2.498040e+002 1.000000e+002
      vertex   -1.350000e+002 2.999020e+002 1.000000e+002
      vertex   -1.500000e+002 2.650000e+002 1.000000e+002
    endloop
  endfacet
  facet normal 0.000000e+000 0.000000e+000 3.948531e-001
    outer loop
      vertex   -1.500000e+002 2.650000e+002 1.000000e+002
      vertex   -1.350000e+002 2.999020e+002 1.000000e+002
      vertex   -1.500000e+002 3.075000e+002 1.000000e+002
    endloop
  endfacet
  facet normal -0.000000e+000 0.000000e+000 9.916179e-001
    outer loop
      vertex   -1.500000e+002 3.075000e+002 1.000000e+002
      vertex   -1.350000e+002 2.999020e+002 1.000000e+002
      vertex   -1.350000e+002 3.500000e+002 1.000000e+002
    endloop
  endfacet
  facet normal 0.000000e+000 0.000000e+000 3.328201e-001
    outer loop
      vertex   -1.500000e+002 3.075000e+002 1.000000e+002
      vertex   -1.350000e+002 3.500000e+002 1.000000e+002
      vertex   -1.500000e+002 3.500000e+002 1.000000e+002
    endloop
  endfacet
  facet normal 0.000000e+000 0.000000e+000 -2.747211e-001
    outer loop
      vertex   -1.950000e+002 2.650000e+002 3.552714e-014
      vertex   -2.050000e+002 3.000000e+002 3.552714e-014
      vertex   -1.950000e+002 2.900000e+002 3.552714e-014
    endloop
  endfacet
  facet normal -1.776357e-015 -1.776357e-015 -1.000000e+000
    outer loop
      vertex   -1.950000e+002 2.900000e+002 3.552714e-014
      vertex   -2.050000e+002 3.000000e+002 3.552714e-014
      vertex   -1.850000e+002 3.000000e+002 0.000000e+000
    endloop
  endfacet
  facet normal -1.256074e-015 -1.256074e-015 -7.071068e-001
    outer loop
      vertex   -1.950000e+002 2.900000e+002 3.552714e-014
      vertex   -1.850000e+002 3.000000e+002 0.000000e+000
      vertex   -1.750000e+002 2.900000e+002 0.000000e+000
    endloop
  endfacet
  facet normal 0.000000e+000 0.000000e+000 -7.071068e-001
    outer loop
      vertex   -1.750000e+002 2.900000e+002 0.000000e+000
      vertex   -1.850000e+002 3.000000e+002 0.000000e+000
      vertex   -1.750000e+002 3.200000e+002 0.000000e+000
    endloop
  endfacet
  facet normal -0.000000e+000 0.000000e+000 -7.071068e-001
    outer loop
      vertex   -1.750000e+002 3.200000e+002 0.000000e+000
      vertex   -1.850000e+002 3.000000e+002 0.000000e+000
      vertex   -1.850000e+002 3.500000e+002 0.000000e+000
    endloop
  endfacet
  facet normal 0.000000e+000 0.000000e+000 -3.162278e-001
    outer loop
      vertex   -1.750000e+002 3.200000e+002 0.000000e+000
      vertex   -1.850000e+002 3.500000e+002 0.000000e+000
      vertex   -1.750000e+002 3.500000e+002 0.000000e+000
    endloop
  endfacet
  facet normal -7.894919e-016 -0.000000e+000 -1.000000e+000
    outer loop
      vertex   -1.500000e+002 2.650000e+002 0.000000e+000
      vertex   -1.500000e+002 2.500000e+002 0.000000e+000
      vertex   -1.950000e+002 2.650000e+002 3.552714e-014
    endloop
  endfacet
  facet normal -1.246374e-015 -1.454103e-015 -9.647638e-001
    outer loop
      vertex   -1.950000e+002 2.650000e+002 3.552714e-014
      vertex   -1.500000e+002 2.500000e+002 0.000000e+000
      vertex   -2.050000e+002 2.500000e+002 7.105427e-014
    endloop
  endfacet
  facet normal -1.894866e-015 -5.413904e-016 -7.619393e-001
    outer loop
      vertex   -1.950000e+002 2.650000e+002 3.552714e-014
      vertex   -2.050000e+002 2.500000e+002 7.105427e-014
      vertex   -2.050000e+002 3.000000e+002 3.552714e-014
    endloop
  endfacet
  facet normal 0.000000e+000 0.000000e+000 -8.920839e-001
    outer loop
      vertex   -1.500000e+002 3.075000e+002 0.000000e+000
      vertex   -1.350000e+002 2.999020e+002 0.000000e+000
      vertex   -1.500000e+002 2.650000e+002 0.000000e+000
    endloop
  endfacet
  facet normal 0.000000e+000 0.000000e+000 -9.264295e-001
    outer loop
      vertex   -1.500000e+002 2.650000e+002 0.000000e+000
      vertex   -1.350000e+002 2.999020e+002 0.000000e+000
      vertex   -1.350000e+002 2.498040e+002 0.000000e+000
    endloop
  endfacet
  facet normal 0.000000e+000 0.000000e+000 -7.025023e-001
    outer loop
      vertex   -1.500000e+002 2.650000e+002 0.000000e+000
      vertex   -1.350000e+002 2.498040e+002 0.000000e+000
      vertex   -1.500000e+002 2.500000e+002 0.000000e+000
    endloop
  endfacet
  facet normal 0.000000e+000 0.000000e+000 -9.999146e-001
    outer loop
      vertex   -1.500000e+002 2.500000e+002 0.000000e+000
      vertex   -1.350000e+002 2.498040e+002 0.000000e+000
      vertex   -1.500000e+002 2.498040e+002 0.000000e+000
    endloop
  endfacet
  facet normal 0.000000e+000 0.000000e+000 -1.000000e+000
    outer loop
      vertex   -1.500000e+002 3.500000e+002 0.000000e+000
      vertex   -1.350000e+002 3.500000e+002 0.000000e+000
      vertex   -1.500000e+002 3.075000e+002 0.000000e+000
    endloop
  endfacet
  facet normal 0.000000e+000 0.000000e+000 -9.916179e-001
    outer loop
      vertex   -1.500000e+002 3.075000e+002 0.000000e+000
      vertex   -1.350000e+002 3.500000e+002 0.000000e+000
      vertex   -1.350000e+002 2.999020e+002 0.000000e+000
    endloop
  endfacet
endsolid
